<svg xmlns="http://www.w3.org/2000/svg" viewBox="0 0 69.12 103.69"><defs><style>.cls-1{fill:#f2f2f2;}.cls-2{font-size:10.89px;font-family:Righteous-Regular, Righteous;}.cls-2,.cls-3{fill:#333;}.cls-4{fill:#4d4d4d;}.cls-5{fill:#aa292e;}.cls-6{fill:#0b050f;}.cls-7{fill:#ad6e2d;}.cls-8{fill:#1f2d6c;}.cls-9{fill:#3856c8;}.cls-10{fill:#bf9b4d;}.cls-11{fill:#e8efff;}.cls-12{fill:#c9d8f7;}.cls-13{fill:#715c57;}.cls-14{fill:#aa7941;}.cls-15{fill:#dce3f2;}.cls-16{fill:#d28537;}.cls-17{fill:#a86b2c;}.cls-18{fill:#b3712e;}.cls-19{fill:#b87530;}.cls-20{fill:#bd7831;}.cls-21{fill:#2a3757;}</style></defs><title>clover_J</title><g id="Layer_2" data-name="Layer 2"><g id="Layer_1-2" data-name="Layer 1"><rect class="cls-1" width="69.12" height="103.69" rx="2.72" ry="2.72"/><text class="cls-2" transform="translate(5.14 10.68)">J</text><text class="cls-2" transform="translate(63.98 93.01) rotate(180)">J</text><path class="cls-3" d="M57.79,86.92a1.79,1.79,0,0,1,2.15-1.73,2,2,0,0,1,1.28.83c.31.38.39.13.35-.12a2.38,2.38,0,0,0-1.71-2.12c-.1,0-.51-.13-.14-.13h3.92c.37,0,0,.1-.14.13a2.36,2.36,0,0,0-1.7,2.12c0,.25,0,.5.34.12a2,2,0,0,1,1.28-.83,1.79,1.79,0,0,1,2.16,1.73h0A1.72,1.72,0,0,1,64,88.7c-.07,0-.5-.1-.64,0s.08.33.1.77h0A1.58,1.58,0,0,1,62,91.18h0l-.25,0-.29,0h0a1.58,1.58,0,0,1-1.47-1.68h0c0-.44.29-.58.1-.77s-.57,0-.63,0a1.71,1.71,0,0,1-1.62-1.77Z"/><path class="cls-4" d="M61.69,91.2h0l.25,0h0a1.58,1.58,0,0,0,1.47-1.68h0c0-.44-.29-.58-.1-.77s.57,0,.64,0a1.72,1.72,0,0,0,1.62-1.77h0a1.79,1.79,0,0,0-2.16-1.73,2,2,0,0,0-1.28.83c-.31.38-.39.13-.34-.12a2.36,2.36,0,0,1,1.7-2.12c.1,0,.51-.13.14-.13h-2Z"/><path class="cls-3" d="M11.25,16.76A1.8,1.8,0,0,1,9.1,18.5a2,2,0,0,1-1.28-.83c-.31-.38-.39-.14-.35.12a2.39,2.39,0,0,0,1.71,2.12c.1,0,.51.12.13.12H5.4c-.38,0,0-.09.14-.12a2.38,2.38,0,0,0,1.7-2.12c0-.26,0-.5-.34-.12a2.09,2.09,0,0,1-1.29.83,1.8,1.8,0,0,1-2.15-1.74h0A1.71,1.71,0,0,1,5.08,15c.06,0,.5.1.63,0s-.08-.33-.1-.76h0A1.59,1.59,0,0,1,7.09,12.5h0l.25,0a1.31,1.31,0,0,1,.29,0h0A1.59,1.59,0,0,1,9.1,14.19h0c0,.43-.29.57-.1.76s.57,0,.63,0a1.71,1.71,0,0,1,1.62,1.77Z"/><path class="cls-4" d="M7.35,12.48h0l-.25,0h0a1.59,1.59,0,0,0-1.48,1.69h0c0,.43.3.57.1.76s-.57,0-.63,0a1.71,1.71,0,0,0-1.62,1.77h0A1.8,1.8,0,0,0,5.61,18.5a2.09,2.09,0,0,0,1.29-.83c.31-.38.38-.14.34.12a2.38,2.38,0,0,1-1.7,2.12c-.1,0-.52.12-.14.12H7.35Z"/><path class="cls-3" d="M19,73.51a20.33,20.33,0,0,1-7.19-5.11V63.79H19Z"/><path class="cls-3" d="M22,16.68l-3.85-5s7.52-5,9-5.08,18.67,5.21,18.67,5.21L42,18Z"/><path class="cls-5" d="M42,10.63s-2.13,6.8-2.68,7.26-3.34-.84-3.34-.84,2.15-2.13,3.22-7.26Z"/><path class="cls-3" d="M11.83,61.5V35.63a14.63,14.63,0,0,1,9.78-4.76S21.73,57.07,11.83,61.5Z"/><rect class="cls-6" x="30.92" y="32.29" width="3.33" height="6.11"/><rect class="cls-6" x="24.25" y="30.18" width="3.33" height="6.11"/><rect class="cls-5" x="34.27" y="29.86" width="3.33" height="6.11"/><rect class="cls-5" x="27.59" y="31.86" width="3.33" height="6.11"/><rect class="cls-6" x="37.49" y="28.02" width="3.33" height="6.11"/><rect class="cls-5" x="40.85" y="27.9" width="3.33" height="3.8"/><polygon class="cls-7" points="24.27 28.01 25.04 30.73 22.48 30.87 24.27 28.01"/><path class="cls-6" d="M20.71,31s1.17,17.11-8.88,30.53c0,1.18,0,1.78,0,1.78s5.91-2.78,9.28-14.51S23,31,23,31Z"/><path class="cls-8" d="M22.25,31.35s.31,11.26-2.47,18-4.71,11.35-8,13.89V68.4S21,59.57,24,49.62A58.69,58.69,0,0,0,26.39,31Z"/><path class="cls-5" d="M22.08,31.05c0,.42.86.77,1.92.77s1.91-.35,1.91-.77-.86-.76-1.91-.76S22.08,30.63,22.08,31.05Z"/><path class="cls-5" d="M22.22,32.73c0,.42.8.8,1.84.85S26,33.34,26,32.93s-.8-.79-1.84-.85S22.25,32.32,22.22,32.73Z"/><path class="cls-5" d="M22.25,34.67c0,.4.74.82,1.75.93s1.87-.13,1.91-.54-.74-.82-1.75-.93S22.3,34.27,22.25,34.67Z"/><path class="cls-5" d="M22.16,36.82c-.06.39.69.84,1.68,1s1.84,0,1.9-.42-.68-.85-1.67-1S22.23,36.42,22.16,36.82Z"/><path class="cls-5" d="M22,39.14c-.08.39.63.87,1.59,1.09s1.82.08,1.91-.3-.63-.88-1.59-1.09S22,38.75,22,39.14Z"/><path class="cls-5" d="M21.62,41.59c-.11.38.56.91,1.5,1.18s1.8.19,1.9-.19-.56-.9-1.5-1.17S21.73,41.22,21.62,41.59Z"/><path class="cls-5" d="M21.14,44.14c-.13.37.51.93,1.43,1.26s1.77.29,1.9-.07S24,44.4,23,44.07,21.28,43.78,21.14,44.14Z"/><path class="cls-5" d="M20.53,46.74c-.15.36.45,1,1.35,1.34s1.74.4,1.89,0-.44-.95-1.34-1.33S20.69,46.39,20.53,46.74Z"/><path class="cls-5" d="M19.78,49.36c-.17.35.39,1,1.26,1.42s1.72.51,1.9.16-.4-1-1.27-1.42S20,49,19.78,49.36Z"/><path class="cls-5" d="M18.88,52c-.2.34.33,1,1.18,1.5s1.69.61,1.89.27-.33-1-1.18-1.5S19.07,51.61,18.88,52Z"/><path class="cls-5" d="M17.82,54.47c-.22.33.27,1,1.1,1.58s1.67.72,1.89.39-.28-1-1.1-1.58S18,54.14,17.82,54.47Z"/><path class="cls-5" d="M16.6,56.89c-.24.32.22,1.07,1,1.66s1.65.83,1.89.51-.22-1.07-1-1.67S16.84,56.57,16.6,56.89Z"/><path class="cls-5" d="M15.22,59.16c-.26.31.16,1.09.94,1.75s1.62.93,1.88.62-.16-1.09-.94-1.75S15.48,58.85,15.22,59.16Z"/><path class="cls-5" d="M13.67,61.25c-.29.3.1,1.12.85,1.83s1.6,1,1.88.73-.1-1.12-.85-1.83S14,61,13.67,61.25Z"/><path class="cls-5" d="M11.94,63.11c-.31.29,0,1.15.77,1.91s1.58,1.14,1.88.85,0-1.15-.77-1.91S12.24,62.82,11.94,63.11Z"/><rect class="cls-9" x="31.14" y="40.09" width="5.29" height="5.85"/><polygon class="cls-10" points="36.21 45.7 31.14 45.7 31.14 51 36.21 45.7"/><rect class="cls-10" x="31.05" y="40.9" width="5.33" height="4.34"/><polygon class="cls-10" points="36.39 40.52 31.14 40.52 31.14 39.1 36.39 35.93 36.39 40.52"/><path class="cls-3" d="M30.12,51.51l.2-12.32L26,36.74s-.85,10.2-1.88,12S30.12,51.51,30.12,51.51Z"/><polygon class="cls-11" points="30.05 51.55 31.34 50.91 31.34 38.3 30.05 38.3 30.05 51.55"/><polygon class="cls-6" points="29.63 52.03 30.92 51.39 30.92 38.78 29.63 38.78 29.63 52.03"/><path class="cls-6" d="M21.2,56.3a35,35,0,0,1,1.72-3.18,17.52,17.52,0,0,0,1.82-5.42h.08a6.33,6.33,0,0,1,5.88,4,5,5,0,0,1-.64.66c-.44.38-1,.67-1.42,1-1.13.86-2,2-3.24,2.72a20.69,20.69,0,0,1-3,1.22,10.13,10.13,0,0,1-1.32.42l-.41-.06C20.88,57.21,21,56.74,21.2,56.3Z"/><path class="cls-10" d="M21.2,56.3a35,35,0,0,1,1.72-3.18,18.16,18.16,0,0,0,1.74-4.92h.16a5.81,5.81,0,0,1,5.5,3.91,3.08,3.08,0,0,1-.26.24c-.44.38-1,.67-1.42,1-1.13.86-2,2-3.24,2.72a20.69,20.69,0,0,1-3,1.22,10.13,10.13,0,0,1-1.32.42l-.41-.06C20.88,57.21,21,56.74,21.2,56.3Z"/><path class="cls-9" d="M22.92,53.12A18.08,18.08,0,0,0,23.86,51a3.38,3.38,0,0,1,1-.15A3.16,3.16,0,0,1,28,53.93a13.27,13.27,0,0,1-2.57,2.16,16.16,16.16,0,0,1-1.86.82A3.14,3.14,0,0,1,21.83,55C22.19,54.39,22.59,53.76,22.92,53.12Z"/><polygon class="cls-3" points="42.67 41.56 37.49 44.55 37.23 34.91 42.67 31.91 42.67 41.56"/><rect class="cls-11" x="36.21" y="35.35" width="1.29" height="9.76"/><path class="cls-12" d="M47.6,29a15,15,0,0,0-4.53-1.57l-.28,14s3.53-1.31,5.12-1.25Z"/><polygon class="cls-13" points="47.6 28.98 48.4 29.29 48.4 40.05 47.6 40.05 47.6 28.98"/><path class="cls-6" d="M48.4,29.29a9.8,9.8,0,0,1,1.7.89V39.9H48.4Z"/><path class="cls-3" d="M50.1,30.18a20.17,20.17,0,0,1,7.19,5.11V39.9H50.1Z"/><rect class="cls-6" x="36.68" y="34.91" width="1.29" height="9.76"/><rect class="cls-13" x="42.27" y="27.41" width="0.8" height="13.71"/><path class="cls-14" d="M21.76,57.9a5.36,5.36,0,0,0,1.91-.39c2.62-1,5.83-3.73,9.53-8.13C37.66,44.08,42,42,44.93,41.14a23.44,23.44,0,0,1,6.7-.73l.15-.87a24.25,24.25,0,0,0-7,.74c-3,.86-7.59,3-12.21,8.53C24.21,58.7,21,56.9,21,56.88l-.49.73A2.27,2.27,0,0,0,21.76,57.9Z"/><path class="cls-11" d="M42.27,31.36s-10.72,7-11.73,7-4.05-2.13-4.05-2.13v1.24a32.17,32.17,0,0,0,4.14,2.44c.48,0,11.64-7.24,11.64-7.24Z"/><path class="cls-10" d="M41.07,28s-9,6.66-10.34,6.66-5-3.33-5-3.33Z"/><path class="cls-10" d="M42.27,30.51s-10.72,7.11-11.73,7.11-4.05-2.4-4.05-2.4v1.2a32.4,32.4,0,0,0,4.14,2.37c.48,0,11.64-7,11.64-7Z"/><path class="cls-14" d="M26.79,31.83s0,11.31-2.62,18.76-9.3,18-11.26,18.9L11.83,68.4S16.51,64.54,23.21,50C25,42.87,25,46,25.86,31.36S26.79,31.83,26.79,31.83Z"/><path class="cls-15" d="M35.12,30.51s-3.71,2.72-4.49,2.72-2.47-1.53-2.47-1.53,5.13-3.42,6.54-2.93S35.12,30.51,35.12,30.51Z"/><path class="cls-16" d="M24.8,17.15s-1.74,1.74-1.3,6.27.83,9.07-2.49,7.69-.45-4.92,1.55-3.06c0,0,0-2.23-.3-5.17S22.18,17.13,24.8,17.15Z"/><path class="cls-11" d="M23.05,17.89s-.48,2.72,0,3.28,0,1.41,0,2.08-.73,6.25,3.09,8.27,3.51-.77,8.2-2.54c0,0,.73-10.91-2.46-11.81C31.88,17.17,25.52,16.62,23.05,17.89Z"/><path class="cls-17" d="M38.66,18.59s1.24,1,1.24,4,1.54,6.05,3.59,4.94,0-3.2-1.2-1.87c0,0-.13-1.44-.13-3.36S41.09,18.11,38.66,18.59Z"/><path class="cls-7" d="M37.49,17.9s1.43,1.17,1.43,4.59.77,7,3.15,5.73,0-3.71-1.39-2.17c0,0-.15-1.67-.15-3.88S39.44,17.69,37.49,17.9Z"/><path class="cls-18" d="M35.94,17.53a13.32,13.32,0,0,1,1.36,6.08c0,3.68,1,6.38,3.58,5s0-4-1.49-2.33c0,0-.17-1.8-.17-4.19S38,17.3,35.94,17.53Z"/><path class="cls-19" d="M34.7,17.34s1,1.63,1,5.74.82,8,3.67,6.44,0-4.44-1.66-2.6c0,0-.19-2-.19-4.66S37,17.09,34.7,17.34Z"/><path class="cls-20" d="M33.05,17.16s1.84,1.51,1.84,5.88S35,31.79,38,30.16s0-4.75-1.77-2.77c0,0-.2-2.14-.2-5S35.56,16.9,33.05,17.16Z"/><path class="cls-16" d="M31.88,17.17s1.91,1.56,1.91,6.12.07,9.1,3.23,7.4,0-4.94-1.84-2.89c0,0-.21-2.22-.21-5.18S34.48,16.89,31.88,17.17Z"/><path class="cls-3" d="M41.51,19.8s-7.18-4-18.84-1.43L22,16.68A27.77,27.77,0,0,1,42,18Z"/><path class="cls-16" d="M26,20.8a3.86,3.86,0,0,0-.48-.06,3.7,3.7,0,0,0-.49,0,3.45,3.45,0,0,0-.55,0c-.18,0-.35.09-.52.12l-.44.12a2.64,2.64,0,0,1-.42.2l0,0a2.08,2.08,0,0,1,.32-.41,3.56,3.56,0,0,1,.48-.24,3.94,3.94,0,0,1,.6,0,4.73,4.73,0,0,1,1.54.31Z"/><path class="cls-16" d="M29.16,20.77a4.73,4.73,0,0,1,1.54-.31,3.94,3.94,0,0,1,.6,0,3.56,3.56,0,0,1,.48.24,2.08,2.08,0,0,1,.32.41l0,0a2.51,2.51,0,0,1-.43-.2l-.43-.12c-.17,0-.34-.1-.52-.12a3.45,3.45,0,0,0-.55,0,3.7,3.7,0,0,0-.49,0,3.86,3.86,0,0,0-.48.06Z"/><path class="cls-21" d="M28.17,22.09a2.45,2.45,0,0,0,.52.31,1.16,1.16,0,0,0,.28.1,1.58,1.58,0,0,0,.31.09,3.44,3.44,0,0,0,1.38,0,3.38,3.38,0,0,0,.6-.11,3.67,3.67,0,0,1,.61-.09l0,0a4.21,4.21,0,0,1-.55.33,1.81,1.81,0,0,1-.62.2,2.16,2.16,0,0,1-.76,0,2.56,2.56,0,0,1-.74-.14,3.14,3.14,0,0,1-.58-.28,2.12,2.12,0,0,1-.49-.39Z"/><path class="cls-21" d="M25.88,22.12a2.31,2.31,0,0,1-.35.29,3,3,0,0,1-.41.22,2.3,2.3,0,0,1-.53.14,1.52,1.52,0,0,1-.56,0,1.13,1.13,0,0,1-.46-.14,3.54,3.54,0,0,1-.39-.26l0,0a1.94,1.94,0,0,1,.45,0,2.55,2.55,0,0,0,.43.05,1.86,1.86,0,0,0,.48,0,2,2,0,0,0,.49,0c.16-.05.3-.09.42-.14a2.06,2.06,0,0,0,.39-.21Z"/><path class="cls-21" d="M26.54,21.54a8,8,0,0,1,.06,1.29,8.27,8.27,0,0,1-.13,1.32c0,.24-.14.48-.2.73l-.33.7a.43.43,0,0,0,.06.54,1.26,1.26,0,0,0,.57.27,2.24,2.24,0,0,0,.63.05,1.3,1.3,0,0,0,.54-.13,1,1,0,0,0,.39-.26,1,1,0,0,0,.2-.31,2,2,0,0,0,.09-.34h0a2.58,2.58,0,0,1,0,.37.93.93,0,0,1-.16.4,1.14,1.14,0,0,1-.42.39,1.61,1.61,0,0,1-.64.21,2.12,2.12,0,0,1-.75,0,1.43,1.43,0,0,1-.72-.41.86.86,0,0,1-.13-.2l-.06-.24a1,1,0,0,1,.11-.44l.36-.67c.08-.23.17-.46.23-.68a8.49,8.49,0,0,0,.21-1.28,10.38,10.38,0,0,0,0-1.28Z"/><path class="cls-21" d="M29.45,28l-2.09.12a6.19,6.19,0,0,1-1.43,0,5.4,5.4,0,0,1-.65-.12v0a5.4,5.4,0,0,1,.65-.12,6.19,6.19,0,0,1,1.43,0l2.09.12Z"/><path class="cls-21" d="M27.88,29s-.37.08-.75.12a.81.81,0,0,1-.51,0,.9.9,0,0,1-.23-.12v0a.9.9,0,0,1,.23-.12.81.81,0,0,1,.51,0c.38.05.75.12.75.12Z"/><path class="cls-3" d="M47.15,87,51,92s-7.53,5-9,5.08-18.67-5.22-18.67-5.22l3.87-6.19Z"/><path class="cls-5" d="M27.16,93.05s2.13-6.8,2.68-7.25,3.35.83,3.35.83S31,88.77,30,93.89Z"/><path class="cls-3" d="M57.29,42.19V68.06a14.67,14.67,0,0,1-9.77,4.76S47.4,46.61,57.29,42.19Z"/><rect class="cls-6" x="34.88" y="65.29" width="3.33" height="6.11"/><rect class="cls-6" x="41.55" y="67.4" width="3.33" height="6.11"/><rect class="cls-5" x="31.52" y="67.71" width="3.33" height="6.11"/><rect class="cls-5" x="38.2" y="65.72" width="3.33" height="6.11"/><rect class="cls-6" x="28.3" y="69.55" width="3.33" height="6.11"/><rect class="cls-5" x="24.95" y="71.98" width="3.33" height="3.8"/><polygon class="cls-7" points="44.85 75.68 44.09 72.95 46.65 72.82 44.85 75.68"/><path class="cls-6" d="M48.41,72.72S47.24,55.6,57.29,42.19c0-1.18,0-1.78,0-1.78S51.36,43.19,48,54.91s-1.85,17.81-1.85,17.81Z"/><path class="cls-8" d="M46.87,72.34s-.31-11.27,2.47-18S54.06,43,57.29,40.44V35.29s-5,1-12.12,18.77a58.57,58.57,0,0,0-2.43,18.65Z"/><path class="cls-5" d="M47,72.63c0-.42-.86-.76-1.91-.76s-1.92.34-1.92.76.86.77,1.92.77S47,73.06,47,72.63Z"/><path class="cls-5" d="M46.9,71c0-.41-.8-.79-1.83-.84s-1.89.23-1.91.64.79.8,1.83.85S46.88,71.37,46.9,71Z"/><path class="cls-5" d="M46.87,69c0-.41-.74-.82-1.75-.93s-1.87.13-1.91.53.74.82,1.75.93S46.83,69.42,46.87,69Z"/><path class="cls-5" d="M47,66.87c.06-.4-.68-.85-1.67-1s-1.84,0-1.91.42.68.84,1.67,1S46.89,67.26,47,66.87Z"/><path class="cls-5" d="M47.17,64.55c.08-.39-.63-.88-1.59-1.09s-1.82-.09-1.9.3.62.87,1.58,1.09S47.08,64.93,47.17,64.55Z"/><path class="cls-5" d="M47.51,62.09c.11-.38-.57-.9-1.51-1.17s-1.79-.19-1.9.19.56.9,1.51,1.17S47.4,62.47,47.51,62.09Z"/><path class="cls-5" d="M48,59.54c.13-.36-.51-.92-1.43-1.25s-1.77-.3-1.9.07.51.93,1.43,1.26S47.85,59.91,48,59.54Z"/><path class="cls-5" d="M48.59,56.94c.15-.36-.45-.95-1.35-1.34s-1.74-.39-1.89,0,.45,1,1.34,1.34S48.44,57.3,48.59,56.94Z"/><path class="cls-5" d="M49.34,54.33c.18-.35-.39-1-1.26-1.42s-1.72-.51-1.89-.16.39,1,1.26,1.42S49.17,54.67,49.34,54.33Z"/><path class="cls-5" d="M50.25,51.74c.19-.34-.34-1-1.19-1.5s-1.69-.62-1.89-.28.34,1,1.18,1.5S50.05,52.08,50.25,51.74Z"/><path class="cls-5" d="M51.3,49.21c.22-.33-.27-1-1.1-1.58s-1.67-.72-1.88-.39.27,1,1.1,1.58S51.09,49.54,51.3,49.21Z"/><path class="cls-5" d="M52.52,46.8c.24-.33-.22-1.07-1-1.67s-1.64-.82-1.88-.5.21,1.06,1,1.66S52.28,47.12,52.52,46.8Z"/><path class="cls-5" d="M53.9,44.52c.26-.31-.15-1.09-.93-1.74s-1.63-.93-1.89-.62.16,1.09.94,1.74S53.64,44.84,53.9,44.52Z"/><path class="cls-5" d="M55.46,42.44c.28-.31-.1-1.12-.86-1.83s-1.6-1-1.88-.73.1,1.11.86,1.82S55.17,42.74,55.46,42.44Z"/><path class="cls-5" d="M57.18,40.58c.31-.3,0-1.15-.77-1.91s-1.57-1.15-1.88-.85,0,1.14.78,1.91S56.88,40.87,57.18,40.58Z"/><rect class="cls-9" x="32.69" y="57.74" width="5.29" height="5.85"/><polygon class="cls-10" points="32.92 57.99 37.98 57.99 37.98 52.68 32.92 57.99"/><rect class="cls-10" x="32.73" y="58.44" width="5.33" height="4.34"/><polygon class="cls-10" points="32.73 63.17 37.98 63.17 37.98 64.59 32.73 67.76 32.73 63.17"/><path class="cls-3" d="M39,52.18l-.2,12.31L43.14,67S44,56.74,45,54.91,39,52.18,39,52.18Z"/><polygon class="cls-11" points="39.08 52.14 37.79 52.78 37.79 65.38 39.08 65.38 39.08 52.14"/><polygon class="cls-6" points="39.49 51.66 38.2 52.3 38.2 64.9 39.49 64.9 39.49 51.66"/><path class="cls-6" d="M47.93,47.38c-.44,1.1-1.18,2.13-1.73,3.18A17.67,17.67,0,0,0,44.38,56H44.3a6.32,6.32,0,0,1-5.88-4,6.58,6.58,0,0,1,.64-.66c.44-.37,1-.67,1.43-1,1.12-.86,2-2,3.23-2.72a22.52,22.52,0,0,1,3-1.23A11.92,11.92,0,0,1,48,46l.41.06C48.24,46.47,48.1,47,47.93,47.38Z"/><path class="cls-10" d="M47.93,47.38c-.44,1.1-1.18,2.13-1.73,3.18a18,18,0,0,0-1.73,4.93H44.3a5.83,5.83,0,0,1-5.5-3.9,2.06,2.06,0,0,1,.26-.25c.44-.37,1-.67,1.43-1,1.12-.86,2-2,3.23-2.72a22.52,22.52,0,0,1,3-1.23A11.92,11.92,0,0,1,48,46l.41.06C48.24,46.47,48.1,47,47.93,47.38Z"/><path class="cls-9" d="M46.2,50.56a19.7,19.7,0,0,0-.94,2.11,3,3,0,0,1-1,.15,3.15,3.15,0,0,1-3.15-3.06,13.58,13.58,0,0,1,2.57-2.16,16.16,16.16,0,0,1,1.86-.82,3.14,3.14,0,0,1,1.72,1.88C46.93,49.3,46.53,49.92,46.2,50.56Z"/><polygon class="cls-3" points="26.45 62.12 31.63 59.13 31.89 68.78 26.45 71.77 26.45 62.12"/><rect class="cls-11" x="31.63" y="58.58" width="1.29" height="9.76"/><path class="cls-12" d="M21.53,74.71a14.83,14.83,0,0,0,4.52,1.57l.28-14s-3.53,1.31-5.11,1.24Z"/><polygon class="cls-13" points="21.52 74.7 20.72 74.4 20.72 63.64 21.52 63.64 21.52 74.7"/><path class="cls-6" d="M20.72,74.4a9.8,9.8,0,0,1-1.7-.89V63.79h1.7Z"/><rect class="cls-6" x="31.15" y="59.02" width="1.29" height="9.76"/><rect class="cls-13" x="26.05" y="62.56" width="0.8" height="13.71"/><path class="cls-14" d="M47.36,45.78a5.5,5.5,0,0,0-1.91.4c-2.62,1-5.82,3.73-9.53,8.13-4.45,5.3-8.84,7.4-11.73,8.24a18.75,18.75,0,0,1-6.54.48l-.16.86a19.1,19.1,0,0,0,6.89-.48c3-.87,7.59-3,12.22-8.54C44.91,45,48.08,46.79,48.11,46.8l.5-.72A2.28,2.28,0,0,0,47.36,45.78Z"/><path class="cls-11" d="M26.85,72.33s10.72-7,11.73-7,4.05,2.12,4.05,2.12V66.23S39,63.79,38.49,63.79,26.85,71,26.85,71Z"/><path class="cls-10" d="M28.05,75.68S37.11,69,38.39,69s5,3.33,5,3.33Z"/><path class="cls-10" d="M26.85,73.18s10.72-7.11,11.73-7.11,4.05,2.39,4.05,2.39V67.27a31.72,31.72,0,0,0-4.14-2.37c-.48,0-11.64,7-11.64,7Z"/><path class="cls-14" d="M42.34,71.86s0-11.31,2.62-18.77,8.69-17.83,11.4-18.76l.93,1C55,36.47,47.33,48,45.91,53.64c-1.75,7.17-1.81,4.07-2.65,18.69S42.34,71.86,42.34,71.86Z"/><path class="cls-15" d="M34,73.18s3.71-2.73,4.5-2.73S41,72,41,72s-5.13,3.42-6.53,2.94S34,73.18,34,73.18Z"/><path class="cls-16" d="M44.32,86.54s1.75-1.75,1.3-6.28-.82-9.06,2.49-7.68.45,4.91-1.55,3c0,0,0,2.23.3,5.17S46.94,86.56,44.32,86.54Z"/><path class="cls-11" d="M46.07,85.8s.49-2.72,0-3.28,0-1.42,0-2.08.73-6.26-3.09-8.27-3.51.77-8.2,2.54c0,0-.73,10.9,2.47,11.81C37.25,86.52,43.6,87.06,46.07,85.8Z"/><path class="cls-17" d="M30.46,85.1s-1.24-1-1.24-4-1.53-6-3.59-4.94,0,3.21,1.2,1.87c0,0,.14,1.45.14,3.37S28,85.58,30.46,85.1Z"/><path class="cls-7" d="M31.64,85.79s-1.44-1.18-1.44-4.6-.77-7-3.14-5.73,0,3.71,1.38,2.17c0,0,.16,1.67.16,3.89S29.68,86,31.64,85.79Z"/><path class="cls-18" d="M33.19,86.16a13.32,13.32,0,0,1-1.36-6.08c0-3.68-1-6.39-3.59-5s0,4,1.49,2.33c0,0,.17,1.8.17,4.18S31.08,86.38,33.19,86.16Z"/><path class="cls-19" d="M34.43,86.34s-1-1.63-1-5.73-.82-8-3.67-6.44,0,4.44,1.66,2.59c0,0,.19,2,.19,4.67S32.08,86.59,34.43,86.34Z"/><path class="cls-20" d="M36.07,86.52s-1.84-1.5-1.84-5.88-.07-8.75-3.11-7.11,0,4.74,1.78,2.77c0,0,.2,2.14.2,5S33.56,86.79,36.07,86.52Z"/><path class="cls-16" d="M37.25,86.52S35.33,85,35.33,80.4s-.07-9.1-3.23-7.4,0,4.93,1.84,2.88c0,0,.21,2.23.21,5.18S34.64,86.79,37.25,86.52Z"/><path class="cls-3" d="M27.61,83.88s7.18,4,18.85,1.44L47.15,87a27.7,27.7,0,0,1-20-1.32Z"/><path class="cls-16" d="M43.16,82.89l.47.06.49,0a3.44,3.44,0,0,0,.55,0c.19,0,.36-.09.52-.11a2.64,2.64,0,0,1,.44-.12,2.51,2.51,0,0,1,.43-.2l0,0a1.67,1.67,0,0,1-.31.42,3.22,3.22,0,0,1-.49.23,3,3,0,0,1-.6,0,4.85,4.85,0,0,1-1.53-.3Z"/><path class="cls-16" d="M40,82.92a4.87,4.87,0,0,1-1.54.3,3,3,0,0,1-.6,0,3.08,3.08,0,0,1-.48-.23,1.94,1.94,0,0,1-.32-.42l0,0a2.51,2.51,0,0,1,.43.2,2.82,2.82,0,0,1,.43.12c.17,0,.34.09.53.11A3.38,3.38,0,0,0,39,83l.48,0,.48-.06Z"/><path class="cls-21" d="M41,81.59a2.45,2.45,0,0,0-.52-.31c-.08,0-.18-.06-.28-.1a1.27,1.27,0,0,0-.31-.08,2.25,2.25,0,0,0-.69-.07,2.48,2.48,0,0,0-.68.09,4.4,4.4,0,0,0-.6.1,4.63,4.63,0,0,1-.62.1v0a3.32,3.32,0,0,1,.54-.33,1.61,1.61,0,0,1,.63-.2,2.36,2.36,0,0,1,.75,0,3,3,0,0,1,.74.15,3.25,3.25,0,0,1,.59.28,2.19,2.19,0,0,1,.48.39Z"/><path class="cls-21" d="M43.24,81.57a1.77,1.77,0,0,1,.35-.29,1.83,1.83,0,0,1,.42-.22,2.17,2.17,0,0,1,.53-.14,1.46,1.46,0,0,1,.55,0,1,1,0,0,1,.46.14,1.93,1.93,0,0,1,.39.26l0,0a2.41,2.41,0,0,1-.45,0c-.12,0-.27,0-.42,0a1.6,1.6,0,0,0-.49,0,2,2,0,0,0-.49,0,2.3,2.3,0,0,0-.42.14,2.11,2.11,0,0,0-.38.2Z"/><path class="cls-21" d="M42.58,82.14a9.58,9.58,0,0,1-.06-1.29,7.43,7.43,0,0,1,.14-1.32,7.27,7.27,0,0,1,.2-.73c.1-.23.22-.46.33-.7a.4.4,0,0,0-.07-.53,1.24,1.24,0,0,0-.56-.28,2.28,2.28,0,0,0-.63,0,1.35,1.35,0,0,0-.55.13.92.92,0,0,0-.39.26,1.08,1.08,0,0,0-.2.31,2.06,2.06,0,0,0-.09.33h0a3.33,3.33,0,0,1,0-.36,1,1,0,0,1,.16-.41,1.11,1.11,0,0,1,.42-.38,1.68,1.68,0,0,1,.64-.22,2.12,2.12,0,0,1,.75,0,1.56,1.56,0,0,1,.73.4l.13.2,0,.24a.79.79,0,0,1-.11.44l-.36.67c-.08.23-.17.46-.23.69a10,10,0,0,0-.21,1.28,10.39,10.39,0,0,0,0,1.28Z"/><path class="cls-21" d="M39.68,75.66s1-.08,2.08-.12a6.28,6.28,0,0,1,1.44,0,3.73,3.73,0,0,1,.65.12v0a3.73,3.73,0,0,1-.65.12,6.23,6.23,0,0,1-1.44,0c-1,0-2.08-.13-2.08-.13Z"/><path class="cls-21" d="M41.24,74.69s.37-.08.75-.13a.88.88,0,0,1,.51,0,.76.76,0,0,1,.24.12v0a.76.76,0,0,1-.24.12.88.88,0,0,1-.51,0c-.38,0-.75-.13-.75-.13Z"/></g></g></svg>