<svg xmlns="http://www.w3.org/2000/svg" viewBox="0 0 69.12 103.68"><defs><style>.cls-1{fill:#f2f2f2;}.cls-2{font-size:10.89px;font-family:Righteous-Regular, Righteous;}.cls-2,.cls-3{fill:#333;}.cls-4{fill:#4d4d4d;}</style></defs><title>clover_2</title><g id="Layer_2" data-name="Layer 2"><g id="Layer_1-2" data-name="Layer 1"><rect class="cls-1" width="69.12" height="103.68" rx="2.72" ry="2.72"/><text class="cls-2" transform="translate(4.3 10.68)">2</text><text class="cls-2" transform="translate(64.82 93.01) rotate(180)">2</text><path class="cls-3" d="M57.79,86.92a1.79,1.79,0,0,1,2.15-1.73,2.06,2.06,0,0,1,1.28.82c.31.39.39.14.35-.11a2.38,2.38,0,0,0-1.71-2.12c-.1,0-.51-.13-.13-.13h3.91c.37,0,0,.1-.14.13a2.36,2.36,0,0,0-1.7,2.12c0,.25,0,.5.34.11a2.06,2.06,0,0,1,1.28-.82,1.79,1.79,0,0,1,2.16,1.73h0A1.73,1.73,0,0,1,64,88.7c-.07,0-.5-.1-.63,0s.07.33.09.77h0A1.58,1.58,0,0,1,62,91.18h0l-.25,0-.29,0h0a1.58,1.58,0,0,1-1.47-1.68h0c0-.44.29-.58.1-.77s-.57,0-.63,0a1.72,1.72,0,0,1-1.62-1.78Z"/><path class="cls-4" d="M61.69,91.2h0l.25,0h0a1.58,1.58,0,0,0,1.47-1.68h0c0-.44-.29-.58-.09-.77s.56,0,.63,0a1.73,1.73,0,0,0,1.62-1.78h0a1.79,1.79,0,0,0-2.16-1.73,2.06,2.06,0,0,0-1.28.82c-.31.39-.39.14-.34-.11a2.36,2.36,0,0,1,1.7-2.12c.1,0,.51-.13.14-.13h-2Z"/><path class="cls-3" d="M11.25,16.76A1.8,1.8,0,0,1,9.1,18.5a2.07,2.07,0,0,1-1.28-.83c-.31-.38-.39-.14-.35.11a2.39,2.39,0,0,0,1.71,2.13c.1,0,.51.12.13.12H5.4c-.37,0,0-.09.14-.12a2.38,2.38,0,0,0,1.7-2.13c0-.25,0-.49-.34-.11a2.07,2.07,0,0,1-1.28.83,1.81,1.81,0,0,1-2.16-1.74h0A1.71,1.71,0,0,1,5.08,15c.06,0,.5.09.63,0s-.07-.33-.09-.76h0A1.58,1.58,0,0,1,7.09,12.5h0l.25,0,.29,0h0A1.59,1.59,0,0,1,9.1,14.19h0c0,.43-.29.57-.1.76s.57,0,.63,0a1.71,1.71,0,0,1,1.62,1.77Z"/><path class="cls-4" d="M7.35,12.48h0l-.25,0h0a1.58,1.58,0,0,0-1.47,1.69h0c0,.43.29.57.09.76s-.57,0-.63,0a1.71,1.71,0,0,0-1.62,1.77h0A1.81,1.81,0,0,0,5.62,18.5a2.07,2.07,0,0,0,1.28-.83c.31-.38.39-.14.34.11a2.38,2.38,0,0,1-1.7,2.13c-.1,0-.51.12-.14.12H7.35Z"/><path class="cls-3" d="M42.08,34.42a3.46,3.46,0,0,1-4.16,3.35,4,4,0,0,1-2.47-1.59c-.6-.74-.75-.27-.67.22.39,2.23,1.4,3.5,3.3,4.1.19.06,1,.24.26.24H30.79c-.73,0,.07-.18.25-.24,1.9-.6,2.92-1.87,3.3-4.1.08-.49-.06-1-.66-.22a4,4,0,0,1-2.48,1.59A3.46,3.46,0,0,1,27,34.42h0c0-1.68,1.36-3.55,3.13-3.42.12,0,1,.19,1.22-.07s-.15-.64-.19-1.47h0A3.05,3.05,0,0,1,34,26.2h0a2.89,2.89,0,0,1,.48-.05,3.54,3.54,0,0,1,.56.05h0a3.05,3.05,0,0,1,2.84,3.25h0c0,.83-.56,1.11-.18,1.47S38.84,31,39,31c1.76-.13,3.12,1.74,3.12,3.42Z"/><path class="cls-4" d="M34.54,26.16h0a2.89,2.89,0,0,0-.48.05h0a3.05,3.05,0,0,0-2.84,3.25h0c0,.83.56,1.11.19,1.47s-1.1.08-1.22.07C28.4,30.87,27,32.74,27,34.42h0a3.46,3.46,0,0,0,4.16,3.35,4,4,0,0,0,2.48-1.59c.6-.74.74-.27.66.22-.38,2.23-1.4,3.5-3.3,4.1-.18.06-1,.24-.25.24h3.75Z"/><path class="cls-3" d="M42.08,71.21a3.47,3.47,0,0,1-4.16,3.35A3.93,3.93,0,0,1,35.45,73c-.6-.74-.75-.26-.67.22.39,2.24,1.4,3.51,3.3,4.1.19.06,1,.24.26.24H30.79c-.73,0,.07-.18.25-.24,1.9-.59,2.92-1.86,3.3-4.1.08-.48-.06-1-.66-.22a4,4,0,0,1-2.48,1.6A3.47,3.47,0,0,1,27,71.21h0c0-1.68,1.36-3.55,3.13-3.42.12,0,1,.19,1.22-.06s-.15-.64-.19-1.48h0A3,3,0,0,1,34,63h0s.33,0,.48,0a4,4,0,0,1,.56,0h0a3,3,0,0,1,2.84,3.25h0c0,.84-.56,1.11-.18,1.48s1.1.07,1.22.06c1.76-.13,3.12,1.74,3.12,3.42Z"/><path class="cls-4" d="M34.54,63h0c-.15,0-.48,0-.48,0h0a3,3,0,0,0-2.84,3.25h0c0,.84.56,1.11.19,1.48s-1.1.07-1.22.06C28.4,67.65,27,69.52,27,71.2h0a3.47,3.47,0,0,0,4.16,3.35A4,4,0,0,0,33.68,73c.6-.74.74-.26.66.22-.38,2.24-1.4,3.51-3.3,4.1-.18.06-1,.24-.25.24h3.75Z"/></g></g></svg>