<svg xmlns="http://www.w3.org/2000/svg" viewBox="0 0 69.12 103.68"><defs><style>.cls-1{fill:#f2f2f2;}.cls-2,.cls-4{fill:#333;}.cls-3{fill:#4d4d4d;}.cls-4{font-size:10.89px;font-family:Righteous-Regular, Righteous;}</style></defs><title>clover_6</title><g id="Layer_2" data-name="Layer 2"><g id="Layer_1-2" data-name="Layer 1"><rect class="cls-1" width="69.12" height="103.68" rx="2.72" ry="2.72"/><path class="cls-2" d="M26.32,28.29a3.46,3.46,0,0,1-4.16,3.35,4,4,0,0,1-2.47-1.59c-.6-.74-.75-.27-.67.22.38,2.23,1.4,3.5,3.3,4.09.19.06,1,.24.26.24H15c-.73,0,.07-.18.25-.24,1.9-.59,2.92-1.86,3.3-4.09.08-.49-.07-1-.66-.22a4,4,0,0,1-2.48,1.59,3.47,3.47,0,0,1-4.16-3.35h0c0-1.68,1.36-3.55,3.13-3.42.12,0,1,.19,1.22-.07s-.15-.64-.19-1.47h0a3.05,3.05,0,0,1,2.84-3.25h0s.33,0,.48,0,.49,0,.56,0h0a3.05,3.05,0,0,1,2.84,3.25h0c0,.83-.56,1.1-.18,1.47s1.1.07,1.22.07c1.76-.13,3.12,1.74,3.12,3.42Z"/><path class="cls-3" d="M18.79,20h0c-.15,0-.48,0-.48,0h0a3.05,3.05,0,0,0-2.84,3.25h0c0,.83.56,1.1.19,1.47s-1.1.08-1.22.07c-1.77-.13-3.13,1.74-3.13,3.42h0a3.47,3.47,0,0,0,4.16,3.35,4,4,0,0,0,2.48-1.59c.59-.74.74-.27.66.22-.38,2.23-1.4,3.5-3.3,4.09-.18.06-1,.24-.25.24h3.76Z"/><path class="cls-2" d="M57.78,28.29a3.47,3.47,0,0,1-4.16,3.35,4,4,0,0,1-2.47-1.59c-.6-.74-.75-.27-.67.22.38,2.23,1.4,3.5,3.29,4.09.19.06,1,.24.26.24H46.48c-.72,0,.07-.18.26-.24,1.9-.59,2.91-1.86,3.3-4.09.08-.49-.07-1-.67-.22a4,4,0,0,1-2.47,1.59,3.47,3.47,0,0,1-4.16-3.35h0c0-1.68,1.35-3.55,3.12-3.42.13,0,1,.19,1.22-.07s-.15-.64-.18-1.47h0a3.05,3.05,0,0,1,2.84-3.25h0s.33,0,.48,0,.49,0,.56,0h0a3.05,3.05,0,0,1,2.84,3.25h0c0,.83-.56,1.1-.19,1.47s1.1.07,1.22.07c1.77-.13,3.13,1.74,3.13,3.42Z"/><path class="cls-3" d="M50.24,20h0c-.15,0-.48,0-.48,0h0a3.05,3.05,0,0,0-2.84,3.25h0c0,.83.56,1.1.18,1.47s-1.09.08-1.22.07c-1.77-.13-3.12,1.74-3.12,3.42h0a3.47,3.47,0,0,0,4.16,3.35,4,4,0,0,0,2.47-1.59c.6-.74.75-.27.67.22-.39,2.23-1.4,3.5-3.3,4.09-.19.06-1,.24-.26.24h3.76Z"/><path class="cls-2" d="M26.32,52.82a3.46,3.46,0,0,1-4.16,3.34,4,4,0,0,1-2.47-1.59c-.6-.74-.75-.26-.67.22.38,2.24,1.4,3.5,3.3,4.1.19.06,1,.24.26.24H15c-.73,0,.07-.18.25-.24,1.9-.6,2.92-1.86,3.3-4.1.08-.48-.07-1-.66-.22a4,4,0,0,1-2.48,1.59,3.46,3.46,0,0,1-4.16-3.34h0c0-1.68,1.36-3.55,3.13-3.42.12,0,1,.19,1.22-.06s-.15-.64-.19-1.48h0a3,3,0,0,1,2.84-3.25h0a4.73,4.73,0,0,1,.48-.05,3.54,3.54,0,0,1,.56.05h0a3,3,0,0,1,2.84,3.25h0c0,.84-.56,1.11-.18,1.48s1.1.07,1.22.06c1.76-.13,3.12,1.74,3.12,3.42Z"/><path class="cls-3" d="M18.79,44.55h0a4.73,4.73,0,0,0-.48.05h0a3,3,0,0,0-2.84,3.25h0c0,.84.56,1.11.19,1.48s-1.1.07-1.22.06c-1.77-.13-3.13,1.74-3.13,3.42h0a3.46,3.46,0,0,0,4.16,3.34,4,4,0,0,0,2.48-1.59c.59-.74.74-.26.66.22-.38,2.24-1.4,3.5-3.3,4.1-.18.06-1,.24-.25.24h3.76Z"/><path class="cls-2" d="M57.78,52.82a3.46,3.46,0,0,1-4.16,3.34,4,4,0,0,1-2.47-1.59c-.6-.74-.75-.26-.67.22.38,2.24,1.4,3.5,3.29,4.1.19.06,1,.24.26.24H46.48c-.72,0,.07-.18.26-.24,1.9-.6,2.91-1.86,3.3-4.1.08-.48-.07-1-.67-.22a4,4,0,0,1-2.47,1.59,3.46,3.46,0,0,1-4.16-3.34h0c0-1.68,1.35-3.55,3.12-3.42.13,0,1,.19,1.22-.06s-.15-.64-.18-1.48h0a3,3,0,0,1,2.84-3.25h0a4.73,4.73,0,0,1,.48-.05,3.54,3.54,0,0,1,.56.05h0a3,3,0,0,1,2.84,3.25h0c0,.84-.56,1.11-.19,1.48s1.1.07,1.22.06c1.77-.13,3.13,1.74,3.13,3.42Z"/><path class="cls-3" d="M50.24,44.55h0a4.73,4.73,0,0,0-.48.05h0a3,3,0,0,0-2.84,3.25h0c0,.84.56,1.11.18,1.48s-1.09.07-1.22.06c-1.77-.13-3.12,1.74-3.12,3.42h0a3.46,3.46,0,0,0,4.16,3.34,4,4,0,0,0,2.47-1.59c.6-.74.75-.26.67.22-.39,2.24-1.4,3.5-3.3,4.1-.19.06-1,.24-.26.24h3.76Z"/><path class="cls-2" d="M26.32,77.34a3.47,3.47,0,0,1-4.16,3.35,3.93,3.93,0,0,1-2.47-1.6c-.6-.73-.75-.26-.67.22.38,2.24,1.4,3.51,3.3,4.1.19.06,1,.24.26.24H15c-.73,0,.07-.18.25-.24,1.9-.59,2.92-1.86,3.3-4.1.08-.48-.07-1-.66-.22a4,4,0,0,1-2.48,1.6,3.47,3.47,0,0,1-4.16-3.35h0c0-1.69,1.36-3.55,3.13-3.43.12,0,1,.19,1.22-.06s-.15-.64-.19-1.48h0a3,3,0,0,1,2.84-3.25h0s.33,0,.48,0,.49,0,.56,0h0a3,3,0,0,1,2.84,3.25h0c0,.84-.56,1.11-.18,1.48s1.1.07,1.22.06c1.76-.12,3.12,1.74,3.12,3.43Z"/><path class="cls-3" d="M18.79,69.08h0c-.15,0-.48,0-.48,0h0a3,3,0,0,0-2.84,3.25h0c0,.84.56,1.11.19,1.48s-1.1.07-1.22.06c-1.77-.12-3.13,1.74-3.13,3.43h0a3.47,3.47,0,0,0,4.16,3.35,4,4,0,0,0,2.48-1.6c.59-.73.74-.26.66.22-.38,2.24-1.4,3.51-3.3,4.1-.18.06-1,.24-.25.24h3.76Z"/><path class="cls-2" d="M57.78,77.34a3.47,3.47,0,0,1-4.16,3.35,3.93,3.93,0,0,1-2.47-1.6c-.6-.73-.75-.26-.67.22.38,2.24,1.4,3.51,3.29,4.1.19.06,1,.24.26.24H46.48c-.72,0,.07-.18.26-.24,1.9-.59,2.91-1.86,3.3-4.1.08-.48-.07-1-.67-.22a3.93,3.93,0,0,1-2.47,1.6,3.47,3.47,0,0,1-4.16-3.35h0c0-1.69,1.35-3.55,3.12-3.43.13,0,1,.19,1.22-.06s-.15-.64-.18-1.48h0a3,3,0,0,1,2.84-3.25h0s.33,0,.48,0,.49,0,.56,0h0a3,3,0,0,1,2.84,3.25h0c0,.84-.56,1.11-.19,1.48s1.1.07,1.22.06c1.77-.12,3.13,1.74,3.13,3.43Z"/><path class="cls-3" d="M50.24,69.08h0c-.15,0-.48,0-.48,0h0a3,3,0,0,0-2.84,3.25h0c0,.84.56,1.11.18,1.48s-1.09.07-1.22.06c-1.77-.12-3.12,1.74-3.12,3.43h0a3.47,3.47,0,0,0,4.16,3.35,3.93,3.93,0,0,0,2.47-1.6c.6-.73.75-.26.67.22-.39,2.24-1.4,3.51-3.3,4.1-.19.06-1,.24-.26.24h3.76Z"/><path class="cls-2" d="M57.83,86.92A1.79,1.79,0,0,1,60,85.19a2,2,0,0,1,1.28.82c.31.39.39.14.35-.11a2.38,2.38,0,0,0-1.71-2.12c-.1,0-.51-.13-.13-.13h3.91c.38,0,0,.1-.13.13a2.36,2.36,0,0,0-1.71,2.12c0,.25,0,.5.34.11a2.08,2.08,0,0,1,1.29-.82,1.79,1.79,0,0,1,2.15,1.73h0A1.72,1.72,0,0,1,64,88.7c-.06,0-.5-.1-.63,0s.08.33.1.77h0A1.58,1.58,0,0,1,62,91.18h0l-.24,0c-.15,0-.26,0-.3,0h0A1.58,1.58,0,0,1,60,89.5h0c0-.44.29-.58.1-.77s-.57,0-.63,0a1.72,1.72,0,0,1-1.62-1.78Z"/><path class="cls-3" d="M61.73,91.2h0l.24,0h0a1.58,1.58,0,0,0,1.48-1.68h0c0-.44-.3-.58-.1-.77s.57,0,.63,0a1.72,1.72,0,0,0,1.62-1.78h0a1.79,1.79,0,0,0-2.15-1.73,2.08,2.08,0,0,0-1.29.82c-.31.39-.38.14-.34-.11a2.36,2.36,0,0,1,1.71-2.12c.09,0,.51-.13.13-.13h-2Z"/><path class="cls-2" d="M11.29,16.76A1.8,1.8,0,0,1,9.14,18.5a2.07,2.07,0,0,1-1.28-.83c-.31-.38-.39-.14-.35.11a2.39,2.39,0,0,0,1.71,2.13c.1,0,.51.12.14.12H5.45c-.38,0,0-.09.13-.12a2.39,2.39,0,0,0,1.71-2.13c0-.25,0-.49-.35-.11a2.07,2.07,0,0,1-1.28.83A1.81,1.81,0,0,1,3.5,16.76h0A1.71,1.71,0,0,1,5.12,15c.07,0,.5.09.64,0s-.08-.33-.1-.76h0A1.59,1.59,0,0,1,7.13,12.5h0l.25,0,.29,0h0a1.59,1.59,0,0,1,1.47,1.69h0c0,.43-.29.57-.1.76s.57,0,.64,0a1.71,1.71,0,0,1,1.61,1.77Z"/><path class="cls-3" d="M7.39,12.48h0l-.25,0h0a1.59,1.59,0,0,0-1.47,1.69h0c0,.43.29.57.1.76s-.57,0-.64,0A1.71,1.71,0,0,0,3.5,16.76h0A1.81,1.81,0,0,0,5.66,18.5a2.07,2.07,0,0,0,1.28-.83c.31-.38.39-.14.35.11a2.39,2.39,0,0,1-1.71,2.13c-.1,0-.51.12-.13.12H7.39Z"/><text class="cls-4" transform="translate(4.06 10.68)">6</text><text class="cls-4" transform="translate(65.06 93.01) rotate(180)">6</text></g></g></svg>