<svg xmlns="http://www.w3.org/2000/svg" viewBox="0 0 69.12 103.69"><defs><style>.cls-1{fill:#f2f2f2;}.cls-2,.cls-4{fill:#333;}.cls-3{fill:#4d4d4d;}.cls-4{font-size:10.89px;font-family:Righteous-Regular, Righteous;}</style></defs><title>Clover_A</title><g id="Layer_2" data-name="Layer 2"><g id="Layer_1-2" data-name="Layer 1"><rect class="cls-1" width="69.12" height="103.69" rx="2.72" ry="2.72"/><path class="cls-2" d="M54.16,54.38c0,6.1-5.48,9.52-10.84,8.73A10.35,10.35,0,0,1,36.88,59c-1.56-1.92-2-.68-1.74.58,1,5.82,3.65,9.12,8.59,10.67.49.16,2.57.63.67.63H24.73c-1.9,0,.18-.47.67-.63C30.34,68.65,33,65.35,34,59.53c.22-1.26-.16-2.5-1.73-.58a10.34,10.34,0,0,1-6.45,4.16C20.45,63.89,15,60.48,15,54.38h0c0-4.38,3.54-9.25,8.15-8.92.32,0,2.5.5,3.18-.16,1-1-.39-1.67-.49-3.85h0c-.15-5.19,3.42-8,7.41-8.47h0a11.26,11.26,0,0,1,1.25-.11,11.67,11.67,0,0,1,1.47.11h0c4,.5,7.55,3.29,7.39,8.47h0c-.1,2.18-1.46,2.89-.49,3.85.68.66,2.87.18,3.18.16,4.61-.33,8.15,4.54,8.15,8.92Z"/><path class="cls-3" d="M34.52,32.86h-.06a11.26,11.26,0,0,0-1.25.11h0c-4,.5-7.56,3.28-7.41,8.47h0c.1,2.18,1.47,2.89.49,3.85-.68.66-2.86.19-3.18.16C18.5,45.12,15,50,15,54.37h0c0,6.1,5.49,9.51,10.84,8.72A10.29,10.29,0,0,0,32.25,59c1.57-1.92,2-.68,1.73.58-1,5.82-3.64,9.12-8.58,10.67-.49.16-2.57.63-.67.63h9.79Z"/><text class="cls-4" transform="translate(3.74 10.68)">A</text><text class="cls-4" transform="translate(65.38 93.01) rotate(180)">A</text><path class="cls-2" d="M57.79,86.92a1.79,1.79,0,0,1,2.15-1.73,2,2,0,0,1,1.28.83c.31.38.39.13.35-.12a2.38,2.38,0,0,0-1.71-2.12c-.1,0-.51-.13-.13-.13h3.91c.37,0,0,.1-.14.13a2.36,2.36,0,0,0-1.7,2.12c0,.25,0,.5.34.12a2,2,0,0,1,1.28-.83,1.79,1.79,0,0,1,2.16,1.73h0A1.72,1.72,0,0,1,64,88.7c-.07,0-.5-.1-.63,0s.07.33.09.77h0A1.58,1.58,0,0,1,62,91.18h0l-.25,0-.29,0h0a1.58,1.58,0,0,1-1.47-1.68h0c0-.44.29-.58.1-.77s-.57,0-.63,0a1.72,1.72,0,0,1-1.62-1.78Z"/><path class="cls-3" d="M61.69,91.2h0l.25,0h0a1.58,1.58,0,0,0,1.47-1.68h0c0-.44-.29-.58-.09-.77s.56,0,.63,0a1.72,1.72,0,0,0,1.62-1.78h0a1.79,1.79,0,0,0-2.16-1.73,2,2,0,0,0-1.28.83c-.31.38-.39.13-.34-.12a2.36,2.36,0,0,1,1.7-2.12c.1,0,.51-.13.14-.13h-2Z"/><path class="cls-2" d="M11.25,16.76A1.8,1.8,0,0,1,9.1,18.5a2.07,2.07,0,0,1-1.28-.83c-.31-.38-.39-.14-.35.12a2.39,2.39,0,0,0,1.71,2.12c.1,0,.51.12.13.12H5.4c-.37,0,0-.09.14-.12a2.38,2.38,0,0,0,1.7-2.12c0-.26,0-.5-.34-.12a2.07,2.07,0,0,1-1.28.83,1.81,1.81,0,0,1-2.16-1.74h0A1.71,1.71,0,0,1,5.08,15c.06,0,.5.1.63,0s-.07-.33-.09-.76h0A1.58,1.58,0,0,1,7.09,12.5h0l.25,0a1.31,1.31,0,0,1,.29,0h0A1.59,1.59,0,0,1,9.1,14.19h0c0,.43-.29.57-.1.76s.57,0,.63,0a1.71,1.71,0,0,1,1.62,1.77Z"/><path class="cls-3" d="M7.35,12.48h0l-.25,0h0a1.58,1.58,0,0,0-1.47,1.69h0c0,.43.29.57.09.76s-.57,0-.63,0a1.71,1.71,0,0,0-1.62,1.77h0A1.81,1.81,0,0,0,5.62,18.5a2.07,2.07,0,0,0,1.28-.83c.31-.38.38-.14.34.12a2.38,2.38,0,0,1-1.7,2.12c-.1,0-.51.12-.14.12H7.35Z"/></g></g></svg>