<svg xmlns="http://www.w3.org/2000/svg" viewBox="0 0 238.09 219.85"><defs><style>.cls-1{fill-rule:evenodd;}</style></defs><title>Asset 2</title><g id="Layer_2" data-name="Layer 2"><g id="Layer_1-2" data-name="Layer 1"><path class="cls-1" d="M144.73,139.36a2.48,2.48,0,0,0,1.23-.19c-.57-1.41-1.69-1.69-3-1.71l-1.45-.73a4.68,4.68,0,0,0-3.54-.94c-.63-.19-1.11-.77-1.84-.66-1-.48-2.19-.13-3.27-.37-.17,0-.4.16-.6.26-.36,0-.74,0-1-.33a.52.52,0,0,0-.82-.13.6.6,0,0,0-.16.81,30.63,30.63,0,0,0-5.1.58l-.16,0-1,.22a2.14,2.14,0,0,0-.31-.71,1.31,1.31,0,0,0-.18-.77.43.43,0,0,0,0-.25.34.34,0,0,0,0-.37.31.31,0,0,0,.07-.22l.27-.44a5.73,5.73,0,0,0,3.64.79c.35-.05.84.19.92-.47s.17-1.08-.51-1.36-1.06-.49-1.59-.74c-.11-.18-.22-.36-.34-.54.09-.15.17-.3.25-.46,1-.21,2-.3,2.66.74,0,.08.05.2.11.25a9.8,9.8,0,0,0,4.4,1.63,1,1,0,0,0,.4-.07c.17-.05.34-.11.39-.32s-.12-.33-.27-.41a7.14,7.14,0,0,1-1.42-1c-.37-.35-.24-.63,0-.93a1,1,0,0,0,1.54.11,28.55,28.55,0,0,1,2.6-1.66,3.05,3.05,0,0,1,2.53.35.94.94,0,0,0,.87.17c1.08.13,2.12-.38,3.2-.14a.51.51,0,0,0,.62-.39c.05-.27-.2-.37-.39-.48l-1.09-.55-.46-.25a.62.62,0,0,0-.13-.27c.75-.09,1.44-.45,2.2-.51a.51.51,0,0,0,.29-.15.42.42,0,0,0,.2-.35A2.82,2.82,0,0,0,145,126c.47-.51.47-1-.08-1.36a1.93,1.93,0,0,0-2.16-.34,4.35,4.35,0,0,1-3,.49c-.53-.1-.84.35-1.26.51h0a.43.43,0,0,0-.22-.06.32.32,0,0,0-.37.08v0a1.71,1.71,0,0,0-.84-.1c-.7-.26-1.53,0-2.18-.52l-.21-.75a.43.43,0,0,0,0-.25.27.27,0,0,0-.05-.34v0l.25-.25-.28-.06a6.68,6.68,0,0,0-.53-3.33,2.81,2.81,0,0,1,0-.49.33.33,0,0,1,.18-.08c.35,0,.64.34,1,.19a4.53,4.53,0,0,1,1.37-.18,8.13,8.13,0,0,0,2.27.67,1.69,1.69,0,0,0,.88-.19c.44-.19.48-.51.1-.81a1.67,1.67,0,0,0-1.41-.31,4.88,4.88,0,0,1-2.05-.09c-.09-.19-.27-.21-.45-.24-.21-.32-.67-.15-.9-.49a.37.37,0,0,0-.26-.17,2.26,2.26,0,0,1,.29-.25,5.15,5.15,0,0,0,.52-.43l.33-.17.54-.27a2.74,2.74,0,0,0,1.53-1.24c1-1.29,1-1.84-.39-2.84-.34-.58-.17-1.26-.39-1.86a18.51,18.51,0,0,0,3.22-1.5.35.35,0,0,0,.35-.08c.23,0,.47.13.68-.07h0a.22.22,0,0,0,.2-.13h0a1.33,1.33,0,0,0,.19-.14h0c.67-.26,1-.87,1.59-1.28a26.26,26.26,0,0,0,3.08-2.69h0l.2-.14a13,13,0,0,1,2.36-1.11,3.19,3.19,0,0,0,2.06-1.19h0l.93-.7a.58.58,0,0,0,.16,0c.88-.33,1.66-1,2.7-.89.2,0,.35-.17.37-.38,0-.51.38-.68.8-.81a7.41,7.41,0,0,0,2-1,5.47,5.47,0,0,0,2-1.19.87.87,0,0,1,.67-.26,3.17,3.17,0,0,0,2-.87c.25-.21.57-.37.37-.8a.89.89,0,0,0-1.11-.63c-.41.16-.82.3-1.22.47a2.4,2.4,0,0,0-1.42,1.28,7.5,7.5,0,0,1-.88.59,4.75,4.75,0,0,0-1.37.89.4.4,0,0,0-.34.15h0L154,99.09a4.08,4.08,0,0,0-1.55.9,2.84,2.84,0,0,1-1,.59c-1.14.1-2,.94-3.2,1a.72.72,0,0,0-.35.21,3.86,3.86,0,0,1-1.3.68c-.53,0-1,.4-1.53.28a.7.7,0,0,1-.38,0,3.56,3.56,0,0,0,.82-.68,2.22,2.22,0,0,0-1-.79c-.22.45-.76.92-.45,1.33a.74.74,0,0,0-.21,0,2.34,2.34,0,0,1-1.54-.16,1.17,1.17,0,0,1,.55-.48,3.85,3.85,0,0,1,1.24-.41h0l.19-.13h0a.85.85,0,0,1,.19-.14h0c-.05-.15-.17-.19-.31-.22a.8.8,0,0,1-.19.13,9.89,9.89,0,0,0-2.4,1.28l-.21.15c-.57.21-1.21.14-1.79.35a4,4,0,0,1,1.95-1,1,1,0,0,0,.74-.53,40.54,40.54,0,0,1,3.7-3l2.33-1a4.22,4.22,0,0,0,1.8-1.09.64.64,0,0,0,.1-.74c-.16-.29-.45-.25-.71-.21a2,2,0,0,0-1,.56,4.9,4.9,0,0,1-2.37.31,2.72,2.72,0,0,0-2.53,1,20,20,0,0,1-1.52,1.53.49.49,0,0,1-.2-.76c.16-.3.32-.61.47-.92l.93-1a.75.75,0,0,0,.34-.18l.26-.45a9.07,9.07,0,0,0,1.73-.94A23.57,23.57,0,0,0,148.86,93c.27-.13.6-.34.46-.71s-.6-.35-.92-.21c-.69.3-1.36.65-2.05,1a.7.7,0,0,0-.15.19,9.79,9.79,0,0,0-2.92,1h0c-.61.39-1.24.75-1.83,1.16-.32.22-.74.42-.57,1l0,.08,0,.1-.38.19-.59.05-.67,0a2,2,0,0,1-1.05-1.52,13.84,13.84,0,0,1,1-1.75c.91-1.13.87-1.62-.18-2.75a2.25,2.25,0,0,1,0-1.18.9.9,0,0,0,.59-.65l.17-.22c.6-.4,1.23-.77,1.79-1.21a.74.74,0,0,0,.2-1c-.22-.36-.56-.22-.86-.13a12.17,12.17,0,0,0-2.34,1.1h0a4.72,4.72,0,0,0-3.24,3.23,6.21,6.21,0,0,0-.23.64l-.21.19c-.25.15-.28.45-.46.66s-.35.45-.17.65.45-.07.61-.21a.36.36,0,0,1,.15-.08,2.27,2.27,0,0,0,.25.59l-.24.5a3.42,3.42,0,0,0-.58.68l-.59.6h0a.76.76,0,0,0-.19.12h0A2.42,2.42,0,0,1,132,92.78a.74.74,0,0,0-.76-.48l-.49-.3a.65.65,0,0,0,.59-.92c-.11-.42.12-.77.1-1.16-.11-.59-.22-1.18-.34-1.77h0c.19-.68-.16-1.28-.25-1.92a6,6,0,0,1,.32-1.3c1.25-2.34,2.47-4.69,3.7-7a6.11,6.11,0,0,0,2.23-2.65c1.43-2.33,2.15-5,3.47-7.38a4.33,4.33,0,0,1,1.55-1.63c.46-.09.55-.52.74-.86a3.33,3.33,0,0,1,.33-1.3,3.5,3.5,0,0,0,.36-2.36c.12-.44.06-1,.6-1.23h0a.29.29,0,0,0,.34-.12,2.48,2.48,0,0,0,.86-1,12.82,12.82,0,0,1,2-3.3.57.57,0,0,0,.08-.63h-.06s0,0,0,0l0,0a4.27,4.27,0,0,1,.8-1.23,4.26,4.26,0,0,0,1.13-2.08h0a13,13,0,0,0,1.76-4c0-.89.81-1.52.69-2.43a55.66,55.66,0,0,1,2.93-6.26,11.77,11.77,0,0,0,1.09-2.19,11.62,11.62,0,0,1,1.39-2.91,2.8,2.8,0,0,0,.09-3.22,4,4,0,0,0-1.8,2.21,15.63,15.63,0,0,1-1.35,3.1c-.56,1.18-1.3,2.29-1.74,3.49-.57,1.54-1.38,3-2,4.43l-1.26,2.43a13.1,13.1,0,0,0-2,3.29,14,14,0,0,1-1.33,3.05c-.39.7-.72,1.44-1.08,2.15a.54.54,0,0,0,0,.61h0L143.54,58l-1,.74a2.21,2.21,0,0,0-2.14,1.68,13.35,13.35,0,0,1-.57,1.21c-.8,1.46-1.84,2.83-1.81,4.61a9.72,9.72,0,0,0-.92,1.82A19.37,19.37,0,0,1,135,72.64a13,13,0,0,1-2.11,3,3.27,3.27,0,0,0-1.19.67,1.43,1.43,0,0,0-.58.54A8.86,8.86,0,0,1,130,78.22c-.06-.13-.17-.25-.22-.37s-.27-.12-.4,0a.22.22,0,0,0-.2.12c-.36,0-.78-.43-1,.18a1.87,1.87,0,0,0-.46.84,2.81,2.81,0,0,1-.66,1c-.22.09-.54.14-.47.46s-.18.61-.28.91-.25.55-.19.76a.35.35,0,0,0-.05.08,8,8,0,0,0-1.28,1.18,6,6,0,0,1-3.42,2,4.63,4.63,0,0,1-2.4-2.52l.24-1.12c.2-.22.42-.44.61-.69.3-.4,1.15-.49,1-1.06s-1-.35-1.51-.6c-.1-.05-.26,0-.39,0-.62-.23-.15-.77-.32-1.12a1.4,1.4,0,0,0-.17-1.27c0-.1,0-.2,0-.3,0-1.51-.34-3,.24-4.52,0-.1,0-.26-.08-.39a5.91,5.91,0,0,1,.69-2.66,1.46,1.46,0,0,0,.33-1.12q.72-1.41,1.44-2.85c.21-.43.56-.82.41-1.36h0a.56.56,0,0,0,0-.61h0a.56.56,0,0,0,0-.62.7.7,0,0,0,0-.6,7.06,7.06,0,0,0-.07-2.2.4.4,0,0,0-.06-.42h0a.28.28,0,0,0,0-.22.22.22,0,0,0-.09-.3l0,0c-.21-.73.11-1.57-.48-2.34a4.2,4.2,0,0,1-1.41,1.29h0l-.38.12c-1,.19-1.3,1-1.64,1.77a8.86,8.86,0,0,0-.37,1.34,3.3,3.3,0,0,1,.29-1.58.35.35,0,0,0,.07-.5c-.11-.1-.1-.24-.12-.37a8.51,8.51,0,0,0-.32-2.07,10.26,10.26,0,0,0,0-2.35,2.46,2.46,0,0,1,.21-.7.54.54,0,0,0,0-.62A1.27,1.27,0,0,0,117,52c-.13-.22-.29-.21-.45,0a.64.64,0,0,0-.18.43c-.22.17-.21.42-.24.66s0,.22,0,.33c-.17.37.45.25.33.49-.26.54.17,1,.17,1.44s0,.68,0,1a9.51,9.51,0,0,0,0,4.65c0,.16,0,.35.21.45a1.54,1.54,0,0,1-.15.35,5.57,5.57,0,0,0-.65,2.6c0,.5-.51.93-.17,1.47.06.61-.43,1.11-.34,1.72l-.6,1.22a6.89,6.89,0,0,0-1.21,2.85c-.21,1.65.1,2,1.75,2a.87.87,0,0,1,.61,0,.54.54,0,0,1,.23.68c-.2.58-.36,1.18-.55,1.77-.11.34.15.34.35.39-.06.16-.12.33-.19.49a.69.69,0,0,1,.18.32c-.06-.1-.12-.2-.18-.32a2.28,2.28,0,0,0-.32.72c0,1.37-.63,2.65-.63,4-.79.33-.76,1.24-1.26,1.77a8.94,8.94,0,0,1-2.09.49l-.25-.27a1.6,1.6,0,0,0-.53-.9,6.4,6.4,0,0,0-.68-1.36.13.13,0,0,0,0-.06l1-1.88a2.21,2.21,0,0,0-.33-2.94,2.67,2.67,0,0,1-1-1.76,1.61,1.61,0,0,0,.24-1.37,2.91,2.91,0,0,0-.17-1.85,5.4,5.4,0,0,0-.34,1c-.51-.37-1.37-.26-1.45.34a12.17,12.17,0,0,1-.37,1.44.43.43,0,0,1-.18-.06c.19-.19.31-.38.06-.61a4.93,4.93,0,0,1-.39-.4l-.39-.73.09-.81a.31.31,0,0,0-.09-.36h0c-.2-.91-.4-1.82-.61-2.72a1.81,1.81,0,0,0-.17-.46c-.07-.14-.16-.33-.37-.23a.34.34,0,0,0-.15.43,2.63,2.63,0,0,1,.14.3c.13.54.51,1,.51,1.56.08.1,0,.25.1.36h0c0,.25,0,.54.19.75a.49.49,0,0,0-.18.14l-.15.1h-.13a.46.46,0,0,0-.2-.19h0c0-.13-.23-.11-.28-.23l-.16,0a2.52,2.52,0,0,1-1.24-1.8.68.68,0,0,0-.8-.53c-.4,0-.34.36-.39.62.09.09,0,.25.12.34h0l.13.2h0c.36.7.51,1.52,1.2,2v0h0c0,.1,0,.21,0,.31s.08.08.15,0l-.08.05a.48.48,0,0,1,0,.26l.31.06h0c.14.23.19.52.48.63l.07,0v0a.19.19,0,0,0,0,.29h0c0,.07.09.12.13.2l.07,0h0l.09.16s0,.11.08.16a2.17,2.17,0,0,1,0,.25,1.11,1.11,0,0,0,0,.19l0,.09a1.9,1.9,0,0,0,.13.38,19.71,19.71,0,0,0,.9,1.92,1.54,1.54,0,0,0,.26.25h0a.15.15,0,0,0,.09.06l0,0a.08.08,0,0,1,0,0,.49.49,0,0,0,0,.44s.08.08.11.13l0,.07c-.69.69-.5,1.5-.31,2.31a6.57,6.57,0,0,1-.16.77c-.06.19-.14.3-.3.32a1.81,1.81,0,0,1-1-1.19.31.31,0,0,0-.19-.18.57.57,0,0,0,.05-.61,6.56,6.56,0,0,1-.51-2.66c0-.23,0-.51-.28-.6a.74.74,0,0,0,.23-.63,1.17,1.17,0,0,0-.13-.44.37.37,0,0,0-.13-.12,1.47,1.47,0,0,0-.24-.54c0-.07-.09-.13-.13-.19a.86.86,0,0,0-.07-.1,1.74,1.74,0,0,0-.11-.18c.59-.49.57-.59.08-1.2h0a.9.9,0,0,0-.14-.2,2,2,0,0,0-.85-1,.75.75,0,0,1-.27-.55c.39-.25.1-.46,0-.68a.47.47,0,0,1-.13-.34h0a.67.67,0,0,0-.14-.19.47.47,0,0,0-.15-.19,3.39,3.39,0,0,1-.23-.34,1.11,1.11,0,0,0-.43-.59.41.41,0,0,0-.53,0c-.16.16,0,.3.08.43a3,3,0,0,1,.39.63,5.58,5.58,0,0,0,1.21,1.94c.07.51.52.81.68,1.27a.36.36,0,0,0,.07.1l0,0h-.22s0,0-.07,0a.09.09,0,0,0,0,0,.21.21,0,0,0-.27.06,3.29,3.29,0,0,0,.6,3.28,1.69,1.69,0,0,0,.28.68,5.47,5.47,0,0,1,.26,1.55,2,2,0,0,1,.1.21c0,.11,0,.21,0,.32-.08.29-.14.58.18.76a.26.26,0,0,0,0,.28l-.06.62c.34.51.13,1,.08,1.57a1.6,1.6,0,0,0-.1.23l-.06.26c-.07.14-.13.28-.19.42l-.18.18h0a.22.22,0,0,0-.18.14h0l-.36.11a.19.19,0,0,0-.19.12,2,2,0,0,1-.91-.65c-.47-.46-.23.45-.54.29a1.34,1.34,0,0,1-.31-1.26.32.32,0,0,0-.12-.11,1.08,1.08,0,0,0,.1-.73c0-.19-.07-.36-.26-.14s0,.62,0,.93,0,.7.09,1.06a1.36,1.36,0,0,1-.28,1.08.91.91,0,0,0-.63,1.09c-.46,0-.92-.06-1.39-.07a31.16,31.16,0,0,0-5.67.67,1.52,1.52,0,0,1,.18-.86,1.43,1.43,0,0,0-.07-1.64A4.16,4.16,0,0,1,93,82.62c-.26-.85-.64-1-1.34-.35-.48.42-.82.52-1.2-.06a1.4,1.4,0,0,1-.13-.36h0c0-.23,0-.28-.24-.14h0c-.52-.3-1.16.08-1.67-.27a3.09,3.09,0,0,0-.57-1.36c-.22-.3-.52-.56-.91-.38a.72.72,0,0,0-.34.93c.37,1,.23,2.06.66,3a2.87,2.87,0,0,1-.37,1.28.53.53,0,0,0,.21.8c.78.44,1.36,1.13,1,2,0,.08,0,.15-.07.22a30.14,30.14,0,0,0-7.48,4.5,2.23,2.23,0,0,0-1.27-.36,1.86,1.86,0,0,1-.33,0c-.28.17-.66.08-.91.33a5.35,5.35,0,0,1-1.6.61,5.28,5.28,0,0,0-1.1,1.66,4.6,4.6,0,0,0-.3,1.32.22.22,0,0,0,.07.17.19.19,0,0,0,0,.12h0a.33.33,0,0,0-.18.32l-.24.31a4.58,4.58,0,0,1,0,1.88s0,.07,0,.11a29.91,29.91,0,0,0-3.33,6.49l-.09-.11-.31.12a.21.21,0,0,0-.08.32.64.64,0,0,0,.36,0A30.28,30.28,0,0,0,70,110.25a.67.67,0,0,0-.2.49l.08.17-.06.41a9.64,9.64,0,0,1-1.42,2.31.83.83,0,0,0-.45.33,1.49,1.49,0,0,0-.2-.15c-.3-.19-.41-.1-.42.35l.57.58a1.14,1.14,0,0,0,.11.11,2.26,2.26,0,0,1,.11.9c0,.14,0,.28,0,.41a.48.48,0,0,0-.18,0c-.13-.76-.79-1-1.36-1.34a.52.52,0,0,0-.5,0h0l.06,0c-.06-.46-.48-.25-.71-.37-.58.21-.91-.17-1.25-.53a1.53,1.53,0,0,0-1.73-.49c.21.67.82,1,1.31,1.36s.83.72,1.34,1c.09.17.18.34.26.51s.15.48.25.7c.08.42.46.64.67,1l.22,0c0-.53.33-.83.66-1.15a2.09,2.09,0,0,1,1,.24,7.65,7.65,0,0,0,.74,2.73.57.57,0,0,0,.13.29q.17.35.36.69h0a.92.92,0,0,0,.16.42,2.2,2.2,0,0,1-.25.17l-.19.15c0,.36.34.65.17,1l-.41.43-.2.11h0a2.21,2.21,0,0,1-2.15-.6,2.76,2.76,0,0,0-.39-.28c.12-.17.17-.32,0-.49a2.19,2.19,0,0,0-1.16-.38h-.15a1.37,1.37,0,0,0-.2.13c0,.59.52.78.84,1.13s-.13.41-.25.59a.88.88,0,0,0,.26,1.33c.44.33.67,0,.84-.32s.45-.31.74-.14a.76.76,0,0,0,.29.37,2.14,2.14,0,0,1,.13.19v0h0a.24.24,0,0,0,.12.21l0,0h0l0,0a.23.23,0,0,0,0,.14c0,.22-.09.44-.11.66-.06.63.31,1,.94.85a3,3,0,0,1,2,.31c.5.18.62.42.39.89a.83.83,0,0,0,.09,1c.34.47.31.66,0,1.09a1.11,1.11,0,0,1-.53.38c-.11.11-.42-.08-.39.26h0c.1.18.35.08.47.25.44,0,.53.53.88.67a1.74,1.74,0,0,0,.37.3.71.71,0,0,1,.44,1,1.39,1.39,0,0,1-.19.15l-.19.13a.58.58,0,0,0-.55.23h0c-.4,0-.62.28-.85.57s.08.64.18,1a.94.94,0,0,0,1.62.47c.08-.08.14-.18.21-.26.35-.38.72-.4,1,0,.1.12.2.25.29.38-.12.22-.23.45-.33.68a1.59,1.59,0,0,1-.24.27,29.33,29.33,0,0,0-5.5-.65A30.06,30.06,0,0,0,46,145a2.28,2.28,0,0,1-.82.18c-.91,0-.67.81-.81,1.31a.49.49,0,0,0,0,.39,30.13,30.13,0,0,0,23,48.78A30.13,30.13,0,0,0,95.64,173.9C94.1,185,90.3,209.42,85.43,219.85h26.95c-4.87-10.43-8.68-34.86-10.22-45.95a30.14,30.14,0,0,0,28.26,21.73,30,30,0,0,0,21.05-9.27,4.51,4.51,0,0,1-.09.53.45.45,0,0,1,0,.16c-.28.55,0,.86.47,1.07.68.36,1.05.22,1.29-.48a1,1,0,0,0-.42-1.2c-.28-.19-.5-.54-.92-.39a30.13,30.13,0,0,0-7-46.69ZM142.26,106a1,1,0,0,0,.06-.25,1.55,1.55,0,0,0,0-.22l0-.17s0,0,0,0c.31.06.52-.14.75-.28a2.11,2.11,0,0,1,1-.35c-.18.12-.37.21-.56.33-.41.25-.91.42-1.06,1l-.27.07Zm-.58,1.69a.21.21,0,0,0,0,.06.28.28,0,0,1,0-.09ZM89.14,84.05h0l0,0Zm44.67,16.67-.05,0v-.08ZM126,131.15h0l0,0,0,0h0l0,0Zm9.49-4a.9.9,0,0,0,.92-.58,1.87,1.87,0,0,1,.7-.75,1.65,1.65,0,0,0,.95.12l.05,0a1.76,1.76,0,0,0,.37.17,7.49,7.49,0,0,1,.77.23,11.07,11.07,0,0,0,1.67.43.76.76,0,0,0-.17.45,4.08,4.08,0,0,1-.84-.33c-1.21-.17-2.45-.47-3.39.66a1.12,1.12,0,0,0-.31,0H136l-.35,0-.52-.13c-1.12-.2-2.08.52-3.16.57.09-.83,1-1,1.35-1.57a.9.9,0,0,0,1.13-.32.56.56,0,0,1,0,.12C134.59,126.63,134.76,127.15,135.46,127.11Zm-1.27-3.42,0,0h0s0,0,0,0l0,0A.2.2,0,0,0,134.19,123.69Zm1.92-7.73q-.11.08-.12,0h0s0,0,0,0,.06,0,.11,0Zm.07,0a.07.07,0,0,1-.06,0h0l0,0h0l.16,0h0v0A1.13,1.13,0,0,0,136.18,115.93Zm-5.73-30.24,0,0h0Zm-29.35-.06a.21.21,0,0,0,.09-.24.45.45,0,0,0,.64-.16c.15-.33.53-.17.75-.37.26,0,.33-.32.55-.42a1.59,1.59,0,0,0,.4.59c.1.37.24.73.36,1.1-.92-.18-1.86-.31-2.82-.4A.29.29,0,0,1,101.1,85.63ZM69.7,125a.48.48,0,0,0-.21-.07.41.41,0,0,0,.07-.34h0a.28.28,0,0,0,.27.08l.07,0a.6.6,0,0,0,.23-.06v0l.14,0a.39.39,0,0,0,.1.08.21.21,0,0,0,.19,0h.06C70.46,125.38,70.43,125.37,69.7,125Zm2.72,8.57v0h0Z"/><path class="cls-1" d="M123.64,63.14c-.12.24-.26.48-.37.73a2.54,2.54,0,0,0,1.41,3.46,2.67,2.67,0,0,0,3.61-1.63,2.17,2.17,0,0,1,1.29-1.62c.52-.21.56-.57.07-.85s-1-1-1.51-1.33c-1.79-1.24-3-1.25-4.18.64C123.84,62.73,123.75,62.94,123.64,63.14Z"/><path class="cls-1" d="M156.86,113.68a3.16,3.16,0,0,0-1.53.47,13.07,13.07,0,0,1-4.4,2.07c-.46.13-1,.18-1.27.69l-.15.06.16,0c1.53.15,3-.42,4.53-.38a.6.6,0,0,0,.25-.1A16.61,16.61,0,0,1,159,115a1.87,1.87,0,0,0,1.63-1.11A12.68,12.68,0,0,0,156.86,113.68Z"/><path class="cls-1" d="M63.11,83.14a1.49,1.49,0,0,0-.54-.6.57.57,0,0,0-.43-.46c-.23-.21-.57-.32-.63-.68-.2-1-1.12-1.25-1.88-1.59s-1.19.13-1,.87a5.57,5.57,0,0,0,1.48,2.71,2.42,2.42,0,0,0,2.64.59C63.15,83.83,63.34,83.57,63.11,83.14Z"/><path class="cls-1" d="M217.94,44a8.76,8.76,0,0,0-2.69,1.53.24.24,0,0,1,0,.08s0,0,0-.08c-.68.09-1.36.15-2,.27s-1.37.2-1.71.93A39.24,39.24,0,0,1,203.31,52a5.17,5.17,0,0,0-2.58,2.53c-.26.64-.13.84.55.77a4.16,4.16,0,0,0,2.55-1.46.83.83,0,0,0,.16-.2c.78-.33,1.55-.7,2.35-1a2.62,2.62,0,0,0,1.19-.59,8.37,8.37,0,0,1,5.06-2.56c.93,0,1.92.43,2.73-.41.52-.21.65-.74.82-1.18A3.2,3.2,0,0,1,218.25,46a4.84,4.84,0,0,0,1-.45c.56-.35.59-.71.19-1.23S218.46,43.91,217.94,44Z"/><path class="cls-1" d="M143.26,52.55c.26.12.44-.08.61-.21a21.07,21.07,0,0,0,2.4-2.62c.32-.55.49-1,.23-1.33s-.76-.07-1.12.07a1.9,1.9,0,0,0-1,.85,7.93,7.93,0,0,1-1.25,1.92.76.76,0,0,0-.19.64C143,52.13,143,52.42,143.26,52.55Z"/><path class="cls-1" d="M151.55,12.63a1.2,1.2,0,0,0,1.36-.66c.06-.12.11-.25.16-.38.57-.55,1.45-.74,1.79-1.57.18-.45.56-.91.18-1.37a1.45,1.45,0,0,0-1.5-.35,1.23,1.23,0,0,0-1.11,1.17,2.2,2.2,0,0,1-.77,1.36,1,1,0,0,0-.69,1.29A.66.66,0,0,0,151.55,12.63Z"/><path class="cls-1" d="M94.86,33.49l5.7.12c.27,0,.59,0,.58-.41a.59.59,0,0,0-.5-.57A4.36,4.36,0,0,0,99,32.52a1.15,1.15,0,0,1-1.46-1,8.38,8.38,0,0,0,.34-2.94,2.57,2.57,0,0,0,.06-1.2.46.46,0,0,0-.22-.3c-.19-.09-.32.05-.44.2a3.69,3.69,0,0,0-.5,1.65c0,.41,0,.82,0,1.23s0,.66.08,1a1,1,0,0,0-.14.87h0C96.35,32.69,95.37,32.66,94.86,33.49Z"/><path class="cls-1" d="M153.25,96.93c-.31.26-.76.47-.67.94s.63.62,1,.74a1.33,1.33,0,0,0,1.45-.5l1.74-2h0a14.72,14.72,0,0,0,3-1.92A6.93,6.93,0,0,1,161.62,93c1.52-.52,2.7-1.7,4.29-2.07a.68.68,0,0,0,.56-.81c-.12-.49-.55-.38-.9-.28a4.38,4.38,0,0,0-1.37.59,7.08,7.08,0,0,1-1.52.9,27.31,27.31,0,0,0-6.84,4.15A19.16,19.16,0,0,0,153.25,96.93Z"/><path class="cls-1" d="M67.82,109.5a.84.84,0,0,0,.49-.18,2.56,2.56,0,0,0,.53-1.51.92.92,0,0,0-.6-1.09,2.28,2.28,0,0,0-1.17-.85l-.65-.41a6.65,6.65,0,0,0-1.48-1.37c-.43-.3-.86-.53-1.35-.09a1.2,1.2,0,0,0-.2,1.6c.54.56.62,1.3,1,1.91.18,1,1.12,1.07,1.77,1.5A2.61,2.61,0,0,0,67.82,109.5Z"/><path class="cls-1" d="M88.59,44.72a37.17,37.17,0,0,1,.21-4.08,3,3,0,0,0,0-.94c0-.22-.11-.47-.41-.46a.57.57,0,0,0-.51.39,1.09,1.09,0,0,0-.11.39c0,1-.36,2-.37,3,0,1.18-.17,2.44.72,3.55A2.39,2.39,0,0,0,88.59,44.72Z"/><path class="cls-1" d="M137.35,27.22a2,2,0,0,0-.3,2.39,1.2,1.2,0,0,0,1,.6c.48,0,.72-.32.9-.71a2.07,2.07,0,0,0,.08-1.84A1,1,0,0,0,137.35,27.22Z"/><path class="cls-1" d="M231.53,20.14a1.58,1.58,0,0,0-.27.38c-.15.31-.22.42-.28.55a1.12,1.12,0,0,0,.41,1.43c.42.31.85,0,1.22-.28a2.34,2.34,0,0,0,.67-.83,1.12,1.12,0,0,0-.13-1.48A1.48,1.48,0,0,0,231.53,20.14Z"/><path class="cls-1" d="M159.64,110.19h0c1.21-.46,2.64-.3,3.7-1.24.93-.35,1.88-.66,2.79-1,.38-.16.93-.37.69-1a.93.93,0,0,0-1.16-.49,3.38,3.38,0,0,0-1.81.85h0a17.15,17.15,0,0,1-3.79,1.42,27,27,0,0,0-5.23,1.74c-.37.2-.92,0-1.28.35a4.28,4.28,0,0,1-2.65.89,3.88,3.88,0,0,0-1.56.44c-.57.1-1.15.18-1.73.3a7.58,7.58,0,0,0-3.81,1.82,18.39,18.39,0,0,0,4-.16.66.66,0,0,0,.21.27.55.55,0,0,0,.12,0,.39.39,0,0,0,0-.36,12.65,12.65,0,0,0,1.35-.33q4.8-1.56,9.61-3.15A2,2,0,0,0,159.64,110.19Z"/><polygon class="cls-1" points="136.11 115.95 136.11 115.95 136.12 115.95 136.11 115.95"/><polygon class="cls-1" points="134.17 123.66 134.17 123.67 134.17 123.67 134.17 123.67 134.17 123.66"/><polygon class="cls-1" points="136.12 115.95 136.12 115.95 136.12 115.95 136.12 115.95"/><path class="cls-1" d="M177.93,71.84a2.13,2.13,0,0,0-1.43-.23c-.71.11-.92.43-.77,1.15.23,1.07,1.1,1.4,2.22.82a1.05,1.05,0,0,0,.66-.94C178.62,72.2,178.29,72,177.93,71.84Z"/><path class="cls-1" d="M174.23,77.24c-.12-.31-.41-.31-.68-.31a2.76,2.76,0,0,0-2,.78,14.67,14.67,0,0,1-1.69,1.37,1.67,1.67,0,0,0-1,.38c-2.6,1.55-5.22,3.08-7.8,4.66-.2.12-.4.26-.59.4h0l.19-.14.41-.42h0a.43.43,0,0,1,.19-.14h0l.22-.13h.14l.18-.12c.72-.28,1.14-.93,1.73-1.39.34-.27.66-.58,1-.88a.36.36,0,0,0,0-.52c-.17-.24-.35-.06-.49,0-.83.67-1.66,1.36-2.49,2a.7.7,0,0,0-.17.13.35.35,0,0,0-.05.13l-.19.17h0l-.17.14a.88.88,0,0,0-.05.15l-.59.59A3.11,3.11,0,0,0,159,85.29c-.09.25,0,.37.26.37a5.21,5.21,0,0,0-.7,1.07,7,7,0,0,0,4-1.78,17.71,17.71,0,0,1,4.81-3,6.12,6.12,0,0,0,2.07-1.49.71.71,0,0,0,.51-.41.58.58,0,0,0,.5-.36c.26,0,.38-.16.49-.36a11,11,0,0,0,3-1.29A.62.62,0,0,0,174.23,77.24Z"/><path class="cls-1" d="M199.06,108a3.58,3.58,0,0,0-2.14-.44c-.32,0-.65.08-.72.47s.21.45.44.59a4.2,4.2,0,0,0,1.91.63c.48,0,1.12.23,1.33-.32S199.33,108.3,199.06,108Z"/><path class="cls-1" d="M128.36,33.74c.91-.19,1.85-.44,2.13-1.55a.5.5,0,0,0,.09-.25l.52-1c.57-.27.68-.87,1-1.35a8,8,0,0,0,3.32-4,5.84,5.84,0,0,1,.31-.61A7,7,0,0,0,137,23.17c.64-1.21,1-2.55,1.6-3.75a10.81,10.81,0,0,0,1-4.34.55.55,0,0,0,0-.6h0a1.51,1.51,0,0,0-.12-1,2.7,2.7,0,0,0-.66-2c-.74-.92-1.18-.95-2.24-.14a3.2,3.2,0,0,0-1.31,2.71,1.59,1.59,0,0,0,0,.94l-.06.12,0,.12a3.89,3.89,0,0,0-1.35,3.3L132.08,22c-.49.91-1,1.82-1.46,2.74a4.08,4.08,0,0,1-1.07,1.55,1.74,1.74,0,0,0-.68,1.77.65.65,0,0,0-.06.24,3.23,3.23,0,0,0-.44,3.17c-.16.27-.27.58-.6.7a.6.6,0,0,0-.41.85C127.53,33.47,127.87,33.83,128.36,33.74Z"/><path class="cls-1" d="M203.56,21.41c.94.52,1.08.46,1.45-.6.09-.25.24-.49.35-.73s.32-.48,0-.73a.79.79,0,0,0-.76-.11,2.5,2.5,0,0,0-1.34.86C202.72,20.74,202.77,21,203.56,21.41Z"/><path class="cls-1" d="M62.79,133.71a1.58,1.58,0,0,0,1.88-.67,1.26,1.26,0,0,0-.65-1.35,1.2,1.2,0,0,0-1.52.77C62.2,133.08,62.3,133.52,62.79,133.71Z"/><path class="cls-1" d="M17,100.61c-.47-.33-1.06-.53-1.2-1.44-1.13,1.82-.95,2.51.55,2.85.4.09.83.17,1.08-.28S17.42,100.87,17,100.61Z"/><path class="cls-1" d="M104,41.84c.48.27,1.57.11,1.77-.27s-.26-1.29-.79-1.6a.8.8,0,0,0-1.24.32A1.09,1.09,0,0,0,104,41.84Z"/><path class="cls-1" d="M94.13,30.88A1.69,1.69,0,0,0,96,30.22c.2-.53-.07-.87-.55-1.07a1.26,1.26,0,0,0-1.62.69C93.79,30.19,93.67,30.61,94.13,30.88Z"/><path class="cls-1" d="M238,65.78a1.19,1.19,0,0,0-1.19-.74,1.79,1.79,0,0,0-.4.09c-.33.12-.75.17-.77.64s.37.46.51.55l.48.25a1.18,1.18,0,0,0,1.27-.18A.45.45,0,0,0,238,65.78Z"/><path class="cls-1" d="M19.9,168.31c-.37.05-.3.39-.31.65a3,3,0,0,0,.82,2.49c.41.13.66,0,.63-.42a9.06,9.06,0,0,0-.55-2.24C20.4,168.52,20.22,168.27,19.9,168.31Z"/><path class="cls-1" d="M156.11,74.56a.72.72,0,0,0,.78.4,1.21,1.21,0,0,0,1.1-.86,2.51,2.51,0,0,0,.11-.23c.11-.3.18-.63-.15-.84s-.5,0-.71.18-.53.47-.81.7S156,74.25,156.11,74.56Z"/><path class="cls-1" d="M171.82,21.79a.89.89,0,0,0,1.16-.44,1.69,1.69,0,0,0-.12-1.54c-.25-.17-1,.21-1.24.63S171.44,21.65,171.82,21.79Z"/><path class="cls-1" d="M178.36,20.33a1.39,1.39,0,0,0-.12-1.42c-.25-.28-1,.06-1.21.56a.87.87,0,0,0,.13,1.2A.92.92,0,0,0,178.36,20.33Z"/><path class="cls-1" d="M13.75,164.15c-.39-.24-1.09-.14-1.22.2a1,1,0,0,0,.45,1.18.84.84,0,0,0,1.15-.35A.82.82,0,0,0,13.75,164.15Z"/><path class="cls-1" d="M141,109.88c.17.43.49.42.89.33.76-.18.94-.88,1.36-1.36l-.13-.24c-.55.15-1.11.3-1.65.48C141.06,109.21,140.76,109.42,141,109.88Z"/><path class="cls-1" d="M26.74,92.66a.79.79,0,0,0-.3-1c-.33-.22-1,.11-1.23.53a.83.83,0,0,0,.28,1A1.15,1.15,0,0,0,26.74,92.66Z"/><path class="cls-1" d="M43.48,112.25a.79.79,0,0,0-.13-1.1c-.33-.26-.85-.05-1.12.43a.79.79,0,0,0,.15,1.1C42.74,113,43.21,112.76,43.48,112.25Z"/><path class="cls-1" d="M154.94,88.93a.79.79,0,1,0,1.34.77.94.94,0,0,0-.34-1.19A.71.71,0,0,0,154.94,88.93Z"/><path class="cls-1" d="M83.22,76.46a3.27,3.27,0,0,0,1.54.31c.24,0,.44-.11.45-.39a.63.63,0,0,0-.21-.6,1.92,1.92,0,0,0-1.67,0C83.11,76,82.86,76.25,83.22,76.46Z"/><path class="cls-1" d="M171,71.07a1,1,0,0,0,.31,1c.38.24,1.1.09,1.23-.26a.86.86,0,0,0-.36-1C171.88,70.56,171.14,70.73,171,71.07Z"/><path class="cls-1" d="M146.21,107.68c.74,0,1.27-.44,1.88-.23a1.42,1.42,0,0,0,.9.17c.65,0,.84-.42.53-1s-1-.62-1.67.11C147.37,107.07,146.67,107.05,146.21,107.68Z"/><path class="cls-1" d="M110.8,66.33a1.13,1.13,0,0,0,1.25-.59c.13-.41.09-.87-.37-1a.85.85,0,0,0-1.07.55C110.48,65.66,110.38,66.08,110.8,66.33Z"/><path class="cls-1" d="M140,42.38c.47.2.79-.13,1-.5s0-1.14-.29-1.2c-.52-.1-.7.31-.88.63S139.52,42.16,140,42.38Z"/><path class="cls-1" d="M194,78.75a.82.82,0,0,0-.41-1,.71.71,0,0,0-.94.31.81.81,0,0,0,.13,1.09A1,1,0,0,0,194,78.75Z"/><path class="cls-1" d="M27.22,101.93a.78.78,0,0,0-1.06.35.87.87,0,0,0,.19,1.1,1.1,1.1,0,0,0,1.21-.41A.74.74,0,0,0,27.22,101.93Z"/><path class="cls-1" d="M9.88,129a1.12,1.12,0,0,0-1.24.63.56.56,0,0,0,.33.88c.52.19.85-.13,1.08-.61C10.16,129.55,10.32,129.12,9.88,129Z"/><path class="cls-1" d="M170,25a.8.8,0,0,0-.28-1.08.64.64,0,0,0-1,.31.79.79,0,0,0,.26,1.08C169.38,25.47,169.8,25.45,170,25Z"/><path class="cls-1" d="M83.92,58.28A.82.82,0,0,0,85.07,58c.17-.33.22-.63,0-.88s-1.25,0-1.42.4A.56.56,0,0,0,83.92,58.28Z"/><path class="cls-1" d="M196.36,139.52a1.76,1.76,0,0,0-1.58,1.47c.81-.27,1.47-.29,1.91-.81a.47.47,0,0,0,.13-.5A.38.38,0,0,0,196.36,139.52Z"/><path class="cls-1" d="M56.29,68.8c-.11-.2-.2-.4-.32-.59a.45.45,0,0,0-.56-.23.49.49,0,0,0-.28.42c-.14.73.12,1,1.37,1.25A1,1,0,0,0,56.29,68.8Z"/><path class="cls-1" d="M160.88,168.6c.74-.32,1.35-.84,2.12-1.12.42-.15.51-.53.14-1C162.36,167.21,161.32,167.54,160.88,168.6Z"/><path class="cls-1" d="M161.63,1.15c.45.23,1.13.08,1.22-.26a.64.64,0,0,0-.38-.77c-.41-.24-1.07-.11-1.17.25A.7.7,0,0,0,161.63,1.15Z"/><path class="cls-1" d="M180.54,83.23c.89-.27,1.9-.32,2.57-1.36A2.93,2.93,0,0,0,180.54,83.23Z"/><path class="cls-1" d="M59.12,112.44c-.07-.32-.34-.4-.64-.29s-.38.46-.24.77a1.49,1.49,0,0,0,1.65.84A4.34,4.34,0,0,1,59.12,112.44Z"/><path class="cls-1" d="M201,138.64c1-.53,1.87-.62,2.35-1.49A2.32,2.32,0,0,0,201,138.64Z"/><path class="cls-1" d="M76.4,90.3c.88.82,1.15.78,1.65-.22a5.68,5.68,0,0,0,.35-1.45l.51-1a1.33,1.33,0,0,1,.77-.22c1.1.88,2.42.16,3.6.51a.18.18,0,0,0,.1,0c.13.31.34.35.67.09a3.41,3.41,0,0,0,.75-1.16c.12-.22-.1-.37-.32-.3l-.2,0a1.36,1.36,0,0,0,0-.4A1.44,1.44,0,0,0,83,84.94c-.36,0-.73,0-1.09,0l-2.44-1.23c-1.16-1.27-1.87-1.2-2.65.29-.19.36-.34.75-.55,1.1a1.23,1.23,0,0,0-.12.26,4.31,4.31,0,0,1-.66-.69,2.54,2.54,0,0,0-.72-.64c0,.81.79.86,1,1.4a2.3,2.3,0,0,0,.24.5A1.88,1.88,0,0,0,76.23,87c-.1.29.32.66,0,.87s-.6-.12-.85-.29S75,87.2,74.75,87c-.5-.41-.59-1.13-1.17-1.48-.32-.37-.62-.76-1-1.12a.57.57,0,0,0-.73-.14.69.69,0,0,0-.33.69,1,1,0,0,0,.65.79c.71,1,1.44,1.93,2.12,2.92A4,4,0,0,0,76.4,90.3Z"/><path class="cls-1" d="M1.68,120.65c-.37-.14-.56.17-.7.46-.21.46,0,.76.36,1,.42.1.52-.24.64-.51S2.16,120.82,1.68,120.65Z"/><path class="cls-1" d="M30.1,107.41c.29-.39-.21-.48-.41-.67-.37-.16-.78-.46-1.05,0a.58.58,0,0,0,.34.78A.89.89,0,0,0,30.1,107.41Z"/><path class="cls-1" d="M196.82,117.9a2,2,0,0,0-1.7-.17,4.43,4.43,0,0,0-2.42.73,5.57,5.57,0,0,0,3.27.61c.26,0,.53-.09.79-.15s.46-.14.49-.4S197.06,118.05,196.82,117.9Z"/><path class="cls-1" d="M183.71,18.54a.9.9,0,0,0-1,.49c-.12.19,0,.43.32.59.33,0,.75.09.94-.42C184.06,18.92,184,18.64,183.71,18.54Z"/><path class="cls-1" d="M126,51.63a.65.65,0,0,0,.85-.19c0-.29,0-.65-.3-.8a.58.58,0,0,0-.82.22A.51.51,0,0,0,126,51.63Z"/><path class="cls-1" d="M132.88,91.77c-.11.23,0,.42.28.54s.77.21,1-.25-.13-.48-.38-.58A.64.64,0,0,0,132.88,91.77Z"/><path class="cls-1" d="M52,97.44c.21.08.46.15.55-.15s.29-.72-.2-.9-.6.08-.8.36S51.66,97.31,52,97.44Z"/><path class="cls-1" d="M180.42,51.54a.66.66,0,0,0-.34-.73.53.53,0,0,0-.79.24.51.51,0,0,0,.26.67A.61.61,0,0,0,180.42,51.54Z"/><path class="cls-1" d="M39.37,114.07a.85.85,0,0,0,1.06-.34c.19-.23.06-.42-.15-.55a.73.73,0,0,0-1,.28C39.2,113.7,39.14,114,39.37,114.07Z"/><path class="cls-1" d="M177.24,85.05h0Z"/><path class="cls-1" d="M175.51,86.6a12.13,12.13,0,0,0,1.73-1.55c-.78,0-1.31.52-2,.8A1,1,0,0,0,175.51,86.6Z"/><path class="cls-1" d="M216.06,113.07a.54.54,0,0,0,.17.72c.32.26.6.09.81-.18s0-.44-.13-.59A.59.59,0,0,0,216.06,113.07Z"/><path class="cls-1" d="M59.1,58.65a.52.52,0,0,0-.81.2c-.11.21,0,.44.25.65a.76.76,0,0,0,.77-.28C59.45,59,59.31,58.78,59.1,58.65Z"/><path class="cls-1" d="M30.49,174.74a.75.75,0,0,0-.95.22c-.17.18-.07.41.08.61.43.21.64-.14.87-.38S30.7,174.85,30.49,174.74Z"/><path class="cls-1" d="M37.16,154.25c-.27-.07-.57-.14-.7.18a.59.59,0,0,0,.23.71c.28.18.52,0,.66-.23A.43.43,0,0,0,37.16,154.25Z"/><path class="cls-1" d="M167.47,119.45a.3.3,0,0,0,.11.47.92.92,0,0,0,1-.37.23.23,0,0,0-.07-.34A.78.78,0,0,0,167.47,119.45Z"/><path class="cls-1" d="M93.31,25.83c.22.11.43,0,.56-.28a.53.53,0,0,0-.3-.72.45.45,0,0,0-.57.23A.55.55,0,0,0,93.31,25.83Z"/><path class="cls-1" d="M127.28,53.81c-.87,0-1.39,0-1.84.66A1.66,1.66,0,0,0,127.28,53.81Z"/><path class="cls-1" d="M66.94,82a.36.36,0,0,0,.53-.24c.08-.27-.1-.42-.31-.52a.41.41,0,0,0-.59.11A.56.56,0,0,0,66.94,82Z"/><path class="cls-1" d="M55.93,119.89a.42.42,0,0,0,.1.35c.49.24.67-.21.95-.45,0,0,0-.07,0-.22C56.61,119.6,56.17,119.3,55.93,119.89Z"/><path class="cls-1" d="M8.83,110a.55.55,0,0,0-.36-.65c-.18-.08-.39-.06-.43.15a.58.58,0,0,0,.36.65C8.59,110.26,8.79,110.21,8.83,110Z"/><path class="cls-1" d="M173.53,19.08a1.44,1.44,0,0,0,.4-.06c.94-.27.94-.27.72-1.49a6.69,6.69,0,0,1,.9-1.79,2.14,2.14,0,0,0,.46-1c.1-.38.2-.85-.18-1.13a.9.9,0,0,0-1.23.2c-.8.89-1.89,1.57-2.23,2.82C171.38,18.43,171.56,18.82,173.53,19.08Z"/><path class="cls-1" d="M69.32,42.63a.25.25,0,0,0,.32-.15.54.54,0,0,0-.35-.73c-.19-.07-.32,0-.43.2C68.86,42.28,69,42.55,69.32,42.63Z"/><path class="cls-1" d="M169.82,49.1a1.07,1.07,0,0,0,1.38-.5C170.52,48.56,170.11,48.55,169.82,49.1Z"/><path class="cls-1" d="M229.3,54.77c-.19-.11-.42-.21-.57,0s0,.42.2.6a.45.45,0,0,0,.55-.13C229.66,55.05,229.5,54.88,229.3,54.77Z"/><path class="cls-1" d="M35.28,128.46c.08-.47.77-.5.73-1.09C35.05,127.22,35.25,127.92,35.28,128.46Z"/><path class="cls-1" d="M2.33,114.2c-.18-.09-.39-.31-.57,0a.44.44,0,0,0,.12.6.45.45,0,0,0,.59-.13A.3.3,0,0,0,2.33,114.2Z"/><path class="cls-1" d="M99.58,59.31c-.12-.07-.27-.08-.34,0a.42.42,0,0,0,.18.65.23.23,0,0,0,.32-.13A.38.38,0,0,0,99.58,59.31Z"/><path class="cls-1" d="M60.21,85.67c.11-.2,0-.35-.2-.44a.4.4,0,0,0-.58.14c-.09.19.09.33.23.47A.36.36,0,0,0,60.21,85.67Z"/><path class="cls-1" d="M50.87,133.34c0-.05-.07-.19-.13-.2-.43-.06-.65.15-.73.57C50.44,133.85,50.73,133.74,50.87,133.34Z"/><path class="cls-1" d="M53.16,113.78c-.11.15-.15.33,0,.45s.41,0,.57-.11a.31.31,0,0,0-.14-.44A.34.34,0,0,0,53.16,113.78Z"/><path class="cls-1" d="M154.19,117.63c.09-.16.15-.34-.05-.45a.38.38,0,0,0-.47.09.35.35,0,0,0,.1.45A.26.26,0,0,0,154.19,117.63Z"/><path class="cls-1" d="M131.54,72.53a.3.3,0,0,0,.3.33.25.25,0,0,0,.29-.18.31.31,0,0,0-.3-.33C131.7,72.34,131.55,72.38,131.54,72.53Z"/><path class="cls-1" d="M5.21,157.2c-.09.19,0,.33.16.47s.24.13.31,0a.43.43,0,0,0-.14-.49A.19.19,0,0,0,5.21,157.2Z"/><path class="cls-1" d="M0,160.08a.23.23,0,0,0,.11.32c.16.08.32.13.42-.07A.23.23,0,0,0,.45,160C.29,159.93.13,159.88,0,160.08Z"/><path class="cls-1" d="M5.22,79c0-.08-.11-.24-.21-.29a.26.26,0,0,0-.4.18c0,.09.11.21.15.29C5,79.19,5.19,79.16,5.22,79Z"/><path class="cls-1" d="M188.79,15.49a.2.2,0,0,0,.07-.32.28.28,0,0,0-.37-.05.17.17,0,0,0-.07.3A.31.31,0,0,0,188.79,15.49Z"/><path class="cls-1" d="M37.82,114.39a.25.25,0,0,0-.34.12.32.32,0,0,0,0,.25c.3.1.44,0,.5-.08S37.94,114.44,37.82,114.39Z"/><path class="cls-1" d="M153.79,18.51c-.08.13,0,.23.16.27a.25.25,0,0,0,.34-.12.2.2,0,0,0-.16-.28A.46.46,0,0,0,153.79,18.51Z"/><path class="cls-1" d="M13.76,168.09c-.11-.07-.26-.08-.31.08a.23.23,0,1,0,.45.12A.25.25,0,0,0,13.76,168.09Z"/><path class="cls-1" d="M34.64,125.5a.36.36,0,0,0,.07.46c.08,0,.21,0,.23,0a.34.34,0,0,0-.08-.45S34.66,125.47,34.64,125.5Z"/><path class="cls-1" d="M192.06,5.39a.24.24,0,0,0,0,.33.25.25,0,0,0,.34-.08.3.3,0,0,0,0-.24C192.28,5.26,192.16,5.28,192.06,5.39Z"/><path class="cls-1" d="M15.76,103.52a.24.24,0,0,0,0,.23.17.17,0,0,0,.3,0s0-.15,0-.22S15.8,103.47,15.76,103.52Z"/><path class="cls-1" d="M3.65,100.68a.34.34,0,0,0-.09.44.76.76,0,0,0,.2,0,1.18,1.18,0,0,0,.05-.37C3.81,100.64,3.72,100.61,3.65,100.68Z"/><path class="cls-1" d="M58.4,97.43a.18.18,0,0,0,0-.3.28.28,0,0,0-.22,0,.19.19,0,0,0,0,.31C58.25,97.44,58.36,97.47,58.4,97.43Z"/><path class="cls-1" d="M69.24,101.34a1.28,1.28,0,0,0,.13.36s.2.07.22,0a.28.28,0,0,0-.1-.43S69.34,101.33,69.24,101.34Z"/><path class="cls-1" d="M162.77,69.25s0,.15,0,.22.18,0,.24,0a.14.14,0,0,0,0-.23A.2.2,0,0,0,162.77,69.25Z"/><path class="cls-1" d="M8.51,162.37c-.11,0-.18,0-.15.16a1.64,1.64,0,0,0,.14.22c.12,0,.19-.07.17-.18A.35.35,0,0,0,8.51,162.37Z"/><path class="cls-1" d="M8.62,161.29c-.06-.06-.1-.16-.16-.17a.24.24,0,0,0-.17.13c0,.1,0,.16.12.16Z"/><path class="cls-1" d="M53.32,70.74s-.13,0-.19.05.07.16.13.19.21,0,.22,0S53.43,70.77,53.32,70.74Z"/><path class="cls-1" d="M151.23,138.69c-.09-.07-.22-.13-.29,0s.09.13.14.19h.24C151.29,138.82,151.28,138.73,151.23,138.69Z"/><path class="cls-1" d="M14.26,181.84a.22.22,0,0,0,.05.32s.13,0,.23,0a2.53,2.53,0,0,0-.16-.33A.17.17,0,0,0,14.26,181.84Z"/><path class="cls-1" d="M103.54,33.44s0-.15.06-.23a2.09,2.09,0,0,0-.25,0c-.11,0-.14.14,0,.21A.24.24,0,0,0,103.54,33.44Z"/><path class="cls-1" d="M91.83,19.85a.3.3,0,0,0-.06-.22s-.14,0-.25,0c0,.13.1.24.14.36C91.72,19.93,91.82,19.9,91.83,19.85Z"/><path class="cls-1" d="M184.74,169a.26.26,0,0,0-.2.14c0,.1,0,.18.16.15a.85.85,0,0,0,.22-.13C184.86,169.12,184.8,169,184.74,169Z"/><path class="cls-1" d="M54.33,99.45s.11.11.16.16l.22,0c0-.07-.07-.16-.13-.19S54.34,99.26,54.33,99.45Z"/><path class="cls-1" d="M35.14,175.67s.06.06.08.09l.13,0a.28.28,0,0,0,0-.11C35.21,175.56,35.14,175.58,35.14,175.67Z"/><path class="cls-1" d="M73.46,99.73s.08,0,.1,0a.12.12,0,0,0,0-.11c0-.09-.09-.09-.15,0S73.46,99.69,73.46,99.73Z"/><path class="cls-1" d="M1.85,129.06s0,.11,0,.12a.15.15,0,0,0,.19-.14s0-.12,0-.12S1.88,129,1.85,129.06Z"/><path class="cls-1" d="M58.14,79.6a.13.13,0,0,0,.12,0s0,0,.05-.07-.05-.07-.08-.08S58.06,79.5,58.14,79.6Z"/><path class="cls-1" d="M140.24,113.4s.09,0,.11,0a.15.15,0,0,0,0-.11c0-.09-.1-.09-.15,0S140.24,113.36,140.24,113.4Z"/><path class="cls-1" d="M5.23,110.89,5,111l0,.12a1.15,1.15,0,0,0,.19-.14S5.24,110.93,5.23,110.89Z"/><path class="cls-1" d="M50.3,129.81c.07-.1,0-.17,0-.17s-.06.05-.09.08a.59.59,0,0,0,0,.13S50.27,129.84,50.3,129.81Z"/><path class="cls-1" d="M47.75,128.62s-.1,0-.11,0a1.33,1.33,0,0,0,0,.21s.11,0,.11,0A1.33,1.33,0,0,0,47.75,128.62Z"/><path class="cls-1" d="M113.43,39l.12,0s0-.1,0-.12-.17,0-.17.05S113.4,39,113.43,39Z"/><path class="cls-1" d="M177.27,85q.18,0,.09-.06S177.3,85,177.27,85Z"/><path class="cls-1" d="M14.05,78.55c.06.33.36.27.6.11a.2.2,0,0,0-.11-.33C14.32,78.29,14,78.34,14.05,78.55Z"/><path class="cls-1" d="M63.36,70.21l0,.13c.23,0,.23-.09.1-.24Z"/><polygon class="cls-1" points="167.59 73.07 167.54 73.13 167.63 73.14 167.59 73.07"/><polygon class="cls-1" points="131.89 91.75 131.89 91.75 131.89 91.75 131.89 91.75"/><path class="cls-1" d="M131.64,92c.06,0,.16-.16.25-.25-.13,0-.31-.11-.35-.06A.2.2,0,0,0,131.64,92Z"/><path class="cls-1" d="M28.4,58.36c0,.27-.09.55-.13.82C28.78,59,28.8,58.85,28.4,58.36Z"/><path class="cls-1" d="M93.16,43.5a3.65,3.65,0,0,0,.16,1.88,4.73,4.73,0,0,1,.23,1.29,11.58,11.58,0,0,1,0,3.22c0,.07.05.16.07.23a1.33,1.33,0,0,0,.21.7A1.91,1.91,0,0,0,94,52c0,.32.09.67.44.69s.49-.29.56-.6a2,2,0,0,0,0-.24c.19.05.2-.79.51-.1a.45.45,0,0,1,.12.21.33.33,0,0,0,0,.14.31.31,0,0,0,.11.35h0a6.49,6.49,0,0,0,1.1,2.37,9.84,9.84,0,0,1,0-1.43c0-.45-.43-.91-.67-1.37h0l-.12-.21a.86.86,0,0,0,0-.16,1.74,1.74,0,0,0-.11-.18c-.1-.23,0-.51-.22-.71a4.57,4.57,0,0,0-.68-2.12h0c.07-.28-.14-.47-.21-.72s.24-.67,0-1a2.12,2.12,0,0,1-.23-1.35A2.16,2.16,0,0,0,94.44,44l-.13,0a.35.35,0,0,0-.25-.39c0-.05,0-.11,0-.16a.17.17,0,0,0-.11-.18h0A6.18,6.18,0,0,1,94,41.71c0-.41-.19-.94-.45-1a.73.73,0,0,0-.79.56l0,.08a11.78,11.78,0,0,0,.46,2.12ZM95,48.68l.09,0a.19.19,0,0,0-.12.14.61.61,0,0,0-.17-.15Z"/><path class="cls-1" d="M73.07,66.86a1,1,0,0,0-.61-.73.15.15,0,0,0-.2.1.85.85,0,0,0,.34.87,1.37,1.37,0,0,1,.13.2h0a.34.34,0,0,0,.12.35h0a1.37,1.37,0,0,1,.13.2A.43.43,0,0,0,73,68l.12.19c.41,1.23,1,2.35,1.42,3.6a20.77,20.77,0,0,0,.86,2.14.57.57,0,0,0,.17.52c.13.12.16.36.24.52a.62.62,0,0,0-.8.24c-.26.35-.13.68.2,1a.68.68,0,0,0,.92-.29.59.59,0,0,0-.11-.79l.1,0c.27-.14.06-.64-.09-1a1.43,1.43,0,0,0-.26-.3h0c-.15-.42-.25-.84-.36-1.27A4.88,4.88,0,0,0,74.9,71a7.77,7.77,0,0,1-.7-1.49,5.84,5.84,0,0,0-.85-1.78c0-.06-.09-.13-.14-.2a.76.76,0,0,0,0-.15,1.37,1.37,0,0,1-.13-.2.38.38,0,0,0,0-.15Z"/><path class="cls-1" d="M153.85,106.31c.84-.35,1.66-.72,2.49-1.09a.86.86,0,0,1,.2-.13h.16l.18-.14h0l.19-.13h0c.1-.09.25,0,.35-.11s.25,0,.36-.11l.16,0c.1-.09.25,0,.35-.11.24-.32.08-.47-.24-.54h0c-.1.09-.25,0-.35.11l-.16,0-.2.12h-.16l-.19.13a1.37,1.37,0,0,1-.2.13h-.16l-.18.13-.2.14-.71.2c-.66.19-1.34.34-2,.59-.35.14-.82.28-.83.79C152.73,106.52,153.25,106.55,153.85,106.31Z"/><path class="cls-1" d="M171.47,99.37a2,2,0,0,0-.31.12,11.84,11.84,0,0,1-2.08.78,4.61,4.61,0,0,0-1.27.55.35.35,0,0,0,.11.36c.74-.2,1.48-.42,2.22-.6.22,0,.51-.21.71,0,.39.41.59.22.78-.17,0-.09.19-.11.27-.18.27-.18.67-.36.47-.72S171.79,99.26,171.47,99.37Z"/><path class="cls-1" d="M83.83,69.85a.23.23,0,0,0-.06.3,1.82,1.82,0,0,0,.2.36,6.36,6.36,0,0,1,1.15,1.9.56.56,0,0,0,.28.29,2.47,2.47,0,0,1,.78,1,.37.37,0,0,0,.11.36.85.85,0,0,0,0,.16.71.71,0,0,0,.12.18h0a.34.34,0,0,0,.29.22l.14.19h0L87,75a9.82,9.82,0,0,0,1.91,2.82c.09.11,0,.25.11.36a1.33,1.33,0,0,1,.14.19c.17.14.31.17.35-.11a1.37,1.37,0,0,1-.13-.2.8.8,0,0,1-.13-.19,8.34,8.34,0,0,0-1.73-3c0-.06-.09-.12-.13-.19h0l-.13-.19h0l-.14-.19h0L87,74.11a2.14,2.14,0,0,1-.13-.19h0a1.43,1.43,0,0,1-.14-.2h0a.57.57,0,0,1-.13-.21c0-.52-.45-.81-.64-1.23a24.23,24.23,0,0,0-1.8-2.37A.19.19,0,0,0,83.83,69.85Z"/><path class="cls-1" d="M103.51,56.64c-.1.14-.18.28,0,.43s.27.23.44.14a2.3,2.3,0,0,0,.49-.32c.57-.55,1.14-1.11,1.7-1.68.23-.24.41-.52.6-.76-.09-.2-.2-.1-.28-.06a25.59,25.59,0,0,0-2.85,2.11A.48.48,0,0,0,103.51,56.64Z"/><path class="cls-1" d="M174.19,68.36a.44.44,0,0,0-.17.4,4,4,0,0,1,.79.5c.52.43.66.4,1.26-.08a.24.24,0,0,0,.06-.34l-.06-.15C175.54,67.48,175,67.39,174.19,68.36Z"/><path class="cls-1" d="M166.09,66.19a.59.59,0,0,0,.44.45.46.46,0,0,0,.58-.58,12.55,12.55,0,0,0-.63-1.78c-.13-.3-.43-.3-.71-.16-.11.06-.21.18-.14.26C166.05,64.92,165.88,65.6,166.09,66.19Z"/><path class="cls-1" d="M128,57.33a.28.28,0,0,0-.26.18,6,6,0,0,0-.45,1.44,2,2,0,0,0,.05,1.19c.07.21.28.33.42.07a3.23,3.23,0,0,0,.45-2.67C128.12,57.44,128.08,57.33,128,57.33Z"/><path class="cls-1" d="M122.93,59.12c.21.09.38-.06.49-.21A2.68,2.68,0,0,0,124,57.4c0-.2.23-.56,0-.89-.15-.18-.34-.24-.44,0a10.27,10.27,0,0,0-.7,2.09C122.72,58.81,122.73,59,122.93,59.12Z"/><path class="cls-1" d="M68.45,129.86c.12-.17.2-.36,0-.47s-.66-.25-1-.37a1,1,0,0,1-.81,0c-.56-.33-1,0-1.6.24a13.71,13.71,0,0,1,2.64.61A1.08,1.08,0,0,0,68.45,129.86Z"/><path class="cls-1" d="M157.44,65.69c-.73.67-.44,1.5-.36,2.29a.48.48,0,0,0,.38.39.4.4,0,0,0,.44-.14.32.32,0,0,0,0-.37c-.3-.78-.3-.78.35-1.27a1.61,1.61,0,0,0,.23-.22,8.33,8.33,0,0,0,2.58-2.47.34.34,0,0,0,.23-.27,12.93,12.93,0,0,0,2-2.05,8.71,8.71,0,0,0,.17-.86c.32-.1.4-.45.56-.71a11.34,11.34,0,0,1,1.54-2.1c.07-.15,0-.21-.14-.19l-.19.14-2.39,2.3-.65.63c-.53.53-.85,1.23-1.42,1.71h0a.21.21,0,0,0-.2.14.19.19,0,0,0-.18.14.18.18,0,0,0-.17.15,4.91,4.91,0,0,1-1.1,1A4.39,4.39,0,0,0,157.44,65.69Z"/><path class="cls-1" d="M51.12,118.14a7.6,7.6,0,0,0,2.4.75,4,4,0,0,0-2.19-1.35c-.18-.06-.43-.06-.5.15S50.94,118.05,51.12,118.14Z"/><path class="cls-1" d="M152,110.39c.08.11.17.22.33.18a.26.26,0,0,0,.19-.32,13.37,13.37,0,0,0-.52-2.84c-.25.09-.29.2-.27.3a7.83,7.83,0,0,1,.12,2.21A.72.72,0,0,0,152,110.39Z"/><path class="cls-1" d="M117,199.21c-.66,0-1,.45-1,1.2s.19.86,1,1,1.15-.26,1.16-1A1.13,1.13,0,0,0,117,199.21Z"/><path class="cls-1" d="M85.65,81.15a4.26,4.26,0,0,0,.7.94c.16.06.28.33.49.08l-1-1.17c-.3-.83-1.1-1.21-1.61-1.86a.31.31,0,0,0-.45,0c-.18.15-.06.31,0,.43.35.39.71.77,1.06,1.15A3.32,3.32,0,0,0,85.65,81.15Z"/><path class="cls-1" d="M68.91,93.41a1.86,1.86,0,0,1,1,1c.25,0,.37-.07.23-.33A7.71,7.71,0,0,1,69.47,93a.61.61,0,0,1-.29-.36c-.06-.12-.22-.12-.3-.23h0c-.27-.34-.62-.25-1-.18a.61.61,0,0,0-.22.13C67.75,93.12,68.39,93.2,68.91,93.41Z"/><path class="cls-1" d="M101.86,78.48a1.42,1.42,0,0,0-.23.9,5.55,5.55,0,0,0,.62,2.21l.13.2c.33-.23,0-.57.14-.82C102.31,80.19,102.1,79.4,101.86,78.48Z"/><path class="cls-1" d="M62,120.46c-.36.34-.71.68-1.05,1a.64.64,0,0,0-.07.93,3.28,3.28,0,0,0,1.48-1.94C62.26,120.43,62.17,120.33,62,120.46Z"/><path class="cls-1" d="M156.43,43.54c-.14-.09-.28.09-.37.23a3.27,3.27,0,0,0,.65,1.27,1,1,0,0,0,.62-.73c-.16-.29,0-.54.11-.79C157.11,43.56,156.79,43.78,156.43,43.54Z"/><path class="cls-1" d="M150.54,98.11a.31.31,0,0,0-.07-.44c-.14-.12-.26,0-.35.09a8.87,8.87,0,0,1-2.61,1.67l.14.21c.85-.33,1.59-.88,2.45-1.16A1.11,1.11,0,0,0,150.54,98.11Z"/><path class="cls-1" d="M167.23,143.12a5.57,5.57,0,0,0-1.29,0l-.7-.12c-.08,0-.18,0-.18.09s.08.18.17.24l.15,0a.33.33,0,0,0,.31.2c.43.28.95.14,1.4.34a.41.41,0,0,0,.58-.28C167.72,143.31,167.49,143.2,167.23,143.12Zm-1.32.13h0v0Zm.18.12h0l.08,0a.35.35,0,0,1,.14,0Zm.4.08a.31.31,0,0,0-.13,0,.14.14,0,0,0,.15,0C166.56,143.32,166.59,143.47,166.49,143.45Z"/><path class="cls-1" d="M128.49,52a1.06,1.06,0,0,0,0-.8c-.05-.12-.09-.28-.24-.3a.4.4,0,0,0-.38.26.75.75,0,0,0,0,.91.33.33,0,0,0,.26.17A.39.39,0,0,0,128.49,52Z"/><path class="cls-1" d="M161.78,87.48c.21,0,.38-.35.34-.65s-.28-.45-.52-.57a.23.23,0,0,0-.29.08c-.18.21,0,.41,0,.61S161.5,87.42,161.78,87.48Z"/><path class="cls-1" d="M93.36,73.77c-.23-.49-.45-1-.69-1.46a.86.86,0,0,0-.2-.26c-.1-.09-.23-.17-.37-.06s0,.19,0,.3A3.7,3.7,0,0,0,93.36,73.77Z"/><path class="cls-1" d="M57.33,119.5c.6.12,1.25-.15,1.82.26a1.87,1.87,0,0,0-1.56-.87A1.12,1.12,0,0,0,57.33,119.5Z"/><path class="cls-1" d="M81.23,82.66a.4.4,0,0,0,0,.47c.21.17.25-.1.36-.19s.16-.14.25-.21c.42-.33.42-.33,0-.72l-.24-.22C81.77,82.22,81.34,82.37,81.23,82.66Z"/><path class="cls-1" d="M174.49,131.18c-.15,0-.25.07-.28.28s.41.76.69.75a.31.31,0,0,0,.34-.28C175.26,131.66,174.79,131.19,174.49,131.18Z"/><path class="cls-1" d="M90.47,73a1.09,1.09,0,0,0-.23-1.13.22.22,0,0,0-.35,0c-.14.21.16,1.1.22,1.12C90.36,73.07,90.43,73,90.47,73Z"/><path class="cls-1" d="M151.3,66.35c.07-.13.15-.25,0-.35s-.29,0-.34.14c-.26.47-.48,1-.74,1.48a.55.55,0,0,0,.58-.34C151,67,151.12,66.66,151.3,66.35Z"/><path class="cls-1" d="M51.47,100.4c.26.09.47.3.76.3a.36.36,0,0,0,.32.19l.16,0,2.94,2.81h0a.33.33,0,0,0,.28.23h0a.67.67,0,0,1,.14.19c.09.33.47.43.58.74a2.86,2.86,0,0,1,.71.48c-.18.34-.45.68,0,1,.32.1.63.38,1,.12.24.17.48.37.74.52.61.34.62.33,1.21-.17a2.1,2.1,0,0,0-.65-1.05,3.34,3.34,0,0,1-1.27-1.34,7.83,7.83,0,0,0-.9-.83c-.24-.13-.5,0-.74-.1l-.31-.1a.34.34,0,0,0-.14,0c-.11-.9-.79-1.34-1.48-1.76-.48-.25-.8-.71-1.27-1a.45.45,0,0,0-.16,0v0a.86.86,0,0,0-.1-.16.69.69,0,0,0-.13-.11l-.15-.1-.17-.07,0,0v0h-.05l0,0c-.05-.07-.14-.1-.19-.18s-.46-.2-.61-.43c-.74,0-.8.12-.53.78A.94.94,0,0,1,51.47,100.4Z"/><path class="cls-1" d="M149.62,130.83c.2,0,.48,0,.48-.33a.58.58,0,0,0-.49-.59.36.36,0,0,0-.43.32C149.27,130.46,149.27,130.79,149.62,130.83Z"/><path class="cls-1" d="M180.48,124.05a.76.76,0,0,0-.79.44,1.54,1.54,0,0,0,.78.23.33.33,0,0,0,.39-.33C180.87,124.14,180.69,124.07,180.48,124.05Z"/><path class="cls-1" d="M183,102.44c-.25-.15-.92.14-.95.41a.67.67,0,0,0,.06.15.41.41,0,0,0,.59,0c.17-.11.41-.18.4-.46C183.1,102.51,183,102.46,183,102.44Z"/><path class="cls-1" d="M88.56,52.34h0a2,2,0,0,0,.14,1,1.39,1.39,0,0,0,.55-1c-.09-.32-.17-.64-.3-1.12C88.73,51.64,88.33,51.87,88.56,52.34Z"/><path class="cls-1" d="M100.71,83.44c-.07-.28.08-.69-.39-.65s-.67.19-.47.7A1,1,0,0,1,100.71,83.44Z"/><path class="cls-1" d="M173.84,122.32c-.31,0-.63-.21-1,.08a1.08,1.08,0,0,0,.95.36.29.29,0,0,0,.24-.21A.2.2,0,0,0,173.84,122.32Z"/><path class="cls-1" d="M176.56,69.26a3.59,3.59,0,0,0,1-.69c.08-.07.15-.17,0-.28a.22.22,0,0,0-.29,0l-.71.65C176.48,69,176.19,69.11,176.56,69.26Z"/><path class="cls-1" d="M82.59,77.23a2.62,2.62,0,0,0-.24-1.53c0-.25-.08-.56-.41-.44s-.16.39,0,.59.12.13.17.19h0A1.19,1.19,0,0,0,82.59,77.23Z"/><path class="cls-1" d="M168.93,77.06a.46.46,0,0,0,.48.45.24.24,0,0,0,.29-.21c0-.24-.24-.62-.46-.59A.37.37,0,0,0,168.93,77.06Z"/><path class="cls-1" d="M190.58,69.83c-1.1-.31-1.86.46-2.73.88a.42.42,0,0,0-.2.68c.2.27.46.16.65,0A3.5,3.5,0,0,1,190,70.7a.23.23,0,0,0,.2-.11l.69.32C190.66,70.56,191.11,70.07,190.58,69.83Z"/><path class="cls-1" d="M148,106.38a.44.44,0,0,0-.35-.48c-.19,0-.29.1-.36.26s.06.31.24.34S148,106.64,148,106.38Z"/><path class="cls-1" d="M179.89,139.8c-.19-.06-.3.06-.34.25a.3.3,0,0,0,.31.37.23.23,0,0,0,.3-.18A.36.36,0,0,0,179.89,139.8Z"/><path class="cls-1" d="M84.8,73.12c-.13,0-.19.08-.23.2a.53.53,0,0,0,.31.52c.1,0,.21,0,.24-.16S85,73.12,84.8,73.12Z"/><path class="cls-1" d="M155.93,61.45c0,.19-.07.4.18.46a.24.24,0,0,0,.28-.22c0-.23,0-.45-.24-.5S156,61.33,155.93,61.45Z"/><path class="cls-1" d="M144.86,111.61c.07-.2,0-.3-.29-.37s-.28,0-.31.24a.3.3,0,0,0,.23.37C144.67,111.9,144.8,111.78,144.86,111.61Z"/><path class="cls-1" d="M182.63,74.7a.31.31,0,0,0,.33-.3.29.29,0,0,0-.22-.38c-.16,0-.36,0-.37.24S182.38,74.67,182.63,74.7Z"/><path class="cls-1" d="M154.19,63.78a.3.3,0,0,0-.23-.43c-.15,0-.26,0-.34.2a.36.36,0,0,0,.24.36C154,64,154.14,63.94,154.19,63.78Z"/><path class="cls-1" d="M142.8,92.14a.24.24,0,0,0,.17.32.32.32,0,0,0,.4-.19.27.27,0,0,0-.21-.37A.31.31,0,0,0,142.8,92.14Z"/><path class="cls-1" d="M49.7,109c.13,0,.26,0,.27-.14s-.2-.29-.37-.35-.24,0-.25.13S49.51,109,49.7,109Z"/><path class="cls-1" d="M98.52,71.24c0,.18,0,.32.28.36a.27.27,0,0,0,.18-.27c0-.18-.09-.32-.28-.31S98.54,71.14,98.52,71.24Z"/><path class="cls-1" d="M158.39,45.79a.21.21,0,0,0,.22-.2c0-.22-.17-.26-.34-.27s-.2,0-.22.2S158.19,45.8,158.39,45.79Z"/><path class="cls-1" d="M136.29,117.06c0,.14.05.24.18.23a.42.42,0,0,0,.38-.27.2.2,0,0,0-.15-.25A.34.34,0,0,0,136.29,117.06Z"/><path class="cls-1" d="M76.92,74.09c0-.14-.1-.23-.25-.26a.24.24,0,0,0-.29.2.24.24,0,0,0,.24.25C76.77,74.29,76.91,74.24,76.92,74.09Z"/><path class="cls-1" d="M127.44,77.73s.07.14.21.16a.19.19,0,0,0,.24-.14.21.21,0,0,0-.17-.29C127.62,77.43,127.51,77.48,127.44,77.73Z"/><path class="cls-1" d="M154.51,65.61s.09.08.13.08c.22,0,.32-.16.31-.48C154.68,65.26,154.49,65.33,154.51,65.61Z"/><path class="cls-1" d="M168.52,55.34s0,0,0,0a1.15,1.15,0,0,0,.14.17c0,.31-.17.63,0,.94s.28.36.54.26a.39.39,0,0,0,.24-.54c-.13-.42-.27-.84-.41-1.26a.3.3,0,0,0-.11-.34h0c-.4-.54-.5.07-.72.18h-.15C168,55.14,168.14,55.33,168.52,55.34Z"/><path class="cls-1" d="M190.64,50.26c-.09,0-.12.07-.13.15a.24.24,0,0,0,.27.23.13.13,0,0,0,.09-.1A.28.28,0,0,0,190.64,50.26Z"/><path class="cls-1" d="M158.28,55.34c.09,0,.13-.07.15-.16s0-.17-.11-.15-.12.08-.16.11S158.19,55.33,158.28,55.34Z"/><path class="cls-1" d="M43.85,102.71c0-.1,0-.21,0-.31s-.3-.05-.3.15S43.75,102.69,43.85,102.71Z"/><path class="cls-1" d="M147.7,101.27c.05,0,.12,0,.14,0s0-.09,0-.14a.58.58,0,0,0-.14,0C147.63,101.18,147.64,101.23,147.7,101.27Z"/><path class="cls-1" d="M96.94,79.08a4.47,4.47,0,0,0,.68,2.17.89.89,0,0,0,.78.5,42.86,42.86,0,0,1-1.31-4.69.4.4,0,0,0-.1-.36.76.76,0,0,0,0-.15l-.12-.19h0a.38.38,0,0,0-.11-.36c0-.86-.71-1.54-.71-2.42,0-.08-.15-.15-.22-.23h0l-.14-.18h0L95.55,73h0l-.12-.22h0a.28.28,0,0,0,0-.13.38.38,0,0,0-.09-.37,1.57,1.57,0,0,0,0-.49,2.39,2.39,0,0,1-.27-2.11.24.24,0,0,0-.09-.21c-.11-.09-.23,0-.28.08-.14.24-.26.49-.38.73s-.1.29-.17.43a.66.66,0,0,0,0-.46c-.28-.32-.51-.24-.68.11-.3.65.06,1.14.36,1.67.2.35.33.68.82.39,0,0,.17.1.27.16a.4.4,0,0,0,.14.35h0a1.32,1.32,0,0,1,.12.2h0a.4.4,0,0,0,.12.36h0a.39.39,0,0,0,.12.35h0c.11.51.2,1,.33,1.52a1.72,1.72,0,0,0,.43,1,.4.4,0,0,0,.14.35h0a2.12,2.12,0,0,1,.12.2h0a1.72,1.72,0,0,0,.37.89C96.69,78.18,97,78.6,96.94,79.08Z"/><path class="cls-1" d="M35.9,59.9c0,.15,0,.31-.07.47l.15.07a.7.7,0,0,1,.14.16C36.58,60.14,36.56,60.08,35.9,59.9Z"/><path class="cls-1" d="M57.84,26.86c.27.05.36.4.71.41.05-.35-.29-.53-.32-.81l-1.12-1.37a.37.37,0,0,1-.37.12c.18.31.36.61.53.92A2.13,2.13,0,0,1,57.84,26.86Z"/><path class="cls-1" d="M53.09,69.84a2.12,2.12,0,0,0,.91.87h0a1.29,1.29,0,0,1,.16.17h0c.05.13.24.1.28.23a.92.92,0,0,1,.47.4.46.46,0,0,1,.33.21h.07c.3-.19.1-.34-.05-.49A3,3,0,0,1,54.63,70a.86.86,0,0,0-.13-.2h0a1.33,1.33,0,0,0-.14-.19h0a1,1,0,0,0-.64-.74C52.94,68.89,52.75,69.19,53.09,69.84Z"/><path class="cls-1" d="M55.08,78.76a.76.76,0,0,0,0-.15c-.48,0-1,0-1.09.66h0a.41.41,0,0,0,.49.09c.12-.1.25-.19.38-.28S55,78.84,55.08,78.76Z"/><path class="cls-1" d="M41.07,23a.17.17,0,0,0,.22-.16c0-.22-.12-.28-.35-.31,0,0-.13,0-.13.1A.36.36,0,0,0,41.07,23Z"/><path class="cls-1" d="M41,71.31l.32,0c.2,0,.4,0,.47-.2s-.09-.34-.23-.46a1,1,0,0,0-.6-.24h0c-.06.05-.12.09-.18.15s0,.34,0,.51Z"/><path class="cls-1" d="M30.84,90.55c-.37.16-.4.38-.11.65.65,0,.69,0,.57-.54Z"/><polygon class="cls-1" points="31.88 61.52 31.88 61.52 31.88 61.52 31.88 61.52"/><path class="cls-1" d="M31.5,61a.23.23,0,0,0-.32,0h0a1.37,1.37,0,0,0-.18.16c.17.41.52.42.88.37A1.21,1.21,0,0,1,31.5,61Z"/><path class="cls-1" d="M26.48,89.36a.43.43,0,0,0,.48.06,1.17,1.17,0,0,0-.4-.58l-.31,0A.47.47,0,0,0,26.48,89.36Z"/><path class="cls-1" d="M29.18,82a.11.11,0,0,0,.13-.14.53.53,0,0,0-.17-.25c-.07,0-.14,0-.15.1S29,82,29.18,82Z"/><path class="cls-1" d="M73.61,39.67c.1-.08.25,0,.35-.11.21-.43,0-.6-.4-.57a.23.23,0,0,1-.14,0,.48.48,0,0,0-.22.15c0,.1,0,.2,0,.3l.14.19Z"/><path class="cls-1" d="M78.72,32.92a.37.37,0,0,0,.09-.48c-.24,0-.48-.18-.69.05a.71.71,0,0,1,0,.14c0,.14.22.12.29.24Z"/><path class="cls-1" d="M71.64,52a.84.84,0,0,1,.15.18l.14,0a.22.22,0,0,0,.09-.31.23.23,0,0,1,0-.14c-.06-.15-.18-.16-.31-.1h0a.28.28,0,0,0-.06.33Z"/><path class="cls-1" d="M73.55,48a.67.67,0,0,0,.06.15c0,.06.1.05.12,0a.18.18,0,0,0,0-.14S73.6,48,73.55,48Z"/><path class="cls-1" d="M56.53,76a.42.42,0,0,0,.47.11.08.08,0,0,0,0,0c.06.42.45.46.73.62.12.07.26.21.35.18.63-.18,1.07.22,1.56.47h0a1.33,1.33,0,0,1,.14.19,4.34,4.34,0,0,0,.64,1.27l.27.06v0a.14.14,0,0,0,0,.13l.49.1a.22.22,0,0,0,.32,0h0a.58.58,0,0,1,.29,0s0,.07.06.11l.31.07a.1.1,0,0,0,.12,0,.17.17,0,0,0,0,.14l.15,0c.05.06.11.12.15.18l.16,0a.83.83,0,0,1,.13.18l1.33,1.24c.17.1.32.17.34-.13h0a1.15,1.15,0,0,0-.14-.19h0a1.33,1.33,0,0,0-.14-.19h0a1.33,1.33,0,0,0-.14-.19h0c-.59-.31-.9-.93-1.48-1.25a1,1,0,0,0-.59-.44h0a.7.7,0,0,1-.15-.19h0l-.14-.18a.42.42,0,0,0-.15,0h0a.19.19,0,0,0-.14-.17c-.46-.29-.75-.82-1.34-.92A6.35,6.35,0,0,0,58,75.71a1.72,1.72,0,0,0-1-.19c-.11-.21-.38-.29-.42-.55h0l-.14-.19h0l-.13-.19h0a2.14,2.14,0,0,1-.13-.19c-.05-.07-.1-.14-.14-.21a.75.75,0,0,1-.14-.17h0l-.16-.18-.15,0-.16-.18h-.07l-.07,0a.22.22,0,0,0-.32,0s0,0,0,0a.08.08,0,0,0,0,.11h0l.13.19A.76.76,0,0,1,55,74c.11.17,0,.36.06.53l.15.21.16.18.31.07a2.09,2.09,0,0,1,.14.17h0a1.37,1.37,0,0,0,.29.25C56.26,75.61,56.4,75.8,56.53,76Z"/><path class="cls-1" d="M58.67,78.51l-.06.32a.4.4,0,0,0,.49.08h0C59.15,78.42,59.13,78.4,58.67,78.51Z"/><path class="cls-1" d="M65.76,61.46a.86.86,0,0,0,.52-.08.43.43,0,0,0,.08-.48.29.29,0,0,1,0-.13l-.54-.15c-.15,0-.33,0-.42.13a.35.35,0,0,0,.08.44Z"/><path class="cls-1" d="M59.24,64.43a.53.53,0,0,0,.69-.18c-.17-.24-.3-.58-.67-.39S59.18,64.23,59.24,64.43Z"/><path class="cls-1" d="M63.22,109.85a1.56,1.56,0,0,0,.83,1,1.85,1.85,0,0,1,.79.56c.07.12.23.11.31.22l.46.07s0,0,0,0,0-.06,0-.11h0l-2.34-2.2a.31.31,0,0,0-.32.06.57.57,0,0,0,.13.21h0A1.18,1.18,0,0,1,63.22,109.85Z"/><path class="cls-1" d="M69.15,104.37l.06-.29a.66.66,0,0,1,0-.14.55.55,0,0,0-.12-.21h0c-.09-.1,0-.26-.14-.35-.34-.24-.35-.7-.65-1a1.8,1.8,0,0,0-.78-1.05c.07-.18,0-.31-.19-.42-.49-.41-.57-1.1-1-1.53,0-.06,0-.12-.07-.17a.15.15,0,0,0-.11-.16v0a.18.18,0,0,0-.12-.17v0a1.22,1.22,0,0,0-.12-.19,3.54,3.54,0,0,0-.27-.59,6.84,6.84,0,0,0-1-1.35.43.43,0,0,0-.59-.07c-.22.18-.11.4,0,.59s.43.5.52.83a.93.93,0,0,0,.68,1l.25.08.18.19h0c0,.18.16.35.06.55s-.12.27,0,.36c.45.3.58.91,1.1,1.14h0l.17.18c.57,0,.73.45.88.85a10.47,10.47,0,0,0,.89,1.77c.08.12.24.11.32.22Z"/><path class="cls-1" d="M61.73,110.81a.29.29,0,0,0-.13,0,1.29,1.29,0,0,1-.16-.17l-.14,0-.16-.15a1.62,1.62,0,0,1-.62-.54,4.61,4.61,0,0,0-.57-.6c-.18-.15-.41-.24-.59,0s0,.36.13.51a5.18,5.18,0,0,0,1.27.91,1.07,1.07,0,0,0,.14.16.31.31,0,0,0,.13.06c0,.07.11.13.16.19h0c.51.82.51.82,1.29.73A1.18,1.18,0,0,0,61.73,110.81Z"/><path class="cls-1" d="M74.06,99a3.26,3.26,0,0,0-.23-1.69h0a.65.65,0,0,0-.16-.17.47.47,0,0,0-.67.19.37.37,0,0,1,.12.33.53.53,0,0,0,.13.23h0l.13.2h0l.12.18a.2.2,0,0,1,0,.13.55.55,0,0,0,.14.23h0C73.74,98.72,73.71,99,74.06,99Z"/><path class="cls-1" d="M163.53,61.28c0-.08,0-.09-.06-.05S163.51,61.26,163.53,61.28Z"/><path class="cls-1" d="M42.8,44.17a.23.23,0,0,1,.12,0l.22-.12h0c.1-.08.29-.1.22-.3l-.15-.19-.46-.07a.34.34,0,0,0-.1.48A.9.9,0,0,0,42.8,44.17Z"/><path class="cls-1" d="M56.43,24.83a.43.43,0,0,1,0,.16l.17,0A.24.24,0,0,0,56.43,24.83Z"/><path class="cls-1" d="M54.68,39.19a1.43,1.43,0,0,1,.15.18h0c.15.07.31.21.3.35,0,.69.46.82,1,.89.12.29.39.41.62.6s.56.31.72.6v.09a.64.64,0,0,0,.08.14.69.69,0,0,0,.13.11l.2.15.07.06.06,0,.14.12,0,.07h0a.15.15,0,0,0,.11,0h0l0,0a.21.21,0,0,0,0,.18l.09.15a.18.18,0,0,0,0,.07,1,1,0,0,0,.24.24l.13.1,0,.05.1.13,0,.06.1.12.12.11a.93.93,0,0,1,.18.16l.06.05a.43.43,0,0,0,.11.12.34.34,0,0,0,.15.07.3.3,0,0,1,.22.1.39.39,0,0,1,.15.06,1,1,0,0,1,.14.15h0c.08.11.24.11.32.21l.15,0c.18,0,.41.32.5-.1l-2.47-2.4v0a.61.61,0,0,0-.12-.16,13.12,13.12,0,0,0-1.86-2c-.38-.52-.95-.85-1.3-1.4a2.3,2.3,0,0,0-.33-.21c-.42-.19-.52-.1-.55.46a.33.33,0,0,1,.12.16Z"/><path class="cls-1" d="M53.07,34.1a.2.2,0,0,0,.21-.2.15.15,0,0,0-.15-.17c-.11,0-.23,0-.24.15A.19.19,0,0,0,53.07,34.1Z"/><path class="cls-1" d="M66.66,93.6a.91.91,0,0,1,.13.37c0,.5.27.69.71.76,0,.06.1.12.15.18h0a.17.17,0,0,0,.2,0s0,0,0-.06a.14.14,0,0,0,0-.13c-.2-.54-.72-.82-1-1.32s-.79-1-1.19-1.42c-.14-.16-.27-.35-.52-.35a1,1,0,0,0,.33.8A12.49,12.49,0,0,0,66.66,93.6Z"/><path class="cls-1" d="M60.49,98.66c.23-.1.23-.28.14-.47a1.19,1.19,0,0,0-.59-.64.75.75,0,0,0,0-.16,2,2,0,0,1-.11-.2.41.41,0,0,0,0-.16.81.81,0,0,0-.1-.18c-.21-.45-.42-.91-1-1-.13,0-.28,0-.36.1a.3.3,0,0,0,.06.38l.72.79.15.19h0a.45.45,0,0,1,.14.19h0a.72.72,0,0,1,.14.2h0a2.42,2.42,0,0,0,.71.91Z"/><path class="cls-1" d="M59.42,100.26c-.08.13-.09.28.06.35s.28-.1.39-.21,0-.1,0-.15C59.73,100.12,59.56,100,59.42,100.26Z"/><path class="cls-1" d="M61.27,95.54a.3.3,0,0,0-.22-.3c-.14,0-.19.09-.21.19a.26.26,0,0,0,.16.33C61.15,95.8,61.26,95.71,61.27,95.54Z"/><path class="cls-1" d="M50.33,90.11a.28.28,0,0,0,.15,0s-.07-.08-.12-.09-.09,0-.14,0S50.29,90.1,50.33,90.11Z"/><path class="cls-1" d="M68.44,50.2c.18,0,.16-.23.18-.38l-.32-.06C68.29,49.94,68.15,50.19,68.44,50.2Z"/><path class="cls-1" d="M55.27,51.36a14.6,14.6,0,0,0,1.54-1,7.58,7.58,0,0,1,1.92-.85l.42-.39.2-.15h0a4.46,4.46,0,0,0,1.43-.63l.2-.13h.16l.18-.13a9.93,9.93,0,0,0,2.94-1.53.11.11,0,0,0-.16,0h-.16a1.65,1.65,0,0,1-.87.19.36.36,0,0,1-.35.12c-.57.12-1.2.12-1.54.71a.19.19,0,0,0-.13,0,.83.83,0,0,0-.21.06l-.1,0-.2.06c-.42.21-.95.24-1.12.79l-.08-.06L59,48.37a.86.86,0,0,0-.83.24c-.75.65-1.79.82-2.52,1.49a.77.77,0,0,1-.78.55l-.19.14L54.5,51C54.69,51.51,54.83,51.62,55.27,51.36Z"/><path class="cls-1" d="M68.63,55h0l0,.15c.22,0,.47,0,.61.25l.09,0h0a.18.18,0,0,0,.06.17.35.35,0,0,1,.14.06.51.51,0,0,1,.13.16h0l.14.18.14.19a3.82,3.82,0,0,1,.85,1.14c.23.26.47.52.7.79.63.82,1.43,1.54,1.49,2.68,0,.13.12.62.44.14.1-.15.24-.07.34,0l.38.42h0a.85.85,0,0,1,.14.19h0a1.33,1.33,0,0,1,.14.19h0a.9.9,0,0,1,.14.2c.18.3.22.68.53.91a9.17,9.17,0,0,0,2.1,2.54h0a.62.62,0,0,1,.14.18h0l.14.19h0l.14.19a20.23,20.23,0,0,0,1.91,2.67,6.85,6.85,0,0,0,1.1,1.52l.15.19h0a8.56,8.56,0,0,0,1.65,2.43c.06.12.23.1.28.23h0c.06.11.15.24.29.19s.15-.18.07-.31h0c0-.07-.09-.13-.13-.19h0a2.14,2.14,0,0,0-.13-.19,4.49,4.49,0,0,0-1.19-2h0l-.14-.19h0c0-.07-.09-.13-.13-.19h0l-.13-.2h0a.63.63,0,0,1-.13-.2.77.77,0,0,0-.43-.73,2,2,0,0,1-.54-.59c.25-.91-.35-1.67-.45-2.52,0,0,0,0,0-.07s-.22-.25-.41-.2-.16.2-.21.32.13.48-.1.73c-.4-.22-.52-.69-.87-1a.85.85,0,0,1-.14-.19h0a.85.85,0,0,1-.14-.19h0a1.33,1.33,0,0,1-.14-.19,7.89,7.89,0,0,0-1.91-2.66l-.16-.2h0A1.81,1.81,0,0,0,75,61.6l-.14-.18h0l-.13-.18-.14,0a.55.55,0,0,1-.15-.19h0l-2.36-3.09a.76.76,0,0,0,0-.15.66.66,0,0,0-.12-.17,4.81,4.81,0,0,1-.83-1.16c-.44-.52-1.06-1-.73-1.81,0-.3.1-.61.14-.91,0-.13-.1-.15-.2-.07a.9.9,0,0,0-.43-.09.66.66,0,0,1-.55.27c-.23,0-.46-.18-.68,0h0C68.27,54.49,68.26,54.61,68.63,55Z"/><path class="cls-1" d="M52.12,64.69a1.15,1.15,0,0,1,.14.17l.33.06c.1-.09.25,0,.35-.12h0a.85.85,0,0,0,.19-.14c0-.11,0-.21,0-.32l-.12-.19h0L52.91,64h0a.44.44,0,0,0-.49-.09h-.16l-.2.13c-.11.08-.1.24-.21.31s0,.1,0,.15a2.43,2.43,0,0,0,.14.2A.42.42,0,0,1,52.12,64.69Z"/><path class="cls-1" d="M62,76.2c.1.17.21.34.44.32A1,1,0,0,0,63,76.3a10,10,0,0,0,2.12-1.73.39.39,0,0,0-.44-.06,12.13,12.13,0,0,0-2.54,1.35A.22.22,0,0,0,62,76.2Z"/><path class="cls-1" d="M61.2,77.05a.31.31,0,0,0-.27-.35.22.22,0,0,0-.3.19c0,.2.13.29.27.37A.24.24,0,0,0,61.2,77.05Z"/><path class="cls-1" d="M58.79,84.57c.21,0,.26-.12.3-.28h0c-.07,0-.13-.1-.19-.14s-.34,0-.39.13S58.63,84.54,58.79,84.57Z"/><path class="cls-1" d="M62.26,106.29a.22.22,0,0,0-.2-.22.16.16,0,0,0-.17.14.25.25,0,0,0,.21.23A.14.14,0,0,0,62.26,106.29Z"/></g></g></svg>