<?xml version="1.0" encoding="utf-8"?>
<!-- Generator: Adobe Illustrator 22.1.0, SVG Export Plug-In . SVG Version: 6.00 Build 0)  -->
<svg version="1.1" id="Layer_1" xmlns="http://www.w3.org/2000/svg" xmlns:xlink="http://www.w3.org/1999/xlink" x="0px" y="0px"
	 viewBox="0 0 232.2 209.6" style="enable-background:new 0 0 232.2 209.6;" xml:space="preserve">
<style type="text/css">
	.st0{fill:#E41C24;}
</style>
<title>Asset 1</title>
<g>
	<g id="Layer_2_1_">
		<g id="Layer_1-2">
			<g>
				<path class="st0" d="M117.8,68.8c1.3,0.6,2.8,0,3.3-1.3c0-0.1,0.1-0.2,0.1-0.2c0.1-0.7,0.6-1.3,1.2-1.5c0.5-0.2,0.5-0.5,0.1-0.8
					s-0.9-0.9-1.4-1.3c-1.7-1.2-2.8-1.2-4,0.6c-0.1,0.2-0.2,0.4-0.3,0.6c-0.1,0.2-0.2,0.4-0.3,0.7c-0.6,1.2,0,2.6,1.2,3.2
					C117.7,68.7,117.8,68.7,117.8,68.8z"/>
				<path class="st0" d="M148.3,112.6c-0.5,0-1,0.2-1.4,0.4c-1.2,0.9-2.7,1.6-4.1,2c-0.4,0.1-0.9,0.2-1.2,0.7l0,0
					c1.4,0.1,2.8-0.4,4.3-0.4c0.1,0,0.2-0.1,0.2-0.1c1.4-0.6,2.8-1.1,4.3-1.3c0.7,0,1.3-0.4,1.5-1
					C150.6,112.6,149.4,112.5,148.3,112.6z"/>
				<path class="st0" d="M55.4,81.4c0.2,1,0.7,1.9,1.4,2.6c0.6,0.7,1.6,0.9,2.5,0.6c0.4-0.1,0.6-0.4,0.3-0.8
					c-0.1-0.2-0.3-0.4-0.5-0.6c0-0.2-0.2-0.4-0.4-0.4c-0.2-0.2-0.5-0.3-0.6-0.6c-0.2-1-1.1-1.2-1.8-1.5S55.2,80.7,55.4,81.4z"/>
				<path class="st0" d="M206,46.8c-0.9,0.3-1.8,0.8-2.5,1.5c0,0,0,0,0,0.1c0,0,0,0,0-0.1c-0.6,0.1-1.3,0.1-1.9,0.2
					s-1.3,0.2-1.6,0.9c-2.4,2-5,3.7-7.8,5c-1.1,0.5-1.9,1.3-2.5,2.4c-0.2,0.6-0.1,0.8,0.5,0.7c0.9-0.2,1.8-0.6,2.4-1.4
					c0.1-0.1,0.1-0.1,0.1-0.2c0.7-0.3,1.5-0.7,2.2-0.9c0.4-0.1,0.8-0.3,1.1-0.5c1.3-1.3,3-2.2,4.8-2.4c0.9,0,1.8,0.4,2.6-0.4
					c0.5-0.2,0.6-0.7,0.8-1.1c0.3-0.9,1.1-1.6,2-1.8c0.3-0.1,0.6-0.2,0.9-0.4c0.5-0.3,0.6-0.7,0.2-1.2S206.5,46.6,206,46.8z"/>
				<path class="st0" d="M143.1,7.3c0.2-0.1,0.4-0.3,0.6-0.5c0.5-0.7,1.1-1.4,1.9-1.9c0.8-0.6,1.1-1.6,1.7-2.4
					c0.2-0.2,0.1-0.5-0.1-0.7c-0.2-0.1-0.4-0.1-0.6,0c-0.5,0.2-0.9,0.5-1.3,0.8c-0.9,1.1-1.5,2.4-2.2,3.3c-0.2,0.4-0.4,0.7-0.5,0.9
					s-0.1,0.3,0.1,0.5C142.7,7.4,142.9,7.4,143.1,7.3z"/>
				<path class="st0" d="M135.4,54.8c0.2,0.1,0.4-0.1,0.6-0.2c0.8-0.8,1.6-1.6,2.3-2.5c0.3-0.5,0.5-1,0.2-1.3s-0.7-0.1-1.1,0.1
					c-0.4,0.1-0.8,0.4-1,0.8c-0.3,0.7-0.7,1.3-1.2,1.8c-0.2,0.2-0.2,0.4-0.2,0.6C135.1,54.4,135.1,54.7,135.4,54.8z"/>
				<path class="st0" d="M146.4,14.6c0.2-0.4,0.5-0.9,0.2-1.3c-0.4-0.4-0.9-0.5-1.4-0.3c-0.6,0.1-1,0.5-1,1.1
					c-0.1,0.5-0.3,1-0.7,1.3c-0.5,0.2-0.8,0.7-0.6,1.2c0.1,0.3,0.3,0.5,0.6,0.5c0.5,0.1,1.1-0.1,1.3-0.6c0.1-0.1,0.1-0.2,0.1-0.4
					C145.2,15.6,146.1,15.4,146.4,14.6z"/>
				<path class="st0" d="M89.7,36.8c1.9,0,3.6,0.1,5.4,0.1c0.2,0,0.6,0,0.6-0.4c0-0.3-0.2-0.5-0.5-0.5c-0.5-0.1-1-0.2-1.5-0.1
					c-0.6,0.2-1.2-0.2-1.3-0.7c0-0.1,0-0.2,0-0.3c0.3-0.9,0.4-1.8,0.3-2.8c0.1-0.4,0.1-0.8,0.1-1.1c0-0.1-0.1-0.2-0.2-0.3
					c-0.2-0.1-0.3,0-0.4,0.2c-0.3,0.5-0.4,1-0.5,1.6c0,0.4,0,0.8-0.1,1.2s0,0.6,0.1,0.9c-0.2,0.2-0.2,0.5-0.1,0.8l0,0
					C91.1,36,90.1,36,89.7,36.8z"/>
				<path class="st0" d="M144.2,97.6c0.1,0.5,0.6,0.6,1,0.7c0.5,0.1,1.1,0,1.4-0.5c0.6-0.7,1.1-1.3,1.6-1.9l0,0
					c1-0.5,1.9-1.1,2.8-1.8c0.5-0.4,1.1-0.8,1.8-1.1c1.4-0.5,2.5-1.6,4-2c0.4-0.1,0.6-0.4,0.5-0.7c0,0,0,0,0,0
					c-0.1-0.5-0.5-0.3-0.9-0.3c-0.5,0.1-0.9,0.3-1.3,0.6c-0.4,0.3-0.9,0.6-1.4,0.8c-2.3,1-4.5,2.3-6.5,3.9c-0.9,0.4-1.7,0.8-2.4,1.4
					C144.6,97,144.1,97.2,144.2,97.6z"/>
				<path class="st0" d="M59.9,105c0.5,0.5,0.6,1.2,0.9,1.8c0.2,0.9,1.1,1,1.7,1.4c0.5,0.3,1,0.5,1.6,0.5c0.2,0,0.3-0.1,0.5-0.2
					c0.3-0.4,0.5-0.9,0.5-1.4c0.1-0.4-0.1-0.9-0.6-1c-0.3-0.4-0.7-0.7-1.1-0.8c-0.2-0.1-0.4-0.3-0.6-0.4c-0.4-0.5-0.9-0.9-1.4-1.3
					c-0.4-0.3-0.8-0.5-1.3-0.1C59.7,103.8,59.6,104.5,59.9,105z"/>
				<path class="st0" d="M42.3,173c-0.2-0.1-0.4-0.1-0.6,0c-0.1,0.1-0.2,0.1-0.3,0.1l0,0c-0.6,0.1-1.2,0.3-1.8,0.6
					c0.4,0.6,0.8,1.2,1.2,1.8c0.1,0.2,0.4,0.3,0.7,0.2c0.3,0.1,0.6,0.1,0.9,0c0.7-0.3,1.2-0.9,1.3-1.7C43.5,173.6,43,173.1,42.3,173
					z"/>
				<path class="st0" d="M83.7,47.4c0-1.3,0.1-2.6,0.2-3.8c0-0.3,0-0.6-0.1-0.9c0-0.2-0.1-0.4-0.4-0.4c-0.2,0-0.4,0.2-0.5,0.4
					c-0.1,0.1-0.1,0.2-0.1,0.4c0,1-0.3,1.9-0.3,2.8c0,1.1-0.2,2.3,0.7,3.4C83.6,48.6,83.8,48,83.7,47.4z"/>
				<path class="st0" d="M129.8,30.9c-0.6,0.6-0.7,1.5-0.3,2.3c0.2,0.4,0.6,0.6,1,0.6c0.5,0,0.7-0.3,0.9-0.7
					c0.3-0.5,0.3-1.2,0.1-1.8c-0.1-0.5-0.6-0.8-1.1-0.7C130.2,30.6,130,30.7,129.8,30.9z"/>
				<path class="st0" d="M218.8,24.2c-0.1,0.1-0.2,0.2-0.2,0.4c-0.1,0.3-0.2,0.4-0.3,0.5c-0.2,0.5-0.1,1.1,0.4,1.4
					c0.4,0.3,0.8,0,1.1-0.3c0.3-0.2,0.5-0.5,0.6-0.8c0.3-0.4,0.3-1-0.1-1.4C219.9,23.7,219.3,23.8,218.8,24.2z"/>
				<path class="st0" d="M55.2,169.6c-0.1-0.3-0.2-0.4-0.5-0.3c-0.6,0.3-1,0.9-0.9,1.6c0,1.1-0.2,2.1-0.6,3.1
					c-0.6,1.6-0.9,3.3-1,5.1c0.2,0.4,0.1,1.2,0.8,1.3c0-0.1,0.1-0.2,0.1-0.4c0.1-2.1,0.5-4.2,1.2-6.2c0.4-1.3,0.7-2.6,0.9-4
					C55.1,169.7,55.2,169.7,55.2,169.6z"/>
				<path class="st0" d="M156.6,105.7c-0.6,0.1-1.2,0.4-1.7,0.8l0,0c-1.1,0.6-2.3,1-3.6,1.3c-1.7,0.4-3.4,0.9-4.9,1.7
					c-0.4,0.2-0.9,0-1.2,0.3c-0.7,0.6-1.6,0.9-2.5,0.8c-0.5,0-1,0.2-1.5,0.4c-0.6,0.1-1.1,0.2-1.6,0.3c-1.3,0.2-2.6,0.8-3.6,1.7
					c1.8,0.2,3.6,0,5.4-0.5l9.1-3c0.2-0.1,0.4-0.2,0.5-0.3l0,0c1.1-0.4,2.5-0.3,3.5-1.2c0.9-0.3,1.8-0.6,2.6-1
					c0.4-0.2,0.9-0.3,0.6-0.9C157.5,105.7,157,105.5,156.6,105.7z"/>
				<path class="st0" d="M130.1,111.2c-0.4-0.6-0.1-1.3-0.5-2V108c0.8-1.1,0.7-2.6,1.1-3.8l0.2-0.4c0.5-1.2,1.6-2,2.9-2.3
					c0.3-0.1,0.6-0.2,0.7-0.5c1.1-1,2.3-1.9,3.5-2.8l2.2-1c0.6-0.2,1.2-0.5,1.7-1c0.2-0.2,0.2-0.5,0.1-0.7c-0.1-0.3-0.4-0.2-0.7-0.2
					c-0.4,0.1-0.7,0.3-1,0.5c-0.7,0.3-1.5,0.4-2.2,0.3c-0.9-0.1-1.8,0.2-2.4,0.9c-0.5,0.5-0.9,1-1.4,1.4c-0.3-0.2-0.4-0.4-0.2-0.7
					s0.3-0.6,0.4-0.9l0.9-1c0.1,0,0.2-0.1,0.3-0.2l0.2-0.4c0.6-0.2,1.1-0.5,1.6-0.9c1.1-0.4,2.1-0.9,3.1-1.4
					c0.3-0.1,0.6-0.3,0.4-0.7s-0.6-0.3-0.9-0.2c-0.7,0.3-1.3,0.6-1.9,0.9c-0.1,0.1-0.1,0.1-0.1,0.2c-1,0.2-1.9,0.5-2.8,0.9l0,0
					c-0.6,0.4-1.2,0.7-1.7,1.1c-0.3,0.2-0.7,0.4-0.5,0.9v0.1v0.1l-0.4,0.2h-0.6h-0.6c-0.6-0.3-0.9-0.8-1-1.4
					c0.3-0.6,0.6-1.1,0.9-1.7c0.9-1.1,0.8-1.5-0.2-2.6c-0.1-0.4-0.1-0.7,0-1.1c0.3-0.1,0.5-0.3,0.6-0.6l0.2-0.2
					c0.6-0.4,1.2-0.7,1.7-1.1c0.3-0.2,0.4-0.6,0.2-0.9c-0.2-0.3-0.5-0.2-0.8-0.1c-0.8,0.2-1.5,0.6-2.2,1l0,0
					c-1.5,0.4-2.6,1.6-3.1,3.1c-0.4,0.7-0.4,1.6,0,2.3c-0.2,0.5-0.5,0.9-0.7,1.4l-0.8,0.4c-0.9-0.3-1.5-1.2-1.6-2.1
					c-0.1-0.3-0.4-0.5-0.7-0.5l-0.5-0.3c0.3,0,0.6-0.3,0.6-0.6c0-0.1,0-0.2-0.1-0.3c-0.1-0.4,0.1-0.7,0.1-1.1
					c-0.1-0.6-0.2-1.1-0.3-1.7l0,0c0.2-0.6-0.2-1.2-0.2-1.8c0.1-0.4,0.2-0.8,0.3-1.1c1.2-2.2,2.3-4.4,3.5-6.7l0,0
					c0.9-0.6,1.7-1.5,2.1-2.5c1.4-2.2,2-4.7,3.3-7c0.3-0.6,0.8-1.2,1.4-1.5c0.4-0.1,0.5-0.5,0.7-0.8c0-0.4,0.1-0.8,0.3-1.2
					c0.4-0.7,0.5-1.5,0.3-2.2c0.1-0.4,0-0.9,0.6-1.2l0,0c0.1,0,0.3,0,0.3-0.1c0.4-0.2,0.6-0.6,0.8-1c0.5-1.1,1.1-2.2,1.9-3.1
					c0.2-0.2,0.2-0.4,0.1-0.6h-0.1l0,0l0,0c0.2-0.4,0.4-0.8,0.8-1.2c0.5-0.6,0.9-1.2,1.1-2l0,0c0.8-1.2,1.3-2.4,1.7-3.8
					c0-0.8,0.8-1.4,0.6-2.3c0.8-2,1.7-4,2.8-5.9c0.4-0.6,0.7-1.3,1-2.1c0.3-1,0.8-1.9,1.3-2.8c0.7-0.9,0.7-2.1,0.1-3
					c-0.8,0.5-1.4,1.2-1.7,2.1c-0.3,1-0.8,2-1.3,2.9c-0.5,1.1-1.2,2.2-1.6,3.3c-0.5,1.5-1.3,2.8-1.9,4.2l-1.2,2.3
					c-0.8,1-1.4,2-1.8,3.2c-0.3,1-0.7,2-1.3,2.9c-0.4,0.7-0.7,1.4-1,2c-0.1,0.2-0.1,0.4,0,0.6l0,0l-1.1,2.1l-0.9,0.7
					c-0.9,0-1.8,0.7-2,1.6c-0.2,0.4-0.3,0.8-0.5,1.1c-0.8,1.4-1.7,2.7-1.7,4.4c-0.3,0.5-0.6,1.1-0.9,1.7c-0.5,1.5-1.2,2.9-2,4.3
					c-0.5,1-1.2,2-2,2.8c-0.4,0.1-0.8,0.3-1.1,0.6c-0.2,0.1-0.4,0.3-0.6,0.5c-0.7,1.2-1.7,2.2-2.9,3c-0.8,0.5-1.5,1.3-1.9,2.2
					c-0.4,0.3-0.8,0.7-1.2,1.1c-0.8,1-2,1.6-3.2,1.9c-1-0.5-1.8-1.3-2.3-2.4l0.2-1.1c0.2-0.2,0.4-0.4,0.6-0.7s1.1-0.5,1-1
					s-1-0.3-1.4-0.6c-0.1,0-0.2,0-0.4,0c-0.6-0.2-0.1-0.7-0.3-1.1c0.1-0.4,0.1-0.8-0.2-1.2c0-0.1,0-0.2,0-0.3c0-1.4-0.3-2.9,0.2-4.3
					c0-0.1,0-0.2-0.1-0.4c0-0.9,0.2-1.7,0.7-2.5c0.2-0.3,0.3-0.6,0.3-1c0.4-0.9,0.9-1.8,1.3-2.7c0.2-0.4,0.5-0.8,0.4-1.3l0,0
					c0.1-0.2,0.1-0.4,0-0.6l0,0c0.1-0.2,0.1-0.4,0-0.6c0.1-0.2,0.1-0.4,0-0.6c0.1-0.7,0.1-1.4-0.1-2.1c0.1-0.1,0-0.3-0.1-0.4
					c0-0.1,0-0.1,0-0.2c0.1-0.1,0-0.2-0.1-0.3c0,0,0,0,0,0l0,0c-0.2-0.7,0.1-1.5-0.5-2.2c-0.3,0.5-0.8,0.9-1.3,1.2l0,0l-0.4,0.1
					c-0.9,0.2-1.2,0.9-1.6,1.7c-0.2,0.7-0.4,1.3-0.6,2c-0.4,0.8-0.6,1.6-0.6,2.5c0,0.5-0.5,0.9-0.2,1.4c0,0.6-0.4,1-0.3,1.6
					c-0.2,0.4-0.4,0.8-0.6,1.2c-0.6,0.8-1,1.7-1.2,2.7c-0.2,1.6,0.1,1.9,1.7,1.9c0.1,0.1,0.3,0.1,0.4,0c0.1,0,0.1,0.1,0.2,0.1
					c0.2,0.1,0.3,0.4,0.2,0.6c-0.2,0.6-0.3,1.1-0.5,1.7c-0.1,0.3,0.1,0.3,0.3,0.4l-0.2,0.5c-0.1,0.2-0.3,0.4-0.3,0.7
					c0,1.2-0.5,2.4-0.6,3.6c-1.7-2.6-3.2-4.9-4.5-7.1c0.1-0.4-0.1-0.9-0.3-1.2c-0.2-0.2-0.4-0.3-0.6-0.4c-4.3-6.9-6.8-11.2-6.8-11.2
					s-4.5,8-12.3,19.9c-0.2,0-0.4,0-0.6-0.2c-0.1-0.5-0.3-1-0.6-1.4c-0.2-0.3-0.5-0.5-0.9-0.4c-0.3,0.2-0.5,0.5-0.3,0.9
					c0.3,0.9,0.2,1.9,0.6,2.8c0,0.3-0.1,0.7-0.3,1c-2.2,3.4-4.7,7-7.4,10.9l-0.6,0.2c-0.1-0.1-0.2-0.1-0.3,0l0,0c-0.2,0-0.3,0-0.5,0
					c-1.2,0.3-1.4,0.5-1.2,1.7c0.1,0.5,0.2,1.1,0.2,1.6c-0.3,0.4-0.6,0.9-1,1.3c-1.2-0.4-1.5-0.1-1.3,1.1c0,0.1,0.1,0.2,0.1,0.2l0,0
					c0,0.1,0.1,0.1,0.1,0.2c-7.9,10.9-16.3,21.4-25.2,31.4c1.6,1.8,3.2,3.6,4.8,5.4c0,0.9-0.7,1.2-1.3,1.4l-1.4,0.5
					c-0.8,0.1-1.6,0.2-2.4,0.5c-0.6,0.3-1.3,0.5-1.9,0.6c-0.9,0-0.6,0.8-0.8,1.2s0.3,0.6,0.7,0.7c0.7,0.2,1.6,0.1,2.2-0.4l0,0
					c1.2-0.1,2.3-0.9,3.5-1.1s2.4-0.6,3.6-0.9c4.5,5.4,8.8,10.8,12.8,16.1c0,0.1,0.1,0.2,0.2,0.3l1.5,2c0,0.1,0.1,0.1,0.1,0.2
					l0.2,0.3c0.1,0.2,0.2,0.3,0.3,0.4l0.1,0.1c0,0,0.1,0.1,0.1,0.1c0.1,0.4,0.4,0.8,0.7,1c10.3,13.8,19.8,28.2,28.5,43.1
					c0,0,21.5-38.2,51.3-71.5c-6-6.7-11.7-13.6-16.9-20.4C131.4,112.5,131.1,112,130.1,111.2z M126.5,100.3L126.5,100.3L126.5,100.3
					L126.5,100.3z M123.3,86.1L123.3,86.1L123.3,86.1L123.3,86.1z"/>
				<path class="st0" d="M168.2,73c-0.4-0.2-0.9-0.3-1.4-0.2c-0.7,0.1-0.9,0.4-0.7,1.1c0.2,1,1.1,1.3,2.1,0.8
					c0.4-0.2,0.6-0.5,0.6-0.9C168.8,73.4,168.5,73.2,168.2,73z"/>
				<path class="st0" d="M164,77.9c-0.7,0-1.4,0.2-1.9,0.7c-0.5,0.5-1,0.9-1.6,1.3c-0.3,0-0.7,0.1-0.9,0.4c-2.5,1.5-4.9,2.9-7.4,4.4
					c-1,0.6-1.8,1.4-2.4,2.5c1.4-0.1,2.8-0.7,3.8-1.7c1.4-1.2,2.9-2.1,4.6-2.8c0.7-0.3,1.4-0.8,1.9-1.4c0.2,0,0.4-0.2,0.5-0.4
					c0.2,0,0.4-0.1,0.5-0.3c0.2,0,0.4-0.2,0.5-0.3c1-0.3,1.9-0.7,2.8-1.2c0.3-0.1,0.4-0.5,0.3-0.8C164.6,77.9,164.3,77.9,164,77.9z"
					/>
				<path class="st0" d="M188.2,107.2c-0.6-0.3-1.3-0.5-2-0.4c-0.3,0-0.6,0.1-0.7,0.4s0.2,0.4,0.4,0.6c0.5,0.3,1.2,0.5,1.8,0.6
					c0.4,0,1.1,0.2,1.3-0.3S188.4,107.5,188.2,107.2z"/>
				<path class="st0" d="M121.3,37c0.9-0.2,1.8-0.4,2-1.5c0-0.1,0.1-0.2,0.1-0.2c0.2-0.3,0.3-0.6,0.5-0.9c0.6-0.3,0.6-0.8,0.9-1.3
					c1.5-0.9,2.6-2.2,3.2-3.8c0.1-0.2,0.2-0.4,0.3-0.6c0.5-0.5,0.9-1.1,1.3-1.8c0.6-1.1,0.9-2.4,1.5-3.5c0.6-1.3,0.9-2.7,0.9-4.1
					c0.1-0.2,0.1-0.4,0-0.6l0,0c0.1-0.3,0-0.6-0.1-0.9c0.1-0.7-0.2-1.4-0.6-1.9c-0.7-0.9-1.1-0.9-2.1-0.1c-0.8,0.6-1.3,1.6-1.2,2.6
					c-0.1,0.3-0.1,0.6,0,0.9v0.1v0.1c-1,0.8-1.5,1.9-1.4,3.2c-0.6,1.1-1.1,2.1-1.7,3.2c-0.5,0.9-0.9,1.7-1.4,2.6
					c-0.2,0.6-0.6,1.1-1,1.5c-0.5,0.4-0.8,1-0.6,1.7c0,0.1-0.1,0.1-0.1,0.2c-0.7,0.9-0.8,2-0.4,3c-0.2,0.3-0.3,0.5-0.6,0.7
					c-0.3,0.1-0.5,0.4-0.4,0.7c0,0,0,0.1,0,0.1C120.5,36.8,120.9,37.1,121.3,37z"/>
				<path class="st0" d="M192.4,25.4c0.9,0.5,1,0.4,1.4-0.6c0.1-0.2,0.2-0.5,0.3-0.7s0.3-0.5,0-0.7c-0.2-0.2-0.5-0.2-0.7-0.1
					c-0.5,0.1-0.9,0.4-1.3,0.8C191.6,24.7,191.7,25,192.4,25.4z"/>
				<path class="st0" d="M16.1,100.2c-0.4-0.3-1-0.5-1.1-1.4c-1.1,1.7-0.9,2.4,0.5,2.7c0.4,0.1,0.8,0.2,1-0.3S16.5,100.5,16.1,100.2
					z"/>
				<path class="st0" d="M98.3,44.7c0.4,0.3,1.5,0.1,1.7-0.2s-0.2-1.2-0.7-1.5c-0.3-0.3-0.8-0.2-1.1,0.1c0,0.1-0.1,0.1-0.1,0.2
					C97.7,43.7,97.8,44.3,98.3,44.7C98.3,44.7,98.3,44.7,98.3,44.7z"/>
				<path class="st0" d="M89,34.3c0.7,0.2,1.4-0.1,1.8-0.6c0.2-0.5-0.1-0.8-0.5-1c-0.6-0.2-1.3,0.1-1.5,0.7
					C88.7,33.7,88.5,34.1,89,34.3z"/>
				<path class="st0" d="M230.5,63.4c-1.2,0.3-1.7,0.4-1.9,1.7c0.8,0.1,1.7-0.2,2.3-0.8c0.2-0.2,0.4-0.4,0.2-0.7
					C231,63.4,230.8,63.3,230.5,63.4z"/>
				<path class="st0" d="M223.9,66.6c-0.1,0-0.3,0-0.4,0.1c-0.3,0.1-0.7,0.2-0.7,0.6s0.4,0.4,0.5,0.5l0.4,0.2
					c0.4,0.2,0.9,0.1,1.2-0.2c0.2-0.1,0.2-0.4,0.1-0.6C224.8,66.8,224.3,66.6,223.9,66.6z"/>
				<path class="st0" d="M53.4,156.9c0.2-0.3-0.3-1.2-0.7-1.4c-0.4-0.1-0.8,0.1-1,0.5c-0.2,0.4-0.1,0.9,0.3,1.1c0,0,0,0,0.1,0
					C52.5,157.3,53,157.2,53.4,156.9z"/>
				<path class="st0" d="M18.8,164.2c-0.4,0-0.3,0.4-0.3,0.6c-0.1,0.9,0.2,1.7,0.8,2.4c0.4,0.1,0.6,0,0.6-0.4
					c-0.1-0.7-0.3-1.4-0.5-2.1C19.3,164.4,19.1,164.2,18.8,164.2z"/>
				<path class="st0" d="M147.9,75c-0.2,0.2-0.4,0.3-0.3,0.6c0.1,0.3,0.4,0.4,0.7,0.4c0.5,0,0.9-0.4,1-0.8c0-0.1,0.1-0.1,0.1-0.2
					c0.1-0.3,0.2-0.6-0.1-0.8s-0.5,0-0.7,0.2S148.1,74.8,147.9,75z"/>
				<path class="st0" d="M162.4,25.7c0.4,0.2,0.9,0,1.1-0.4c0.2-0.4,0.1-1.3-0.1-1.5s-0.9,0.2-1.2,0.6S162.1,25.6,162.4,25.7z"/>
				<path class="st0" d="M168.6,24.4c0.2-0.4,0.2-1-0.1-1.3c-0.2-0.3-0.9,0.1-1.1,0.5c-0.3,0.4-0.2,0.8,0.1,1.1
					C167.9,24.9,168.3,24.7,168.6,24.4z"/>
				<path class="st0" d="M155.4-2.8c0.4,0.2,0.9,0.1,1.2-0.6c0.2-0.3,0-0.6-0.4-0.8c-0.4-0.2-0.8-0.2-1.1,0.3
					C154.9-3.5,155-3.1,155.4-2.8C155.3-2.8,155.4-2.8,155.4-2.8z"/>
				<path class="st0" d="M13,160.3c-0.4-0.2-1-0.1-1.1,0.2c-0.1,0.4,0,0.9,0.4,1.1c0.4,0.2,0.8,0.1,1-0.3
					C13.5,161,13.4,160.5,13,160.3C13,160.3,13,160.3,13,160.3z"/>
				<path class="st0" d="M133.2,109c0.2,0.4,0.5,0.4,0.8,0.3c0.7-0.2,0.9-0.8,1.3-1.3l-0.1-0.2c-0.5,0.2-1,0.3-1.6,0.4
					C133.3,108.4,133.1,108.6,133.2,109z"/>
				<path class="st0" d="M25.3,92.7c0.2-0.4,0.1-0.8-0.3-1c-0.3-0.2-1,0.1-1.2,0.5c-0.2,0.4-0.1,0.8,0.3,1
					C24.6,93.3,25,93.1,25.3,92.7z"/>
				<path class="st0" d="M41.1,111.2c0.2-0.4,0.3-0.8-0.1-1s-0.8-0.1-1.1,0.4c-0.2,0.3-0.2,0.8,0.1,1
					C40.4,111.9,40.8,111.7,41.1,111.2z"/>
				<path class="st0" d="M147.7,89.9c0.2-0.4,0.1-0.9-0.3-1.1c-0.3-0.2-0.7-0.1-0.9,0.2c0,0-0.1,0.1-0.1,0.2
					c-0.2,0.4-0.1,0.9,0.2,1.2C147.1,90.5,147.5,90.3,147.7,89.9z"/>
				<path class="st0" d="M61.2,164.1c0.2-0.4,0.1-0.6-0.3-0.9c-0.5-0.3-1.1-0.1-1.3,0.3c-0.1,0.3,0,0.6,0.2,0.8
					C60.2,164.6,60.8,164.5,61.2,164.1z"/>
				<path class="st0" d="M137.9,150.9c-0.2-0.2-0.4-0.2-0.6,0c0,0,0,0,0,0c-0.6,0.4-1,1-1.2,1.7c0.7-0.1,1.4-0.5,1.9-1
					C138.1,151.4,138.1,151.1,137.9,150.9C137.9,150.9,137.9,150.9,137.9,150.9z"/>
				<path class="st0" d="M80.1,77.7c0.2,0,0.4-0.1,0.4-0.4c0-0.2,0-0.4-0.2-0.6c-0.5-0.2-1.1-0.2-1.6,0c-0.2,0.2-0.4,0.4-0.1,0.7
					C79.1,77.6,79.6,77.7,80.1,77.7z"/>
				<path class="st0" d="M141.1,173.4c0.9-0.5,1.8-0.5,2.1-1.5c0.1-0.1,0.2-0.1,0.3-0.1l0.1-0.2l-0.7-0.4
					C142.4,171.9,141.4,172.2,141.1,173.4z"/>
				<path class="st0" d="M162,73.3c0.4,0.2,0.9,0.1,1.2-0.2c0.1-0.4,0-0.8-0.4-1c-0.4-0.2-0.9-0.1-1.1,0.3
					C161.6,72.7,161.7,73.1,162,73.3z"/>
				<path class="st0" d="M139.7,106c-0.4,0.3-1.1,0.3-1.5,0.9c0.7,0,1.2-0.4,1.8-0.2c0.3,0.1,0.6,0.2,0.9,0.2c0.6,0,0.8-0.4,0.5-0.9
					S140.4,105.3,139.7,106z"/>
				<path class="st0" d="M104.7,67.8c0.5,0.1,1-0.1,1.2-0.6c0.1-0.4,0.1-0.8-0.3-0.9c-0.4-0.1-0.9,0.1-1,0.5c0,0,0,0,0,0
					C104.4,67.2,104.3,67.6,104.7,67.8z"/>
				<path class="st0" d="M132.4,45.2c0.4,0.2,0.7-0.1,0.9-0.5s0-1.1-0.3-1.1c-0.5-0.1-0.7,0.3-0.8,0.6S131.9,45,132.4,45.2z"/>
				<path class="st0" d="M183.4,79.6c0.2-0.4,0-0.8-0.4-1c-0.3-0.2-0.7,0-0.9,0.3c-0.2,0.3-0.2,0.7,0.1,1
					C182.6,80,183.1,79.9,183.4,79.6z"/>
				<path class="st0" d="M25.7,101.5c-0.3-0.2-0.8-0.1-1,0.3c0,0,0,0,0,0c-0.2,0.3-0.1,0.7,0.2,1c0.4,0.1,0.9,0,1.1-0.4
					C26.2,102.1,26.1,101.7,25.7,101.5C25.7,101.5,25.7,101.5,25.7,101.5z"/>
				<path class="st0" d="M9.3,127c-0.5-0.2-0.9,0.2-1.2,0.6c-0.2,0.2-0.1,0.6,0.1,0.7c0.1,0,0.1,0.1,0.2,0.1c0.5,0.2,0.8-0.1,1-0.6
					C9.7,127.4,9.8,127.2,9.3,127z"/>
				<path class="st0" d="M160.7,28.8c0.2-0.3,0.1-0.8-0.3-1c-0.3-0.2-0.7-0.2-0.9,0.1c0,0.1-0.1,0.1-0.1,0.2c-0.2,0.3-0.1,0.8,0.2,1
					C160.1,29.2,160.5,29.2,160.7,28.8z"/>
				<path class="st0" d="M79.3,60.2c0.4,0.2,0.8,0.1,1.1-0.2c0,0,0,0,0,0c0.2-0.2,0.2-0.6,0-0.8c-0.5-0.2-1,0-1.3,0.4
					C78.9,59.7,79,60.1,79.3,60.2C79.3,60.2,79.3,60.2,79.3,60.2z"/>
				<path class="st0" d="M185.6,137c-0.8,0.1-1.4,0.6-1.5,1.4c0.8-0.2,1.4-0.3,1.8-0.8c0.1-0.1,0.2-0.3,0.1-0.5
					C186,137,185.8,137,185.6,137z"/>
				<path class="st0" d="M139.8,179.8c-0.7,0-1.3,0.3-1.8,0.8c-0.1,0.2-0.1,0.3,0.1,0.4c0.7,0.1,1.3-0.2,1.8-0.7
					C140.1,180.1,140.1,179.9,139.8,179.8z"/>
				<path class="st0" d="M53.4,71c0.1-0.3,0-0.6-0.2-0.8c-0.1-0.2-0.2-0.4-0.3-0.6c-0.1-0.2-0.3-0.3-0.5-0.2
					c-0.2,0.1-0.3,0.2-0.3,0.4C52,70.5,52.2,70.7,53.4,71z"/>
				<path class="st0" d="M152.1,164.5c0.7-0.3,1.3-0.8,2-1c0.4-0.1,0.5-0.5,0.1-1C153.5,163.2,152.5,163.5,152.1,164.5z"/>
				<path class="st0" d="M152.8,6.2c0.4,0.2,1.1,0.1,1.1-0.2c0.1-0.3-0.1-0.6-0.4-0.7c-0.4-0.2-1-0.1-1.1,0.2
					C152.4,5.8,152.5,6.1,152.8,6.2z"/>
				<path class="st0" d="M170.6,83.8c0.8-0.2,1.8-0.3,2.4-1.3C172.1,82.5,171.2,83,170.6,83.8z"/>
				<path class="st0" d="M231.8,34c-0.4-0.2-1,0-1.1,0.4s-0.1,0.5,0.3,0.6s0.8,0.2,1.1-0.2C232.2,34.5,232.1,34.2,231.8,34z"/>
				<path class="st0" d="M136.3,102.2c0.4,0.4,0.9-0.2,1.3-0.6c-0.2-0.4-0.6-0.6-1-0.8C136.4,101.3,135.8,101.8,136.3,102.2z"/>
				<path class="st0" d="M55.3,111.1c-0.4,0.1-0.3,0.4-0.2,0.7c0.3,0.6,0.9,0.9,1.6,0.8c-0.3-0.4-0.6-0.8-0.7-1.2
					C55.8,111.1,55.6,111,55.3,111.1z"/>
				<path class="st0" d="M189.9,136.2c0.9-0.5,1.8-0.6,2.2-1.4C191.2,134.7,190.3,135.3,189.9,136.2z"/>
				<path class="st0" d="M68.3,86.2c0.7,0.9,1.4,1.8,2,2.8c0.5,0.7,1.1,1.3,1.9,1.5c0.8,0.8,1.1,0.7,1.6-0.2
					c0.2-0.4,0.3-0.9,0.3-1.4l0.5-0.9c0.2-0.1,0.5-0.2,0.7-0.2c1,0.8,2.3,0.2,3.4,0.5c0.1,0,0.2-0.1,0.3-0.2
					c0.5-0.3,0.7-0.9,0.6-1.5c-0.1-0.6-0.6-1.1-1.2-1.2c-0.3,0-0.7,0-1,0l-2.3-1.2c-1.1-1.2-1.8-1.1-2.5,0.3c-0.2,0.3-0.3,0.7-0.5,1
					c-0.3,0.6-0.3,1.3,0,1.8c-0.1,0.3,0.3,0.6,0,0.8s-0.6-0.1-0.8-0.3s-0.4-0.4-0.6-0.5c-0.5-0.4-0.6-1.1-1.1-1.4
					c-0.3-0.4-0.6-0.7-0.9-1.1c-0.2-0.2-0.5-0.3-0.7-0.1c-0.2,0.1-0.3,0.4-0.3,0.7C67.8,85.8,68,86,68.3,86.2z"/>
				<path class="st0" d="M71.9,76.9c0.2-0.3,0.1-0.6-0.1-0.8c0,0,0,0,0,0c-0.3-0.2-0.6-0.2-0.9,0.1c0,0,0,0-0.1,0.1
					c-0.2,0.3-0.1,0.7,0.2,0.9C71.4,77.3,71.8,77.2,71.9,76.9C71.9,76.9,71.9,76.9,71.9,76.9z"/>
				<path class="st0" d="M59.1,178.8c-0.7,0.4-0.7,0.4-0.2,1.2c1-0.3,1-0.3,0.6-1.5L59.1,178.8z"/>
				<path class="st0" d="M142.1,175.9c-0.3-0.2-0.7-0.3-0.9,0.1s0,0.6,0.4,0.8s0.7,0.1,0.9-0.2S142.3,176,142.1,175.9z"/>
				<path class="st0" d="M1.6,119.2c-0.3-0.1-0.5,0.2-0.6,0.4c-0.2,0.4,0,0.7,0.3,1c0.4,0.1,0.5-0.2,0.6-0.5S2,119.3,1.6,119.2z"/>
				<path class="st0" d="M28.5,106.7c0.3-0.4-0.2-0.5-0.4-0.6c-0.4-0.1-0.7-0.4-1,0c-0.1,0.3,0,0.6,0.3,0.7c0,0,0,0,0,0
					C27.7,107,28.2,107,28.5,106.7z"/>
				<path class="st0" d="M186,116.6c-0.5-0.3-1.1-0.4-1.6-0.2c-0.8,0-1.6,0.2-2.3,0.7c0.9,0.5,2,0.7,3.1,0.6c0.2,0,0.5-0.1,0.8-0.2
					s0.4-0.1,0.5-0.4S186.3,116.7,186,116.6z"/>
				<path class="st0" d="M173.6,22.7c-0.4-0.1-0.8,0.1-1,0.5c-0.1,0.2,0,0.4,0.3,0.5s0.7,0.1,0.9-0.4C174,23,173.9,22.8,173.6,22.7z
					"/>
				<path class="st0" d="M136.7,154.4c-0.3-0.2-0.7-0.1-0.9,0.2c-0.2,0.1-0.2,0.4-0.1,0.5c0,0,0.1,0.1,0.1,0.1
					c0.3,0.2,0.8,0.2,1.1-0.1C137.1,154.9,137,154.5,136.7,154.4C136.7,154.4,136.7,154.4,136.7,154.4z"/>
				<path class="st0" d="M46,175.8c-0.2,0.2-0.2,0.5,0.1,0.6c0.4,0.1,0.8,0,1-0.3c0.1-0.2,0.1-0.4-0.1-0.5
					C46.7,175.4,46.3,175.4,46,175.8C46,175.7,46,175.7,46,175.8z"/>
				<path class="st0" d="M119.1,53.9c0.3,0.1,0.6,0.2,0.8-0.2c0-0.3,0-0.6-0.3-0.8c-0.3-0.2-0.6-0.1-0.7,0.2c0,0,0,0,0,0
					C118.7,53.4,118.8,53.7,119.1,53.9C119,53.9,119.1,53.9,119.1,53.9z"/>
				<path class="st0" d="M125.6,91.9c-0.1,0.2,0,0.4,0.3,0.5s0.7,0.2,1-0.2s-0.1-0.5-0.4-0.6c-0.3-0.2-0.6-0.1-0.8,0.1
					C125.6,91.8,125.6,91.8,125.6,91.9z"/>
				<path class="st0" d="M49.1,97.2c0.2,0.1,0.4,0.1,0.5-0.1s0.3-0.7-0.2-0.9c-0.3-0.1-0.6,0.1-0.8,0.3S48.8,97.1,49.1,97.2z"/>
				<path class="st0" d="M170.2,53.2c-0.2-0.2-0.6-0.1-0.7,0.1c0,0,0,0.1,0,0.1c-0.1,0.2,0,0.5,0.2,0.6c0.3,0.2,0.6,0.1,0.8-0.1
					c0,0,0,0,0,0C170.6,53.6,170.5,53.3,170.2,53.2z"/>
				<path class="st0" d="M38.1,112.1c-0.3-0.2-0.7-0.1-0.9,0.2c0,0,0,0.1-0.1,0.1c0,0.2-0.1,0.5,0.1,0.6c0.4,0.1,0.8,0,1-0.3
					C38.4,112.4,38.3,112.2,38.1,112.1z"/>
				<path class="st0" d="M167.5,85.5L167.5,85.5L167.5,85.5z"/>
				<path class="st0" d="M165.9,87c0.6-0.4,1.1-0.9,1.6-1.5c-0.7,0-1.2,0.5-1.8,0.8C165.6,86.5,165.7,86.8,165.9,87z"/>
				<path class="st0" d="M204.2,112c-0.1,0.2-0.1,0.5,0.2,0.7c0.3,0.2,0.6,0.1,0.8-0.2c0.1-0.2,0.1-0.4-0.1-0.5c0,0,0,0,0,0
					C204.8,111.8,204.5,111.8,204.2,112C204.2,112,204.2,112,204.2,112z"/>
				<path class="st0" d="M56.1,61.1c0.1-0.2,0-0.4-0.2-0.5c-0.2-0.2-0.5-0.1-0.7,0.1c0,0-0.1,0.1-0.1,0.1c-0.1,0.2,0,0.4,0.2,0.6
					C55.6,61.4,55.9,61.3,56.1,61.1z"/>
				<path class="st0" d="M28.8,170.3c-0.3-0.2-0.7-0.1-0.9,0.2c-0.2,0.2-0.1,0.4,0.1,0.6c0.4,0.2,0.6-0.1,0.8-0.4
					S29,170.4,28.8,170.3z"/>
				<path class="st0" d="M35.1,150.9c-0.2-0.1-0.5-0.1-0.7,0.2c-0.1,0.2,0,0.5,0.2,0.7c0.3,0.2,0.5,0,0.6-0.2
					c0.1-0.2,0.1-0.4-0.1-0.6C35.2,151,35.2,150.9,35.1,150.9z"/>
				<path class="st0" d="M158.3,118c-0.1,0.1-0.1,0.3,0.1,0.4c0,0,0,0,0,0c0.4,0.1,0.8,0,1-0.4c0.1-0.1,0.1-0.2,0-0.3c0,0,0,0,0,0
					C159,117.6,158.5,117.7,158.3,118z"/>
				<path class="st0" d="M66.7,162.7c-0.8,0.4-1.3,1.3-1.3,2.2c0,0.5-0.3,0.9-0.5,1.3c-1,0.6-1.4,1.7-1.2,2.8c0,0.3,0,0.6-0.1,0.9
					c-0.5,1.9-1.3,3.8-2.3,5.5c-0.5,0.8-0.8,1.7-1.3,2.5c0.9,0.4,1.5-0.6,2.3-0.6c1-1.4,1.2-3.2,2.1-4.6c0.7-1.2,0.9-2.6,1.7-3.9
					c0.1-0.1,0-0.2,0-0.4c0.1-0.4,0.2-0.8,0.3-1.2c0.6-1.1,1-2.3,1.2-3.4C67.8,162.7,67.7,162.5,66.7,162.7z"/>
				<path class="st0" d="M88.2,29.6c0.2,0.1,0.4,0,0.5-0.3c0.1-0.3,0-0.5-0.2-0.7c0,0,0,0,0,0c-0.2-0.1-0.4,0-0.5,0.2
					C87.8,29.1,87.9,29.4,88.2,29.6C88.2,29.5,88.2,29.5,88.2,29.6z"/>
				<path class="st0" d="M120.3,56c-0.8,0-1.3,0-1.7,0.6C119.2,56.8,119.9,56.6,120.3,56z"/>
				<path class="st0" d="M57,165.3c-0.2,0.3-0.1,0.5,0.1,0.6s0.6,0,0.8-0.3c0.1-0.2,0.1-0.4-0.1-0.5c0,0,0,0,0,0
					C57.5,165,57.2,165,57,165.3C57,165.3,57,165.3,57,165.3z"/>
				<path class="st0" d="M63.3,82.7c0.2,0.1,0.4,0,0.5-0.1c0,0,0-0.1,0-0.1c0.1-0.2-0.1-0.4-0.3-0.5c-0.2-0.1-0.4-0.1-0.5,0.1
					c0,0,0,0,0,0C62.9,82.4,63,82.6,63.3,82.7z"/>
				<path class="st0" d="M52.9,118.5c0,0.1,0,0.2,0.1,0.3c0.5,0.2,0.6-0.2,0.9-0.4c0,0,0-0.1,0-0.2
					C53.5,118.2,53.1,117.9,52.9,118.5z"/>
				<path class="st0" d="M8.4,109.1c0.1-0.3-0.1-0.5-0.3-0.6c-0.2-0.1-0.4-0.1-0.4,0.1c-0.1,0.3,0.1,0.5,0.3,0.6
					C8.1,109.4,8.3,109.3,8.4,109.1z"/>
				<path class="st0" d="M165.1,21.7c0.2-0.6,0.5-1.2,0.9-1.7c0.2-0.3,0.4-0.6,0.4-0.9c0.1-0.4,0.2-0.8-0.2-1.1
					c-0.4-0.3-0.9-0.2-1.2,0.2c-0.8,0.9-1.8,1.5-2.1,2.7c-0.9,1.7-0.8,2,1.1,2.3c0.1,0,0.3,0,0.4,0
					C165.3,22.9,165.3,22.9,165.1,21.7z"/>
				<path class="st0" d="M65.5,45.4c0.1,0,0.3,0,0.3-0.1c0.1-0.3,0-0.6-0.3-0.7c0,0,0,0-0.1,0c-0.2-0.1-0.3,0-0.4,0.2
					C65.1,45.1,65.2,45.4,65.5,45.4z"/>
				<path class="st0" d="M160.5,51.5c0.5,0.2,0.9,0.1,1.3-0.5C161.2,51,160.8,51,160.5,51.5z"/>
				<path class="st0" d="M216.7,56.9c-0.2-0.1-0.4-0.2-0.5,0s0,0.4,0.2,0.6c0.2,0.1,0.4,0,0.5-0.1C217.1,57.2,216.9,57,216.7,56.9z"
					/>
				<path class="st0" d="M33.3,126.6c0.1-0.4,0.7-0.5,0.7-1C33.1,125.4,33.3,126.1,33.3,126.6z"/>
				<path class="st0" d="M132.1,159.7c-0.1,0.2-0.2,0.4,0.1,0.5c0.2,0.1,0.3,0,0.4-0.1c0.1-0.2,0.1-0.4-0.1-0.6
					S132.1,159.5,132.1,159.7z"/>
				<path class="st0" d="M2.2,113.1c-0.2-0.1-0.4-0.3-0.5,0c-0.1,0.2-0.1,0.4,0.1,0.6c0,0,0,0,0,0c0.2,0.1,0.4,0.1,0.6-0.1
					C2.4,113.4,2.4,113.2,2.2,113.1C2.3,113.1,2.2,113.1,2.2,113.1z"/>
				<path class="st0" d="M93.8,61.2c-0.1,0.2-0.1,0.4,0.1,0.6c0,0,0.1,0,0.1,0.1c0.1,0.1,0.2,0,0.3-0.1c0.1-0.2,0-0.4-0.1-0.5
					c0,0,0,0,0,0C94,61.1,93.9,61.1,93.8,61.2z"/>
				<path class="st0" d="M56.9,86.1c0.1-0.2,0-0.3-0.2-0.4c-0.2-0.1-0.4-0.1-0.5,0.1c0,0,0,0,0,0.1c-0.1,0.2,0.1,0.3,0.2,0.4
					C56.6,86.4,56.8,86.3,56.9,86.1C56.9,86.2,56.9,86.1,56.9,86.1z"/>
				<path class="st0" d="M50.8,113c0.1-0.1,0-0.3-0.1-0.4c0,0,0,0,0,0c-0.1-0.1-0.3,0-0.4,0.1c-0.1,0.1-0.1,0.3,0,0.4
					S50.7,113.2,50.8,113z"/>
				<path class="st0" d="M145.7,116.3c0.1-0.1,0.1-0.3-0.1-0.4c-0.1-0.1-0.3,0-0.4,0.1c-0.1,0.1,0,0.3,0.1,0.4
					C145.4,116.5,145.6,116.5,145.7,116.3C145.7,116.4,145.7,116.3,145.7,116.3z"/>
				<path class="st0" d="M129.4,159.8c-0.2-0.1-0.4-0.1-0.5,0c0,0,0,0,0,0c-0.1,0.1,0.1,0.3,0.2,0.4c0.1,0.1,0.3,0.1,0.4,0
					C129.6,160.2,129.6,160,129.4,159.8C129.5,159.9,129.5,159.8,129.4,159.8z"/>
				<path class="st0" d="M124.6,73.5c-0.1,0-0.3,0-0.3,0.2c0,0.2,0.1,0.3,0.3,0.3c0,0,0,0,0,0c0.1,0,0.2,0,0.3-0.2
					C124.9,73.7,124.8,73.5,124.6,73.5C124.6,73.5,124.6,73.5,124.6,73.5z"/>
				<path class="st0" d="M55.3,177.3c-0.1,0-0.2,0.1-0.2,0.3s0,0.3,0.2,0.4c0.1,0,0.2-0.1,0.2-0.2c0,0,0,0,0,0
					C55.6,177.6,55.6,177.4,55.3,177.3z"/>
				<path class="st0" d="M4.9,153.7c-0.1,0.2,0,0.3,0.2,0.4s0.2,0.1,0.3,0c0.1-0.2,0-0.3-0.1-0.5C5.2,153.6,5.1,153.6,4.9,153.7
					C5,153.7,4.9,153.7,4.9,153.7z"/>
				<path class="st0" d="M68.1,172.4c-0.1,0.1,0,0.2,0.1,0.3c0,0,0,0,0,0c0.2,0.1,0.3,0,0.4-0.2c0.1-0.1,0-0.2-0.1-0.3c0,0,0,0,0,0
					C68.3,172.2,68.2,172.3,68.1,172.4z"/>
				<path class="st0" d="M0,156.4c-0.1,0.1,0,0.2,0.1,0.3c0,0,0,0,0,0c0.2,0.1,0.3,0.1,0.4-0.1c0.1-0.1,0-0.2-0.1-0.3c0,0,0,0,0,0
					C0.3,156.3,0.1,156.3,0,156.4z"/>
				<path class="st0" d="M4.9,79.8c0-0.1-0.1-0.2-0.2-0.3c-0.1-0.1-0.3,0-0.3,0.1c0,0,0,0.1,0,0.1c0,0.1,0.1,0.2,0.1,0.3
					C4.7,80,4.9,80,4.9,79.8z"/>
				<path class="st0" d="M178.2,19.4c-0.1,0-0.1,0.1-0.1,0.2c0,0,0,0.1,0,0.1c0.1,0.1,0.2,0.1,0.4,0.1c0.1,0,0.1-0.1,0.1-0.2
					c0,0,0-0.1,0-0.1C178.4,19.4,178.3,19.3,178.2,19.4z"/>
				<path class="st0" d="M51,145.1c-0.1,0.2,0,0.4,0.1,0.5c0.1,0,0.2,0,0.2-0.1c0.1-0.2,0-0.4-0.2-0.5C51.2,145,51,145,51,145.1z"/>
				<path class="st0" d="M35.7,113.3c-0.1-0.1-0.3,0-0.3,0.1c0,0,0,0,0,0c0,0.1,0,0.2,0,0.2c0.3,0.1,0.4,0,0.5-0.1
					S35.9,113.3,35.7,113.3z"/>
				<path class="st0" d="M145.4,22.6c-0.1,0.1,0,0.2,0.1,0.3c0.1,0.1,0.3,0,0.3-0.1c0-0.1,0-0.2-0.2-0.3
					C145.6,22.5,145.4,22.5,145.4,22.6z"/>
				<path class="st0" d="M13,164c-0.1-0.1-0.2-0.1-0.3,0.1c0,0.1,0,0.2,0.1,0.3c0.1,0,0.3,0,0.3-0.2S13.1,164,13,164z"/>
				<path class="st0" d="M32.7,123.8c-0.1,0.1-0.1,0.3,0.1,0.4c0.1,0,0.2,0,0.2,0c0.1-0.1,0.1-0.3-0.1-0.4
					C32.9,123.7,32.8,123.7,32.7,123.8z"/>
				<path class="st0" d="M181.5,10.2c-0.1,0.1-0.1,0.2,0,0.3c0.1,0.1,0.3,0,0.3-0.1c0,0,0-0.2,0-0.2S181.6,10.1,181.5,10.2z"/>
				<path class="st0" d="M14.9,103c0,0.1,0,0.1,0,0.2c0,0.1,0.1,0.1,0.2,0.1c0,0,0.1,0,0.1-0.1c0,0,0-0.1-0.1-0.2
					S14.9,102.9,14.9,103z"/>
				<path class="st0" d="M3.5,100.3c-0.1,0.1-0.2,0.3-0.1,0.4c0.1,0,0.1,0,0.2,0c0-0.1,0.1-0.2,0-0.3C3.6,100.3,3.5,100.2,3.5,100.3
					z"/>
				<path class="st0" d="M55.2,97.2c0.1,0,0.1-0.1,0.1-0.2c0,0,0,0-0.1-0.1c-0.1,0-0.1,0-0.2,0c-0.1,0.1-0.1,0.2,0,0.2c0,0,0,0,0,0
					C55.1,97.2,55.2,97.3,55.2,97.2z"/>
				<path class="st0" d="M65.4,100.9c0,0.1,0.1,0.2,0.1,0.3c0,0,0.2,0.1,0.2,0c0.1-0.1,0.1-0.3,0-0.4c0,0,0,0-0.1,0
					C65.7,100.9,65.5,100.9,65.4,100.9z"/>
				<path class="st0" d="M153.9,70.8c0.1,0,0.2,0,0.2,0c0.1,0,0.1-0.1,0-0.2c0,0,0,0,0,0c-0.1-0.1-0.2-0.1-0.2-0.1c0,0,0,0-0.1,0.1
					C153.8,70.6,153.9,70.7,153.9,70.8z"/>
				<path class="st0" d="M53.5,180c0,0.1,0,0.2,0,0.2c0.1,0,0.1,0,0.2,0c0.1,0,0.1-0.1,0.1-0.2c0,0,0,0-0.1-0.1
					C53.8,180,53.6,180,53.5,180z"/>
				<path class="st0" d="M8.1,158.6c-0.1,0-0.2,0-0.1,0.1c0,0.1,0.1,0.2,0.1,0.2c0.1,0,0.2-0.1,0.1-0.2
					C8.2,158.7,8.1,158.7,8.1,158.6z"/>
				<path class="st0" d="M8.1,157.6c-0.1,0-0.1-0.1-0.1-0.1s-0.1,0.1-0.2,0.1s0,0.1,0.1,0.1L8.1,157.6z"/>
				<path class="st0" d="M50.5,72.2c0-0.1,0-0.2-0.2-0.2s-0.1,0-0.2,0s0.1,0.2,0.1,0.2C50.4,72.2,50.5,72.2,50.5,72.2z"/>
				<path class="st0" d="M68.3,174.5c0,0.1,0.1,0.1,0.1,0.2s0.2,0,0.2-0.1c0-0.1-0.1-0.1-0.1-0.2C68.5,174.3,68.3,174.4,68.3,174.5z
					"/>
				<path class="st0" d="M13.5,177c-0.1,0.1-0.1,0.2,0,0.3c0,0,0,0,0,0c0,0,0.1,0,0.2,0C13.6,177.2,13.6,177.1,13.5,177
					C13.5,177,13.5,177,13.5,177z"/>
				<path class="st0" d="M49.8,143c-0.1,0.1-0.1,0.2,0,0.3c0,0,0,0,0,0c0,0,0.1,0,0.2,0s0-0.2,0-0.2S49.8,143,49.8,143z"/>
				<path class="st0" d="M97.9,36.7c0,0,0-0.1,0.1-0.2c-0.1,0-0.2,0-0.2,0c-0.1,0-0.1,0.1,0,0.2C97.7,36.7,97.8,36.7,97.9,36.7z"/>
				<path class="st0" d="M86.8,23.9c0-0.1,0-0.2-0.1-0.2c0,0-0.1,0-0.2,0s0.1,0.2,0.1,0.3S86.8,23.9,86.8,23.9z"/>
				<path class="st0" d="M174.6,164.9c-0.1,0-0.1,0.1-0.2,0.1c0,0.1,0,0.2,0.1,0.1c0.1,0,0.1-0.1,0.2-0.1
					C174.7,165,174.7,164.9,174.6,164.9z"/>
				<path class="st0" d="M51.5,99.3h0.2c0-0.1-0.1-0.1-0.1-0.2c-0.1,0-0.2-0.1-0.2,0.1S51.5,99.2,51.5,99.3z"/>
				<path class="st0" d="M136.7,148.4c0,0-0.1,0-0.1,0s0,0.1,0,0.1c0,0,0.1,0,0.1,0C136.8,148.6,136.8,148.5,136.7,148.4z"/>
				<path class="st0" d="M33.2,171.2C33.2,171.2,33.3,171.2,33.2,171.2l0.2,0.1c0,0,0-0.1,0-0.1S33.2,171.1,33.2,171.2z"/>
				<path class="st0" d="M69.4,99.4C69.4,99.4,69.5,99.4,69.4,99.4C69.5,99.4,69.5,99.3,69.4,99.4C69.5,99.2,69.4,99.2,69.4,99.4
					C69.3,99.4,69.4,99.4,69.4,99.4z"/>
				<path class="st0" d="M1.8,127.1v0.1c0,0,0.2,0,0.2-0.1s0-0.1,0-0.1S1.8,127,1.8,127.1z"/>
				<path class="st0" d="M55.1,80.4C55.1,80.4,55.1,80.4,55.1,80.4c0-0.1,0-0.1-0.1-0.1s-0.2,0-0.1,0.1C54.9,80.4,55,80.4,55.1,80.4
					C55.1,80.4,55.1,80.4,55.1,80.4z"/>
				<path class="st0" d="M132.6,112.3c0,0,0.1,0,0.1,0c0,0,0-0.1,0-0.1C132.7,112.1,132.6,112.1,132.6,112.3
					C132.5,112.3,132.5,112.3,132.6,112.3z"/>
				<path class="st0" d="M5,109.9l-0.2,0.1v0.1c0.1,0,0.1-0.1,0.2-0.1C5,110.1,5,110,5,109.9z"/>
				<path class="st0" d="M47.5,127.8c0.1-0.1,0-0.2,0-0.2S47.5,127.7,47.5,127.8C47.4,127.8,47.5,127.8,47.5,127.8
					C47.5,127.9,47.5,127.9,47.5,127.8z"/>
				<path class="st0" d="M167.5-0.7C167.5-0.7,167.5-0.8,167.5-0.7c0-0.1-0.1-0.2-0.1-0.2S167.3-0.8,167.5-0.7
					C167.6-0.6,167.5-0.7,167.5-0.7z"/>
				<path class="st0" d="M45.1,126.7L45.1,126.7c-0.1,0.1-0.1,0.1-0.1,0.2h0.1C45.1,126.8,45.1,126.8,45.1,126.7z"/>
				<path class="st0" d="M107.2,42h0.1c0,0,0-0.1,0-0.1s-0.2,0-0.2,0S107.2,42,107.2,42z"/>
				<path class="st0" d="M167.6,85.5C167.7,85.5,167.7,85.5,167.6,85.5C167.6,85.4,167.6,85.5,167.6,85.5z"/>
				<path class="st0" d="M13.3,79.4c0.1,0.3,0.3,0.3,0.6,0.1c0.1-0.1,0-0.2,0-0.3c0,0,0,0-0.1,0C13.5,79.1,13.2,79.2,13.3,79.4z"/>
				<path class="st0" d="M60,71.4L60,71.4l-0.1,0.2C60.1,71.6,60.1,71.5,60,71.4z"/>
				<polygon class="st0" points="158.4,74.2 158.4,74.3 158.4,74.3 				"/>
				<path class="st0" d="M141.3,115.7h0.2l0,0H141.3z"/>
				<polygon class="st0" points="124.7,91.9 124.7,91.9 124.7,91.9 				"/>
				<path class="st0" d="M124.4,92.1c0.1,0,0.2-0.2,0.2-0.2c-0.1,0-0.3-0.1-0.3-0.1C124.3,91.9,124.3,92,124.4,92.1
					C124.4,92.1,124.4,92.1,124.4,92.1z"/>
			</g>
		</g>
	</g>
</g>
</svg>
