<svg xmlns="http://www.w3.org/2000/svg" viewBox="0 0 69.12 103.69"><defs><style>.cls-1{fill:#f2f2f2;}.cls-2,.cls-4{fill:#7a2b2b;}.cls-3{fill:#943434;}.cls-4{font-size:10.89px;font-family:Righteous-Regular, Righteous;}.cls-5{fill:#1f2d6c;}.cls-6{fill:#aa292e;}.cls-7{fill:#0b050f;}.cls-8{fill:none;stroke:#aa7941;stroke-miterlimit:10;stroke-width:0.77px;}.cls-9{fill:#dce3f2;}.cls-10{fill:#e8efff;}.cls-11{fill:#aa7941;}.cls-12{fill:#bf9b4d;}.cls-13{fill:#d28537;}.cls-14{fill:#bd7831;}.cls-15{fill:#2a3757;}</style></defs><title>diamond_Q</title><g id="Layer_2" data-name="Layer 2"><g id="Layer_1-2" data-name="Layer 1"><rect class="cls-1" width="69.12" height="103.69" rx="2.72" ry="2.72"/><polygon class="cls-2" points="61.67 83.63 64.46 87.43 61.67 91.22 58.88 87.43 61.67 83.63"/><polygon class="cls-3" points="61.68 91.21 64.46 87.43 61.68 83.64 61.68 91.21"/><text class="cls-4" transform="translate(3.18 10.68)">Q</text><text class="cls-4" transform="translate(65.95 93.01) rotate(180)">Q</text><polygon class="cls-2" points="7.36 20.07 4.57 16.28 7.36 12.48 10.15 16.28 7.36 20.07"/><polygon class="cls-3" points="7.36 12.49 4.57 16.28 7.36 20.06 7.36 12.49"/><rect class="cls-5" x="35.14" y="44.48" width="4.06" height="1.38"/><rect class="cls-6" x="34.79" y="43.1" width="4.06" height="1.38"/><rect class="cls-5" x="34.19" y="41.73" width="4.06" height="1.38"/><rect class="cls-6" x="33.83" y="40.35" width="4.06" height="1.38"/><rect class="cls-5" x="33.23" y="38.98" width="4.06" height="1.38"/><rect class="cls-6" x="32.88" y="37.6" width="4.06" height="1.38"/><rect class="cls-5" x="32.28" y="36.23" width="4.06" height="1.38"/><polygon class="cls-6" points="34.79 45.91 31.81 38.21 24.11 37.67 28.52 46.49 34.79 45.91"/><polygon class="cls-6" points="44.38 45.42 45.46 36.9 37.6 37.26 37.48 40.4 40.18 45.98 44.38 45.42"/><path class="cls-7" d="M35.43,36.74l3.48,9,2.56-.34s-3.58-4.71-3-6.51,4.7-.7,4.7-.7L44.93,35Z"/><path class="cls-7" d="M36,46l-3.41-9.15-8.7-.65L25,38.79s4.74-.9,6.11.22,2.69,6.85,2.69,6.85Z"/><path class="cls-7" d="M27.59,49.22a161.37,161.37,0,0,0,17.34-.62V45.42A164.27,164.27,0,0,1,27.59,46"/><path class="cls-8" d="M44.93,45.42A164.27,164.27,0,0,1,27.59,46"/><path class="cls-8" d="M44.93,48.6a161.37,161.37,0,0,1-17.34.62"/><path class="cls-9" d="M50.56,39l-4.89-4.5s-3.86,2-3.4,6,2.6,5.36,2.6,5.36Z"/><path class="cls-7" d="M50.56,39l-4.35-4s-3.44,1.78-3,5.31S45.5,45.1,45.5,45.1Z"/><path class="cls-5" d="M50.56,39,46.93,35.7s-2.87,1.48-2.52,4.43,1.93,4,1.93,4Z"/><rect class="cls-5" x="29.92" y="57.83" width="4.06" height="1.38"/><rect class="cls-6" x="30.27" y="59.21" width="4.06" height="1.38"/><rect class="cls-5" x="30.87" y="60.58" width="4.06" height="1.38"/><rect class="cls-6" x="31.23" y="61.96" width="4.06" height="1.38"/><rect class="cls-5" x="31.83" y="63.33" width="4.06" height="1.38"/><rect class="cls-6" x="32.18" y="64.71" width="4.06" height="1.38"/><rect class="cls-5" x="32.78" y="66.08" width="4.06" height="1.38"/><polygon class="cls-6" points="34.34 57.77 37.31 65.47 45.02 66.02 40.6 57.2 34.34 57.77"/><polygon class="cls-6" points="24.74 58.27 23.67 66.78 31.52 66.43 31.65 63.29 28.94 57.7 24.74 58.27"/><path class="cls-7" d="M33.69,67l-3.48-9-2.56.34s3.58,4.71,3,6.5-4.7.7-4.7.7l-1.78,3.18Z"/><path class="cls-7" d="M33.13,57.7l3.41,9.15,8.7.65-1.15-2.6s-4.73.89-6.11-.22-2.69-6.85-2.69-6.85Z"/><path class="cls-7" d="M41.53,54.46a164.43,164.43,0,0,0-17.34.62v3.19a161.52,161.52,0,0,1,17.34-.62"/><path class="cls-8" d="M24.19,58.27a161.52,161.52,0,0,1,17.34-.62"/><path class="cls-8" d="M24.19,55.08a164.43,164.43,0,0,1,17.34-.62"/><path class="cls-10" d="M59.84,71.14a14.17,14.17,0,0,1-4.43.7c-8.63,0-15.63-7.65-15.63-17.1s7-17.1,15.63-17.1a14.46,14.46,0,0,1,4.43.7Z"/><path class="cls-9" d="M59.84,70.4a13.85,13.85,0,0,1-4.43.73c-8.27,0-15-7.34-15-16.39s6.7-16.38,15-16.38a13.58,13.58,0,0,1,4.43.73Z"/><path class="cls-11" d="M59.84,66.84a11,11,0,0,1-4.43.93c-6.57,0-11.91-5.83-11.91-13s5.34-13,11.91-13a11,11,0,0,1,4.43.93Z"/><path class="cls-12" d="M59.84,65.46a9.93,9.93,0,0,1-4.43,1.05c-5.93,0-10.75-5.27-10.75-11.77S49.48,43,55.41,43a9.92,9.92,0,0,1,4.43,1Z"/><path class="cls-10" d="M59.84,61.47A7.12,7.12,0,0,1,55.41,63c-4.18,0-7.58-3.72-7.58-8.3s3.4-8.29,7.58-8.29A7.11,7.11,0,0,1,59.84,48Z"/><path class="cls-6" d="M59.84,60.94a6.76,6.76,0,0,1-4.43,1.67c-4,0-7.19-3.52-7.19-7.87s3.22-7.87,7.19-7.87a6.81,6.81,0,0,1,4.43,1.67Z"/><path class="cls-11" d="M59.84,55.94l-.74.51h0c-.24.18-.48.37-.71.57h0c-.23.19-.46.39-.68.6h0l-.64.63,0,0c0-.23,0-.45-.09-.67a.5.5,0,0,1,0-.12c0-.17-.07-.35-.11-.52v0c0-.06,0-.13,0-.19l-.1-.4,0-.08a1.8,1.8,0,0,1,0-.19c0-.13-.08-.26-.11-.39l0-.07-.06-.19c0-.13-.08-.26-.13-.39l-.09-.24c0-.13-.09-.25-.14-.37s-.07-.17-.11-.25l-.15-.35-.12-.25-.16-.34L55.38,53l-.15-.29,0-.05-.14-.24-.14-.24-.09-.13a1.74,1.74,0,0,0-.11-.18c0-.09-.11-.17-.17-.26l-.12-.18a.86.86,0,0,0-.07-.1L54.15,51l-.2-.27-.19-.25-.1-.12-.17-.2L53.34,50l-.14-.16L53,49.59l0-.05-.2-.2-.3-.31-.17-.15-.12-.12-.29-.26-.07-.06-.2-.17L51.23,48,51,47.81l-.24-.18-.29-.2-.24-.17-.3-.2-.24-.15a3.37,3.37,0,0,0-.32-.19l-.24-.14-.33-.18-.25-.13-.34-.17L48,46l-.37-.16-.23-.1-.42-.16-.19-.07-.54-.18-.09,0q-.32-.1-.63-.18l-.1,0L44.84,45l-.2,0-.45-.08-.24,0c-.38-.06-.76-.1-1.14-.13a15.2,15.2,0,0,1,12.62-7,14.09,14.09,0,0,1,4.41.7Z"/><path class="cls-12" d="M59.84,54.76a2.17,2.17,0,0,1-.68,1.14c-.56.61-1.32,1.07-1.9,1.68-.83-6.65-6.47-13-13.17-13.51,3.75-5.6,15.31-9.92,15.75-.84Z"/><path class="cls-7" d="M31.17,86.14S26,74.7,26.79,71,35,77.76,35,77.76Z"/><path class="cls-6" d="M35.62,96.62s-8.23-2-12-13.36S21.57,67.5,21.57,67.5l5.74,4s-.53,5.38,3.4,14.69,4.91,8.46,4.91,8.46Z"/><path class="cls-12" d="M40.33,95.62s-8.22-2-12-13.36-2-13.44-2-13.44l1.66.37s-2.1,3.7,1.84,13S40.33,93.66,40.33,93.66Z"/><polygon class="cls-5" points="59.84 55.27 59.84 66.43 54.1 71.75 48.25 68.41 59.84 55.27"/><path class="cls-7" d="M47,68.15S59.54,53.71,59.84,53.54v2.24L49.34,68.41Z"/><path class="cls-11" d="M27.71,72.48l-5.12-3.91a49.75,49.75,0,0,1,32.18,1.25l-4.15,5.12Z"/><path class="cls-12" d="M28.74,73.28l-5.12-3.9s13.82-5.11,31.15,1.54L50.62,76Z"/><path class="cls-9" d="M32.36,77.71a8.61,8.61,0,0,0-3.62-4.43s13.51-2.44,21.88,1.66c0,0-1.28,8.3-5.31,6.58S32.36,77.71,32.36,77.71Z"/><path class="cls-10" d="M30.86,88.31s-.34-3,0-3.48a1.67,1.67,0,0,0,.28-1.54c-.13-.73-.13-4.29.45-5.06s3-5.41,4.67-5.44,8.68,2.85,8.78,6.6a.93.93,0,0,1,1.18-.29c.68.38.77,3.17.77,3.17s-5.74,12.52-11.37,12C35.62,94.25,30.84,90.82,30.86,88.31Z"/><path class="cls-7" d="M35.62,96.62a11.27,11.27,0,0,0,10.6-3.35C50.86,88.33,56,76.46,59.84,75.16v-4.9s-9.43,4.82-11.72,12.28S35.62,96.62,35.62,96.62Z"/><path class="cls-13" d="M35.62,94s1.53-6.71,8.07-6.94C45.52,88.81,39.51,94,39.51,94a5.45,5.45,0,0,1-3.89.66Z"/><path class="cls-6" d="M35.62,94.66S42,93,47.2,80.12c8.91-14.4,12.64-13.69,12.64-13.69v3.83A47.45,47.45,0,0,0,49.42,82.62c-4,7.15-6.6,14-13.8,14Z"/><path class="cls-12" d="M35.62,96.62s-8.23-2-12-13.36S21.57,67.5,21.57,67.5l1.51.91s-1.86,5.48,2.07,14.79S35.62,94.66,35.62,94.66Z"/><path class="cls-14" d="M35.62,94s-1-4.32-4.92-5.75c0,0-1.22,7,4.92,6.41Z"/><path class="cls-9" d="M18.56,64.66l4.9,4.49s3.86-2,3.39-6-2.6-5.36-2.6-5.36Z"/><path class="cls-7" d="M18.56,64.66l4.35,4s3.44-1.77,3-5.3-2.32-4.77-2.32-4.77Z"/><path class="cls-5" d="M18.56,64.65,22.2,68s2.86-1.48,2.52-4.42-1.94-4-1.94-4Z"/><path class="cls-13" d="M30.84,85.28a6.46,6.46,0,0,0,1.54.18c.2,0,.39,0,.56,0s.35,0,.49,0a2.49,2.49,0,0,1,.5,0v0a2.25,2.25,0,0,1-.46.23,2,2,0,0,1-1.11.06,4.66,4.66,0,0,1-1.08-.25,4.57,4.57,0,0,1-.46-.19Z"/><path class="cls-13" d="M40.34,85.48s-.24.1-.61.21a7.85,7.85,0,0,1-1.39.26,6.78,6.78,0,0,1-.77,0,3.13,3.13,0,0,1-.66-.11,3,3,0,0,1-.61-.26v0a4,4,0,0,1,.65,0c.18,0,.4,0,.63,0s.48,0,.73.06a10.73,10.73,0,0,0,2-.16Z"/><path class="cls-15" d="M36.89,84.32a2,2,0,0,1,.46-.22,2.83,2.83,0,0,1,.5-.12,3.81,3.81,0,0,1,.59,0,3.23,3.23,0,0,1,1.1.19c.28.11.46.2.46.2l-.5-.07c-.14,0-.31,0-.49,0a2.67,2.67,0,0,0-.57,0,6.82,6.82,0,0,0-1.06.06A3.88,3.88,0,0,0,36.89,84.32Z"/><path class="cls-15" d="M33.6,84.32a3.39,3.39,0,0,0-.39-.09,3.52,3.52,0,0,0-.83-.07,4.94,4.94,0,0,0-.83.09l-.39.07.35-.19a2.38,2.38,0,0,1,.87-.19,3.56,3.56,0,0,1,.47,0,2.75,2.75,0,0,1,.4.12A1.64,1.64,0,0,1,33.6,84.32Z"/><path class="cls-10" d="M35.39,76.77a1.83,1.83,0,0,1,1.62,0"/><path class="cls-15" d="M35.39,76.77a.87.87,0,0,1,.23-.15.88.88,0,0,1,.26-.09,1.12,1.12,0,0,1,.32,0,1.38,1.38,0,0,1,.58.13,2,2,0,0,1,.23.14l-.26,0a2.29,2.29,0,0,0-.55,0,2.37,2.37,0,0,0-.55,0Z"/><path class="cls-15" d="M34.28,77.93s1-.1,1.92-.09,1.93.09,1.93.09a18.58,18.58,0,0,1-3.85,0Z"/><path class="cls-15" d="M34.73,80.12a.25.25,0,0,1,0-.1.78.78,0,0,1,.15-.22.91.91,0,0,1,.31-.22,2.07,2.07,0,0,1,.42-.14,3.13,3.13,0,0,1,.42,0,2.06,2.06,0,0,1,.37,0l.36.07a2.68,2.68,0,0,1-.36,0l-.35,0-.41.06a2.38,2.38,0,0,0-.38.11,1.12,1.12,0,0,0-.31.15A.86.86,0,0,0,34.73,80.12Z"/><path class="cls-10" d="M9.28,32.54a14.46,14.46,0,0,1,4.43-.7c8.63,0,15.63,7.66,15.63,17.1S22.34,66,13.71,66a14.46,14.46,0,0,1-4.43-.69Z"/><path class="cls-9" d="M9.28,33.29a13.63,13.63,0,0,1,4.43-.73c8.27,0,15,7.33,15,16.38S22,65.33,13.71,65.33a13.9,13.9,0,0,1-4.43-.73Z"/><path class="cls-11" d="M9.28,36.85a10.83,10.83,0,0,1,4.43-.94c6.58,0,11.91,5.84,11.91,13S20.29,62,13.71,62A11,11,0,0,1,9.28,61Z"/><path class="cls-12" d="M9.28,38.22a9.92,9.92,0,0,1,4.43-1c5.94,0,10.75,5.27,10.75,11.76S19.65,60.71,13.71,60.71a9.93,9.93,0,0,1-4.43-1.05Z"/><path class="cls-10" d="M9.28,42.21a7.13,7.13,0,0,1,4.43-1.56c4.18,0,7.58,3.71,7.58,8.29s-3.4,8.29-7.58,8.29a7.13,7.13,0,0,1-4.43-1.56Z"/><path class="cls-6" d="M9.28,42.74a6.81,6.81,0,0,1,4.43-1.67c4,0,7.19,3.53,7.19,7.87s-3.22,7.87-7.19,7.87a6.76,6.76,0,0,1-4.43-1.67Z"/><path class="cls-11" d="M9.28,47.74c.25-.16.5-.33.74-.51h0l.72-.56h0c.23-.2.46-.39.68-.6h0c.21-.2.43-.41.63-.63h0c0,.22.06.45.1.67a.52.52,0,0,0,0,.11c0,.18.06.35.1.53h0c0,.07,0,.13,0,.19l.09.41,0,.08.06.19c0,.13.07.26.11.38l0,.08.06.19c0,.13.09.25.13.38l.09.25c.05.12.1.24.14.36s.07.17.11.25l.15.35.12.25c.05.12.11.23.16.34l.14.25a1.91,1.91,0,0,0,.15.28l0,.06.13.23.15.24a1,1,0,0,0,.08.14l.11.18c.06.08.11.17.17.26l.12.18a.36.36,0,0,1,.07.1l.21.28a3.16,3.16,0,0,0,.2.27l.2.25a1.25,1.25,0,0,0,.09.12l.17.21.15.17.15.17.24.27s0,0,0,0l.2.21.31.3.16.16.13.11a3.45,3.45,0,0,0,.28.26l.07.06.21.18.32.27.25.19.23.17.29.21.24.17.3.19.24.16.32.18.24.15.33.17.25.13.34.17.24.12.37.16.23.1.42.15.2.08.54.18.08,0,.64.18.09,0,.55.13.2,0,.45.09.24,0c.38.06.76.11,1.15.14a15.25,15.25,0,0,1-12.63,7,14.38,14.38,0,0,1-4.41-.69Z"/><path class="cls-12" d="M9.28,48.92A2.17,2.17,0,0,1,10,47.78c.56-.6,1.32-1.07,1.91-1.67.82,6.64,6.47,13,13.16,13.5-3.75,5.6-15.31,9.92-15.75.85Z"/><polygon class="cls-5" points="9.28 48.41 9.28 37.25 15.02 31.93 20.87 35.27 9.28 48.41"/><path class="cls-7" d="M22.13,35.54S9.59,50,9.28,50.14V47.9L19.79,35.27Z"/><path class="cls-7" d="M38,17.54S43.13,29,42.33,32.67s-8.17-6.74-8.17-6.74Z"/><path class="cls-6" d="M33.5,7.06s8.23,2,12,13.36,2,15.76,2,15.76l-5.73-4s.52-5.38-3.41-14.69S33.5,9,33.5,9Z"/><path class="cls-12" d="M28.79,8.06s8.23,2,12,13.36,2,13.45,2,13.45l-1.66-.37s2.1-3.71-1.84-13S28.79,10,28.79,10Z"/><path class="cls-11" d="M41.41,31.21l5.12,3.9a49.74,49.74,0,0,1-32.18-1.25l4.15-5.11Z"/><path class="cls-12" d="M40.39,30.4l5.11,3.91s-13.81,5.11-31.15-1.54l4.15-5.12Z"/><path class="cls-9" d="M36.76,26a8.59,8.59,0,0,0,3.63,4.42S26.87,32.84,18.5,28.74c0,0,1.29-8.29,5.32-6.58S36.76,26,36.76,26Z"/><path class="cls-10" d="M38.26,15.38s.34,3,0,3.47A1.7,1.7,0,0,0,38,20.39c.13.74.13,4.29-.44,5.06s-3,5.42-4.68,5.45-8.68-2.85-8.78-6.6a.94.94,0,0,1-1.18.29c-.67-.39-.77-3.17-.77-3.17s5.74-12.53,11.37-12C33.5,9.44,38.28,12.86,38.26,15.38Z"/><path class="cls-7" d="M33.5,7.06a11.3,11.3,0,0,0-10.6,3.35c-4.64,4.95-9.74,16.82-13.62,18.11v4.91S18.72,28.6,21,21.14,33.5,7.06,33.5,7.06Z"/><path class="cls-13" d="M33.5,9.69S32,16.4,25.43,16.63c-1.82-1.75,4.18-6.94,4.18-6.94A5.41,5.41,0,0,1,33.5,9Z"/><path class="cls-6" d="M33.5,9s-6.33,1.63-11.58,14.54C13,38,9.28,37.25,9.28,37.25V33.43A47.8,47.8,0,0,0,19.71,21.07c3.95-7.16,6.59-14,13.79-14Z"/><path class="cls-12" d="M33.5,7.06s8.23,2,12,13.36,2,15.76,2,15.76L46,35.27S47.9,29.8,44,20.49,33.5,9,33.5,9Z"/><path class="cls-14" d="M33.5,9.69s1,4.32,4.92,5.75c0,0,1.22-7-4.92-6.42Z"/><path class="cls-13" d="M38.28,18.4a6.08,6.08,0,0,0-1.54-.17,5.07,5.07,0,0,0-.56.05c-.17,0-.35,0-.49,0a3.11,3.11,0,0,1-.5,0v0a2.58,2.58,0,0,1,.46-.24,2.24,2.24,0,0,1,1.11-.06,5.23,5.23,0,0,1,1.08.25,4.47,4.47,0,0,1,.46.2Z"/><path class="cls-13" d="M28.78,18.2s.24-.09.61-.2a7.8,7.8,0,0,1,1.4-.26,3.94,3.94,0,0,1,.76,0,3.13,3.13,0,0,1,.66.11,3.5,3.5,0,0,1,.61.25v0a3.89,3.89,0,0,1-.64.05c-.19,0-.41,0-.64,0s-.48,0-.73-.06a9.7,9.7,0,0,0-2,.16Z"/><path class="cls-15" d="M32.23,19.37a2.31,2.31,0,0,1-.46.21,2.78,2.78,0,0,1-.5.13,5.63,5.63,0,0,1-.59.05,3.68,3.68,0,0,1-1.09-.19c-.28-.11-.46-.2-.46-.2l.49.06a3.52,3.52,0,0,0,.5.05,3.38,3.38,0,0,0,.56,0,6.74,6.74,0,0,0,1.06-.06Z"/><path class="cls-15" d="M35.53,19.37a2.89,2.89,0,0,0,.38.09,4.2,4.2,0,0,0,.83.06,2.23,2.23,0,0,0,.45,0,3.38,3.38,0,0,0,.38-.06l.39-.07-.35.19a2.2,2.2,0,0,1-.87.18,2.42,2.42,0,0,1-.47,0,2.09,2.09,0,0,1-.4-.13A1.63,1.63,0,0,1,35.53,19.37Z"/><path class="cls-10" d="M33.73,26.91a1.79,1.79,0,0,1-1.62,0"/><path class="cls-15" d="M33.73,26.91a1.13,1.13,0,0,1-.22.16c-.08,0-.17.07-.27.09a3.16,3.16,0,0,1-.32,0,1.54,1.54,0,0,1-.58-.14l-.23-.14.26,0a3.38,3.38,0,0,0,1.1,0Z"/><path class="cls-15" d="M34.85,25.75a18.67,18.67,0,0,1-3.86,0s1-.1,1.93-.09S34.85,25.75,34.85,25.75Z"/><path class="cls-15" d="M34.4,23.57a.37.37,0,0,1,0,.09.63.63,0,0,1-.15.23,1.07,1.07,0,0,1-.31.22,2.47,2.47,0,0,1-.41.14,3.44,3.44,0,0,1-.43,0,1.42,1.42,0,0,1-.37,0,2.84,2.84,0,0,1-.36-.07l.36,0a1.54,1.54,0,0,0,.36,0,2.76,2.76,0,0,0,.4-.06,2.11,2.11,0,0,0,.38-.1,1.13,1.13,0,0,0,.31-.16A.89.89,0,0,0,34.4,23.57Z"/></g></g></svg>