<svg xmlns="http://www.w3.org/2000/svg" viewBox="0 0 69.12 103.68"><defs><style>.cls-1{fill:#f2f2f2;}.cls-2,.cls-4{fill:#7a2b2b;}.cls-3{fill:#943434;}.cls-4{font-size:10.89px;font-family:Righteous-Regular, Righteous;}</style></defs><title>heart_8</title><g id="Layer_2" data-name="Layer 2"><g id="Layer_1-2" data-name="Layer 1"><rect class="cls-1" width="69.12" height="103.68" rx="2.72" ry="2.72"/><path class="cls-2" d="M50.27,34.41l-1.08-1.08c-4-3.54-6.62-5.93-6.62-8.86a4.18,4.18,0,0,1,4.23-4.24c1.32,0,2.63,1.4,3.47,2.4.85-1,2.16-2.4,3.47-2.4A4.18,4.18,0,0,1,58,24.47c0,2.93-2.62,5.32-6.63,8.86Z"/><path class="cls-3" d="M50.26,22.62c-.85-1-2.15-2.38-3.46-2.38a4.18,4.18,0,0,0-4.23,4.24c0,2.93,2.62,5.31,6.62,8.86l1.07,1.06Z"/><path class="cls-2" d="M18.82,83.45l-1.08-1.07c-4-3.55-6.63-5.93-6.63-8.87a4.18,4.18,0,0,1,4.24-4.23c1.31,0,2.62,1.4,3.47,2.4.84-1,2.15-2.4,3.47-2.4a4.18,4.18,0,0,1,4.23,4.23c0,2.94-2.62,5.32-6.62,8.87Z"/><path class="cls-3" d="M18.8,71.67c-.85-1-2.15-2.38-3.45-2.38a4.18,4.18,0,0,0-4.24,4.23c0,2.93,2.62,5.32,6.63,8.87l1.06,1.06Z"/><path class="cls-2" d="M18.82,34.41l-1.08-1.08c-4-3.54-6.63-5.93-6.63-8.86a4.18,4.18,0,0,1,4.24-4.24c1.31,0,2.62,1.4,3.47,2.4.84-1,2.15-2.4,3.47-2.4a4.18,4.18,0,0,1,4.23,4.24c0,2.93-2.62,5.32-6.62,8.86Z"/><path class="cls-3" d="M18.8,22.62c-.85-1-2.15-2.38-3.45-2.38a4.18,4.18,0,0,0-4.24,4.24c0,2.93,2.62,5.31,6.63,8.86L18.8,34.4Z"/><path class="cls-2" d="M50.27,58.93l-1.08-1.08c-4-3.54-6.62-5.93-6.62-8.86a4.18,4.18,0,0,1,4.23-4.24c1.32,0,2.63,1.41,3.47,2.41.85-1,2.16-2.41,3.47-2.41A4.19,4.19,0,0,1,58,49c0,2.93-2.62,5.32-6.63,8.86Z"/><path class="cls-3" d="M50.26,47.15c-.85-1-2.15-2.39-3.46-2.39A4.18,4.18,0,0,0,42.57,49c0,2.93,2.62,5.32,6.62,8.86l1.07,1.06Z"/><path class="cls-2" d="M18.82,58.93l-1.08-1.08c-4-3.54-6.63-5.93-6.63-8.86a4.19,4.19,0,0,1,4.24-4.24c1.31,0,2.62,1.41,3.47,2.41.84-1,2.15-2.41,3.47-2.41A4.18,4.18,0,0,1,26.52,49c0,2.93-2.62,5.32-6.62,8.86Z"/><path class="cls-3" d="M18.8,47.15c-.85-1-2.15-2.39-3.45-2.39A4.18,4.18,0,0,0,11.11,49c0,2.93,2.62,5.32,6.63,8.86l1.06,1.06Z"/><path class="cls-2" d="M50.27,83.45l-1.08-1.07c-4-3.55-6.62-5.93-6.62-8.87a4.18,4.18,0,0,1,4.23-4.23c1.32,0,2.63,1.4,3.47,2.4.85-1,2.16-2.4,3.47-2.4A4.18,4.18,0,0,1,58,73.51c0,2.94-2.62,5.32-6.63,8.87Z"/><path class="cls-3" d="M50.26,71.67c-.85-1-2.15-2.38-3.46-2.38a4.18,4.18,0,0,0-4.23,4.23c0,2.93,2.62,5.32,6.62,8.87l1.07,1.06Z"/><text class="cls-4" transform="translate(4.04 10.68)">8</text><text class="cls-4" transform="translate(65.08 93.01) rotate(180)">8</text><path class="cls-2" d="M7.42,20l-.58-.57c-2.14-1.9-3.55-3.18-3.55-4.75a2.23,2.23,0,0,1,2.27-2.26c.7,0,1.4.75,1.86,1.28.45-.53,1.15-1.28,1.85-1.28a2.23,2.23,0,0,1,2.27,2.26c0,1.57-1.4,2.85-3.55,4.75Z"/><path class="cls-3" d="M7.41,13.66c-.46-.54-1.15-1.28-1.85-1.28a2.24,2.24,0,0,0-2.27,2.27c0,1.57,1.41,2.85,3.55,4.74l.57.57Z"/><path class="cls-2" d="M61.71,83.72l.57.58c2.15,1.89,3.55,3.17,3.55,4.74a2.24,2.24,0,0,1-2.27,2.27c-.7,0-1.4-.75-1.85-1.29-.46.54-1.16,1.29-1.86,1.29A2.24,2.24,0,0,1,57.58,89c0-1.57,1.4-2.85,3.55-4.74Z"/><path class="cls-3" d="M61.71,90c.46.53,1.15,1.27,1.85,1.27A2.23,2.23,0,0,0,65.83,89c0-1.57-1.4-2.85-3.55-4.75l-.57-.56Z"/><path class="cls-2" d="M34.56,45.5l-1.08-1.08c-4-3.54-6.62-5.93-6.62-8.86a4.18,4.18,0,0,1,4.23-4.24c1.32,0,2.62,1.41,3.47,2.41.85-1,2.16-2.41,3.47-2.41a4.19,4.19,0,0,1,4.24,4.24c0,2.93-2.62,5.32-6.63,8.86Z"/><path class="cls-3" d="M34.54,33.71c-.84-1-2.14-2.38-3.45-2.38a4.18,4.18,0,0,0-4.23,4.24c0,2.93,2.61,5.32,6.62,8.86l1.06,1.06Z"/><path class="cls-2" d="M34.56,71.53l-1.08-1.08c-4-3.54-6.62-5.93-6.62-8.86a4.18,4.18,0,0,1,4.23-4.23c1.32,0,2.62,1.4,3.47,2.4.85-1,2.16-2.4,3.47-2.4a4.18,4.18,0,0,1,4.24,4.23c0,2.93-2.62,5.32-6.63,8.86Z"/><path class="cls-3" d="M34.54,59.75c-.84-1-2.14-2.38-3.45-2.38a4.18,4.18,0,0,0-4.23,4.23c0,2.93,2.61,5.32,6.62,8.86l1.06,1.06Z"/></g></g></svg>