<svg xmlns="http://www.w3.org/2000/svg" viewBox="0 0 69.12 103.68"><defs><style>.cls-1{fill:#f2f2f2;}.cls-2,.cls-4{fill:#7a2b2b;}.cls-3{fill:#943434;}.cls-4{font-size:10.89px;font-family:Righteous-Regular, Righteous;}</style></defs><title>Heart_A</title><g id="Layer_2" data-name="Layer 2"><g id="Layer_1-2" data-name="Layer 1"><rect class="cls-1" width="69.12" height="103.68" rx="2.72" ry="2.72"/><path class="cls-2" d="M34.56,69.32,31.9,66.67C22,57.93,15.56,52,15.56,44.81A10.31,10.31,0,0,1,26,34.36c3.25,0,6.47,3.46,8.56,5.93,2.09-2.47,5.32-5.93,8.56-5.93A10.31,10.31,0,0,1,53.56,44.81c0,7.23-6.45,13.12-16.34,21.86Z"/><path class="cls-3" d="M34.52,40.26c-2.09-2.47-5.29-5.88-8.52-5.88A10.31,10.31,0,0,0,15.56,44.83C15.56,52.06,22,58,31.9,66.69l2.62,2.61Z"/><path class="cls-2" d="M7.37,19.88l-.58-.58c-2.14-1.9-3.54-3.18-3.54-4.74a2.24,2.24,0,0,1,2.27-2.27c.7,0,1.4.75,1.85,1.29.46-.54,1.16-1.29,1.86-1.29a2.23,2.23,0,0,1,2.26,2.27c0,1.56-1.4,2.84-3.54,4.74Z"/><path class="cls-3" d="M7.36,13.57C6.91,13,6.22,12.3,5.52,12.3a2.23,2.23,0,0,0-2.27,2.26c0,1.57,1.4,2.85,3.54,4.74l.57.57Z"/><path class="cls-2" d="M61.66,83.63l.58.58c2.14,1.9,3.54,3.17,3.54,4.74a2.23,2.23,0,0,1-2.26,2.27c-.71,0-1.41-.75-1.86-1.29-.45.54-1.15,1.29-1.85,1.29A2.24,2.24,0,0,1,57.54,89c0-1.57,1.4-2.84,3.54-4.74Z"/><path class="cls-3" d="M61.67,89.94c.45.53,1.15,1.27,1.85,1.27A2.23,2.23,0,0,0,65.78,89c0-1.57-1.4-2.85-3.54-4.74l-.57-.57Z"/><text class="cls-4" transform="translate(3.74 10.68)">A</text><text class="cls-4" transform="translate(65.38 93) rotate(180)">A</text></g></g></svg>