<svg xmlns="http://www.w3.org/2000/svg" viewBox="0 0 69.12 103.68"><defs><style>.cls-1{fill:#f2f2f2;}.cls-2,.cls-4{fill:#7a2b2b;}.cls-3{fill:#943434;}.cls-4{font-size:10.89px;font-family:Righteous-Regular, Righteous;}.cls-5{fill:#aa292e;}.cls-6{fill:#0b050f;}.cls-7{fill:#3856c8;}.cls-8{fill:#bf9b4d;}.cls-9{fill:#e8efff;}.cls-10{fill:#c9d8f7;}.cls-11{fill:#715c57;}.cls-12{fill:#aa7941;}.cls-13{fill:#e6e6e6;}.cls-14{fill:#666;}.cls-15{fill:gray;}.cls-16{fill:#999;}.cls-17{fill:#b3b3b3;}.cls-18{fill:#ccc;}.cls-19{fill:#2a3757;}</style></defs><title>heart_K</title><g id="Layer_2" data-name="Layer 2"><g id="Layer_1-2" data-name="Layer 1"><rect class="cls-1" width="69.12" height="103.68" rx="2.72" ry="2.72"/><path class="cls-2" d="M7.37,19.88,6.8,19.3c-2.15-1.9-3.55-3.18-3.55-4.74a2.24,2.24,0,0,1,2.27-2.27c.7,0,1.4.75,1.85,1.29.46-.54,1.16-1.29,1.86-1.29a2.24,2.24,0,0,1,2.27,2.27c0,1.56-1.41,2.84-3.55,4.74Z"/><path class="cls-3" d="M7.36,13.57c-.45-.53-1.14-1.28-1.84-1.28a2.24,2.24,0,0,0-2.27,2.27c0,1.57,1.4,2.85,3.55,4.74l.56.57Z"/><path class="cls-2" d="M61.66,83.63l.58.58c2.14,1.9,3.54,3.17,3.54,4.74a2.23,2.23,0,0,1-2.26,2.27c-.7,0-1.4-.75-1.86-1.29-.45.54-1.15,1.29-1.85,1.29A2.24,2.24,0,0,1,57.54,89c0-1.57,1.4-2.84,3.54-4.74Z"/><path class="cls-3" d="M61.67,89.94c.45.53,1.15,1.27,1.85,1.27A2.23,2.23,0,0,0,65.78,89c0-1.57-1.4-2.85-3.54-4.74l-.57-.57Z"/><text class="cls-4" transform="translate(4.01 10.68)">K</text><text class="cls-4" transform="translate(65.12 93.01) rotate(180)">K</text><path class="cls-5" d="M17.65,75.41a22.13,22.13,0,0,1-7.83-5.57v-5h7.83Z"/><path class="cls-5" d="M9.82,62.33V34.18A16,16,0,0,1,20.46,29S20.59,57.52,9.82,62.33Z"/><rect class="cls-6" x="30.6" y="30.55" width="3.62" height="6.65"/><rect class="cls-6" x="23.33" y="28.25" width="3.62" height="6.65"/><rect class="cls-5" x="34.25" y="27.9" width="3.62" height="6.65"/><rect class="cls-5" x="26.98" y="30.07" width="3.62" height="6.65"/><rect class="cls-6" x="37.75" y="25.9" width="3.62" height="6.65"/><rect class="cls-5" x="41.4" y="25.77" width="3.62" height="4.14"/><path class="cls-6" d="M19.49,29.11s1.27,18.62-9.67,33.22c0,1.29,0,1.94,0,1.94s6.44-3,10.1-15.79,2-19.37,2-19.37Z"/><path class="cls-1" d="M21.16,29.52s.34,12.26-2.68,19.6S13.34,61.47,9.82,64.24v5.6S19.76,60.23,23,49.41a64,64,0,0,0,2.65-20.29Z"/><path class="cls-5" d="M21,29.2c0,.46.93.83,2.08.83s2.09-.37,2.09-.83-.94-.83-2.09-.83S21,28.74,21,29.2Z"/><path class="cls-5" d="M21.13,31c0,.45.87.86,2,.92s2.06-.26,2.08-.71-.87-.86-2-.92S21.16,30.58,21.13,31Z"/><path class="cls-5" d="M21.17,33.14c-.05.44.8.89,1.9,1s2-.15,2.08-.59-.81-.89-1.91-1S21.21,32.7,21.17,33.14Z"/><path class="cls-5" d="M21.07,35.47c-.07.43.74.93,1.82,1.1s2,0,2.07-.45-.74-.92-1.82-1.1S21.14,35,21.07,35.47Z"/><path class="cls-5" d="M20.84,38c-.09.42.68,1,1.73,1.19s2,.09,2.07-.33-.68-1-1.73-1.19S20.94,37.58,20.84,38Z"/><path class="cls-5" d="M20.47,40.67c-.12.41.62,1,1.64,1.28s1.95.2,2.07-.21-.61-1-1.64-1.27S20.59,40.26,20.47,40.67Z"/><path class="cls-5" d="M20,43.45c-.14.4.55,1,1.55,1.36s1.93.32,2.07-.08-.56-1-1.55-1.36S20.1,43.05,20,43.45Z"/><path class="cls-5" d="M19.29,46.28c-.16.39.5,1,1.47,1.45s1.9.44,2.06.05-.49-1-1.46-1.46S19.46,45.89,19.29,46.28Z"/><path class="cls-5" d="M18.48,49.12c-.19.38.42,1.08,1.37,1.55s1.87.55,2.06.17-.43-1.07-1.37-1.55S18.66,48.74,18.48,49.12Z"/><path class="cls-5" d="M17.49,51.94c-.21.37.36,1.1,1.29,1.64s1.84.66,2.06.29-.37-1.1-1.29-1.63S17.7,51.57,17.49,51.94Z"/><path class="cls-5" d="M16.34,54.69c-.24.36.3,1.13,1.2,1.72s1.82.78,2.05.42-.3-1.13-1.19-1.72S16.58,54.33,16.34,54.69Z"/><path class="cls-5" d="M15,57.32c-.26.35.23,1.16,1.1,1.81s1.8.9,2.06.55-.24-1.16-1.11-1.81S15.28,57,15,57.32Z"/><path class="cls-5" d="M13.51,59.79c-.28.34.17,1.19,1,1.9s1.77,1,2,.68-.17-1.19-1-1.9S13.79,59.45,13.51,59.79Z"/><path class="cls-5" d="M11.82,62.06c-.31.33.11,1.22.93,2s1.74,1.13,2.05.8-.11-1.22-.93-2S12.13,61.73,11.82,62.06Z"/><path class="cls-5" d="M9.94,64.09c-.33.32.05,1.25.84,2.08s1.72,1.24,2.05.92S12.78,65.84,12,65,10.27,63.77,9.94,64.09Z"/><rect class="cls-7" x="30.84" y="39.04" width="5.76" height="6.37"/><polygon class="cls-8" points="36.35 45.13 30.84 45.13 30.84 50.91 36.35 45.13"/><rect class="cls-8" x="30.74" y="39.92" width="5.81" height="4.73"/><polygon class="cls-8" points="36.55 39.5 30.84 39.5 30.84 37.96 36.55 34.5 36.55 39.5"/><path class="cls-5" d="M29.73,51.46,30,38.06l-4.72-2.67s-.93,11.1-2.05,13.09S29.73,51.46,29.73,51.46Z"/><polygon class="cls-9" points="29.65 51.51 31.05 50.81 31.05 37.09 29.65 37.09 29.65 51.51"/><polygon class="cls-6" points="29.19 52.03 30.6 51.33 30.6 37.62 29.19 37.62 29.19 52.03"/><path class="cls-6" d="M20,56.68c.47-1.2,1.28-2.31,1.87-3.46a19,19,0,0,0,2-5.91H24a6.89,6.89,0,0,1,6.4,4.34,7.77,7.77,0,0,1-.69.72c-.49.41-1.05.73-1.56,1.11-1.22.94-2.15,2.23-3.52,3a24.5,24.5,0,0,1-3.22,1.33,14.19,14.19,0,0,1-1.44.46l-.44-.07C19.67,57.67,19.83,57.16,20,56.68Z"/><path class="cls-8" d="M20,56.68c.47-1.2,1.28-2.31,1.87-3.46a19.25,19.25,0,0,0,1.89-5.36H24a6.36,6.36,0,0,1,6,4.25,2.37,2.37,0,0,1-.28.27c-.49.41-1.05.73-1.56,1.11-1.22.94-2.15,2.23-3.52,3a24.5,24.5,0,0,1-3.22,1.33,14.19,14.19,0,0,1-1.44.46l-.44-.07C19.67,57.67,19.83,57.16,20,56.68Z"/><path class="cls-7" d="M21.89,53.22a19.69,19.69,0,0,0,1-2.3,3.59,3.59,0,0,1,1-.16,3.44,3.44,0,0,1,3.43,3.34,14.61,14.61,0,0,1-2.8,2.35,16.51,16.51,0,0,1-2,.89,3.44,3.44,0,0,1-1.87-2.05C21.1,54.6,21.53,53.92,21.89,53.22Z"/><polygon class="cls-5" points="43.39 40.64 37.75 43.89 37.47 33.4 43.39 30.14 43.39 40.64"/><rect class="cls-9" x="36.35" y="33.87" width="1.4" height="10.62"/><path class="cls-10" d="M48.75,26.94a16.34,16.34,0,0,0-4.93-1.71l-.3,15.22s3.84-1.42,5.56-1.36Z"/><polygon class="cls-11" points="48.75 26.94 49.62 27.27 49.62 38.99 48.75 38.99 48.75 26.94"/><path class="cls-6" d="M49.62,27.28a10.51,10.51,0,0,1,1.86,1V38.83H49.62Z"/><path class="cls-5" d="M51.48,28.25a22,22,0,0,1,7.82,5.56v5H51.48Z"/><rect class="cls-6" x="36.87" y="33.4" width="1.4" height="10.62"/><rect class="cls-11" x="42.95" y="25.23" width="0.87" height="14.93"/><path class="cls-12" d="M20.63,58.42A5.8,5.8,0,0,0,22.71,58c2.85-1.08,6.34-4.05,10.37-8.85,4.85-5.76,9.62-8.06,12.76-9a25.7,25.7,0,0,1,7.3-.8l.17-.94a25.69,25.69,0,0,0-7.67.8c-3.29.94-8.26,3.31-13.29,9.29-9,10.76-12.5,8.8-12.53,8.78l-.54.79A2.41,2.41,0,0,0,20.63,58.42Z"/><path class="cls-9" d="M43,29.53s-11.66,7.61-12.76,7.61-4.41-2.32-4.41-2.32v1.35s4,2.66,4.51,2.66S43,31,43,31Z"/><path class="cls-8" d="M41.65,25.89s-9.86,7.24-11.26,7.24-5.45-3.62-5.45-3.62Z"/><path class="cls-8" d="M43,28.61s-11.66,7.73-12.76,7.73-4.41-2.6-4.41-2.6V35s4,2.58,4.51,2.58S43,30,43,30Z"/><path class="cls-12" d="M26.1,30.05s0,12.3-2.85,20.42S13.13,70,11,71L9.82,69.84s5.1-4.2,12.39-20c1.9-7.81,2-4.43,2.88-20.34S26.1,30.05,26.1,30.05Z"/><path class="cls-5" d="M59.3,41.32V69.47a15.91,15.91,0,0,1-10.64,5.18S48.53,46.14,59.3,41.32Z"/><rect class="cls-6" x="34.9" y="66.46" width="3.62" height="6.65"/><rect class="cls-6" x="42.16" y="68.75" width="3.62" height="6.65"/><rect class="cls-5" x="31.25" y="69.1" width="3.62" height="6.65"/><rect class="cls-5" x="38.53" y="66.93" width="3.62" height="6.65"/><rect class="cls-6" x="27.75" y="71.1" width="3.62" height="6.65"/><rect class="cls-5" x="24.1" y="73.74" width="3.62" height="4.14"/><path class="cls-6" d="M49.63,74.55S48.36,55.92,59.3,41.32c0-1.29,0-1.94,0-1.94s-6.44,3-10.1,15.79-2,19.38-2,19.38Z"/><path class="cls-1" d="M48,74.13s-.34-12.26,2.69-19.6,5.13-12.35,8.65-15.12v-5.6s-5.43,1.1-13.19,20.43a64,64,0,0,0-2.65,20.3Z"/><ellipse class="cls-5" cx="46.06" cy="74.46" rx="2.08" ry="0.83"/><path class="cls-5" d="M48,72.62c0-.45-.87-.86-2-.92s-2.06.26-2.09.71.87.86,2,.92S48,73.07,48,72.62Z"/><path class="cls-5" d="M48,70.52c0-.44-.81-.9-1.91-1s-2,.14-2.08.58.81.89,1.91,1S47.91,71,48,70.52Z"/><path class="cls-5" d="M48.05,68.18c.07-.43-.74-.92-1.81-1.1s-2,0-2.08.46.74.92,1.82,1.09S48,68.61,48.05,68.18Z"/><path class="cls-5" d="M48.28,65.65c.1-.42-.68-1-1.73-1.19s-2-.08-2.07.33.68,1,1.73,1.19S48.19,66.07,48.28,65.65Z"/><path class="cls-5" d="M48.65,63c.12-.41-.62-1-1.64-1.28s-1.95-.2-2.07.21.62,1,1.64,1.28S48.53,63.39,48.65,63Z"/><path class="cls-5" d="M49.16,60.21c.15-.4-.55-1-1.55-1.37s-1.92-.32-2.06.08.55,1,1.55,1.37S49,60.61,49.16,60.21Z"/><path class="cls-5" d="M49.83,57.38c.16-.39-.49-1.05-1.47-1.46s-1.89-.44-2.06-.05.49,1,1.46,1.46S49.66,57.76,49.83,57.38Z"/><path class="cls-5" d="M50.65,54.53c.19-.38-.43-1.07-1.38-1.55s-1.87-.55-2.06-.17.43,1.07,1.38,1.55S50.46,54.91,50.65,54.53Z"/><path class="cls-5" d="M51.63,51.71c.21-.37-.36-1.1-1.29-1.63s-1.84-.67-2.05-.3.36,1.1,1.28,1.63S51.42,52.08,51.63,51.71Z"/><path class="cls-5" d="M52.78,49c.24-.35-.3-1.13-1.2-1.72s-1.81-.78-2-.42.3,1.13,1.2,1.72S52.55,49.32,52.78,49Z"/><path class="cls-5" d="M54.11,46.33c.26-.35-.24-1.16-1.11-1.81s-1.79-.9-2-.55.23,1.16,1.1,1.82S53.85,46.68,54.11,46.33Z"/><path class="cls-5" d="M55.61,43.86c.29-.34-.17-1.19-1-1.9s-1.76-1-2.05-.67.18,1.19,1,1.9S55.33,44.2,55.61,43.86Z"/><path class="cls-5" d="M57.3,41.59c.31-.33-.11-1.22-.93-2s-1.74-1.13-2-.8.11,1.22.94,2S57,41.92,57.3,41.59Z"/><path class="cls-5" d="M59.18,39.56c.33-.31,0-1.24-.84-2.07s-1.71-1.25-2-.93,0,1.25.84,2.08S58.85,39.88,59.18,39.56Z"/><rect class="cls-7" x="32.52" y="58.25" width="5.76" height="6.37"/><polygon class="cls-8" points="32.77 58.52 38.28 58.52 38.28 52.74 32.77 58.52"/><rect class="cls-8" x="32.57" y="59.01" width="5.81" height="4.73"/><polygon class="cls-8" points="32.57 64.15 38.28 64.15 38.28 65.69 32.57 69.15 32.57 64.15"/><path class="cls-5" d="M39.39,52.19l-.22,13.4,4.73,2.67s.93-11.1,2.05-13.09S39.39,52.19,39.39,52.19Z"/><polygon class="cls-9" points="39.48 52.15 38.07 52.84 38.07 66.56 39.48 66.56 39.48 52.15"/><polygon class="cls-6" points="39.93 51.62 38.52 52.32 38.52 66.04 39.93 66.04 39.93 51.62"/><path class="cls-6" d="M49.11,47a38.57,38.57,0,0,1-1.88,3.46,19.26,19.26,0,0,0-2,5.91h-.09A6.9,6.9,0,0,1,38.76,52a7.85,7.85,0,0,1,.7-.72c.48-.4,1-.73,1.55-1.11,1.22-.94,2.15-2.23,3.52-3a23.78,23.78,0,0,1,3.22-1.34,12,12,0,0,1,1.44-.45l.44.06C49.45,46,49.3,46.5,49.11,47Z"/><path class="cls-8" d="M49.11,47a38.57,38.57,0,0,1-1.88,3.46,19.25,19.25,0,0,0-1.89,5.36h-.18a6.34,6.34,0,0,1-6-4.25,3.84,3.84,0,0,1,.29-.27c.48-.4,1-.73,1.55-1.11,1.22-.94,2.15-2.23,3.52-3a23.78,23.78,0,0,1,3.22-1.34,12,12,0,0,1,1.44-.45l.44.06C49.45,46,49.3,46.5,49.11,47Z"/><path class="cls-7" d="M47.23,50.43a22.44,22.44,0,0,0-1,2.3,3.49,3.49,0,0,1-1,.16,3.44,3.44,0,0,1-3.43-3.33,14.26,14.26,0,0,1,2.8-2.35,17.42,17.42,0,0,1,2-.9,3.46,3.46,0,0,1,1.86,2C48,49.05,47.59,49.74,47.23,50.43Z"/><polygon class="cls-5" points="25.74 63.01 31.37 59.76 31.66 70.25 25.74 73.52 25.74 63.01"/><rect class="cls-9" x="31.37" y="59.16" width="1.4" height="10.62"/><path class="cls-10" d="M20.37,76.71a16.34,16.34,0,0,0,4.93,1.71l.3-15.22S21.76,64.63,20,64.56Z"/><polygon class="cls-11" points="20.37 76.71 19.5 76.38 19.5 64.67 20.37 64.67 20.37 76.71"/><path class="cls-6" d="M19.5,76.38a11.32,11.32,0,0,1-1.85-1V64.83H19.5Z"/><rect class="cls-6" x="30.85" y="59.63" width="1.4" height="10.62"/><rect class="cls-11" x="25.3" y="63.49" width="0.87" height="14.93"/><path class="cls-12" d="M48.49,45.23a5.76,5.76,0,0,0-2.07.43c-2.86,1.08-6.35,4.06-10.38,8.85-4.85,5.77-9.62,8.06-12.76,9a20.15,20.15,0,0,1-7.13.52l-.16.94a20.7,20.7,0,0,0,7.49-.53c3.29-.94,8.27-3.31,13.3-9.29,9-10.76,12.49-8.8,12.53-8.78l.54-.79A2.52,2.52,0,0,0,48.49,45.23Z"/><path class="cls-9" d="M26.17,74.12s11.66-7.61,12.77-7.61,4.4,2.32,4.4,2.32V67.48s-4-2.65-4.5-2.65S26.17,72.7,26.17,72.7Z"/><path class="cls-8" d="M27.48,77.76s9.85-7.24,11.25-7.24,5.46,3.62,5.46,3.62Z"/><path class="cls-8" d="M26.17,75s11.66-7.73,12.77-7.73,4.4,2.61,4.4,2.61V68.61s-4-2.57-4.5-2.57-12.67,7.63-12.67,7.63Z"/><path class="cls-12" d="M43,73.61s0-12.31,2.85-20.42,9.46-19.41,12.42-20.42l1,1c-2.55,1.29-10.84,13.84-12.39,20C45,61.59,45,58.21,44,74.12S43,73.61,43,73.61Z"/><path class="cls-13" d="M24.67,13s.63,5.83,0,7-1.82,3.84-1.82,3.84,2.59-.94,2.65,1.74-2.14,2.53-2.93,2.53-3.11-.94-1.6-4.64,1.78-2.22,2-4.9a37,37,0,0,0,0-5.43Z"/><path class="cls-1" d="M23.85,11.27s.62,5.84,0,7S22,22.15,22,22.15s2.59-.94,2.64,1.73-2.13,2.54-2.93,2.54-3.1-.94-1.59-4.64,1.77-2.22,2-4.9a35.59,35.59,0,0,0,0-5.44Z"/><path class="cls-13" d="M22.75,19.67s-4.47,17,5.69,17,9-13,5.77-17.58S22.75,19.67,22.75,19.67Z"/><path class="cls-9" d="M23,12.57s-.74,2.84-.29,3.74,0,2.47.07,3.36,1.31,2.43,4,.62c0,0,6.85,3.67,6.91-1.06A55.18,55.18,0,0,0,33.35,12S25.08,11.05,23,12.57Z"/><path class="cls-14" d="M41.56,10.47s-.62,5.84,0,7,1.82,3.84,1.82,3.84-2.59-.94-2.64,1.74,2.13,2.53,2.93,2.53,3.1-.94,1.59-4.64-1.77-2.22-2-4.9a35.44,35.44,0,0,1,0-5.43Z"/><path class="cls-15" d="M40.76,11.27s-.62,5.84,0,7,1.83,3.85,1.83,3.85-2.59-.94-2.65,1.73,2.13,2.54,2.93,2.54,3.1-.94,1.59-4.64-1.77-2.22-2-4.9a37.13,37.13,0,0,1,0-5.44Z"/><path class="cls-16" d="M39.6,12.1s-.63,5.83,0,7S41.42,23,41.42,23s-2.59-.94-2.65,1.74,2.14,2.53,2.93,2.53,3.11-.94,1.6-4.64-1.78-2.22-2-4.89a35.55,35.55,0,0,1,0-5.44Z"/><path class="cls-17" d="M37.9,12.35s-.63,5.84,0,7,1.82,3.84,1.82,3.84-2.59-.94-2.65,1.73S39.21,27.5,40,27.5s3.1-.94,1.59-4.64-1.78-2.22-2-4.9a35.44,35.44,0,0,1,0-5.43Z"/><path class="cls-18" d="M36.25,12.1s-.63,5.83,0,7S38.07,23,38.07,23s-2.59-.94-2.65,1.74,2.14,2.53,2.93,2.53,3.11-.94,1.6-4.64-1.78-2.22-2-4.89a35.55,35.55,0,0,1,0-5.44Z"/><path class="cls-13" d="M34.57,11.87s-.63,5.84,0,7,1.82,3.84,1.82,3.84-2.59-.94-2.65,1.74S35.88,27,36.68,27s3.1-.94,1.59-4.64-1.78-2.23-2-4.9a35.55,35.55,0,0,1,0-5.44Z"/><path class="cls-1" d="M33.06,11.56s-.63,5.83,0,7,1.82,3.84,1.82,3.84-2.59-.94-2.64,1.74,2.13,2.53,2.93,2.53,3.1-.94,1.59-4.64-1.78-2.22-2-4.89a35.55,35.55,0,0,1,0-5.44Z"/><path class="cls-1" d="M26.72,20.29S24,20.53,23,22.2a3.16,3.16,0,0,0,3.57.36,8.19,8.19,0,0,0,4.59.28A6.26,6.26,0,0,0,26.72,20.29Z"/><path class="cls-8" d="M44.77,4.6l-3.34-.69-.67,3.24C39.91,7,39,6.79,38.11,6.66l.38-3.09L35,3.14,34.56,6.3c-1-.07-2-.11-3-.13V2.92H28V6.16c-1.09,0-2.08.06-2.9.11L24.51,3l-3.89.65,1.31,7.81.73-.12v.35l19.43.75,0-.31,1,.21Z"/><path class="cls-6" d="M22.16,12.8a61.58,61.58,0,0,1,21,1.06l.1-1.76s-13.77-3.22-21.37-.83Z"/><path class="cls-15" d="M25.61,15.25s-.17,0-.44-.05a4.9,4.9,0,0,0-.94,0c-.17,0-.32.09-.48.1a2.16,2.16,0,0,1-.39.12,3.23,3.23,0,0,1-.39.18l0,0a1.77,1.77,0,0,1,.29-.38,2,2,0,0,1,.44-.21,2.55,2.55,0,0,1,.55,0,4.55,4.55,0,0,1,1.4.27Z"/><path class="cls-15" d="M28.52,15.22a4.47,4.47,0,0,1,1.4-.27,2.41,2.41,0,0,1,.54,0,2,2,0,0,1,.44.21,1.77,1.77,0,0,1,.29.38l0,0a3.23,3.23,0,0,1-.39-.18,2.53,2.53,0,0,1-.4-.12c-.15,0-.3-.08-.47-.1a5,5,0,0,0-.95,0c-.26,0-.43.05-.43.05Z"/><path class="cls-19" d="M27.62,16.43a1.92,1.92,0,0,0,.47.28,2.63,2.63,0,0,0,.54.17,2.18,2.18,0,0,0,.63.06,3.18,3.18,0,0,0,.62-.07,3.49,3.49,0,0,0,.54-.1,4.76,4.76,0,0,1,.56-.09l0,0a3.27,3.27,0,0,1-.5.3,1.23,1.23,0,0,1-.57.17,1.73,1.73,0,0,1-.68,0,2.34,2.34,0,0,1-.67-.14,2.72,2.72,0,0,1-.54-.25,2,2,0,0,1-.44-.36Z"/><path class="cls-19" d="M25.53,16.45a1.65,1.65,0,0,1-.32.27,1.91,1.91,0,0,1-.38.2,1.78,1.78,0,0,1-.48.13,1.21,1.21,0,0,1-.5,0,.9.9,0,0,1-.42-.12,1.54,1.54,0,0,1-.35-.24v0a2,2,0,0,1,.41,0c.11,0,.25,0,.39,0a1.6,1.6,0,0,0,.44,0,2.08,2.08,0,0,0,.83-.17,1.65,1.65,0,0,0,.35-.19Z"/><path class="cls-19" d="M26.14,15.93a9.18,9.18,0,0,1,.05,1.17,7,7,0,0,1-.13,1.21c0,.22-.12.44-.18.66l-.3.64a.38.38,0,0,0,.06.49,1.11,1.11,0,0,0,.51.25,2.3,2.3,0,0,0,.58,0,1.31,1.31,0,0,0,.5-.12.91.91,0,0,0,.35-.24c.1-.08.13-.2.19-.28s.07-.3.07-.3h0a1.37,1.37,0,0,1,0,.33,1,1,0,0,1-.15.37.93.93,0,0,1-.38.35,1.53,1.53,0,0,1-.58.19,1.76,1.76,0,0,1-.68,0,1.28,1.28,0,0,1-.66-.36.72.72,0,0,1-.17-.4.76.76,0,0,1,.1-.4l.33-.61c.07-.21.15-.42.2-.62a8.2,8.2,0,0,0,.2-1.17,7.45,7.45,0,0,0,0-1.16Z"/><path class="cls-13" d="M44.45,90.7s-.63-5.84,0-7,1.82-3.85,1.82-3.85-2.59.94-2.65-1.73,2.14-2.54,2.94-2.54,3.1.94,1.59,4.64-1.78,2.22-2,4.9a35.55,35.55,0,0,0,0,5.44Z"/><path class="cls-1" d="M45.28,92.41s-.63-5.83,0-7,1.82-3.84,1.82-3.84-2.59.94-2.65-1.74,2.13-2.53,2.93-2.53,3.11.94,1.6,4.64-1.78,2.22-2,4.89a37.09,37.09,0,0,0,0,5.44Z"/><path class="cls-13" d="M46.37,84s4.47-17-5.68-17-9,13-5.78,17.58S46.37,84,46.37,84Z"/><path class="cls-9" d="M46.15,91.11s.75-2.83.29-3.74,0-2.46-.07-3.36-1.3-2.43-4-.62c0,0-6.86-3.66-6.92,1.07a55.34,55.34,0,0,0,.28,7.25S44,92.63,46.15,91.11Z"/><path class="cls-14" d="M27.56,93.21s.63-5.84,0-7-1.82-3.85-1.82-3.85,2.59.94,2.65-1.73-2.14-2.54-2.94-2.54-3.1.94-1.59,4.64,1.78,2.22,2,4.9a35.55,35.55,0,0,1,0,5.44Z"/><path class="cls-15" d="M28.36,92.41s.63-5.83,0-7-1.82-3.84-1.82-3.84,2.59.94,2.64-1.74-2.13-2.53-2.93-2.53-3.1.94-1.59,4.64,1.78,2.22,2,4.89a35.55,35.55,0,0,1,0,5.44Z"/><path class="cls-16" d="M29.53,91.59s.62-5.84,0-7-1.83-3.84-1.83-3.84,2.59.94,2.65-1.74-2.13-2.53-2.93-2.53-3.1.94-1.59,4.64,1.77,2.22,2,4.9a37.13,37.13,0,0,1,0,5.44Z"/><path class="cls-17" d="M31.22,91.33s.63-5.84,0-7-1.82-3.84-1.82-3.84,2.59.93,2.65-1.74-2.14-2.53-2.93-2.53-3.11.93-1.6,4.64,1.78,2.21,2,4.89a37.09,37.09,0,0,1,0,5.44Z"/><path class="cls-18" d="M32.87,91.59s.63-5.84,0-7-1.82-3.84-1.82-3.84,2.59.94,2.65-1.74-2.13-2.53-2.93-2.53-3.11.94-1.6,4.64,1.78,2.22,2,4.9a37.13,37.13,0,0,1,0,5.44Z"/><path class="cls-13" d="M34.55,91.81s.63-5.83,0-7-1.82-3.84-1.82-3.84,2.59.94,2.65-1.74-2.13-2.53-2.93-2.53-3.11.94-1.6,4.64,1.78,2.22,2,4.9a37,37,0,0,1,0,5.43Z"/><path class="cls-1" d="M36.06,92.13s.63-5.84,0-7-1.82-3.85-1.82-3.85,2.59.94,2.65-1.73S34.75,77,34,77s-3.11.94-1.6,4.64,1.78,2.22,2,4.9a35.55,35.55,0,0,1,0,5.44Z"/><path class="cls-1" d="M42.41,83.39s2.74-.24,3.73-1.91a3.16,3.16,0,0,0-3.57-.35,8.22,8.22,0,0,0-4.6-.28A6.24,6.24,0,0,0,42.41,83.39Z"/><path class="cls-8" d="M24.36,99.08l3.33.7.68-3.25c.84.2,1.73.36,2.64.49l-.38,3.1,3.54.43.39-3.17c1,.07,2,.11,3,.14v3.24h3.61V97.52c1.1,0,2.08-.06,2.91-.1l.55,3.25L48.5,100l-1.31-7.81-.72.12V92L27,91.24l0,.3-1-.21Z"/><path class="cls-6" d="M47,90.89a61.69,61.69,0,0,1-21-1.07l-.11,1.77s13.77,3.21,21.37.82Z"/><path class="cls-15" d="M43.51,88.43a3.47,3.47,0,0,0,.44.06,5,5,0,0,0,.94,0c.17,0,.32-.08.48-.09a1.72,1.72,0,0,1,.39-.12,2,2,0,0,1,.4-.18l0,0a1.77,1.77,0,0,1-.29.38,2.61,2.61,0,0,1-.44.2,2.41,2.41,0,0,1-.54,0,4.32,4.32,0,0,1-1.4-.28Z"/><path class="cls-15" d="M40.6,88.46a4.32,4.32,0,0,1-1.4.28,2.41,2.41,0,0,1-.54,0,2.61,2.61,0,0,1-.44-.2,1.77,1.77,0,0,1-.29-.38l0,0a2.05,2.05,0,0,1,.39.18,1.64,1.64,0,0,1,.4.12c.15,0,.31.08.48.09a5,5,0,0,0,.94,0,3.47,3.47,0,0,0,.44-.06Z"/><path class="cls-19" d="M41.51,87.25A2.74,2.74,0,0,0,41,87a3,3,0,0,0-.53-.17,2.21,2.21,0,0,0-.63-.06,2.59,2.59,0,0,0-.63.08,2.73,2.73,0,0,0-.54.1,3.61,3.61,0,0,1-.56.08l0,0a4.07,4.07,0,0,1,.5-.3,1.37,1.37,0,0,1,.57-.18,1.77,1.77,0,0,1,.69,0,2.49,2.49,0,0,1,.67.13,2.62,2.62,0,0,1,.53.25,2.25,2.25,0,0,1,.45.36Z"/><path class="cls-19" d="M43.59,87.23a1.45,1.45,0,0,1,.32-.26,1.91,1.91,0,0,1,.38-.21,2.41,2.41,0,0,1,.48-.12,1.06,1.06,0,0,1,.5,0,.87.87,0,0,1,.42.12,1.81,1.81,0,0,1,.36.24l0,0a1.61,1.61,0,0,1-.41,0c-.11,0-.25,0-.38,0a3.14,3.14,0,0,0-.45,0,2.31,2.31,0,0,0-.83.17,1.4,1.4,0,0,0-.34.19Z"/><path class="cls-19" d="M43,87.75a7.35,7.35,0,0,1-.05-1.17,5.94,5.94,0,0,1,.12-1.2c0-.22.12-.44.18-.67l.3-.63a.38.38,0,0,0-.06-.49,1.13,1.13,0,0,0-.51-.26,2.28,2.28,0,0,0-.58,0,1.26,1.26,0,0,0-.49.11.88.88,0,0,0-.36.24.92.92,0,0,0-.18.29,2.19,2.19,0,0,0-.08.3h0a2.81,2.81,0,0,1,0-.33.88.88,0,0,1,.15-.37,1,1,0,0,1,.38-.35,1.81,1.81,0,0,1,.58-.2A2,2,0,0,1,43,83a1.24,1.24,0,0,1,.66.36.68.68,0,0,1,.17.4.74.74,0,0,1-.1.4l-.33.61c-.06.21-.15.42-.2.63a8.08,8.08,0,0,0-.19,1.17,8.54,8.54,0,0,0,0,1.16Z"/></g></g></svg>