<svg xmlns="http://www.w3.org/2000/svg" viewBox="0 0 69.12 103.68"><defs><style>.cls-1{fill:#f2f2f2;}.cls-2,.cls-4{fill:#7a2b2b;}.cls-3{fill:#943434;}.cls-4{font-size:10.89px;font-family:Righteous-Regular, Righteous;}</style></defs><title>Asset 1</title><g id="Layer_2" data-name="Layer 2"><g id="Layer_1-2" data-name="Layer 1"><rect class="cls-1" width="69.12" height="103.68" rx="2.72" ry="2.72"/><path class="cls-2" d="M34.56,40.64l-1.08-1.07c-4-3.55-6.62-5.94-6.62-8.87a4.18,4.18,0,0,1,4.23-4.23c1.32,0,2.62,1.4,3.47,2.4.85-1,2.16-2.4,3.47-2.4a4.18,4.18,0,0,1,4.24,4.23c0,2.93-2.62,5.32-6.63,8.87Z"/><path class="cls-3" d="M34.54,28.86c-.84-1-2.14-2.38-3.45-2.38a4.18,4.18,0,0,0-4.23,4.23c0,2.93,2.61,5.32,6.62,8.86l1.06,1.06Z"/><path class="cls-2" d="M34.56,77.22l-1.08-1.08c-4-3.54-6.62-5.93-6.62-8.86A4.18,4.18,0,0,1,31.09,63c1.32,0,2.62,1.4,3.47,2.4.85-1,2.16-2.4,3.47-2.4a4.19,4.19,0,0,1,4.24,4.24c0,2.93-2.62,5.32-6.63,8.86Z"/><path class="cls-3" d="M34.54,65.43c-.84-1-2.14-2.38-3.45-2.38a4.18,4.18,0,0,0-4.23,4.24c0,2.93,2.61,5.32,6.62,8.86l1.06,1.06Z"/><path class="cls-2" d="M7.37,19.87l-.58-.57c-2.14-1.9-3.54-3.18-3.54-4.74a2.24,2.24,0,0,1,2.27-2.27c.7,0,1.4.75,1.85,1.29.46-.54,1.16-1.29,1.86-1.29a2.23,2.23,0,0,1,2.26,2.27c0,1.56-1.4,2.84-3.54,4.74Z"/><path class="cls-3" d="M7.36,13.57c-.45-.53-1.14-1.28-1.84-1.28a2.24,2.24,0,0,0-2.27,2.27c0,1.57,1.4,2.85,3.54,4.74l.57.57Z"/><path class="cls-2" d="M61.66,83.64l.58.57c2.14,1.9,3.54,3.17,3.54,4.74a2.23,2.23,0,0,1-2.26,2.27c-.71,0-1.41-.75-1.86-1.29-.45.54-1.15,1.29-1.85,1.29A2.24,2.24,0,0,1,57.54,89c0-1.57,1.4-2.84,3.54-4.74Z"/><path class="cls-3" d="M61.67,89.94c.45.53,1.15,1.27,1.85,1.27A2.23,2.23,0,0,0,65.78,89c0-1.57-1.4-2.85-3.54-4.74l-.57-.57Z"/><text class="cls-4" transform="translate(4.3 10.68)">2</text><text class="cls-4" transform="translate(64.82 93.01) rotate(180)">2</text></g></g></svg>