<?xml version="1.0" encoding="utf-8"?>
<!-- Generator: Adobe Illustrator 22.1.0, SVG Export Plug-In . SVG Version: 6.00 Build 0)  -->
<svg version="1.1" id="Layer_1" xmlns="http://www.w3.org/2000/svg" xmlns:xlink="http://www.w3.org/1999/xlink" x="0px" y="0px"
	 viewBox="0 0 242.5 258.6" style="enable-background:new 0 0 242.5 258.6;" xml:space="preserve">
<style type="text/css">
	.st0{fill:#E41C24;}
</style>
<title>Asset 3</title>
<g>
	<g id="Layer_2_1_">
		<g id="Layer_1-2">
			<g>
				<path class="st0" d="M153,108c1.3,0.6,2.9,0,3.5-1.4c0-0.1,0.1-0.1,0.1-0.2c0.1-0.7,0.6-1.3,1.3-1.6c0.5-0.2,0.5-0.6,0.1-0.8
					s-1-1-1.5-1.3c-1.8-1.2-2.9-1.2-4.1,0.6c-0.1,0.2-0.2,0.4-0.3,0.6c-0.1,0.2-0.3,0.5-0.4,0.7c-0.6,1.2-0.1,2.7,1.2,3.3
					C152.9,107.9,152.9,108,153,108z"/>
				<path class="st0" d="M92.3,124.3c0.4-0.2,0.6-0.4,0.4-0.8c-0.1-0.2-0.3-0.4-0.5-0.6c0-0.2-0.2-0.4-0.4-0.5
					c-0.2-0.2-0.6-0.3-0.6-0.7c-0.2-1-1.1-1.2-1.8-1.6c-0.8-0.3-1.2,0.1-1,0.9c0.2,1,0.7,1.9,1.5,2.7
					C90.4,124.4,91.4,124.6,92.3,124.3z"/>
				<path class="st0" d="M230.7,94.9c-0.5,0.2-0.9,0.4-1.3,0.8c0,0,0,0,0,0v0c-0.3,0-0.7,0.1-1,0.1c-0.3,0.1-0.7,0.1-0.8,0.5
					c-1.2,1-2.6,1.9-4,2.6c-0.6,0.2-1,0.7-1.3,1.2c-0.1,0.3-0.1,0.4,0.3,0.4c0.5-0.1,0.9-0.3,1.3-0.7c0,0,0.1-0.1,0.1-0.1
					c0.4-0.2,0.8-0.3,1.2-0.5c0.2,0,0.4-0.1,0.6-0.3c0.6-0.7,1.5-1.2,2.5-1.3c0.5,0,1,0.2,1.3-0.2c0.3-0.1,0.3-0.4,0.4-0.6
					c0.2-0.5,0.6-0.8,1-1c0.2-0.1,0.3-0.1,0.5-0.2c0.3-0.2,0.3-0.3,0.1-0.6S230.9,94.9,230.7,94.9z"/>
				<path class="st0" d="M179.2,44.2c0.2-0.1,0.4-0.3,0.6-0.5c0.5-0.8,1.2-1.4,1.9-2c0.8-0.7,1.1-1.7,1.8-2.5c0.2-0.2,0-0.5-0.2-0.7
					c-0.2-0.2-0.4-0.1-0.6,0c-0.5,0.2-0.9,0.5-1.3,0.9c-1,1.1-1.5,2.5-2.3,3.4c-0.2,0.5-0.4,0.7-0.5,1c-0.1,0.3-0.1,0.3,0.1,0.5
					C178.8,44.4,179,44.3,179.2,44.2z"/>
				<path class="st0" d="M145.7,202.9c-0.8-0.4-1.7-0.1-2.2,0.6c-0.4,0.8-0.1,1.7,0.7,2.2c0.8,0.4,1.8,0.1,2.3-0.7
					c0,0,0-0.1,0.1-0.1c0.3-0.7,0.1-1.6-0.6-1.9C145.8,202.9,145.8,202.9,145.7,202.9z"/>
				<path class="st0" d="M171.2,93.5c0.3,0.1,0.4-0.1,0.6-0.2c0.9-0.8,1.6-1.6,2.4-2.6c0.3-0.5,0.5-1,0.2-1.3
					c-0.3-0.3-0.8-0.1-1.1,0.1c-0.4,0.2-0.7,0.5-1,0.8c-0.3,0.7-0.7,1.4-1.2,1.9c-0.2,0.2-0.2,0.4-0.2,0.6
					C171,93.1,171,93.4,171.2,93.5z"/>
				<path class="st0" d="M182.6,51.8c0.2-0.4,0.6-0.9,0.2-1.3c-0.4-0.4-1-0.5-1.5-0.3c-0.6,0.1-1.1,0.5-1.1,1.1
					c-0.1,0.5-0.3,1-0.8,1.3c-0.5,0.2-0.8,0.7-0.7,1.3c0.1,0.3,0.3,0.5,0.6,0.5c0.5,0.1,1.1-0.1,1.3-0.6c0.1-0.1,0.1-0.3,0.2-0.4
					C181.4,52.8,182.3,52.6,182.6,51.8z"/>
				<path class="st0" d="M123.8,74.8l5.6,0.1c0.3,0,0.6-0.1,0.6-0.4c0-0.3-0.2-0.5-0.5-0.5c-0.5-0.1-1.1-0.2-1.6-0.1
					c-0.6,0.2-1.2-0.2-1.4-0.8c0-0.1,0-0.1,0-0.2c0.3-0.9,0.4-1.9,0.3-2.9c0.1-0.4,0.1-0.8,0-1.2c0-0.1-0.1-0.2-0.2-0.3
					c-0.2-0.1-0.3,0.1-0.4,0.2c-0.3,0.5-0.5,1.1-0.5,1.6l-0.1,1.2c0.1,0.3,0,0.6,0.1,1c-0.2,0.2-0.2,0.6-0.1,0.8l0,0
					C125.2,74,124.3,74,123.8,74.8z"/>
				<path class="st0" d="M193.4,131.1c0.4-0.1,0.6-0.4,0.6-0.7c0,0,0,0,0-0.1c-0.1-0.5-0.5-0.4-0.9-0.3c-0.5,0.1-0.9,0.3-1.3,0.6
					c-0.5,0.4-1,0.6-1.5,0.9c-2.4,1-4.7,2.4-6.7,4.1c-0.9,0.4-1.7,0.9-2.5,1.4c-0.3,0.3-0.7,0.5-0.6,1c0.1,0.5,0.6,0.6,1,0.7
					c0.5,0.1,1.1,0,1.4-0.5l1.7-2l0,0c1-0.5,2-1.2,2.9-1.9c0.6-0.5,1.2-0.8,1.9-1.1C190.7,132.7,191.9,131.5,193.4,131.1z"/>
				<path class="st0" d="M117.6,85.8c0-1.3,0.1-2.7,0.2-4c0.1-0.3,0.1-0.6,0-1c0-0.2-0.1-0.5-0.4-0.5c-0.2,0-0.4,0.2-0.5,0.4
					c-0.1,0.1-0.1,0.2-0.1,0.4c0,1-0.4,1.9-0.4,2.9c0,1.2-0.2,2.4,0.7,3.5C117.5,87,117.7,86.4,117.6,85.8z"/>
				<path class="st0" d="M167,70.9c0.3-0.6,0.3-1.2,0.1-1.8c-0.1-0.5-0.6-0.9-1.1-0.7c-0.2,0-0.4,0.2-0.5,0.3
					c-0.6,0.6-0.7,1.6-0.3,2.3c0.2,0.4,0.6,0.6,1,0.6C166.6,71.6,166.8,71.3,167,70.9z"/>
				<path class="st0" d="M205.9,113.2c0-0.4-0.3-0.6-0.7-0.8c-0.4-0.2-0.9-0.3-1.4-0.2c-0.7,0.1-0.9,0.4-0.8,1.1
					c0.2,1,1.1,1.4,2.2,0.8C205.6,114,205.9,113.6,205.9,113.2z"/>
				<path class="st0" d="M194.9,122.3c0.8-0.3,1.5-0.8,2-1.5c0.2,0,0.4-0.2,0.5-0.4c0.2,0,0.4-0.2,0.5-0.4c0.3,0,0.4-0.2,0.5-0.4
					c1-0.3,2-0.7,2.9-1.3c0.3-0.2,0.4-0.5,0.3-0.8c-0.1-0.3-0.4-0.3-0.7-0.3c-0.7,0-1.4,0.3-1.9,0.8c-0.5,0.5-1.1,0.9-1.7,1.3
					c-0.4,0-0.7,0.2-1,0.4c-2.5,1.5-5.1,3-7.7,4.6c-1.1,0.6-1.9,1.5-2.5,2.6c1.5-0.1,2.9-0.7,4-1.7C191.6,124,193.2,123,194.9,122.3
					z"/>
				<path class="st0" d="M225.9,147.9c-0.6-0.4-1.4-0.5-2.1-0.4c-0.3,0-0.6,0.1-0.7,0.5s0.2,0.4,0.4,0.6c0.6,0.4,1.2,0.6,1.9,0.6
					c0.5,0,1.1,0.2,1.3-0.3C226.9,148.2,226.2,148.1,225.9,147.9z"/>
				<path class="st0" d="M156.6,75c0.9-0.2,1.8-0.4,2.1-1.5c0.1-0.1,0.1-0.2,0.1-0.3l0.5-1c0.6-0.3,0.7-0.9,1-1.3
					c1.5-0.9,2.6-2.3,3.3-3.9c0.1-0.2,0.2-0.4,0.3-0.6c0.5-0.5,1-1.2,1.3-1.8c0.6-1.2,1-2.5,1.6-3.7c0.6-1.3,0.9-2.8,1-4.3
					c0.1-0.2,0.1-0.4,0-0.6l0,0c0.1-0.3,0-0.7-0.1-1c0.1-0.7-0.2-1.4-0.6-1.9c-0.7-0.9-1.2-1-2.2-0.1c-0.8,0.6-1.3,1.6-1.3,2.7
					c-0.1,0.3-0.1,0.6,0,1l-0.1,0.1V57c-0.9,0.8-1.4,2-1.3,3.2l-1.7,3.3c-0.5,0.9-1,1.8-1.4,2.7c-0.2,0.6-0.6,1.1-1,1.5
					c-0.6,0.4-0.8,1.1-0.7,1.7c0,0.1-0.1,0.2-0.1,0.2c-0.7,0.9-0.8,2.1-0.4,3.1c-0.2,0.3-0.3,0.6-0.6,0.7c-0.3,0.1-0.5,0.4-0.5,0.7
					c0,0,0,0.1,0,0.1C155.8,74.8,156.1,75.1,156.6,75z"/>
				<path class="st0" d="M230.3,63c1,0.5,1.1,0.4,1.4-0.6c0.1-0.2,0.2-0.5,0.3-0.7c0.1-0.2,0.3-0.5,0.1-0.7s-0.5-0.2-0.8-0.1
					c-0.5,0.1-1,0.4-1.3,0.8C229.5,62.3,229.6,62.5,230.3,63z"/>
				<path class="st0" d="M132.8,83c0.5,0.3,1.5,0.1,1.7-0.3c0.2-0.4-0.3-1.3-0.8-1.6c-0.3-0.3-0.8-0.2-1.1,0.1
					c0,0.1-0.1,0.1-0.1,0.2C132.1,81.9,132.2,82.6,132.8,83C132.7,83,132.7,83,132.8,83z"/>
				<path class="st0" d="M123,72.2c0.7,0.2,1.5,0,1.9-0.6c0.2-0.5-0.1-0.8-0.5-1.1c-0.6-0.2-1.3,0.1-1.6,0.7
					C122.7,71.6,122.6,72,123,72.2z"/>
				<path class="st0" d="M174.4,184.7c0.6,0.2,1.2,0,1.5-0.6c0.1-0.4,0.1-0.9-0.4-1.1c-0.6-0.2-1.2,0-1.4,0.6
					c-0.2,0.4-0.1,0.8,0.2,1.1C174.3,184.7,174.3,184.7,174.4,184.7z"/>
				<path class="st0" d="M50.3,207c-0.4,0-0.3,0.4-0.3,0.6c-0.1,0.9,0.2,1.8,0.8,2.4c0.4,0.1,0.6,0,0.6-0.4
					c-0.1-0.8-0.3-1.5-0.5-2.2C50.7,207.2,50.6,206.9,50.3,207z"/>
				<path class="st0" d="M184.1,114.4c-0.2,0.2-0.5,0.3-0.3,0.6c0.1,0.3,0.5,0.4,0.8,0.4c0.5,0,0.9-0.4,1.1-0.8
					c0-0.1,0.1-0.2,0.1-0.2c0.1-0.3,0.2-0.6-0.1-0.8c-0.3-0.2-0.5,0-0.7,0.2C184.7,113.9,184.4,114.2,184.1,114.4z"/>
				<path class="st0" d="M199.2,63.3c0.4,0.2,0.9,0,1.1-0.4c0.2-0.5,0.2-1.1-0.1-1.5c-0.3-0.2-1,0.2-1.2,0.6
					C198.8,62.4,198.9,63.2,199.2,63.3z"/>
				<path class="st0" d="M205.6,61.9c0.2-0.4,0.2-1-0.1-1.4c-0.3-0.3-1,0.1-1.2,0.5c-0.3,0.4-0.2,0.9,0.1,1.2
					C204.8,62.4,205.3,62.3,205.6,61.9z"/>
				<path class="st0" d="M192,33.8c0.5,0.3,0.9,0.1,1.2-0.6c0.3-0.4,0-0.6-0.4-0.8c-0.4-0.2-0.9-0.2-1.1,0.3
					C191.4,33,191.5,33.5,192,33.8C191.9,33.7,191.9,33.7,192,33.8z"/>
				<path class="st0" d="M44.2,202.9c-0.4-0.2-1.1-0.1-1.2,0.2c-0.2,0.4,0,0.9,0.4,1.2c0.4,0.2,0.8,0.2,1.1-0.2s0.2-0.8-0.2-1.1
					C44.3,202.9,44.3,202.9,44.2,202.9z"/>
				<path class="st0" d="M184,129.9c0.2-0.4,0-0.9-0.3-1.2c-0.4-0.2-0.8,0-0.9,0.3c0,0,0,0,0,0.1c-0.2,0.4-0.1,0.9,0.3,1.2
					C183.3,130.4,183.8,130.3,184,129.9z"/>
				<path class="st0" d="M173.9,193.2c-0.2-0.2-0.5-0.2-0.7,0c0,0,0,0,0,0c-0.6,0.4-1,1.1-1.2,1.8c0.7-0.1,1.4-0.5,1.9-1
					C174,193.7,174,193.4,173.9,193.2C173.9,193.2,173.9,193.2,173.9,193.2z"/>
				<path class="st0" d="M112.4,116.9c0.5,0.2,1,0.3,1.5,0.3c0.2,0,0.4-0.1,0.5-0.4c0-0.2,0-0.4-0.2-0.6c-0.5-0.2-1.1-0.2-1.6,0
					C112.3,116.5,112,116.7,112.4,116.9z"/>
				<path class="st0" d="M177.1,216.4c1-0.5,1.9-0.6,2.2-1.6c0.1-0.1,0.2-0.1,0.3-0.2c0.1-0.1,0.1-0.1,0.2-0.2l-0.7-0.4
					C178.5,214.9,177.5,215.2,177.1,216.4z"/>
				<path class="st0" d="M200,112.4c0.1-0.4,0-0.8-0.4-1c-0.4-0.2-0.9-0.1-1.2,0.3c-0.1,0.4,0,0.8,0.3,1
					C199.2,112.9,199.7,112.8,200,112.4z"/>
				<path class="st0" d="M175.9,147.3c0.3,0.1,0.6,0.2,0.9,0.2c0.6,0,0.8-0.4,0.5-1c-0.3-0.5-1-0.6-1.6,0.1c-0.5,0.3-1.2,0.3-1.6,1
					C174.8,147.5,175.3,147.1,175.9,147.3z"/>
				<path class="st0" d="M139.4,107c0.5,0.1,1-0.1,1.2-0.6c0.1-0.4,0.1-0.9-0.4-1c-0.4-0.1-0.9,0.1-1,0.5c0,0,0,0,0,0
					C139.1,106.3,139,106.8,139.4,107z"/>
				<path class="st0" d="M168.1,83.5c0.5,0.2,0.8-0.1,1-0.5c0.2-0.4,0-1.1-0.3-1.2c-0.5-0.1-0.7,0.3-0.9,0.6
					C167.7,82.8,167.6,83.3,168.1,83.5z"/>
				<path class="st0" d="M221,119.2c0.2-0.4,0-0.8-0.4-1c-0.3-0.2-0.8-0.1-1,0.3c0,0,0,0,0,0c-0.2,0.3-0.2,0.8,0.1,1.1
					C220.2,119.7,220.7,119.6,221,119.2z"/>
				<path class="st0" d="M197.4,66.5c0.2-0.4,0.1-0.8-0.3-1c-0.3-0.2-0.7-0.1-0.9,0.2c0,0-0.1,0.1-0.1,0.1c-0.2,0.4-0.1,0.8,0.3,1.1
					C196.8,66.9,197.2,66.9,197.4,66.5z"/>
				<path class="st0" d="M113,99.1c0.4,0.3,0.8,0.2,1.1-0.2c0,0,0.1-0.1,0.1-0.1c0.2-0.2,0.2-0.6,0-0.9c-0.3-0.3-1.2,0-1.4,0.4
					C112.7,98.6,112.8,98.9,113,99.1C113,99.1,113,99.1,113,99.1z"/>
				<path class="st0" d="M175.8,223.1c-0.7,0-1.4,0.3-1.8,0.8c-0.1,0.2-0.1,0.3,0.1,0.4c0.7,0.1,1.4-0.2,1.9-0.7
					C176.1,223.4,176.1,223.2,175.8,223.1z"/>
				<path class="st0" d="M84.8,109c-0.1,0.7,0.1,1,1.4,1.2c0.1-0.3,0-0.6-0.2-0.8c-0.1-0.2-0.2-0.4-0.3-0.6
					c-0.1-0.2-0.3-0.3-0.6-0.2C84.9,108.7,84.8,108.8,84.8,109z"/>
				<path class="st0" d="M188.5,207.3c0.7-0.3,1.3-0.8,2.1-1.1c0.4-0.2,0.5-0.5,0.1-1C189.9,205.9,188.9,206.2,188.5,207.3z"/>
				<path class="st0" d="M189.2,43.1c0.4,0.2,1.1,0.1,1.2-0.3c0.1-0.3-0.1-0.6-0.4-0.8c-0.4-0.2-1-0.1-1.1,0.3
					C188.8,42.6,189,42.9,189.2,43.1z"/>
				<path class="st0" d="M207.8,123.6c0.9-0.3,1.9-0.3,2.5-1.3C209.3,122.2,208.3,122.7,207.8,123.6z"/>
				<path class="st0" d="M227.8,177.9c1-0.5,1.8-0.6,2.3-1.5C229.1,176.3,228.1,176.9,227.8,177.9z"/>
				<path class="st0" d="M106.1,124.3c-0.2,0.4-0.3,0.7-0.5,1.1c-0.3,0.4-0.4,1-0.2,1.5l-0.2-0.2l-0.3-0.3c0.1,0.6-0.4,0.8-0.6,1.1
					l0,0l-0.2-0.2c-0.5-0.4-0.6-1.1-1.1-1.5c-0.3-0.4-0.6-0.8-1-1.1c-0.2-0.2-0.5-0.3-0.7-0.1c-0.2,0.1-0.4,0.4-0.3,0.7
					c0,0.4,0.3,0.7,0.6,0.8c0.7,1,1.4,1.9,2.1,2.9c0.5,0.7,1.2,1.3,2,1.6c0.9,0.8,1.1,0.8,1.6-0.2c0.2-0.5,0.3-0.9,0.3-1.4l0.5-1
					c0.2-0.1,0.5-0.2,0.8-0.2c1.1,0.9,2.4,0.2,3.5,0.5c0.1,0,0.2-0.1,0.3-0.2c0.5-0.3,0.8-0.9,0.7-1.5c-0.1-0.6-0.6-1.2-1.2-1.2
					c-0.4,0-0.7,0-1.1,0l-1.3-0.7c-0.5-0.6-1.2-1-1.6-1.6c-0.1-0.2-0.4-0.2-0.6,0c0,0,0,0,0,0c-0.1,0.1-0.1,0.2-0.1,0.3
					C107,123.1,106.5,123.4,106.1,124.3z M105.5,128.1c-0.3,0.2-0.5,0-0.7-0.2c0,0,0-0.1,0.1-0.1l0.3-0.3c0.1-0.1,0.3-0.2,0.4-0.3
					l0,0C105.4,127.6,105.8,127.9,105.5,128.1L105.5,128.1z"/>
				<path class="st0" d="M105.2,115.5c-0.3-0.2-0.7-0.2-0.9,0.1c0,0-0.1,0.1-0.1,0.1c-0.3,0.3-0.1,0.7,0.2,1c0.3,0.2,0.7,0,0.9-0.3
					C105.5,116.1,105.5,115.8,105.2,115.5C105.2,115.6,105.2,115.6,105.2,115.5z"/>
				<path class="st0" d="M178.1,219c-0.3-0.2-0.7-0.3-1,0.1c-0.3,0.4,0,0.7,0.4,0.8s0.7,0.1,1-0.2S178.4,219.2,178.1,219z"/>
				<path class="st0" d="M222.9,158.7l0.8-0.2c0.2,0,0.5-0.1,0.5-0.4c0-0.3-0.2-0.5-0.4-0.6c-0.5-0.3-1.1-0.4-1.7-0.2
					c-0.8,0-1.7,0.3-2.4,0.7C220.7,158.6,221.8,158.8,222.9,158.7z"/>
				<path class="st0" d="M210.2,61.2c0.3,0,0.7,0.1,1-0.4c0.1-0.3,0.1-0.5-0.3-0.6c-0.4-0.1-0.8,0.1-1,0.5
					C209.8,60.8,209.9,61,210.2,61.2z"/>
				<path class="st0" d="M172.6,196.8c-0.3-0.2-0.8-0.1-1,0.2c-0.2,0.1-0.2,0.4,0,0.6c0,0,0.1,0.1,0.1,0.1c0.3,0.2,0.8,0.2,1.1-0.1
					C173,197.3,172.9,196.9,172.6,196.8C172.6,196.8,172.6,196.8,172.6,196.8z"/>
				<path class="st0" d="M154.3,92.6c0.3,0.1,0.6,0.2,0.8-0.2c0-0.3,0-0.6-0.3-0.8c-0.3-0.2-0.6-0.1-0.8,0.2c0,0,0,0,0,0
					c-0.2,0.2-0.1,0.6,0.1,0.7C154.2,92.6,154.3,92.6,154.3,92.6z"/>
				<path class="st0" d="M206.8,92.7c0.3,0.2,0.6,0.1,0.8-0.1c0,0,0,0,0,0c0.1-0.3-0.1-0.6-0.3-0.7c-0.2-0.2-0.6-0.1-0.7,0.1
					c0,0,0,0.1,0,0.1C206.4,92.3,206.5,92.6,206.8,92.7C206.8,92.7,206.8,92.7,206.8,92.7z"/>
				<path class="st0" d="M204.5,125.3L204.5,125.3z"/>
				<path class="st0" d="M202.8,126.9c0.6-0.5,1.2-1,1.7-1.5c-0.8,0-1.3,0.5-1.9,0.8C202.6,126.4,202.7,126.7,202.8,126.9z"/>
				<path class="st0" d="M88.2,100.3c0.3,0.1,0.6,0,0.8-0.3c0.1-0.2,0-0.4-0.2-0.6c-0.2-0.2-0.5-0.2-0.7,0.1c0,0-0.1,0.1-0.1,0.1
					C87.8,99.9,87.9,100.1,88.2,100.3z"/>
				<path class="st0" d="M60.7,213.3c-0.3-0.2-0.7-0.1-1,0.2c-0.2,0.2-0.1,0.4,0.1,0.6c0.4,0.2,0.6-0.1,0.9-0.4
					C60.9,213.5,60.9,213.4,60.7,213.3z"/>
				<path class="st0" d="M195,159.1c-0.1,0.1-0.1,0.3,0,0.4c0,0,0,0,0.1,0c0.4,0.1,0.7-0.1,1-0.4c0.1-0.1,0.1-0.2,0-0.3c0,0,0,0,0,0
					C195.6,158.6,195.2,158.8,195,159.1z"/>
				<path class="st0" d="M122.3,67.3c0.2,0.1,0.4,0,0.5-0.3c0.1-0.3,0-0.6-0.2-0.7c0,0,0,0-0.1,0c-0.2-0.1-0.5,0-0.6,0.2
					C121.8,66.8,121.9,67.1,122.3,67.3C122.2,67.3,122.2,67.3,122.3,67.3z"/>
				<path class="st0" d="M155.6,94.7c-0.9,0-1.4,0-1.8,0.6C154.5,95.6,155.2,95.3,155.6,94.7z"/>
				<path class="st0" d="M96.6,121.6c-0.2-0.1-0.4-0.1-0.6,0.1c0,0,0,0,0,0c-0.1,0.3,0.1,0.5,0.4,0.6c0.2,0.1,0.4,0,0.5-0.1
					c0,0,0-0.1,0-0.1C97,121.9,96.8,121.8,96.6,121.6z"/>
				<path class="st0" d="M200.9,60.7c0.1,0,0.3,0,0.4-0.1c1-0.3,1-0.3,0.7-1.5c0.2-0.6,0.5-1.2,0.9-1.8c0.2-0.3,0.4-0.6,0.5-1
					c0.1-0.4,0.2-0.8-0.2-1.1c-0.4-0.3-0.9-0.2-1.2,0.2c-0.8,0.9-1.8,1.5-2.2,2.8C198.8,60.1,199,60.4,200.9,60.7z"/>
				<path class="st0" d="M98.7,83.8c0.1,0,0.3,0,0.3-0.1c0,0,0,0,0,0c0.1-0.3,0-0.6-0.3-0.7c0,0,0,0-0.1,0c-0.2-0.1-0.3,0-0.4,0.2
					C98.3,83.4,98.4,83.7,98.7,83.8z"/>
				<path class="st0" d="M197.3,90.1c0.5,0.2,0.9,0.1,1.4-0.5C197.9,89.6,197.5,89.6,197.3,90.1z"/>
				<path class="st0" d="M167.7,202.2c-0.1,0.2-0.2,0.4,0.1,0.5c0.2,0.1,0.4,0,0.4-0.2c0.1-0.2,0.1-0.4,0-0.6
					C168,201.8,167.8,202,167.7,202.2z"/>
				<path class="st0" d="M128.1,100.1c-0.1,0.2-0.1,0.4,0.1,0.6c0,0,0.1,0,0.1,0.1c0.1,0.1,0.2,0,0.3-0.1c0.1-0.2,0-0.4-0.1-0.5
					c0,0,0,0,0,0C128.3,100,128.1,100,128.1,100.1z"/>
				<path class="st0" d="M89,125.7c-0.1,0.2,0.1,0.3,0.2,0.5c0.2,0.1,0.4,0.1,0.5-0.1c0,0,0,0,0-0.1c0.1-0.2,0-0.3-0.2-0.4
					C89.4,125.4,89.2,125.4,89,125.7C89.1,125.6,89,125.6,89,125.7z"/>
				<path class="st0" d="M165,202.4c-0.2-0.1-0.5-0.1-0.6,0.1c-0.1,0.2,0.1,0.3,0.2,0.4c0.1,0.1,0.3,0.1,0.4,0c0,0,0,0,0,0
					C165.2,202.8,165.2,202.6,165,202.4C165.1,202.5,165,202.5,165,202.4z"/>
				<path class="st0" d="M159.7,113.1c0,0.2,0.1,0.3,0.3,0.3c0,0,0,0,0,0c0.1,0,0.2,0,0.3-0.2c0,0,0,0,0,0c0-0.2-0.1-0.3-0.3-0.3
					c0,0,0,0,0,0C159.9,112.9,159.7,112.9,159.7,113.1z"/>
				<path class="st0" d="M139.5,218.6c0.1-0.1,0.1-0.2,0-0.3c0,0-0.1-0.1-0.1-0.1c-0.2,0-0.3,0-0.4,0.2c-0.1,0.1,0,0.2,0.1,0.3
					c0,0,0,0,0.1,0C139.2,218.8,139.4,218.7,139.5,218.6z"/>
				<path class="st0" d="M35.9,196.1c-0.1,0.2,0,0.3,0.2,0.5c0.1,0.1,0.2,0.1,0.3,0c0.1-0.2,0-0.4-0.1-0.5
					C36.1,196,36,195.9,35.9,196.1C35.9,196,35.9,196,35.9,196.1z"/>
				<path class="st0" d="M30.8,198.9c-0.1,0.1,0,0.3,0.1,0.3c0.2,0.1,0.3,0.1,0.4-0.1c0.1-0.1,0-0.3-0.1-0.3
					C31.1,198.7,30.9,198.7,30.8,198.9z"/>
				<path class="st0" d="M35.9,119.4c0-0.1-0.1-0.2-0.2-0.3c-0.1-0.1-0.3,0-0.4,0.1c0,0,0,0.1,0,0.1c0,0.1,0.1,0.2,0.2,0.3
					C35.7,119.6,35.9,119.6,35.9,119.4z"/>
				<path class="st0" d="M215.8,57.2c0.1,0,0.2-0.2,0.1-0.3c0,0,0,0,0-0.1c-0.1-0.1-0.2-0.1-0.4,0c-0.1,0-0.1,0.1-0.1,0.2
					c0,0,0,0.1,0,0.1C215.6,57.2,215.7,57.3,215.8,57.2z"/>
				<path class="st0" d="M181.6,60.1c-0.1,0.1,0,0.2,0.2,0.3c0.1,0.1,0.3,0,0.3-0.1c0,0,0,0,0,0c0-0.1,0-0.3-0.2-0.3
					C181.8,59.9,181.6,60,181.6,60.1z"/>
				<path class="st0" d="M44.3,206.7c-0.1-0.1-0.3-0.1-0.3,0.1c0,0.1,0,0.3,0.2,0.3c0.1,0,0.3,0,0.3-0.2
					C44.4,206.8,44.3,206.8,44.3,206.7z"/>
				<path class="st0" d="M219.4,47.5c0-0.1,0-0.2,0-0.2c-0.1-0.1-0.2-0.1-0.3,0c-0.1,0.1-0.1,0.2,0,0.3c0,0,0,0,0,0
					C219.2,47.6,219.3,47.6,219.4,47.5z"/>
				<path class="st0" d="M166.2,192.1c0,0,0,0.1,0,0.2c0.1,0.1,0.3,0.1,0.4,0c0-0.1,0-0.1,0-0.2C166.5,191.9,166.4,192,166.2,192.1z
					"/>
				<path class="st0" d="M99,141.7c0.1-0.1,0.1-0.3-0.1-0.4c0,0,0,0-0.1,0c0,0-0.1,0-0.2,0c0,0.1,0.1,0.2,0.1,0.4
					C98.8,141.7,98.9,141.7,99,141.7z"/>
				<path class="st0" d="M190.4,110.1c0.1,0,0.2,0,0.2,0c0.1,0,0.1-0.1,0-0.2c0,0,0,0,0,0c-0.1-0.1-0.2-0.1-0.2-0.1
					c0,0-0.1,0-0.1,0.1C190.3,109.9,190.4,110,190.4,110.1z"/>
				<path class="st0" d="M39.1,201.1c-0.1,0-0.2,0-0.1,0.1c0,0.1,0.1,0.2,0.1,0.2c0.1,0,0.2-0.1,0.2-0.2
					C39.3,201.3,39.2,201.2,39.1,201.1z"/>
				<path class="st0" d="M39.2,200.1c-0.1-0.1-0.1-0.2-0.2-0.2c-0.1,0-0.1,0.1-0.2,0.1c0,0.1,0,0.2,0.1,0.2L39.2,200.1z"/>
				<path class="st0" d="M83.2,111.6c0-0.1,0-0.2-0.2-0.2c-0.2,0-0.1,0-0.2,0.1c-0.1,0.1,0.1,0.2,0.1,0.2
					C83.1,111.6,83.2,111.6,83.2,111.6z"/>
				<path class="st0" d="M179.1,178.1c0-0.1,0-0.2-0.1-0.2c-0.1,0-0.2-0.1-0.3,0c-0.1,0.1,0.1,0.1,0.1,0.2L179.1,178.1z"/>
				<path class="st0" d="M44.8,220.2c-0.1,0.1-0.1,0.2,0,0.3c0,0,0,0,0,0c0,0,0.1,0,0.2,0l-0.2-0.3
					C44.9,220.2,44.8,220.2,44.8,220.2z"/>
				<path class="st0" d="M132.3,74.8c0,0,0-0.1,0.1-0.2c-0.1,0-0.2,0-0.3,0c-0.1,0-0.1,0.1,0,0.2C132.1,74.8,132.2,74.8,132.3,74.8z
					"/>
				<path class="st0" d="M120.8,61.4c0-0.1,0-0.2-0.1-0.2c0,0-0.1,0-0.2,0c0,0.1,0.1,0.2,0.1,0.4C120.7,61.5,120.8,61.5,120.8,61.4z
					"/>
				<path class="st0" d="M211.9,207.7c-0.1,0-0.1,0.1-0.2,0.1c0,0.1,0,0.2,0.1,0.1c0.1,0,0.2-0.1,0.2-0.1
					C212,207.8,211.9,207.7,211.9,207.7z"/>
				<path class="st0" d="M172.4,190.6c0,0,0,0.1,0,0.1s0.1,0,0.1,0c0,0,0.1-0.1,0-0.2C172.4,190.5,172.5,190.6,172.4,190.6z"/>
				<path class="st0" d="M102.8,139.7c0,0,0.1,0,0.1,0c0,0,0-0.1,0-0.1c0-0.1-0.1-0.1-0.2,0C102.7,139.7,102.8,139.7,102.8,139.7z"
					/>
				<path class="st0" d="M142,216.1c-0.1,0-0.2,0-0.2,0c0,0.1,0,0.1,0.1,0.2c0.1,0,0.1,0,0.2,0C142,216.2,142,216.1,142,216.1z"/>
				<path class="st0" d="M87.8,120c0,0,0.1,0,0.1,0c0,0,0,0,0-0.1c0-0.1,0-0.1-0.1-0.1S87.7,119.9,87.8,120z"/>
				<path class="st0" d="M204.5,35.9C204.5,35.9,204.5,35.8,204.5,35.9c0-0.1-0.1-0.2-0.1-0.2s-0.1,0.1,0,0.2
					C204.5,36,204.5,35.9,204.5,35.9z"/>
				<path class="st0" d="M142,80.2h0.1c0,0,0-0.1,0-0.1C142.1,80.1,141.9,80.1,142,80.2C141.9,80.2,141.9,80.2,142,80.2z"/>
				<path class="st0" d="M204.6,125.3L204.6,125.3C204.6,125.4,204.7,125.3,204.6,125.3z"/>
				<path class="st0" d="M45.1,119.1c0.1-0.1,0.1-0.2,0-0.3c0,0,0,0-0.1,0c-0.2,0-0.5,0-0.5,0.2C44.6,119.2,44.9,119.2,45.1,119.1z"
					/>
				<path class="st0" d="M92.9,110.9c0.2,0,0.2-0.1,0.1-0.2l-0.1,0.1L92.9,110.9z"/>
				<polygon class="st0" points="195.1,113.6 195,113.7 195.1,113.7 				"/>
				<polygon class="st0" points="160.1,131.9 160.1,131.9 160.1,131.9 				"/>
				<path class="st0" d="M159.8,132.2c0.1,0,0.2-0.2,0.2-0.3c-0.1,0-0.3-0.1-0.3-0.1C159.7,131.9,159.7,132.1,159.8,132.2
					C159.8,132.1,159.8,132.2,159.8,132.2z"/>
				<path class="st0" d="M36,96.1l-0.2,1.1C36.5,96.9,36.5,96.7,36,96.1z"/>
				<path class="st0" d="M119.7,76.9c-0.1,0.8-0.1,1.7,0.2,2.4c0.2,0.5,0.3,1.1,0.3,1.7c0.2,1.4,0.2,2.8,0,4.2
					c0,0.1,0.1,0.2,0.1,0.3c0,0.3,0.1,0.6,0.3,0.9c-0.1,0.5,0,1.1,0.2,1.5c0,0.4,0.1,0.9,0.6,0.9c0.4,0,0.6-0.4,0.7-0.8l0.1-0.3
					c0.2,0.1,0.3-1,0.7-0.1c0.1,0.1,0.1,0.2,0.2,0.3c0,0.1,0,0.1,0,0.2c0,0.2,0,0.3,0.1,0.5l0,0c0.3,1.1,0.7,2.1,1.4,3.1
					c-0.1-0.6-0.1-1.2,0-1.9c0-0.6-0.5-1.2-0.9-1.8l0,0l-0.2-0.3c0-0.1,0-0.1,0-0.2c0-0.1-0.1-0.2-0.1-0.2c-0.1-0.3,0-0.7-0.3-0.9
					c-0.1-1-0.4-1.9-0.9-2.8l0,0l0,0c0.1-0.4-0.2-0.6-0.3-1c-0.3-0.4,0.3-0.9,0-1.3c-0.2-0.6-0.5-1.2-0.3-1.7c0.2-0.7,0.1-1.4-0.2-2
					l-0.2-0.1c0-0.2-0.1-0.4-0.3-0.5l-0.1-0.2c0-0.1,0-0.2-0.1-0.2l0,0c0-0.7,0-1.3,0.1-2c0.1-0.5-0.2-1.2-0.6-1.3
					c-0.5,0-0.9,0.3-1,0.7v0.1c0.1,0.9,0.3,1.8,0.6,2.7H119.7z M122,83.6h0.1c-0.1,0-0.1,0.1-0.2,0.2c-0.1-0.1-0.1-0.1-0.2-0.2
					C121.9,83.6,121.9,83.6,122,83.6L122,83.6z"/>
				<path class="st0" d="M208.8,142.8c-0.5,0.2-1.1,0.4-1.6,0.6c-0.8,0.3-1.5,0.9-1.8,1.7c-0.4,0.3-0.7,0.5-1.1,0.8
					c-0.7,0.3-1.3,0.7-1.8,1.1c-0.2,0-0.3,0.1-0.4,0.2l0,0c-1.2,0.5-2.4,1-3.6,1.5c-0.7,0.2-1.4,0.6-2,1.2c-0.3,0.3-0.8,0.6-1.2,0.8
					c-1.5,0.1-2.7,1.2-4.1,1.3c-0.2,0-0.3,0.1-0.5,0.3c-0.5,0.4-1.1,0.7-1.7,0.9c-0.7,0-1.2,0.5-1.9,0.4c-0.3,0-0.6-0.1-1-0.1
					c-0.2-0.1-0.5-0.1-0.8-0.1c-0.7,0.1-1.4,0.1-2-0.2c0.2-0.3,0.4-0.5,0.7-0.6c0.5-0.3,1-0.5,1.6-0.5l0,0c0.1-0.1,0.2-0.1,0.2-0.2
					l0,0c0.1,0,0.2-0.1,0.2-0.2l0,0c-0.1-0.2-0.2-0.3-0.4-0.3c-0.1,0.1-0.2,0.1-0.3,0.2c-1.1,0.4-2.1,1-3.1,1.6l-0.3,0.2
					c-0.8,0.3-1.7,0.2-2.5,0.5c-0.2,0-0.3,0-0.4,0.2l0,0c-0.1,0-0.2,0-0.3,0.1c0,0-0.1,0-0.2,0c-0.5-0.1-1-0.1-1.5,0
					c-0.6-0.1-1.2,0.1-1.6,0.5c-0.3,0.4-0.7,0.2-1.1,0c-0.3-0.2,0.1-0.4,0-0.7c-0.4,0.3-0.9,0.3-1.3,0c1.4,0,2.8-0.2,4.1-0.6
					c3.1-1,6.3-2,9.4-3.1c0.2-0.1,0.4-0.2,0.5-0.4l0,0c0.9-0.3,1.9-0.3,2.8-0.7l0.1,0.1c1.1-0.4,2-1.1,3.2-1.5
					c0.1,0,0.1-0.1,0.2-0.1l0.2-0.1c0.4-0.2,1-0.4,0.7-1c-0.2-0.4-0.7-0.6-1.1-0.5c-0.7,0.1-1.3,0.4-1.8,0.8l0,0
					c-1.2,0.6-2.4,1.1-3.7,1.4c-1.8,0.4-3.5,1-5.1,1.7c-0.4,0.2-0.9,0-1.3,0.3c-0.7,0.6-1.7,0.9-2.6,0.9c-0.5,0-1.1,0.2-1.5,0.4
					c-0.6,0.1-1.1,0.2-1.7,0.3c-1.1,0.2-2.1,0.6-3,1.2l0,0l0,0l0,0l0,0h0c0-0.1,0-0.3,0.1-0.4l0.2-0.2c0-0.1,0.1-0.1,0.1-0.2
					c0.1-0.1,0.1-0.1,0.2-0.2c0-0.1,0-0.1,0.1-0.2c0.2-0.1,0.4-0.2,0.4-0.5c-0.3,0.1-0.5,0.2-0.7,0.4h-0.2l-0.2,0.2l0,0
					c-0.1,0.1-0.2,0.1-0.2,0.2l-0.4,0.1l0,0c0-0.1-0.1-0.2-0.2-0.2l-0.2-0.2c0-0.3,0.1-0.5,0.3-0.7c0.2-0.1,0.4-0.3,0.4-0.5
					c0.1-0.6,0.3-1.2,0.6-1.8c0.1-0.3,0.2-0.9-0.2-1.1c-0.4-0.2-0.5,0.3-0.7,0.5l-0.1,0.1c-0.2,0.1-0.4,0.2-0.6,0.1v-0.1l-0.1-0.2
					l-0.2,0c0-0.1-0.1-0.2-0.1-0.3c0-0.2,0-0.4,0-0.5l0,0c0.4-0.4,0.7-0.9,0.9-1.5c0.1-0.6,0.5-1.1,1-1.4l0,0c0.5-0.2,0.9-0.6,1-1.2
					c0.8-1.3,1.7-2.6,2.8-3.6c0.1-0.1,0.1-0.2,0.2-0.3c0.1-0.3-0.1-0.6-0.3-0.7l0,0c-0.1,0.1-0.2,0.1-0.3,0.2
					c-0.5,0.4-0.9,1-1.3,1.5c-0.4,0.5-1,0.9-1.4,1.3c-0.3-0.3-0.6-0.5-1-0.7c-0.2,0.5-0.8,1-0.4,1.4c0.2,0.2,0.5,0.1,0.7,0l-0.7,0.7
					l0,0c-0.1,0-0.2,0.1-0.3,0.2c-0.5,0-1,0.2-1.4,0.4l0,0c-0.2,0-0.3,0-0.5,0.1l-0.3,0.1h-0.2l-0.3,0.1c-0.3,0-0.6,0.3-0.9,0.3
					c-0.4,0.4-0.2,0.8,0,1.1l0,0l-0.4,0.7H168c-0.2,0.2-0.6,0.2-0.8,0c-0.4,0.2-0.8,0.5-1.2,0.4c0.1-0.7,0.2-1.4,0.4-2l0.2-0.5
					c0.3-0.5,0.6-0.9,1-1.3c0.2-0.1,0.5-0.3,0.7-0.4c0.1-0.1,0.1-0.1,0.2-0.3c0.4-0.2,0.7-0.4,1.2-0.5c0.3,0,0.6-0.2,0.7-0.5
					c1.2-1,2.4-2,3.6-2.9l0.1-0.1l-0.5,0.5c-0.3,0.2-0.4,0.6-0.6,0.8c-0.2,0.3-0.5,0.6-0.2,0.8c0.2,0.3,0.6-0.1,0.8-0.3
					c0.2-0.2,0.8-0.1,0.5-0.7c0.3-0.6,0.7-1.2,1.1-1.7l1-0.4c0.7-0.2,1.3-0.6,1.8-1.1c0.2-0.2,0.2-0.5,0.1-0.7
					c-0.2-0.3-0.4-0.3-0.7-0.2c-0.4,0.1-0.7,0.3-1,0.6c-0.7,0.3-1.5,0.4-2.3,0.3c-0.9-0.1-1.9,0.2-2.5,1c-0.5,0.5-1,1-1.5,1.5
					c-0.2-0.1-0.4-0.3-0.3-0.6c0-0.1,0-0.1,0.1-0.1l0.5-0.9l1-1c0.1,0,0.2-0.1,0.3-0.2l0.3-0.4c0.6-0.3,1.2-0.6,1.7-1
					c1-0.4,2-0.9,3-1.4c0.3-0.1,0.6-0.3,0.5-0.7c-0.1-0.4-0.6-0.3-0.9-0.2c-0.7,0.3-1.3,0.6-2,1c-0.1,0.1-0.1,0.1-0.2,0.2
					c-1,0.2-2,0.5-2.9,1l0,0c-0.6,0.4-1.2,0.7-1.8,1.1c-0.3,0.2-0.7,0.4-0.6,1l-0.1,0.1v0.1l-0.4,0.2h-0.6h-0.7
					c-0.6-0.3-0.9-0.9-1-1.5c0.1-0.2,0.3-0.5,0.4-0.7c0.1-0.2,0.2-0.3,0.3-0.5c0.1-0.2,0.2-0.3,0.3-0.5c0.9-1.1,0.8-1.6-0.2-2.7
					c-0.1-0.4-0.1-0.8,0-1.2c0.3-0.1,0.5-0.3,0.6-0.6l0.2-0.2c0.6-0.4,1.2-0.8,1.8-1.2c0.3-0.2,0.4-0.6,0.2-1
					c-0.2-0.4-0.5-0.2-0.8-0.1c-0.8,0.3-1.6,0.6-2.3,1.1l0,0c-1.5,0.4-2.7,1.6-3.2,3.2c-0.4,0.7-0.5,1.6-0.1,2.4l-0.7,1.4l-0.9,0.5
					c-1-0.3-1.6-1.2-1.6-2.2c-0.1-0.3-0.4-0.5-0.8-0.5l-0.5-0.3c0.4,0,0.6-0.3,0.6-0.6c0-0.1,0-0.2-0.1-0.3
					c-0.1-0.4,0.1-0.8,0.1-1.1c-0.1-0.6-0.2-1.2-0.3-1.7l0,0c0.2-0.7-0.2-1.3-0.3-1.9c0.1-0.4,0.2-0.9,0.3-1.3
					c1.2-2.3,2.4-4.6,3.6-6.9c1.1-0.5,1.6-1.6,2.2-2.6c1.4-2.3,2.1-4.9,3.4-7.2c0.4-0.7,0.9-1.2,1.5-1.6c0.5-0.1,0.5-0.5,0.7-0.8
					c0-0.4,0.1-0.9,0.3-1.3c0.4-0.7,0.5-1.5,0.3-2.3c0.1-0.4,0.1-1,0.6-1.2l0,0c0.1,0,0.3,0,0.3-0.1c0.4-0.2,0.7-0.6,0.8-1
					c0.5-1.2,1.1-2.3,1.9-3.2c0.2-0.2,0.2-0.4,0.1-0.6h-0.1l0,0l0,0c0.2-0.4,0.5-0.9,0.8-1.2c0.6-0.6,0.9-1.3,1.1-2l0,0
					c0.8-1.2,1.4-2.5,1.7-3.9c0-0.9,0.8-1.5,0.7-2.4c0.8-2.1,1.8-4.2,2.9-6.1c0.4-0.7,0.8-1.4,1.1-2.2c0.3-1,0.8-2,1.4-2.9
					c0.7-0.9,0.7-2.2,0.1-3.2c-0.8,0.5-1.5,1.3-1.8,2.2c-0.3,1.1-0.8,2.1-1.3,3c-0.5,1.2-1.3,2.2-1.7,3.4c-0.6,1.5-1.4,2.9-2,4.3
					l-1.2,2.4c-0.8,1-1.4,2.1-1.9,3.2c-0.3,1-0.8,2-1.3,3c-0.4,0.7-0.7,1.4-1.1,2.1c-0.1,0.2-0.1,0.4,0,0.6l0,0l-1.1,2.1l-1,0.7
					c-1,0-1.9,0.7-2.1,1.6c-0.2,0.4-0.4,0.8-0.6,1.2c-0.8,1.4-1.8,2.8-1.8,4.5c-0.4,0.6-0.7,1.2-0.9,1.8c-0.5,1.6-1.2,3.1-2.1,4.5
					c-0.6,1.1-1.3,2-2.1,2.9c-0.4,0.1-0.8,0.4-1.2,0.6c-0.2,0.1-0.4,0.3-0.6,0.5c-0.8,1.2-1.8,2.3-3,3.1c-0.9,0.5-1.5,1.3-1.9,2.3
					c-0.5,0.3-0.9,0.7-1.3,1.2c-0.9,1-2.1,1.7-3.4,1.9c-1.1-0.5-1.9-1.4-2.3-2.5l0.2-1.1c0.2-0.2,0.4-0.4,0.6-0.7
					c0.3-0.4,1.1-0.5,1-1c-0.2-0.6-1-0.3-1.5-0.6c-0.1,0-0.3,0-0.4,0c-0.6-0.2-0.1-0.8-0.3-1.1c0.2-0.4,0.1-0.9-0.2-1.3
					c0-0.1,0-0.2,0-0.3c0-1.5-0.3-3,0.2-4.4c0-0.1,0-0.3-0.1-0.4c0-0.9,0.3-1.8,0.7-2.6c0.3-0.3,0.4-0.7,0.3-1.1l1.4-2.8
					c0.2-0.4,0.5-0.8,0.4-1.3l0,0c0.1-0.2,0.1-0.4,0-0.6l0,0c0.1-0.2,0.1-0.4,0-0.6c0.1-0.2,0.1-0.4,0-0.6c0.1-0.7,0.1-1.5-0.1-2.2
					c0.1-0.1,0-0.3-0.1-0.4l0,0c0-0.1,0-0.1,0-0.2c0.1-0.1,0-0.2-0.1-0.3l0,0c-0.2-0.7,0.1-1.5-0.5-2.3c-0.4,0.5-0.8,1-1.4,1.3l0,0
					l-0.4,0.1c-1,0.2-1.3,1-1.6,1.7c-0.2,0.7-0.4,1.4-0.6,2c-0.4,0.8-0.6,1.7-0.6,2.5c0,0.5-0.5,1-0.2,1.4c0.1,0.6-0.4,1.1-0.3,1.7
					l-0.6,1.2c-0.6,0.8-1,1.8-1.2,2.8c-0.2,1.6,0.1,2,1.7,2c0.1,0.1,0.3,0.1,0.4,0c0.1,0,0.1,0,0.2,0c0.2,0.1,0.3,0.4,0.2,0.7
					c-0.2,0.6-0.4,1.2-0.5,1.7c-0.1,0.3,0.1,0.3,0.3,0.4c-0.1,0.2-0.1,0.3-0.2,0.5c0.1,0.1,0.1,0.2,0.2,0.3
					c-0.1-0.1-0.1-0.2-0.2-0.3c-0.1,0.2-0.3,0.5-0.3,0.7c0,1.3-0.6,2.6-0.6,3.9c-0.8,0.3-0.8,1.2-1.2,1.7c-0.3,0.1-0.5,0.2-0.8,0.2
					c-0.4-0.1-0.8-0.2-1.1-0.2c-0.4-0.8-0.5-1.8-0.3-2.6c0.4-0.9,0.6-1.9,0.7-2.9c1-1.4,1.3-4.3,0.7-5.1c-0.5,1.1-0.6,2.4-1.1,3.5
					c-0.2,0.3-0.5,0.6-0.8,0.4c0,0,0,0-0.1-0.1c-0.5-0.4-0.9-1-1-1.7c0.4-0.6,0.4-1.4-0.1-1.9c-0.2-0.3-0.6-0.4-1-0.4l0,0
					c-0.3-1.2-0.5-2.3-0.8-3.5c0-0.2-0.1-0.4-0.2-0.6c-0.1-0.2-0.2-0.4-0.5-0.3c-0.2,0.1-0.3,0.3-0.2,0.5c0,0.1,0.1,0.3,0.2,0.4
					c0.2,0.7,0.7,1.3,0.7,2c0.1,0.1,0,0.3,0.1,0.5l0,0c0,0.3-0.1,0.7,0.2,1c-0.1,0-0.2,0.1-0.2,0.2l-0.2,0.1h-0.2l0,0
					c-0.1-0.1-0.2-0.2-0.3-0.3l0,0c-0.1-0.2-0.3-0.1-0.4-0.3h-0.2c-0.9-0.5-1.5-1.3-1.6-2.3c-0.1-0.5-0.5-0.8-1-0.7c0,0,0,0,0,0
					c-0.5,0-0.4,0.5-0.5,0.8c0.1,0.1,0,0.3,0.2,0.5l0,0c0.1,0.1,0.1,0.2,0.2,0.3l0,0c0.5,0.9,0.7,1.9,1.5,2.6l0,0l0,0
					c0,0.1,0,0.3,0,0.4c0,0.1,0.1,0.1,0.2,0.1c0,0,0,0,0,0l-0.1,0.1c0,0,0,0.1,0,0.1c0,0.1,0,0.1,0,0.2l0.4,0.1l0,0
					c0.2,0.3,0.2,0.7,0.6,0.8h0.1l0,0c-0.1,0.1-0.1,0.3,0,0.4c0,0,0,0,0,0l0,0c0,0.1,0.1,0.2,0.2,0.3c0,0,0.1,0,0.1,0l0,0l0.1,0.2
					c0,0.1,0.1,0.1,0.1,0.2c0,0.1,0,0.2,0.1,0.3c0,0.1,0,0.2,0,0.2v0.1c0,0.2,0.1,0.3,0.2,0.5l0,0c-0.1,0.2-0.2,0.5-0.3,0.7
					c-0.7,0.7-0.5,1.5-0.3,2.3c0,0.3-0.1,0.5-0.2,0.8c0,0.2-0.2,0.3-0.4,0.3c0,0,0,0,0,0c-0.1-0.6-0.2-1.3-0.2-1.9
					c0-0.3,0-0.7-0.4-0.8c0.2-0.2,0.3-0.5,0.3-0.8c0-0.2-0.1-0.4-0.2-0.6c0-0.1-0.1-0.1-0.2-0.2c-0.1-0.2-0.2-0.5-0.3-0.7
					c0-0.1-0.1-0.2-0.2-0.3l-0.1-0.1l-0.1-0.2c0.8-0.6,0.7-0.8,0.1-1.5l0,0c-0.1-0.1-0.1-0.2-0.2-0.3c-0.2-0.5-0.6-1-1.1-1.3
					c-0.2-0.2-0.3-0.4-0.3-0.7c0.5-0.3,0.1-0.6-0.1-0.9c-0.1-0.1-0.2-0.3-0.2-0.4l0,0c0-0.1-0.1-0.2-0.2-0.3c0-0.1-0.1-0.2-0.2-0.3
					c-0.1-0.1-0.2-0.3-0.3-0.4c-0.1-0.3-0.3-0.6-0.6-0.8c-0.2-0.2-0.5-0.2-0.7,0c-0.2,0.2,0,0.4,0.1,0.5c0.2,0.3,0.4,0.5,0.5,0.8
					c0.3,0.9,0.9,1.8,1.6,2.5c0.1,0.7,0.7,1,0.9,1.6c0,0,0.1,0.1,0.1,0.1v0.1h-0.1h-0.2c0,0-0.1,0-0.1,0c0,0,0,0,0,0.1
					c-0.1,0-0.3-0.1-0.3,0.1c-0.5,1.4-0.2,3.1,0.8,4.2c0.1,0.3,0.2,0.6,0.4,0.9c0.2,0.6,0.3,1.3,0.3,2c0,0.1,0.1,0.2,0.1,0.3
					c0,0.1,0,0.3,0,0.4c0,0,0,0.1,0,0.1c-1,0-1.8,0.1-2.7,0.2c-0.1-0.5-0.3-1-0.4-1.5c-0.2,0.3-0.3,0.7-0.3,1.1c0,0.1,0,0.3,0,0.4
					c-1.6,0.2-3.2,0.5-4.7,0.9c-0.5-1.4-0.8-2.8-1.1-4.2c0-0.2,0-0.3-0.1-0.5c0-0.1,0-0.1,0-0.2l-0.1-0.2l0,0c0-0.2,0-0.3-0.1-0.5
					c0-1.1-1-2-1-3.1c0-0.1-0.2-0.2-0.3-0.3l0,0c0-0.1-0.1-0.2-0.2-0.2l0,0l-0.2-0.3l0,0c-0.1-0.1-0.1-0.2-0.2-0.3l0,0
					c0-0.1,0-0.1,0-0.2c0-0.2,0-0.3-0.1-0.5c0-0.2,0-0.4,0-0.6c-0.4-0.9-0.8-1.7-0.3-2.7c0-0.1,0-0.2-0.1-0.3
					c-0.1-0.1-0.3,0-0.3,0.1c0,0,0,0,0,0c-0.2,0.3-0.3,0.6-0.5,1c-0.2,0.1-0.1,0.4-0.2,0.5c0.1-0.2,0.1-0.4,0-0.6
					c-0.4-0.4-0.7-0.3-0.9,0.1c-0.4,0.8,0.1,1.5,0.5,2.1c0.3,0.5,0.4,0.9,1.1,0.5c0.1,0,0.2,0.1,0.4,0.2c0,0.2,0,0.3,0.2,0.5l0,0
					c0.1,0.1,0.1,0.2,0.2,0.3l0,0c0,0.2,0,0.3,0.2,0.5l0,0c0,0.2,0,0.3,0.1,0.5l0,0c0.1,0.7,0.3,1.3,0.4,2c0,0.5,0.2,0.9,0.6,1.2
					c0,0.2,0,0.3,0.2,0.4l0,0c0.1,0.1,0.1,0.2,0.2,0.3l0,0c0.1,0.4,0.2,0.8,0.5,1.2c-0.1,0.6,0.3,1.2,0.2,1.8c0,0.7,0.1,1.3,0.5,1.9
					c-1,0.3-1.8,0.5-2.7,0.9c0.3-0.5,0.3-1.1-0.1-1.5c-0.2-0.4-0.3-0.7-0.4-1.1c-0.3-0.8-0.6-1-1.3-0.3c-0.5,0.4-0.8,0.5-1.2-0.1
					c-0.1-0.1-0.1-0.2-0.1-0.3l0,0c0-0.2-0.1-0.3-0.2-0.1l0,0c-0.5-0.3-1.1,0.1-1.6-0.3c-0.1-0.5-0.3-0.9-0.6-1.3
					c-0.2-0.3-0.5-0.5-0.9-0.4c-0.3,0.2-0.5,0.6-0.3,0.9c0.4,1,0.2,2,0.6,2.9c0,0.4-0.1,0.9-0.4,1.3c-0.1,0.3-0.1,0.6,0.2,0.8
					c0.8,0.4,1.3,1.1,1,1.9c0,0,0,0.1,0,0.1c-4.1,2.3-7.8,5.2-10.9,8.7c-0.3,0.1-0.6,0.4-0.6,0.7c-3.2,3.6-5.9,7.6-8,11.9
					c0,0-11.1-25.3-37.1-25.9c-27.8-0.6-43.8,37.1-17.3,69.5c19.1,23.3,42.6,38.5,54.3,45.3c11-6.3,21.4-13.7,31.1-21.9
					c0.3,0.5,0.2,1.2,1.1,1l0.3-0.2c0.8-0.4,1.5-1.1,1.8-1.9c0.1-0.1,0.1-0.2,0.1-0.3c0.1,0.1,0.3,0.2,0.5,0.3
					c0.7,0.3,1.3,0.3,1.5-0.2c0.2-0.5,0.1-1.1-0.3-1.4c-0.7-0.1-1.3,0.1-1.8,0.7v0.1c-0.1-0.1-0.2-0.2-0.3-0.3h-0.1
					c0-0.1,0-0.2,0-0.3l2.1-1.9c0,0.1,0.1,0.1,0.2,0.2c0.1,0.1,0.3,0.1,0.3,0c0-0.1,0-0.3-0.1-0.3c0,0-0.1,0-0.1,0
					c3.1-2.9,6.3-5.9,9.3-9.1c0,0.1,0,0.1,0,0.2c0.1,0,0.2,0,0.2,0c0.1,0,0.1-0.1,0.1-0.2c0,0,0-0.1-0.1-0.1c0,0-0.1,0-0.1,0l2-2.2
					l0.1,0.1c-0.1,0.2-0.6,0.4-0.2,0.7c0.3,0.3,0.4,0.6,0.8,0.5c0.5-0.1,0.7-0.2,0.7-0.7c0-0.1,0-0.1,0-0.2c0.1-0.1,0.1-0.3,0.1-0.4
					c0.3-0.4,0.6-0.5,1,0c0.1,0.1,0.3,0.3,0.3-0.1c0.7-1.4,0.7-1.4-0.5-1.8c0.1-0.2,0.1-0.5-0.1-0.7l0.8-0.9
					c0.2,0.3,0.5,0.6,0.8,0.9c0,0.3,0.2,0.6,0.4,0.8v0.2c0.1,0.1,0.3,0.1,0.4,0.2l0.3,0.2c0,0,0-0.1,0-0.1c0.1,0.1,0.3,0.1,0.4,0.1
					c1.3,0.3,2-0.2,2.2-1.5c0.1-0.5,0.2-0.9,0.2-1.4c0.5-0.3,0.7-0.9,0.5-1.5c-0.2-0.6-0.7-0.8-1.2-0.8c-0.1,0-0.3-0.1-0.4-0.1
					c-0.1-0.3-0.1-0.6-0.2-1l0,0c1.5-1.8,2.8-3.6,4-5.5c0.2,0,0.4,0,0.6,0c0.7,0.5,1.6,0.8,2.5,0.9c0.6,0.3,1,0.1,1.4-0.5
					c0-0.1,0-0.3,0.1-0.4c-0.2-0.4,0.2-0.7,0-1.1l-0.1-0.7c0.1-0.4,0.3-0.8,0.5-1.2c0.2-0.5,0.6-1,0.4-1.5c-0.2-0.3-0.3-0.7-0.1-1
					c0.2-0.4,0.1-0.9-0.2-1.3c0-0.3,0-0.7-0.1-1c-0.1-0.3-0.1-0.5,0.2-0.6c0.1,0,0.2-0.1,0.3-0.2c0.3,1.2,1.2,1.8,2.7,1.6
					c0.3,0,0.6-0.1,0.8-0.4c0.6-0.8,1.4-1.5,1.5-2.6c0-0.4,0.3-0.8,0.7-1l1.7,0.2c0.8,0.5,1.7,0.5,2.5,1c0.8,0.6,1.9,0.8,2.9,0.5
					c-0.5-1.1-1.7-1.8-2.9-1.7c-0.5-0.2-1-0.5-1.4-0.7c-1-0.8-2.2-1.1-3.5-1c-0.3-0.1-0.7-0.3-1-0.5l1-0.3c0.2,0.1,0.5,0,0.7-0.1
					c0.9-0.1,1.5,0.5,2.3,0.8c0.9,0.7,1.8,0.3,2.7,0.3c0.5,0,0.5-0.7,1-0.7c0.4,0,0.8,0.4,1.3,0.3c0.6-0.2,1.2-0.2,1.8-0.2
					c0.9,0.4,1.9,0.7,2.9,0.9c0.4,0,0.8-0.1,1.1-0.3c0.6-0.3,0.6-0.7,0.1-1c-0.5-0.4-1.2-0.6-1.8-0.4c-0.9,0.2-1.8,0.1-2.6-0.1
					c-0.1-0.3-0.4-0.3-0.6-0.3c-0.3-0.4-0.9-0.2-1.2-0.6c-0.3-0.4-0.7-0.3-1,0.1c-0.6,0-1.1,0-1.7,0l-1.2-0.4
					c-0.3-0.3-0.6-0.6-0.9-0.9c-0.4-0.4-0.8,0.3-1.3,0.1c-0.1,0-0.2-0.1-0.3-0.1c-0.2-0.4-0.4-0.8-0.7-1.2l0,0
					c0-0.5,0.2-0.9,0.6-1.2c0.1,0,0.2,0,0.2-0.1c0.2,0.1,0.3,0.1,0.5,0c1,0.1,2.1-0.4,3.1-0.1c0.3,0.1,0.5-0.1,0.6-0.3c0,0,0,0,0,0
					c0-0.3-0.2-0.4-0.4-0.5c-0.3-0.2-0.7-0.4-1.1-0.5l-0.5-0.3c-0.1-0.3-0.4-0.5-0.6-0.6c-0.1,0.1-0.2,0.1-0.3,0.2
					c0.1-0.1,0.1-0.3,0.2-0.4v-0.1c0.1,0,0.2-0.1,0.4-0.1c1.1,0.7,2.5,0.4,3.3-0.6c0.2-0.2,0.3-0.4,0.3-0.7c0.1-0.1,0.2-0.1,0.3-0.2
					c0.2,0,0.3,0,0.4-0.2l0,0c0.9-0.3,1.8-0.6,2.6-1.1c1.4-0.5,2.8-1.1,4.2-1.9c0.2,0.1,0.3,0,0.5-0.1c0.3,0,0.6,0.2,0.9-0.1l0,0
					c0.1,0,0.2-0.1,0.3-0.2l0,0l0.2-0.2l0,0c0.9-0.3,1.3-1.1,2-1.7c1.4-1.1,2.8-2.2,4-3.5l0,0l0.3-0.2c1-0.6,2-1.1,3-1.5
					c1.1-0.1,2-0.7,2.7-1.5l0,0l1.2-0.9l0.2-0.1c1.1-0.4,2.2-1.3,3.5-1.2c0.3,0,0.5-0.2,0.5-0.5c0.1-0.7,0.5-0.9,1-1
					c1-0.2,1.9-0.6,2.7-1.2c1-0.3,1.9-0.8,2.6-1.5c0.2-0.2,0.5-0.4,0.9-0.3c1-0.1,1.9-0.5,2.6-1.1c0.3-0.3,0.7-0.5,0.5-1
					C210,143,209.4,142.6,208.8,142.8C208.8,142.8,208.8,142.8,208.8,142.8z M118.2,124.4L118.2,124.4L118.2,124.4z M168.9,174.2
					c-0.1,0.2-0.3,0.2-0.6,0.1C168.5,174.3,168.7,174.2,168.9,174.2z M138.9,123.3c0,0.1,0,0.1,0,0.2c-0.2-0.4-0.3-0.8-0.3-1.2
					l0.2,0.3l0,0C138.8,122.8,138.8,123,138.9,123.3z M161.9,140.7C161.9,140.7,161.9,140.7,161.9,140.7L161.9,140.7
					C161.9,140.7,161.9,140.7,161.9,140.7L161.9,140.7z M158.7,126L158.7,126L158.7,126z M149.5,196.8c0,0.2,0.1,0.5,0.3,0.5
					c0,0,0,0,0,0l0.2,0.2l0,0v0.2c-0.1,0-0.1,0.1-0.2,0.2l-0.2-0.3c-0.2-0.5-0.4-1-0.6-1.5c0.1-0.1,0.1-0.1,0.2-0.2
					C149.1,196.3,149.2,196.6,149.5,196.8z M160.9,178.3c0.1-0.1,0.1-0.3,0.2-0.4c0,0.2,0,0.4,0,0.6
					C161,178.3,161,178.3,160.9,178.3L160.9,178.3z M172.8,155.5L172.8,155.5c0.2,0.1,0.3,0,0.5-0.1c0,0,0,0,0,0.1v0
					C173.1,155.6,172.9,155.6,172.8,155.5L172.8,155.5z M184.9,156.4c-0.5,0.3-1.2,0.6-1.4,1.3l-0.4,0.1c0,0,0-0.1,0-0.1
					c0-0.1,0.1-0.2,0.1-0.3c0-0.1,0-0.2,0-0.3c0-0.1,0-0.1,0-0.2l0,0c0.4,0.1,0.7-0.2,1-0.4c0.4-0.3,0.8-0.4,1.3-0.4L184.9,156.4z"
					/>
				<polygon class="st0" points="131.9,111 131.9,111 131.9,111 				"/>
				<path class="st0" d="M156.8,197.6h0.2c0.3,0,0.6-0.1,0.7-0.4c0.1-0.2-0.2-0.3-0.3-0.5c-0.1-0.1-0.2-0.3-0.3-0.4c0,0,0-0.1,0-0.1
					l0,0c-0.1-0.2,0.1-0.4,0.4-0.8c0.4-0.3,0.5-0.9,0.2-1.3c0,0,0-0.1-0.1-0.1c-0.3-0.4-0.8-0.4-1.4,0c-0.6,0.4-0.7,0.5-0.3,1.2
					c0.4,0.7,0.2,0.8-0.4,1c-0.1,0-0.2,0-0.3,0c-0.4,0.1-0.5,0.3-0.3,0.7c0.3,0.5,0.8,0.5,1.4,0.6L156.8,197.6z"/>
				<path class="st0" d="M93.8,108.8c0.5,1.6,1.4,3,1.8,4.7c0.3,0.9,0.7,1.9,1.1,2.8c-0.1,0.2,0,0.5,0.2,0.7c0.3,0.3,0.2,1,0.7,0.8
					c0.3-0.2,0.1-0.8-0.1-1.2c-0.1-0.1-0.2-0.3-0.3-0.4l0,0c-0.2-0.5-0.3-1.1-0.5-1.6c-0.1-0.7-0.3-1.4-0.6-2
					c-0.4-0.6-0.7-1.2-0.9-1.9c-0.2-0.8-0.6-1.6-1.1-2.3l-0.2-0.3c0-0.1,0-0.1,0-0.2l-0.2-0.3c0-0.1,0-0.1,0-0.2c0-0.1,0-0.1,0-0.2
					c-0.1-0.4-0.4-0.8-0.8-1c-0.1,0-0.2,0-0.3,0.1c0,0,0,0,0,0c-0.1,0.4,0.1,0.9,0.4,1.1c0.1,0.1,0.1,0.2,0.2,0.2
					c0,0.2,0,0.3,0.2,0.5l0,0c0.1,0.1,0.1,0.2,0.2,0.3c0,0.1,0,0.1,0,0.2L93.8,108.8z"/>
				<polygon class="st0" points="203.9,155.7 203.9,155.7 203.9,155.7 				"/>
				<path class="st0" d="M203.6,155L203.6,155c-0.1,0.1-0.3,0-0.5,0.1h-0.2c-0.1,0.1-0.2,0.1-0.3,0.2h-0.2l-0.3,0.2
					c-0.1,0.1-0.2,0.1-0.3,0.2h-0.2l-0.3,0.2l0,0c-0.1,0.1-0.2,0.1-0.3,0.2l-1,0.3c-0.9,0.3-1.7,0.4-2.5,0.8c-0.5,0.2-1.1,0.4-1.1,1
					c0,0.3,0.7,0.4,1.4,0c1.1-0.5,2.2-1,3.2-1.4c0.1-0.1,0.2-0.1,0.3-0.2h0.2c0.1,0,0.2-0.1,0.2-0.2l0,0l0.3-0.2
					c0.1-0.1,0.3,0,0.5-0.1c0.1-0.1,0.3,0,0.5-0.1h0.2c0.1-0.1,0.3,0,0.5-0.1C204.2,155.3,204,155.1,203.6,155z"/>
				<path class="st0" d="M220.1,150.6c0.5,0.5,0.8,0.3,1-0.2c0-0.1,0.2-0.1,0.3-0.2c0.3-0.2,0.9-0.5,0.6-1s-0.8-0.3-1.2-0.2
					c-0.1,0-0.3,0.1-0.4,0.2c-0.9,0.4-1.8,0.7-2.7,1c-0.6,0.2-1.1,0.4-1.6,0.7c0,0.2,0,0.3,0.1,0.5c1-0.3,1.9-0.5,2.9-0.8
					C219.5,150.6,219.8,150.4,220.1,150.6z"/>
				<path class="st0" d="M142.8,248.7c-0.7,0-1.4,0.5-1.5,1.2c-0.1,0.7,0.4,1.4,1.1,1.5c0,0,0,0,0,0c0.8,0,1.5-0.5,1.6-1.3
					C143.9,249.4,143.4,248.9,142.8,248.7z"/>
				<path class="st0" d="M185.7,183.5c-0.7-0.3-1.6-0.2-2.2,0.3l0,0c-0.6,0-1.2,0.2-1.8,0.4c-0.8,0.5-0.6,1.2-0.4,2
					c0.3-0.5,0.7-0.6,1.1-0.9c1-0.1,1.9-0.6,3-0.7c0.1,0,0.3-0.1,0.4-0.2c0.3-0.1,0.3-0.5,0.2-0.7
					C185.9,183.6,185.9,183.6,185.7,183.5z"/>
				<path class="st0" d="M211.4,125.1c-1.1,0.9-2.2,1.8-3.2,2.6c-0.1,0-0.2,0.1-0.2,0.2c0,0-0.1,0.1-0.1,0.2l-0.3,0.2l0,0l-0.2,0.2
					c0,0.1-0.1,0.1-0.1,0.2l-0.8,0.8c-0.7,0.3-1.3,0.8-1.8,1.5c-0.1,0.3,0,0.5,0.4,0.5c0.6-0.5,1.1-0.9,1.5-1.5l0,0
					c0.1-0.1,0.2-0.1,0.2-0.2l0.5-0.5l0,0c0.1-0.1,0.2-0.1,0.3-0.2l0,0l0.3-0.2c0.1,0,0.1,0,0.2,0c0.1,0,0.2-0.1,0.2-0.2
					c1-0.4,1.5-1.2,2.2-1.8c0.4-0.4,0.8-0.8,1.3-1.1c0.2-0.2,0.2-0.5,0.1-0.7c0,0,0,0,0,0C211.8,124.7,211.6,124.9,211.4,125.1z"/>
				<path class="st0" d="M107.8,111.8c0.6,0.7,1.1,1.6,1.5,2.5c0.1,0.2,0.2,0.3,0.4,0.4c0.4,0.3,0.7,0.7,1,1.2c0,0.2,0,0.4,0.1,0.5
					c0,0.1,0,0.1,0,0.2c0,0.1,0.1,0.2,0.2,0.2l0,0c0.1,0.2,0.2,0.3,0.4,0.3c0.1,0.1,0.1,0.2,0.2,0.2l0,0c0.1,0.1,0.1,0.2,0.2,0.3
					l0,0c0.6,1.4,1.5,2.6,2.5,3.7c0.1,0.1,0,0.3,0.1,0.5s0.1,0.2,0.2,0.2c0.2,0.2,0.4,0.2,0.5-0.1c-0.1-0.1-0.1-0.2-0.2-0.3
					c-0.1-0.1-0.1-0.2-0.2-0.3c-0.5-1.4-1.2-2.7-2.2-3.8l0,0l-0.2-0.2l0,0l-0.2-0.3l0,0l-0.2-0.2l0,0l-0.2-0.3
					c-0.1-0.1-0.1-0.2-0.2-0.3l0,0c-0.1-0.1-0.1-0.2-0.2-0.3l0,0c-0.1-0.1-0.1-0.2-0.2-0.3c0-0.7-0.6-1-0.8-1.6
					c-0.5-1.2-1.6-1.9-2.3-3.1c-0.1-0.1-0.2-0.2-0.3-0.1c0,0,0,0,0,0c-0.1,0.1-0.1,0.3-0.1,0.4C107.6,111.5,107.7,111.6,107.8,111.8
					z"/>
				<path class="st0" d="M173,182.5c-1-0.2-2.1-0.2-3.1,0c-0.9,0.2-1.8,0.2-2.6,0c-0.3-0.1-0.6-0.1-0.8,0.3
					c-0.1,0.4,0.1,0.4,0.4,0.3c0.9,0.4,1.9,0.4,2.8,0.2c0.1,0,0.2,0,0.3,0c0.7-0.1,1.4-0.1,2.1-0.2
					C172.5,183.1,172.9,182.8,173,182.5z"/>
				<path class="st0" d="M196.6,261.6c-0.4-0.2-0.6-0.7-1.2-0.5s-0.4,0.7-0.5,1.1c0,0.1,0,0.2,0,0.2c-0.4,0.7,0,1.1,0.6,1.4
					c0.9,0.5,1.4,0.3,1.7-0.6C197.4,262.6,197.2,261.9,196.6,261.6z"/>
				<path class="st0" d="M133.1,93.8c-0.1,0.2-0.2,0.4,0,0.6s0.3,0.3,0.6,0.2c0.2-0.1,0.4-0.2,0.6-0.4c0.8-0.7,1.5-1.4,2.2-2.2
					c0.3-0.3,0.5-0.6,0.8-1c-0.1-0.3-0.3-0.1-0.4-0.1c-1.4,0.7-2.4,1.9-3.7,2.7C133.1,93.7,133.1,93.8,133.1,93.8z"/>
				<path class="st0" d="M226.8,109.4c-0.7-1.6-1.3-1.7-2.4-0.4c-0.2,0.1-0.2,0.3-0.2,0.5c0.3,0.2,0.7,0.4,1,0.6
					c0.7,0.6,0.9,0.5,1.6-0.1c0.1-0.1,0.2-0.3,0.1-0.4c0,0,0,0,0,0C226.9,109.6,226.9,109.5,226.8,109.4z"/>
				<path class="st0" d="M213.4,103.9c0.5,0.7,0.3,1.6,0.6,2.3c0.1,0.3,0.3,0.5,0.6,0.6c0.3,0.1,0.6-0.1,0.7-0.4c0-0.1,0-0.2,0-0.4
					c-0.2-0.8-0.5-1.6-0.8-2.3c-0.2-0.4-0.6-0.4-0.9-0.2C213.4,103.6,213.3,103.8,213.4,103.9z"/>
				<path class="st0" d="M164.7,94.7c-0.1,0-0.3,0.1-0.3,0.2c-0.3,0.6-0.5,1.2-0.6,1.9c-0.1,0.5-0.1,1,0.1,1.5
					c0.1,0.3,0.4,0.4,0.5,0.1c0.7-1,0.9-2.3,0.6-3.5C164.9,94.9,164.8,94.7,164.7,94.7z"/>
				<path class="st0" d="M187.1,206.3c-0.1-0.3-0.4-0.7-0.7-0.6c-0.4,0.1-0.5,0.5-0.6,0.8c-0.1,0.2-0.1,0.5,0.1,0.7
					c-0.1,0.6,0,1.1,0.1,1.7c0,0.3,0.2,0.6,0.4,0.9c0.2,0.2,0.4,0.4,0.6,0.3c0.2-0.1,0.3-0.3,0.3-0.5c0-0.6,0-1.2,0-1.8
					C187.1,207.3,187.5,206.7,187.1,206.3z"/>
				<path class="st0" d="M158.9,93.8c-0.4,0.9-0.7,1.8-0.9,2.7c0,0.3,0,0.5,0.2,0.7s0.5-0.1,0.6-0.3c0.4-0.6,0.6-1.2,0.7-1.9
					c0-0.3,0.3-0.7-0.1-1.2C159.2,93.4,159,93.4,158.9,93.8z"/>
				<path class="st0" d="M205,103.3c-0.9,0.5-1.7,1.3-2.2,2.3c-1,0.9-0.6,1.9-0.5,3c0,0.3,0.2,0.5,0.5,0.5c0.2,0.1,0.4,0,0.6-0.2
					c0.1-0.1,0.1-0.3,0-0.5c-0.4-1-0.4-1,0.5-1.6c0.1-0.1,0.2-0.2,0.3-0.3c1.4-0.8,2.5-1.9,3.4-3.2c0.2,0,0.3-0.2,0.3-0.3
					c1-0.8,1.8-1.7,2.6-2.6c0.1-0.4,0.2-0.7,0.2-1.1c0.4-0.1,0.5-0.6,0.7-1c0.5-1,1.2-1.9,1.9-2.7c0.1-0.2,0-0.3-0.2-0.2l-0.3,0.2
					l-3.1,3l-0.8,0.8c-0.7,0.7-1.1,1.6-1.8,2.2l0,0c-0.2,0.1-0.3,0.2-0.5,0.4c-0.1,0-0.2,0.1-0.2,0.2
					C206,102.5,205.5,102.9,205,103.3z"/>
				<path class="st0" d="M108.4,132.5c-0.4,0.1-0.9,0.2-1.4,0.2c-0.2,0-0.3,0.1-0.4,0.3c0.1,0.4,0.2,0.8,0.3,1.1
					c0.2,0.6,0.5,0.6,1,0.3c0.4-0.4,0.8-0.9,1-1.5C109,132.6,108.8,132.4,108.4,132.5z"/>
				<path class="st0" d="M136,225.5c-0.5-0.2-1,0.1-1.4,0.4c-0.8,1-0.8,1.3,0.1,2.2c0.4,0.5,1.1,0.5,1.7,0.2
					c0.6-0.4,0.9-1.1,0.8-1.9C137.2,225.9,136.5,225.7,136,225.5z"/>
				<path class="st0" d="M195.8,163.3c0.1,0.1,0.2,0.3,0.4,0.2c0.2-0.1,0.3-0.2,0.2-0.4c-0.1-1.2-0.3-2.5-0.7-3.7
					c-0.3,0.1-0.4,0.3-0.3,0.4c0.2,1,0.2,1.9,0.2,2.9C195.6,163,195.7,163.2,195.8,163.3z"/>
				<path class="st0" d="M150.5,278.1c-0.9,0-1.3,0.6-1.2,1.5s0.3,1.1,1.3,1.3s1.5-0.3,1.5-1.4c0-0.8-0.7-1.5-1.5-1.5
					C150.6,278.1,150.6,278.1,150.5,278.1z"/>
				<path class="st0" d="M157.9,217c-0.7-0.5-1.6-0.7-2.5-0.7c0.6,0.6,1.2,1.2,1.9,1.6c0.3,0.2,0.6,0.2,0.8-0.1
					C158.4,217.5,158.2,217.2,157.9,217z"/>
				<path class="st0" d="M97.2,131c0.2,0.7,0.7,1.3,1.4,1.7c0.2-0.5,0-1.1-0.4-1.4c-0.5-0.4-0.9-0.8-1.3-1.3c-0.3-0.3-0.6-0.6-1-0.8
					C95.9,130.3,97,130.3,97.2,131z"/>
				<path class="st0" d="M202.6,77.9c-0.2-0.4,0-0.7,0.1-1c-0.4,0-0.8,0.3-1.3,0c-0.2-0.1-0.4,0.1-0.5,0.3c0.2,0.6,0.4,1.2,0.8,1.7
					C202.2,78.7,202.5,78.3,202.6,77.9z"/>
				<path class="st0" d="M138.4,235.9C138.3,235.9,138.3,235.9,138.4,235.9c-0.8,0.9-0.8,1.2,0,2c0.7,0.6,1.3,0.6,1.8-0.1
					c0.4-0.5,0.4-1.3,0-1.8C139.8,235.6,139.1,235.5,138.4,235.9z"/>
				<path class="st0" d="M215.4,205.6c-0.6-0.1-1.1-0.1-1.7,0l-0.9-0.2c-0.1,0-0.2,0-0.2,0.1c0,0.1,0.1,0.2,0.2,0.3h0.2
					c0.1,0.2,0.2,0.3,0.4,0.3c0.5,0.4,1.2,0.2,1.8,0.4c0.2,0.1,0.6,0.1,0.7-0.2c0,0,0-0.1,0.1-0.2
					C216.1,205.9,215.8,205.7,215.4,205.6z M213.7,205.8L213.7,205.8L213.7,205.8z M213.9,205.9L213.9,205.9L213.9,205.9
					c0,0,0.1,0,0.1,0c0.1,0,0.1,0,0.2,0H213.9z M214.5,206c-0.1,0-0.1,0-0.2,0C214.4,206,214.4,206,214.5,206
					C214.6,205.9,214.6,206.1,214.5,206z"/>
				<path class="st0" d="M149.7,90.2c-0.3,0.7,0.2,1.2,0.2,1.9c0,0.4,0,0.9,0,1.3c-0.5,2-0.4,4,0.1,6c0,0.2,0,0.5,0.4,0.6
					c0.2-0.9,0-1.8,0.5-2.6c0.2-0.2,0.2-0.4,0.1-0.6c-0.1-0.1-0.2-0.3-0.2-0.5c0-0.9-0.2-1.8-0.4-2.7l0,0c0.1-1,0.1-2,0-3
					c0-0.3,0.1-0.6,0.3-0.9c0.2-0.2,0.2-0.6,0-0.8c0.1-0.4,0-0.8-0.2-1.1c-0.2-0.3-0.4-0.3-0.6-0.1c-0.1,0.2-0.2,0.4-0.2,0.6
					c-0.3,0.2-0.3,0.5-0.3,0.8c0,0.1,0,0.3-0.1,0.4C149,90.1,149.8,89.9,149.7,90.2z"/>
				<path class="st0" d="M173.7,179.6c-1-0.3-1.7,0.4-2.7,0.4C172.2,180.8,172.5,180.8,173.7,179.6z"/>
				<path class="st0" d="M165.4,87.8c0.1-0.3,0.1-0.7,0-1c-0.1-0.2-0.1-0.4-0.3-0.4c-0.2,0-0.4,0.1-0.5,0.3
					c-0.3,0.4-0.2,0.8,0.1,1.2c0.1,0.1,0.2,0.2,0.3,0.2C165.1,88.1,165.3,88,165.4,87.8z"/>
				<path class="st0" d="M208.4,133.7c0.3,0,0.5-0.4,0.4-0.8c-0.1-0.4-0.4-0.6-0.7-0.7c-0.1-0.1-0.3,0-0.4,0.1c-0.2,0.3,0,0.5,0,0.8
					S208,133.6,208.4,133.7z"/>
				<path class="st0" d="M120,116l-0.9-1.9c-0.1-0.1-0.2-0.2-0.3-0.3c-0.1-0.1-0.3-0.2-0.5-0.1c-0.2,0.1-0.1,0.3,0,0.4
					C118.7,114.8,119.3,115.5,120,116z"/>
				<path class="st0" d="M224.8,190.2c-0.2,0-0.3,0.1-0.4,0.3c0,0,0,0,0,0.1c0,0.3,0.5,1,0.9,1c0.4,0,0.4-0.1,0.4-0.4
					S225.2,190.2,224.8,190.2z"/>
				<path class="st0" d="M116.2,114.9c0.2-0.5,0.1-1.1-0.3-1.5c-0.1-0.1-0.3-0.1-0.4,0c0,0,0,0,0,0.1c-0.2,0.3,0.2,1.4,0.3,1.4
					C116.1,115.1,116.1,115,116.2,114.9z"/>
				<path class="st0" d="M194.2,107.6c0.2-0.4,0.4-0.8,0.7-1.2c0.1-0.2,0.2-0.3,0-0.4c-0.2-0.1-0.4,0-0.4,0.2
					c-0.3,0.6-0.6,1.2-1,1.9C193.8,108.1,194.1,107.9,194.2,107.6z"/>
				<path class="st0" d="M192.7,188.5c-0.3-0.1-0.5,0.1-0.5,0.4c0.1,0.3,0.1,0.7,0.6,0.8c0.3,0,0.6,0,0.6-0.4
					C193.3,188.9,193,188.6,192.7,188.5z"/>
				<path class="st0" d="M232.5,181c-0.4-0.1-0.7,0.1-1,0.6c0.3,0.2,0.7,0.3,1,0.3c0.2,0.1,0.4-0.1,0.5-0.3c0,0,0-0.1,0-0.1
					C233,181.1,232.8,181,232.5,181z"/>
				<path class="st0" d="M235.8,153c-0.3-0.2-1.2,0.2-1.2,0.5c0,0.1,0,0.1,0.1,0.2c0.2,0.3,0.5,0.2,0.8,0s0.5-0.2,0.5-0.6
					C235.9,153.1,235.9,153.1,235.8,153z"/>
				<path class="st0" d="M133.5,242.2c-0.3,0-0.5,0.3-0.6,0.5c-0.1,0.3,0.1,0.5,0.3,0.6c0,0,0.1,0,0.1,0c0.3,0,0.5-0.1,0.5-0.4
					c0,0,0-0.1,0-0.1C133.9,242.6,133.7,242.3,133.5,242.2z"/>
				<path class="st0" d="M113.8,88.3c0,0.4,0,0.9,0.2,1.2c0.4-0.3,0.7-0.8,0.7-1.3c-0.1-0.4-0.2-0.8-0.4-1.4
					C114,87.4,113.5,87.7,113.8,88.3z"/>
				<path class="st0" d="M187.3,145.9c-0.1,0.3,0.2,0.4,0.4,0.5s0.6,0,0.7-0.3c0.1-0.3-0.2-0.5-0.5-0.6
					C187.6,145.4,187.4,145.6,187.3,145.9C187.3,145.8,187.3,145.9,187.3,145.9z"/>
				<path class="st0" d="M101.5,251.4c-0.3,0-0.5,0.1-0.6,0.5c0,0.3,0.2,0.5,0.5,0.6c0.3,0,0.5-0.2,0.6-0.5
					C102,251.7,101.8,251.4,101.5,251.4C101.6,251.4,101.5,251.4,101.5,251.4z"/>
				<path class="st0" d="M160.4,196.8c0,0.1,0.1,0.3,0.2,0.3c0.4,0.1,0.8,0,1.1-0.3c0.1-0.1,0-0.2,0-0.3c0,0,0,0,0,0
					C161.3,196.2,160.7,196.3,160.4,196.8z"/>
				<path class="st0" d="M224,178.7c-0.4-0.1-0.8-0.3-1.3,0.1l0.1,0.1c-0.5,0.2-0.9,0.7-1,1.3c0.8-0.3,1.4-0.3,1.9-0.8l0.1-0.1
					c0.1,0,0.2,0,0.2,0c0.1,0,0.3-0.1,0.3-0.3c0-0.1,0-0.3-0.2-0.3C224,178.7,224,178.7,224,178.7z"/>
				<path class="st0" d="M228.8,108.9c-0.1-0.1-0.3-0.1-0.4-0.1c-0.3,0.3-0.6,0.6-1,0.8c-0.1,0.1-0.5,0.3,0,0.5
					c0.5-0.2,0.9-0.5,1.3-0.9C228.9,109.1,228.9,109.1,228.8,108.9z"/>
				<path class="st0" d="M106,120.5c0.1-0.7,0-1.3-0.3-1.9c0-0.3-0.1-0.7-0.5-0.6c-0.4,0.2-0.2,0.5,0,0.8c0.1,0.1,0.1,0.2,0.2,0.2
					l0,0C105.3,119.5,105.6,120.1,106,120.5z"/>
				<path class="st0" d="M217.6,120.2c0,0.3,0.2,0.6,0.6,0.6c0,0,0,0,0,0c0.2,0,0.3-0.1,0.4-0.3c0,0,0,0,0,0c0-0.3-0.3-0.8-0.6-0.8
					C217.8,119.8,217.6,120,217.6,120.2z"/>
				<path class="st0" d="M125.2,237.2c-0.2,0-0.4,0.2-0.4,0.4c0,0.3,0.2,0.5,0.4,0.6c0,0,0,0,0,0c0.2,0,0.4-0.1,0.5-0.3c0,0,0,0,0,0
					C125.8,237.6,125.4,237.1,125.2,237.2z"/>
				<path class="st0" d="M190.1,157.5c-0.3-0.1-0.4,0.1-0.5,0.3c-0.1,0.2,0.1,0.4,0.3,0.5s0.5,0.2,0.6-0.2
					C190.6,157.8,190.4,157.6,190.1,157.5z"/>
				<path class="st0" d="M231.8,201.3c-0.3-0.1-0.4,0.1-0.4,0.3s0.1,0.5,0.4,0.5c0.2,0.1,0.3,0,0.4-0.2c0,0,0,0,0-0.1
					C232.2,201.6,232,201.4,231.8,201.3C231.8,201.3,231.8,201.3,231.8,201.3z"/>
				<path class="st0" d="M108.9,115.1c-0.2,0-0.3,0.1-0.3,0.3c0,0.3,0.1,0.6,0.4,0.7c0.1,0.1,0.3,0,0.3-0.2
					C109.4,115.6,109.2,115.2,108.9,115.1z"/>
				<path class="st0" d="M200.8,100.1c0,0.3-0.1,0.5,0.2,0.6c0.3,0.1,0.3-0.1,0.4-0.3c0-0.2,0-0.6-0.3-0.6
					C200.8,99.7,200.9,99.9,200.8,100.1z"/>
				<path class="st0" d="M186,165.2c0.2,0,0.4-0.1,0.5-0.3c0,0,0,0,0,0c0.1-0.3,0-0.4-0.4-0.5c-0.1,0-0.4,0-0.4,0.3
					C185.7,164.9,185.8,165.2,186,165.2C186,165.2,186,165.2,186,165.2z"/>
				<path class="st0" d="M235.8,116.8c0.1-0.2-0.1-0.4-0.3-0.5c0,0,0,0,0,0c-0.2,0-0.5,0-0.5,0.3s0,0.5,0.3,0.6
					C235.5,117.2,235.7,117.1,235.8,116.8C235.8,116.8,235.8,116.8,235.8,116.8z"/>
				<path class="st0" d="M198.6,103.1c0.1-0.2,0-0.4-0.2-0.5c0,0-0.1,0-0.1,0c-0.2-0.1-0.3,0.1-0.4,0.3c0,0.2,0.1,0.4,0.3,0.5
					C198.3,103.3,198.5,103.3,198.6,103.1z"/>
				<path class="st0" d="M184.3,139.4c-0.2-0.1-0.4,0.1-0.5,0.3c-0.1,0.2,0,0.3,0.2,0.4c0,0,0,0,0,0c0.2,0.1,0.4,0,0.5-0.2
					c0.1-0.2,0-0.4-0.1-0.4C184.4,139.4,184.4,139.4,184.3,139.4z"/>
				<path class="st0" d="M146.6,219.8c-0.2-0.1-0.3,0.1-0.3,0.3c0,0.3,0.2,0.5,0.4,0.5c0.2,0,0.3-0.1,0.4-0.3
					C147,220,146.8,219.8,146.6,219.8z"/>
				<path class="st0" d="M126.6,112.7c0,0.2,0,0.4,0.4,0.5c0.1-0.1,0.2-0.2,0.2-0.3c0-0.2-0.1-0.4-0.4-0.4S126.6,112.6,126.6,112.7z
					"/>
				<path class="st0" d="M204,79.8c0.1,0,0.3-0.1,0.3-0.3c0,0,0,0,0,0c0-0.3-0.2-0.3-0.4-0.4c-0.2,0-0.3,0.1-0.3,0.3
					C203.5,79.7,203.7,79.8,204,79.8z"/>
				<path class="st0" d="M175.4,171.9c0,0.2,0.1,0.3,0.2,0.3c0.2,0,0.4-0.2,0.5-0.4c0-0.1,0-0.3-0.2-0.3c0,0,0,0,0,0
					C175.7,171.5,175.5,171.7,175.4,171.9z"/>
				<path class="st0" d="M98.7,116.4c0-0.2-0.1-0.3-0.3-0.3c-0.2-0.1-0.3,0-0.4,0.2c-0.1,0.2,0,0.3,0.2,0.4c0,0,0.1,0,0.1,0
					C98.5,116.7,98.7,116.6,98.7,116.4z"/>
				<path class="st0" d="M164.6,121.1c0.1-0.1,0-0.3-0.1-0.4c0,0,0,0-0.1,0c-0.1,0-0.3,0-0.4,0.4c0,0,0.1,0.2,0.3,0.2
					C164.4,121.4,164.5,121.3,164.6,121.1z"/>
				<path class="st0" d="M173.9,151.7c0,0.2,0.1,0.3,0.3,0.3s0.3,0,0.3-0.2c0-0.1-0.2-0.3-0.4-0.4
					C174,151.4,173.9,151.6,173.9,151.7z"/>
				<path class="st0" d="M199.5,104.9c-0.3,0-0.6,0.2-0.6,0.5c0,0.1,0.1,0.1,0.2,0.1C199.4,105.5,199.6,105.3,199.5,104.9z"/>
				<path class="st0" d="M190.3,167.8c-0.2,0.3,0,0.5,0.2,0.6c0,0,0.1,0,0.1,0c0.2-0.4,0.1-0.6-0.2-0.7
					C190.4,167.7,190.4,167.8,190.3,167.8z"/>
				<path class="st0" d="M181.7,183.7c0-0.2-0.1-0.3-0.3-0.4c-0.2,0-0.2,0-0.2,0.2c0,0.2,0.1,0.3,0.3,0.3
					C181.6,183.8,181.7,183.8,181.7,183.7C181.7,183.7,181.7,183.7,181.7,183.7z"/>
				<path class="st0" d="M172.9,149.9c0,0.1,0,0.3,0.1,0.4c0.1,0.1,0.2,0.1,0.3,0c0.1-0.1,0-0.3-0.2-0.4
					C173.1,149.8,172.9,149.8,172.9,149.9z"/>
				<path class="st0" d="M163.4,128.6c0-0.1,0-0.1,0-0.2l0.2-0.2c0.3-0.4,0.4-0.9,0.5-1.5c0.4-0.7,0.9-1.3,1.4-1.9
					c0.4-0.4,0.7-0.9,0.9-1.4c0.2-0.1,0.3-0.2,0.3-0.4c0.3-0.2,0.5-0.5,0.6-0.8c0.2-0.4-0.1-0.7-0.3-1c-0.1-0.3-0.3-0.2-0.5,0
					c-0.1,0-0.2,0.1-0.3,0.2c-0.5,0-1-0.6-1.3,0.2c-0.3,0.3-0.5,0.7-0.6,1.1c-0.2,0.5-0.5,0.9-0.8,1.3c-0.3,0.1-0.7,0.2-0.6,0.6
					c0.1,0.4-0.2,0.8-0.4,1.2c-0.4,0.7-0.4,0.9,0,1.5c0.2-0.1,0.3-0.2,0.4-0.4c-0.1,0.3-0.1,0.5,0,0.8c-0.1,0-0.1,0-0.2,0
					c-0.3,1-0.3,2.1-0.7,3c-0.1,0.2-0.2,0.4-0.3,0.7c-0.3-0.1-0.5,0.1-0.6,0.3c-0.1,0.2,0,0.4,0.3,0.5c0,0.1,0,0.2,0,0.3
					c0.1,0.3,0.3,0.3,0.4,0c0.1-0.1,0.1-0.1,0.1-0.2c0.2,0,0.3-0.1,0.4-0.2c0.1-0.3,0-0.4-0.3-0.5c0-0.1,0.1-0.2,0.1-0.3
					C162.7,130.6,163.1,129.6,163.4,128.6z"/>
				<path class="st0" d="M217.1,92.2L217.1,92.2c0,0.1,0.1,0.2,0.2,0.2c0,0.4-0.2,0.8,0.1,1.2c0.2,0.3,0.4,0.5,0.7,0.3
					c0.3-0.1,0.4-0.4,0.3-0.6c0,0,0,0,0-0.1c-0.2-0.5-0.3-1.1-0.5-1.6c0-0.2,0-0.3-0.1-0.4l0,0c-0.5-0.7-0.6,0.1-1,0.2h-0.2
					C216.4,91.9,216.6,92.2,217.1,92.2z"/>
				<path class="st0" d="M186.3,153.1c0.2-0.2,0.3-0.6,0.1-0.8c-0.3,0.1-0.4,0.4-0.3,0.7C186.2,153,186.2,153.1,186.3,153.1z"/>
				<path class="st0" d="M182.5,186.4c0,0.1,0,0.2,0.1,0.3c0,0,0,0,0,0c0.1,0,0.2,0,0.3-0.1s-0.1-0.2-0.1-0.3
					C182.7,186.3,182.6,186.3,182.5,186.4C182.5,186.4,182.5,186.4,182.5,186.4z"/>
				<path class="st0" d="M203.8,92.2c0.1,0,0.2-0.1,0.2-0.2c0-0.1,0-0.2-0.1-0.2c-0.1,0-0.2,0.1-0.2,0.1
					C203.7,92.1,203.7,92.2,203.8,92.2z"/>
				<path class="st0" d="M190.2,151.5c0.1,0,0.1,0,0.2,0s0-0.1,0-0.2c-0.1,0-0.1,0-0.2,0.1C190.1,151.5,190.1,151.5,190.2,151.5z"/>
				<path class="st0" d="M46,99c0.6-0.6,0.6-0.7-0.3-1l-0.1,0.6l0.2,0.1C45.9,98.8,45.9,98.9,46,99z"/>
				<path class="st0" d="M74,55.4c0.3,0.1,0.5,0.5,0.9,0.5c0.1-0.4-0.4-0.7-0.4-1c-0.5-0.6-1-1.2-1.4-1.8c-0.1,0.1-0.3,0.2-0.5,0.2
					c0.2,0.4,0.5,0.8,0.7,1.2C73.6,54.7,73.9,55,74,55.4z"/>
				<path class="st0" d="M67.9,110.9c0.3,0.5,0.7,0.9,1.2,1.1l0,0c0.1,0.1,0.1,0.1,0.2,0.2l0,0c0.1,0.2,0.3,0.1,0.4,0.3
					c0.3,0.1,0.5,0.3,0.6,0.5c0.2,0,0.3,0.1,0.4,0.3h0.1c0.4-0.3,0.1-0.5-0.1-0.6c-0.4-0.5-0.7-1-0.8-1.6c0-0.1-0.1-0.2-0.2-0.3l0,0
					c-0.1-0.1-0.1-0.2-0.2-0.3l0,0c-0.1-0.4-0.4-0.8-0.8-1C67.7,109.7,67.5,110.1,67.9,110.9z"/>
				<path class="st0" d="M69.1,123.1L69.1,123.1c0.2,0.2,0.4,0.2,0.6,0.1l0.5-0.4c0.1-0.1,0.1-0.3,0.3-0.4s0-0.1,0-0.2
					C69.9,122.3,69.3,122.3,69.1,123.1z"/>
				<path class="st0" d="M52.4,50.3c0.1,0,0.2,0,0.3-0.1c0,0,0-0.1,0-0.1c0-0.3-0.2-0.4-0.5-0.4c-0.1,0-0.1,0-0.2,0.1c0,0,0,0,0,0
					C52,50.1,52.2,50.3,52.4,50.3z"/>
				<path class="st0" d="M52.2,112.8l0.4,0.1c0.3,0,0.5,0,0.6-0.3c0.1-0.3-0.1-0.4-0.3-0.6c-0.2-0.2-0.5-0.3-0.8-0.3l0,0
					c-0.1,0.1-0.2,0.1-0.2,0.2c-0.1,0.1,0,0.4,0.1,0.6L52.2,112.8z"/>
				<polygon class="st0" points="40.5,100.2 40.5,100.2 40.5,100.2 				"/>
				<path class="st0" d="M40.5,100.2c-0.2-0.2-0.4-0.4-0.5-0.6c-0.1-0.1-0.3-0.2-0.4-0.1l0,0c-0.1,0.1-0.2,0.1-0.2,0.2
					C39.6,100.2,40,100.2,40.5,100.2z"/>
				<path class="st0" d="M33.5,136.1c0.2,0.2,0.4,0.2,0.6,0.1c-0.1-0.3-0.3-0.6-0.5-0.8h-0.4C33.2,135.7,33.3,136,33.5,136.1z"/>
				<path class="st0" d="M37,126.6c0.1,0,0.2,0,0.2-0.1c0,0,0,0,0,0c0-0.1-0.1-0.2-0.2-0.3c-0.1-0.1-0.2,0-0.2,0.1
					S36.8,126.6,37,126.6z"/>
				<path class="st0" d="M94.4,71.9c0.1-0.1,0.3,0,0.5-0.1c0.3-0.6,0.1-0.8-0.5-0.7h-0.2c-0.1,0-0.2,0.1-0.3,0.2
					c0,0.1,0,0.3-0.1,0.4l0.2,0.3L94.4,71.9z"/>
				<polygon class="st0" points="94.9,71.8 94.9,71.8 94.9,71.8 				"/>
				<path class="st0" d="M100.6,63.1l0.4,0.1c0.2-0.2,0.2-0.4,0.1-0.6l0,0c-0.3,0-0.6-0.2-0.9,0.1c0,0.1,0,0.1,0,0.2
					C100.3,63,100.5,63,100.6,63.1z"/>
				<path class="st0" d="M91.9,87.8c0.1,0.1,0.1,0.1,0.2,0.2c0.1,0,0.1,0,0.2,0c0.1-0.1,0.2-0.2,0.1-0.4c0,0,0,0,0,0
					c0-0.1,0-0.1,0-0.2c-0.1-0.2-0.2-0.2-0.4-0.1l0,0C91.8,87.5,91.8,87.7,91.9,87.8L91.9,87.8z"/>
				<path class="st0" d="M94.4,82.7c0,0.1,0,0.1,0.1,0.2c0,0.1,0.1,0.1,0.2,0c0-0.1,0-0.1,0-0.2C94.6,82.7,94.4,82.7,94.4,82.7z"/>
				<path class="st0" d="M79.9,123.3h0.2c0.1,0.1,0.1,0.2,0.2,0.2l0.2,0.1c0.1,0.1,0.1,0.1,0.2,0.2l1.7,1.7c0.2,0.1,0.4,0.2,0.4-0.2
					l0,0c-0.1-0.1-0.1-0.2-0.2-0.3l0,0c-0.1-0.1-0.1-0.2-0.2-0.3l0,0c0-0.1-0.1-0.2-0.2-0.3l0,0c-0.8-0.4-1.2-1.2-1.9-1.6
					c-0.2-0.3-0.4-0.5-0.8-0.6l0,0c-0.1-0.1-0.1-0.2-0.2-0.2l0,0l-0.2-0.2c-0.1,0-0.1,0-0.2-0.1l0,0c0-0.1-0.1-0.2-0.2-0.2
					c-0.6-0.4-1-1.1-1.7-1.2c-0.8-0.8-1.8-1.5-2.9-1.9c-0.4-0.2-0.9-0.3-1.3-0.2c-0.1-0.3-0.5-0.4-0.5-0.7l0,0l-0.2-0.3l0,0
					l-0.2-0.3c-0.1-0.1-0.1-0.2-0.1-0.3l-0.2-0.3c-0.1-0.1-0.1-0.1-0.2-0.2l0,0c-0.1-0.1-0.1-0.2-0.2-0.2h-0.2
					c-0.1-0.1-0.1-0.2-0.2-0.2h-0.1h-0.1c-0.1-0.1-0.2-0.2-0.4-0.1c0,0,0,0,0,0c0,0,0,0-0.1,0.1c0,0,0,0.1,0,0.1l0,0
					c0.1,0.1,0.1,0.2,0.2,0.3c0,0.1,0,0.1,0,0.2c0.1,0.2,0,0.5,0.1,0.7l0.2,0.3c0.1,0.1,0.1,0.2,0.2,0.2l0.4,0.1l0.2,0.2l0,0
					c0.1,0.1,0.2,0.2,0.4,0.3l0.5,0.7c0.2,0.2,0.4,0.2,0.6,0.2v-0.1c0.1,0.5,0.6,0.6,1,0.8c0.2,0.1,0.3,0.3,0.5,0.2
					c0.8-0.2,1.4,0.3,2,0.6l0,0c0.1,0.1,0.1,0.2,0.2,0.2c0.2,0.6,0.5,1.1,0.8,1.6l0.3,0.1l0,0c0,0.1,0,0.1,0,0.2l0.6,0.1
					c0.1,0.1,0.3,0.1,0.4,0l0,0c0.1-0.1,0.2-0.1,0.4-0.1c0,0,0,0.1,0.1,0.1l0.4,0.1c0,0,0.1,0,0.2,0
					C79.9,123.2,79.9,123.3,79.9,123.3z"/>
				<path class="st0" d="M75.1,122.1c0,0.1-0.1,0.3-0.1,0.4c0.2,0.2,0.4,0.2,0.6,0.1l0,0C75.7,122,75.7,122,75.1,122.1z"/>
				<path class="st0" d="M84.3,100.1c0.2,0,0.5,0,0.7-0.1c0.2-0.2,0.2-0.4,0.1-0.6c0-0.1,0-0.1,0-0.2c-0.2-0.1-0.5-0.1-0.7-0.2
					c-0.2,0-0.4-0.1-0.5,0.2c-0.1,0.2,0,0.4,0.1,0.6C84,99.9,84.2,100,84.3,100.1z"/>
				<path class="st0" d="M76.8,103.7c-0.2-0.3-0.4-0.8-0.9-0.5c-0.5,0.3-0.1,0.5,0,0.7C76.2,104.1,76.6,104,76.8,103.7z"/>
				<path class="st0" d="M210.6,99.8C210.6,99.8,210.6,99.7,210.6,99.8C210.6,99.9,210.6,99.8,210.6,99.8z"/>
				<path class="st0" d="M54.6,77.7c0.1,0,0.1,0,0.2,0l0.3-0.2l0,0c0.1-0.1,0.4-0.1,0.3-0.4c-0.1-0.1-0.1-0.2-0.2-0.3l-0.5-0.1
					c-0.2,0.1-0.3,0.4-0.1,0.6C54.5,77.6,54.5,77.7,54.6,77.7z"/>
				<polygon class="st0" points="54.4,77.5 54.4,77.5 54.4,77.5 				"/>
				<path class="st0" d="M72.2,52.7c0,0.1,0,0.1,0,0.2l0.2,0C72.4,52.9,72.3,52.8,72.2,52.7z"/>
				<path class="st0" d="M70,71.3l0.2,0.2l0,0c0.2,0.1,0.4,0.3,0.4,0.5c0,0.9,0.6,1.1,1.3,1.1c0.2,0.4,0.5,0.5,0.8,0.8
					s0.7,0.4,1,0.8v0.1c0,0.1,0.1,0.1,0.1,0.2c0,0.1,0.1,0.1,0.2,0.1c0.1,0.1,0.2,0.1,0.3,0.2l0.1,0.1l0.1,0.1l0.2,0.2v0.1l0,0
					c0,0,0.1,0.1,0.1,0.1l0,0l0,0v0.1V76c0,0.1,0.1,0.1,0.1,0.2l0.1,0.1c0,0.1,0.1,0.1,0.1,0.2c0,0.1,0.1,0.1,0.2,0.1l0.2,0.1
					l0.1,0.1c0,0.1,0.1,0.1,0.1,0.2l0.1,0.1l0.1,0.2c0,0.1,0.1,0.1,0.2,0.1l0.2,0.2l0.1,0.1c0,0.1,0.1,0.1,0.1,0.2
					c0.1,0,0.1,0.1,0.2,0.1c0.1,0,0.2,0,0.3,0.1l0.2,0.1c0.1,0.1,0.1,0.1,0.2,0.2l0,0c0.1,0.1,0.3,0.1,0.4,0.3c0.1,0,0.1,0,0.2,0.1
					c0.2,0,0.5,0.4,0.6-0.1c-1.1-1-2.1-2.1-3.2-3.1l0,0c0-0.1-0.1-0.1-0.2-0.2c-0.7-0.9-1.5-1.8-2.4-2.6c-0.5-0.7-1.2-1.1-1.7-1.8
					c-0.1-0.1-0.3-0.2-0.4-0.3c-0.5-0.2-0.7-0.1-0.7,0.6C69.9,71.2,69.9,71.2,70,71.3L70,71.3z"/>
				<path class="st0" d="M67.9,64.7c0.1,0,0.3-0.1,0.3-0.3c0-0.1-0.1-0.2-0.2-0.2c0,0,0,0,0,0c-0.2,0-0.3,0-0.3,0.2
					C67.6,64.6,67.7,64.7,67.9,64.7C67.9,64.7,67.9,64.7,67.9,64.7z"/>
				<path class="st0" d="M87.7,85.5c0.2,0,0.2-0.3,0.2-0.5L87.6,85C87.6,85.2,87.4,85.5,87.7,85.5z"/>
				<path class="st0" d="M70.7,87c0.7-0.4,1.4-0.8,2-1.2c0.8-0.5,1.6-0.8,2.5-1.1l0.5-0.5L76,84l0,0c0.7-0.2,1.3-0.4,1.8-0.8
					c0.1-0.1,0.2-0.1,0.3-0.2h0.2c0.1,0,0.2-0.1,0.2-0.2l0,0c1.4-0.4,2.6-1.1,3.8-2c0-0.1-0.1-0.1-0.2-0.1c0,0,0,0,0,0h-0.2
					c-0.3,0.2-0.7,0.3-1.1,0.3c-0.1,0.1-0.3,0.2-0.5,0.1c-0.7,0.2-1.5,0.2-2,1c-0.1,0-0.1,0-0.2,0c-0.1,0-0.2,0-0.3,0.1h-0.1
					l-0.3,0.1c-0.5,0.3-1.2,0.3-1.4,1L76,83.2c-0.1,0-0.3-0.1-0.4-0.1c-0.4-0.1-0.8,0-1.1,0.3c-1,0.8-2.3,1.1-3.3,1.9
					c-0.1,0.4-0.5,0.7-1,0.7L70,86.3l-0.2,0.2C70,87.2,70.2,87.4,70.7,87z"/>
				<path class="st0" d="M88,91.8L88,91.8V92c0.3,0.1,0.6,0,0.8,0.3h0.1l0,0c0,0.1,0,0.2,0.1,0.2l0.2,0.1c0.1,0.1,0.1,0.1,0.2,0.2
					l0,0l0.2,0.2c0.1,0.1,0.1,0.2,0.2,0.3c0.5,0.4,0.8,0.9,1.1,1.5l1,1c0.8,1.1,1.8,2,1.9,3.5c0,0.2,0.2,0.8,0.6,0.2
					c0.1-0.2,0.3-0.1,0.4,0.1l0.5,0.5l0,0c0.1,0.1,0.1,0.2,0.2,0.3l0,0c0.1,0.1,0.1,0.2,0.2,0.3l0,0c0.1,0.1,0.1,0.2,0.2,0.3
					c0.2,0.4,0.3,0.9,0.7,1.2c0.7,1.2,1.6,2.3,2.7,3.3l0,0c0.1,0.1,0.1,0.1,0.2,0.2l0,0c0.1,0.1,0.1,0.2,0.2,0.2l0,0
					c0.1,0.1,0.1,0.2,0.2,0.3c0.7,1.2,1.6,2.4,2.5,3.4c0.4,0.7,0.9,1.4,1.4,1.9c0.1,0.1,0.1,0.2,0.2,0.3l0,0
					c0.5,1.2,1.3,2.2,2.1,3.1c0.1,0.2,0.3,0.1,0.4,0.3l0,0c0.1,0.1,0.2,0.3,0.4,0.3c0.2-0.1,0.2-0.2,0.1-0.4l0,0l-0.2-0.2l0,0
					c-0.1-0.1-0.1-0.2-0.2-0.3c-0.3-1-0.8-1.9-1.5-2.6l0,0l-0.2-0.2l0,0l-0.2-0.2l0,0l-0.2-0.3l0,0c-0.1-0.1-0.1-0.2-0.2-0.3
					c0-0.4-0.2-0.8-0.5-1c-0.3-0.2-0.5-0.5-0.7-0.8c0.3-1.2-0.5-2.2-0.6-3.3c0,0,0-0.1-0.1-0.1c-0.1,0-0.3-0.3-0.5-0.3
					c-0.2,0.1-0.2,0.3-0.3,0.4c-0.1,0.2,0.2,0.6-0.1,1c-0.5-0.3-0.7-0.9-1.1-1.2c-0.1-0.1-0.1-0.2-0.2-0.3l0,0
					c-0.1-0.1-0.1-0.2-0.2-0.2l0,0c-0.1-0.1-0.1-0.2-0.2-0.3l0,0c-0.6-1.3-1.4-2.5-2.4-3.5l-0.2-0.2l0,0c-0.2-0.4-0.4-0.7-0.7-1
					c-0.1-0.1-0.1-0.2-0.2-0.2l0,0c0-0.1-0.1-0.2-0.2-0.2c-0.1,0-0.1,0-0.2-0.1c-0.1-0.1-0.2-0.2-0.2-0.3l0,0l-3-4
					c0-0.1,0-0.1,0-0.2c0-0.1-0.1-0.2-0.2-0.2c-0.4-0.4-0.8-0.9-1.1-1.5c-0.6-0.7-1.4-1.3-1-2.3c0.1-0.4,0.1-0.8,0.2-1.2
					c0-0.2-0.1-0.2-0.3-0.1c-0.2-0.1-0.4-0.1-0.5-0.1c-0.2,0.2-0.4,0.4-0.7,0.3c-0.3-0.1-0.6-0.2-0.9,0l0,0
					C87.5,91.1,87.5,91.2,88,91.8z"/>
				<path class="st0" d="M66.7,104.3l0.2,0.2l0.4,0.1c0.1-0.1,0.3,0,0.5-0.1c0.1,0,0.2-0.1,0.2-0.2c0-0.1,0-0.3,0.1-0.4
					c0-0.1-0.1-0.2-0.2-0.3l0,0c-0.1-0.1-0.1-0.1-0.2-0.2l0,0c-0.2-0.2-0.4-0.2-0.6-0.1h-0.2l-0.3,0.2c-0.1,0.1-0.1,0.3-0.3,0.4
					c0,0.1,0,0.1,0,0.2c0.1,0.1,0.1,0.2,0.2,0.3C66.6,104.2,66.6,104.2,66.7,104.3z"/>
				<polygon class="st0" points="67.7,104.4 67.7,104.4 67.7,104.4 				"/>
				<path class="st0" d="M79.4,119.1c0.1,0.2,0.3,0.4,0.6,0.4c0.3,0,0.5-0.1,0.7-0.3c1-0.6,1.9-1.4,2.8-2.2
					c-0.2-0.1-0.4-0.2-0.6-0.1c-1.2,0.4-2.3,1-3.3,1.7C79.4,118.8,79.3,119,79.4,119.1z"/>
				<path class="st0" d="M78.4,120.2c0-0.2-0.1-0.4-0.3-0.4c0,0,0,0,0,0c-0.1-0.1-0.3,0-0.4,0.2c0,0,0,0.1,0,0.1
					c0,0.3,0.2,0.4,0.4,0.5C78.2,120.5,78.3,120.5,78.4,120.2C78.4,120.3,78.4,120.3,78.4,120.2z"/>
			</g>
		</g>
	</g>
</g>
</svg>
