<svg xmlns="http://www.w3.org/2000/svg" viewBox="0 0 69.12 103.68"><defs><style>.cls-1{fill:#f2f2f2;}.cls-2,.cls-4{fill:#333;}.cls-3{fill:#4d4d4d;}.cls-4{font-size:10.89px;font-family:Righteous-Regular, Righteous;}</style></defs><title>Spade_A</title><g id="Layer_2" data-name="Layer 2"><g id="Layer_1-2" data-name="Layer 1"><rect class="cls-1" width="69.12" height="103.68" rx="2.72" ry="2.72"/><path class="cls-2" d="M42.23,39.36a49.66,49.66,0,0,1-6.45-5.94,1.56,1.56,0,0,0-1.21-.57h-.1a1.59,1.59,0,0,0-1.22.57,49.56,49.56,0,0,1-6.44,5.94C22,43.3,17,47.39,17,53.71a9.33,9.33,0,0,0,9.76,9.75c2.78,0,5.2-1.64,6.84-3.13a24.05,24.05,0,0,1-5.05,10.5H40.47a24.23,24.23,0,0,1-5-10.52c1.65,1.5,4.07,3.15,6.85,3.15A9.34,9.34,0,0,0,52,53.71C52,47.4,47,43.31,42.23,39.36Z"/><path class="cls-3" d="M34.48,70.83v-38h0a1.59,1.59,0,0,0-1.22.57,49.56,49.56,0,0,1-6.44,5.94C22,43.3,17,47.39,17,53.71a9.33,9.33,0,0,0,9.76,9.75c2.78,0,5.2-1.64,6.84-3.13a24.05,24.05,0,0,1-5.05,10.5Z"/><path class="cls-2" d="M8.94,13.77a9.63,9.63,0,0,1-1.28-1.18.32.32,0,0,0-.24-.11h0a.32.32,0,0,0-.24.11,9.63,9.63,0,0,1-1.28,1.18c-1,.79-1.95,1.6-1.95,2.86a1.85,1.85,0,0,0,1.94,1.93,2.11,2.11,0,0,0,1.36-.62,4.77,4.77,0,0,1-1,2.09H8.59a4.85,4.85,0,0,1-1-2.09A2.09,2.09,0,0,0,9,18.56a1.85,1.85,0,0,0,1.94-1.93C10.89,15.37,9.9,14.56,8.94,13.77Z"/><path class="cls-3" d="M7.4,20V12.48h0a.32.32,0,0,0-.24.11,9.63,9.63,0,0,1-1.28,1.18c-1,.79-1.95,1.6-1.95,2.86a1.85,1.85,0,0,0,1.94,1.93,2.11,2.11,0,0,0,1.36-.62,4.77,4.77,0,0,1-1,2.09Z"/><text class="cls-4" transform="translate(3.74 10.68)">A</text><path class="cls-2" d="M60.18,89.91a9.63,9.63,0,0,1,1.28,1.18.32.32,0,0,0,.24.11h0a.33.33,0,0,0,.25-.11,8.53,8.53,0,0,1,1.28-1.18c1-.79,2-1.6,2-2.86a1.85,1.85,0,0,0-1.94-1.93,2.06,2.06,0,0,0-1.36.62,4.79,4.79,0,0,1,1-2.09H60.53a4.79,4.79,0,0,1,1,2.09,2.14,2.14,0,0,0-1.36-.62,1.85,1.85,0,0,0-1.94,1.93C58.23,88.31,59.22,89.12,60.18,89.91Z"/><path class="cls-3" d="M61.72,83.65V91.2h0a.33.33,0,0,0,.25-.11,8.53,8.53,0,0,1,1.28-1.18c1-.79,2-1.6,2-2.86a1.85,1.85,0,0,0-1.94-1.93,2.06,2.06,0,0,0-1.36.62,4.79,4.79,0,0,1,1-2.09Z"/><text class="cls-4" transform="translate(65.38 93) rotate(180)">A</text></g></g></svg>