<svg xmlns="http://www.w3.org/2000/svg" viewBox="0 0 69.12 103.68"><defs><style>.cls-1{fill:#f2f2f2;}.cls-2,.cls-4{fill:#333;}.cls-3{fill:#4d4d4d;}.cls-4{font-size:10.89px;font-family:Righteous-Regular, Righteous;}</style></defs><title>spade_7</title><g id="Layer_2" data-name="Layer 2"><g id="Layer_1-2" data-name="Layer 1"><rect class="cls-1" width="69.12" height="103.68" rx="2.72" ry="2.72"/><path class="cls-2" d="M21.76,22.53a19.29,19.29,0,0,1-2.47-2.28.62.62,0,0,0-.47-.22h0a.62.62,0,0,0-.47.22,18.65,18.65,0,0,1-2.47,2.28C14,24,12.08,25.61,12.08,28a3.57,3.57,0,0,0,3.74,3.73,4,4,0,0,0,2.63-1.2,9.25,9.25,0,0,1-1.94,4h4.58a9.25,9.25,0,0,1-1.94-4,4.1,4.1,0,0,0,2.63,1.2A3.57,3.57,0,0,0,25.52,28C25.52,25.61,23.61,24,21.76,22.53Z"/><path class="cls-3" d="M18.79,34.61V20h0a.62.62,0,0,0-.47.22,18.65,18.65,0,0,1-2.47,2.28C14,24,12.08,25.61,12.08,28a3.57,3.57,0,0,0,3.74,3.73,4,4,0,0,0,2.63-1.2,9.25,9.25,0,0,1-1.94,4Z"/><path class="cls-2" d="M8.94,13.77a9.63,9.63,0,0,1-1.28-1.18.32.32,0,0,0-.24-.11h0a.32.32,0,0,0-.24.11,9.63,9.63,0,0,1-1.28,1.18c-1,.79-1.95,1.6-1.95,2.86a1.85,1.85,0,0,0,1.94,1.93,2.11,2.11,0,0,0,1.36-.62,4.77,4.77,0,0,1-1,2.09H8.59a4.85,4.85,0,0,1-1-2.09A2.11,2.11,0,0,0,9,18.56a1.85,1.85,0,0,0,1.94-1.93C10.89,15.37,9.9,14.56,8.94,13.77Z"/><path class="cls-3" d="M7.4,20V12.48h0a.32.32,0,0,0-.24.11,9.63,9.63,0,0,1-1.28,1.18c-1,.79-1.95,1.6-1.95,2.86a1.85,1.85,0,0,0,1.94,1.93,2.11,2.11,0,0,0,1.36-.62,4.77,4.77,0,0,1-1,2.09Z"/><path class="cls-2" d="M60.18,89.91a9.63,9.63,0,0,1,1.28,1.18.32.32,0,0,0,.24.11h0a.33.33,0,0,0,.25-.11,9,9,0,0,1,1.28-1.18c1-.79,2-1.6,2-2.85a1.85,1.85,0,0,0-1.94-1.94,2.09,2.09,0,0,0-1.36.62,4.79,4.79,0,0,1,1-2.09H60.53a4.93,4.93,0,0,1,1,2.09,2.16,2.16,0,0,0-1.37-.62,1.85,1.85,0,0,0-1.94,1.94C58.23,88.31,59.23,89.12,60.18,89.91Z"/><path class="cls-3" d="M61.72,83.65V91.2h0a.33.33,0,0,0,.25-.11,9,9,0,0,1,1.28-1.18c1-.79,2-1.6,2-2.85a1.85,1.85,0,0,0-1.94-1.94,2.09,2.09,0,0,0-1.36.62,4.79,4.79,0,0,1,1-2.09Z"/><path class="cls-2" d="M53.22,22.53a19.39,19.39,0,0,1-2.48-2.28.6.6,0,0,0-.46-.22h0a.62.62,0,0,0-.47.22,19.29,19.29,0,0,1-2.47,2.28C45.45,24,43.54,25.61,43.54,28a3.57,3.57,0,0,0,3.74,3.73,4,4,0,0,0,2.63-1.2,9.37,9.37,0,0,1-1.94,4h4.57a9.37,9.37,0,0,1-1.94-4,4.14,4.14,0,0,0,2.63,1.2A3.58,3.58,0,0,0,57,28C57,25.61,55.06,24,53.22,22.53Z"/><path class="cls-3" d="M50.24,34.61V20h0a.62.62,0,0,0-.47.22,19.29,19.29,0,0,1-2.47,2.28C45.45,24,43.54,25.61,43.54,28a3.57,3.57,0,0,0,3.74,3.73,4,4,0,0,0,2.63-1.2,9.37,9.37,0,0,1-1.94,4Z"/><path class="cls-2" d="M21.76,47.05a19.29,19.29,0,0,1-2.47-2.28.62.62,0,0,0-.47-.22h0a.62.62,0,0,0-.47.22,18.65,18.65,0,0,1-2.47,2.28c-1.85,1.51-3.76,3.08-3.76,5.51a3.58,3.58,0,0,0,3.74,3.74,4.1,4.1,0,0,0,2.63-1.2,9.22,9.22,0,0,1-1.94,4h4.58a9.25,9.25,0,0,1-1.94-4,4.06,4.06,0,0,0,2.63,1.21,3.58,3.58,0,0,0,3.74-3.74C25.52,50.14,23.61,48.57,21.76,47.05Z"/><path class="cls-3" d="M18.79,59.13V44.55h0a.62.62,0,0,0-.47.22,18.65,18.65,0,0,1-2.47,2.28c-1.85,1.51-3.76,3.08-3.76,5.51a3.58,3.58,0,0,0,3.74,3.74,4.1,4.1,0,0,0,2.63-1.2,9.22,9.22,0,0,1-1.94,4Z"/><path class="cls-2" d="M53.22,47.05a19.39,19.39,0,0,1-2.48-2.28.6.6,0,0,0-.46-.22h0a.62.62,0,0,0-.47.22,19.29,19.29,0,0,1-2.47,2.28c-1.85,1.51-3.76,3.08-3.76,5.51a3.58,3.58,0,0,0,3.74,3.74,4.1,4.1,0,0,0,2.63-1.2,9.33,9.33,0,0,1-1.94,4h4.57a9.37,9.37,0,0,1-1.94-4,4.1,4.1,0,0,0,2.63,1.21A3.58,3.58,0,0,0,57,52.56C57,50.14,55.06,48.57,53.22,47.05Z"/><path class="cls-3" d="M50.24,59.13V44.55h0a.62.62,0,0,0-.47.22,19.29,19.29,0,0,1-2.47,2.28c-1.85,1.51-3.76,3.08-3.76,5.51a3.58,3.58,0,0,0,3.74,3.74,4.1,4.1,0,0,0,2.63-1.2,9.33,9.33,0,0,1-1.94,4Z"/><path class="cls-2" d="M21.76,71.57a18,18,0,0,1-2.47-2.28.64.64,0,0,0-.47-.21h0a.64.64,0,0,0-.47.21,17.39,17.39,0,0,1-2.47,2.28c-1.85,1.52-3.76,3.09-3.76,5.51a3.58,3.58,0,0,0,3.74,3.74,4.1,4.1,0,0,0,2.63-1.2,9.17,9.17,0,0,1-1.94,4h4.58a9.22,9.22,0,0,1-1.94-4,4.1,4.1,0,0,0,2.63,1.2,3.58,3.58,0,0,0,3.74-3.74C25.52,74.66,23.61,73.09,21.76,71.57Z"/><path class="cls-3" d="M18.79,83.65V69.08h0a.64.64,0,0,0-.47.21,17.39,17.39,0,0,1-2.47,2.28c-1.85,1.52-3.76,3.09-3.76,5.51a3.58,3.58,0,0,0,3.74,3.74,4.1,4.1,0,0,0,2.63-1.2,9.17,9.17,0,0,1-1.94,4Z"/><path class="cls-2" d="M53.22,71.57a18,18,0,0,1-2.48-2.28.62.62,0,0,0-.46-.21h0a.64.64,0,0,0-.47.21,18,18,0,0,1-2.47,2.28c-1.85,1.52-3.76,3.09-3.76,5.51a3.58,3.58,0,0,0,3.74,3.74,4.1,4.1,0,0,0,2.63-1.2,9.28,9.28,0,0,1-1.94,4h4.57a9.33,9.33,0,0,1-1.94-4,4.14,4.14,0,0,0,2.63,1.2A3.58,3.58,0,0,0,57,77.08C57,74.66,55.06,73.09,53.22,71.57Z"/><path class="cls-3" d="M50.24,83.65V69.08h0a.64.64,0,0,0-.47.21,18,18,0,0,1-2.47,2.28c-1.85,1.52-3.76,3.09-3.76,5.51a3.58,3.58,0,0,0,3.74,3.74,4.1,4.1,0,0,0,2.63-1.2,9.28,9.28,0,0,1-1.94,4Z"/><text class="cls-4" transform="translate(4.6 10.68)">7</text><text class="cls-4" transform="translate(64.52 93.01) rotate(180)">7</text><path class="cls-2" d="M37.52,33.62a19.29,19.29,0,0,1-2.47-2.28.62.62,0,0,0-.47-.22h0a.58.58,0,0,0-.46.22,19.39,19.39,0,0,1-2.48,2.28c-1.85,1.51-3.76,3.08-3.76,5.51a3.58,3.58,0,0,0,3.74,3.74,4.1,4.1,0,0,0,2.63-1.2,9.22,9.22,0,0,1-1.94,4h4.58a9.25,9.25,0,0,1-1.94-4,4.06,4.06,0,0,0,2.63,1.21,3.58,3.58,0,0,0,3.74-3.74C41.28,36.71,39.37,35.14,37.52,33.62Z"/><path class="cls-3" d="M34.55,45.7V31.12h0a.58.58,0,0,0-.46.22,19.39,19.39,0,0,1-2.48,2.28c-1.85,1.51-3.76,3.08-3.76,5.51a3.58,3.58,0,0,0,3.74,3.74,4.1,4.1,0,0,0,2.63-1.2,9.22,9.22,0,0,1-1.94,4Z"/></g></g></svg>